<?xml version="1.0" encoding="UTF-8" standalone="no"?>
<svg xmlns="http://www.w3.org/2000/svg" version="1.1" viewBox="0.00 0.00 303.00 132.00">
  <g stroke-width="2.00" fill="none" stroke-linecap="butt">
    <path stroke="#75ca12" vector-effect="non-scaling-stroke" d="   M 268.33 34.48   L 255.64 34.22"></path>
    <path stroke="#75ca12" vector-effect="non-scaling-stroke" d="   M 224.34 34.30   L 211.74 34.45"></path>
    <path stroke="#5dc11e" vector-effect="non-scaling-stroke" d="   M 300.84 62.02   Q 257.56 61.84 214.30 62.03   Q 196.81 62.10 179.33 63.05"></path>
    <path stroke="#48b92c" vector-effect="non-scaling-stroke" d="   M 294.23 91.77   L 186.04 92.55"></path>
    <path stroke="#2caf42" vector-effect="non-scaling-stroke" d="   M 288.64 104.48   L 191.43 104.51"></path>
  </g>
  <path fill="#82cf0b" d="   M 243.13 0.00   Q 252.12 2.20 257.25 10.02   Q 259.61 13.63 260.77 16.23   Q 263.44 22.16 268.33 34.48   L 255.64 34.22   Q 253.41 28.34 251.05 22.74   Q 248.95 17.76 245.47 14.06   Q 242.27 10.66 238.03 11.74   C 235.53 12.37 232.59 15.68 231.44 17.72   Q 227.56 24.60 224.34 34.30   L 211.74 34.45   Q 215.24 25.18 218.54 17.55   Q 221.90 9.77 227.15 4.90   Q 230.87 1.44 236.89 0.00   L 243.13 0.00   Z"></path>
  <rect fill="#212121" x="-9.00" y="-31.53" transform="translate(63.02,64.50) rotate(-0.1)" width="18.00" height="63.06" rx="8.62"></rect>
  <path fill="#68c518" d="   M 224.34 34.30   L 255.64 34.22   L 268.33 34.48   Q 273.75 35.63 281.70 36.59   Q 290.41 37.64 299.20 41.28   Q 300.43 41.79 303.00 43.79   L 303.00 47.14   L 300.84 62.02   Q 257.56 61.84 214.30 62.03   Q 196.81 62.10 179.33 63.05   Q 178.02 54.66 177.04 46.24   Q 176.73 43.55 178.70 42.46   C 181.48 40.94 184.17 39.79 187.39 39.00   Q 199.55 36.03 211.74 34.45   L 224.34 34.30   Z"></path>
  <circle fill="#212121" cx="90.00" cy="50.99" r="9.13"></circle>
  <path fill="#212121" d="   M 126.41 86.76   Q 134.01 86.75 142.75 86.74   C 144.30 86.74 146.55 87.01 147.90 87.73   Q 154.52 91.28 152.61 98.84   Q 151.79 102.10 148.72 103.88   Q 146.81 104.98 142.97 105.00   Q 128.81 105.05 123.15 105.03   Q 117.57 105.00 115.32 103.72   Q 111.49 101.53 109.29 97.70   Q 108.07 95.59 108.06 89.87   Q 107.96 57.67 107.99 52.31   Q 108.01 47.84 109.18 46.14   Q 112.68 41.05 119.07 42.11   Q 122.18 42.62 124.80 46.14   Q 126.14 47.96 126.03 52.32   Q 125.99 53.83 126.01 86.36   A 0.40 0.40 0.0 0 0 126.41 86.76   Z"></path>
  <path fill="#212121" d="   M 0.00 98.30   L 0.00 93.80   Q 2.40 86.81 9.27 86.77   Q 17.71 86.73 26.55 86.76   Q 27.02 86.76 27.02 86.30   Q 26.99 61.42 26.97 60.86   Q 26.80 57.13 28.25 55.12   Q 32.25 49.56 38.82 51.31   Q 41.77 52.09 44.07 55.63   Q 45.17 57.33 45.02 61.70   Q 44.99 62.81 45.00 89.55   Q 45.00 95.00 43.65 97.72   Q 41.67 101.73 37.81 103.66   Q 35.11 105.02 30.00 105.04   Q 24.04 105.06 9.96 105.00   Q 6.00 104.98 3.99 103.64   Q 1.23 101.80 0.00 98.30   Z"></path>
  <path fill="#52bd24" d="   M 300.84 62.02   Q 298.94 77.20 294.23 91.77   L 186.04 92.55   Q 181.28 78.16 179.33 63.05   Q 196.81 62.10 214.30 62.03   Q 257.56 61.84 300.84 62.02   Z"></path>
  <path fill="#212121" d="   M 80.98 104.41   Q 81.03 98.04 80.98 77.75   Q 80.97 72.88 85.22 70.25   C 89.94 67.33 95.89 69.19 98.37 74.23   Q 99.09 75.67 99.01 79.53   Q 98.94 82.65 99.05 107.18   Q 99.08 113.23 97.77 115.63   Q 95.61 119.55 91.82 121.67   Q 89.46 122.98 84.33 123.01   Q 76.55 123.05 64.02 123.02   Q 60.01 123.02 58.13 121.79   Q 53.22 118.57 54.08 112.11   Q 54.54 108.71 58.33 106.11   Q 60.18 104.84 64.93 104.94   Q 73.58 105.12 80.45 104.94   Q 80.97 104.93 80.98 104.41   Z"></path>
  <path fill="#3db534" d="   M 294.23 91.77   L 288.64 104.48   L 191.43 104.51   L 186.04 92.55   L 294.23 91.77   Z"></path>
  <path fill="#1ba94f" d="   M 288.64 104.48   Q 273.62 128.42 245.52 132.00   L 234.54 132.00   Q 206.38 128.37 191.43 104.51   L 288.64 104.48   Z"></path>
  <path fill="#212121" d="   M 119.32 132.00   L 114.81 132.00   Q 109.10 130.13 108.10 125.22   Q 106.99 119.82 110.84 116.29   Q 114.00 113.39 118.36 114.00   Q 121.51 114.43 123.75 116.81   Q 125.67 118.84 125.99 122.07   Q 126.69 129.04 119.32 132.00   Z"></path>
</svg>
