<?xml version="1.0" encoding="UTF-8" standalone="no"?>
<!DOCTYPE svg PUBLIC "-//W3C//DTD SVG 1.1//EN" "http://www.w3.org/Graphics/SVG/1.1/DTD/svg11.dtd">
<svg xmlns="http://www.w3.org/2000/svg" version="1.1" viewBox="0.00 0.00 1080.00 1080.00">
<path stroke="#f4a0ab" stroke-width="2.00" fill="none" stroke-linecap="butt" vector-effect="non-scaling-stroke" d="
  M 655.68 355.34
  C 650.81 352.07 645.96 348.68 641.09 345.11
  C 633.82 339.79 627.34 339.53 621.13 346.49
  C 576.66 396.27 499.06 397.44 454.16 347.04
  C 450.49 342.92 446.56 340.29 441.04 341.41
  Q 437.80 342.06 433.13 345.47
  Q 424.86 351.49 416.09 357.46
  Q 413.84 358.99 412.42 361.37
  C 408.94 367.22 410.76 372.63 415.18 377.67
  C 480.45 452.07 592.80 452.36 658.70 378.68
  C 663.50 373.31 666.26 367.85 662.22 361.23
  Q 660.65 358.66 655.68 355.34"
/>
<path fill="#e94157" d="
  M 629.79 593.46
  Q 612.90 597.27 596.49 597.28
  Q 471.42 597.36 341.43 597.29
  C 328.26 597.29 318.17 587.37 318.16 574.36
  Q 318.13 380.03 318.03 184.23
  Q 318.02 178.16 319.02 174.73
  C 321.13 167.45 327.29 161.44 334.68 159.42
  Q 337.82 158.56 343.54 158.57
  Q 470.39 158.69 588.62 158.57
  Q 600.51 158.56 608.96 159.28
  C 692.92 166.51 756.58 236.94 756.68 321.19
  Q 756.74 376.87 756.64 437.28
  Q 756.59 466.00 745.19 495.17
  C 725.77 544.86 682.05 581.69 629.79 593.46
  Z
  M 655.68 355.34
  C 650.81 352.07 645.96 348.68 641.09 345.11
  C 633.82 339.79 627.34 339.53 621.13 346.49
  C 576.66 396.27 499.06 397.44 454.16 347.04
  C 450.49 342.92 446.56 340.29 441.04 341.41
  Q 437.80 342.06 433.13 345.47
  Q 424.86 351.49 416.09 357.46
  Q 413.84 358.99 412.42 361.37
  C 408.94 367.22 410.76 372.63 415.18 377.67
  C 480.45 452.07 592.80 452.36 658.70 378.68
  C 663.50 373.31 666.26 367.85 662.22 361.23
  Q 660.65 358.66 655.68 355.34
  Z"
/>
<path fill="#ffffff" d="
  M 641.09 345.11
  C 645.96 348.68 650.81 352.07 655.68 355.34
  Q 660.65 358.66 662.22 361.23
  C 666.26 367.85 663.50 373.31 658.70 378.68
  C 592.80 452.36 480.45 452.07 415.18 377.67
  C 410.76 372.63 408.94 367.22 412.42 361.37
  Q 413.84 358.99 416.09 357.46
  Q 424.86 351.49 433.13 345.47
  Q 437.80 342.06 441.04 341.41
  C 446.56 340.29 450.49 342.92 454.16 347.04
  C 499.06 397.44 576.66 396.27 621.13 346.49
  C 627.34 339.53 633.82 339.79 641.09 345.11
  Z"
/>
<path fill="#e94157" d="
  M 354.08 721.26
  Q 359.54 721.30 364.74 721.22
  C 402.99 720.62 435.61 747.77 440.95 785.54
  Q 441.95 792.65 441.82 805.44
  Q 441.56 831.01 441.82 859.18
  C 441.87 865.18 438.04 867.85 432.43 867.85
  Q 352.81 867.81 274.12 867.82
  C 246.91 867.82 224.03 849.73 218.90 823.04
  Q 217.74 816.99 217.79 804.00
  Q 217.97 756.38 217.83 707.45
  C 217.81 702.28 220.93 698.80 226.49 698.83
  Q 236.06 698.89 245.43 698.73
  C 251.51 698.63 255.26 701.33 255.26 707.59
  Q 255.31 760.23 255.24 812.14
  C 255.23 823.06 263.46 830.43 274.10 830.42
  Q 340.47 830.33 403.83 830.37
  A 0.28 0.27 -89.0 0 0 404.11 830.09
  Q 404.13 814.05 404.10 796.59
  C 404.08 779.45 393.10 764.97 376.80 760.27
  Q 371.56 758.76 362.24 758.80
  Q 325.84 758.98 293.40 758.84
  Q 290.31 758.82 288.18 756.80
  C 284.82 753.59 284.94 749.35 287.67 745.76
  Q 316.82 707.40 342.82 673.30
  Q 345.44 669.86 349.55 669.87
  Q 365.39 669.90 381.70 669.86
  C 386.41 669.85 388.69 674.85 385.86 678.57
  Q 369.45 700.05 353.78 720.66
  Q 353.32 721.26 354.08 721.26
  Z"
/>
<path fill="#e94157" d="
  M 97.94 704.60
  L 123.19 797.29
  A 7.83 7.83 0.0 0 1 115.62 807.18
  L 94.43 807.16
  A 7.83 7.83 0.0 0 1 86.88 801.39
  L 61.63 708.70
  A 7.83 7.83 0.0 0 1 69.20 698.81
  L 90.39 698.83
  A 7.83 7.83 0.0 0 1 97.94 704.60
  Z"
/>
<path fill="#e94157" d="
  M 147.02 828.46
  Q 157.04 823.30 157.07 812.57
  Q 157.18 760.60 157.10 707.07
  C 157.09 702.12 160.29 698.91 165.55 698.85
  Q 176.51 698.72 186.26 698.87
  C 191.56 698.96 194.51 702.36 194.51 707.31
  Q 194.47 760.42 194.54 810.91
  Q 194.56 832.99 181.24 848.48
  Q 169.38 862.26 151.72 866.36
  Q 144.82 867.97 132.14 867.89
  Q 98.21 867.70 67.34 867.86
  C 61.50 867.89 58.75 863.63 58.92 858.13
  Q 59.19 849.85 58.91 841.13
  Q 58.78 836.81 59.94 834.51
  C 61.81 830.82 65.29 830.34 69.07 830.35
  Q 105.00 830.40 140.60 830.34
  Q 143.36 830.34 147.02 828.46
  Z"
/>
<path fill="#e94157" d="
  M 756.89 853.62
  Q 756.81 856.00 756.91 858.65
  C 757.09 863.82 754.07 867.82 748.62 867.82
  Q 692.14 867.83 636.35 867.82
  Q 635.80 867.82 635.77 868.36
  C 634.47 893.83 616.94 914.91 592.08 920.08
  Q 585.15 921.52 573.89 921.41
  Q 543.81 921.15 522.35 921.39
  C 495.48 921.69 472.64 904.64 466.56 878.48
  Q 464.96 871.61 465.04 859.97
  Q 465.22 832.53 465.10 804.10
  C 465.07 797.93 468.94 795.27 474.64 795.32
  Q 484.96 795.40 493.76 795.39
  C 499.45 795.38 502.55 798.66 502.56 803.91
  Q 502.64 835.71 502.53 865.04
  C 502.50 873.19 506.56 879.90 514.21 882.86
  Q 517.47 884.11 527.23 884.00
  Q 550.99 883.74 576.74 884.00
  Q 583.59 884.07 587.05 882.71
  Q 596.18 879.10 598.35 868.69
  Q 598.54 867.80 597.63 867.80
  Q 585.86 867.87 574.71 867.80
  C 568.85 867.76 566.15 863.80 566.24 858.36
  Q 566.40 847.62 566.29 839.92
  Q 566.15 830.36 575.38 830.36
  Q 643.32 830.37 718.85 830.37
  A 0.31 0.31 0.0 0 0 719.16 830.06
  Q 719.04 804.80 719.15 778.60
  C 719.19 770.22 716.01 763.63 708.21 760.25
  Q 704.93 758.82 698.36 758.84
  Q 665.22 758.93 627.09 758.86
  C 622.18 758.85 620.18 753.23 622.95 749.56
  Q 632.78 736.52 642.00 724.37
  C 643.61 722.26 646.31 721.37 648.88 721.38
  Q 675.38 721.48 700.30 721.42
  C 727.21 721.37 750.28 739.38 755.46 765.93
  Q 756.77 772.65 756.64 785.99
  Q 756.44 808.05 756.65 829.88
  A 0.49 0.49 0.0 0 0 757.14 830.37
  Q 785.35 830.32 815.22 830.42
  C 823.25 830.44 829.74 826.78 832.93 819.40
  Q 834.28 816.27 834.27 810.96
  Q 834.23 789.64 834.27 767.06
  C 834.28 762.05 837.75 758.72 842.74 758.77
  Q 852.91 758.87 863.38 758.77
  C 868.17 758.73 871.65 762.09 871.67 767.00
  Q 871.73 788.92 871.68 811.89
  C 871.62 838.52 854.24 860.59 828.32 866.51
  Q 821.69 868.03 808.26 867.89
  Q 789.39 867.71 772.19 867.85
  Q 768.27 867.88 765.82 864.74
  Q 761.74 859.52 757.30 853.50
  Q 756.92 852.97 756.89 853.62
  Z"
/>
<path fill="#e94157" d="
  M 965.62 830.37
  C 973.08 830.36 979.72 825.71 982.26 818.82
  Q 983.54 815.34 983.44 808.69
  Q 983.22 793.18 983.42 777.70
  C 983.53 769.91 979.61 763.32 972.42 760.22
  Q 969.06 758.77 962.96 758.81
  Q 932.95 758.99 899.06 758.83
  C 894.13 758.81 891.42 754.54 891.45 750.06
  Q 891.53 739.62 891.50 729.92
  C 891.47 723.46 895.82 721.37 901.65 721.38
  Q 936.31 721.47 965.58 721.45
  C 991.93 721.44 1014.46 739.87 1019.73 766.04
  Q 1021.05 772.62 1020.91 785.76
  Q 1020.76 798.74 1020.80 811.47
  C 1020.88 843.01 996.92 867.60 965.25 867.71
  Q 933.38 867.82 900.00 867.83
  Q 891.35 867.83 891.47 857.84
  Q 891.57 849.57 891.47 838.97
  C 891.41 833.93 894.70 830.37 899.84 830.37
  Q 934.00 830.38 965.62 830.37
  Z"
/>
<rect fill="#e94157" x="658.25" y="887.67" width="37.42" height="33.64" rx="7.87"/>
<rect fill="#e94157" x="781.81" y="887.68" width="70.24" height="33.64" rx="7.86"/>
</svg>
