<svg xmlns="http://www.w3.org/2000/svg" width="1195" height="814" viewBox="0 0 1195 814" fill="none" style="&#10;    background: #b5e0ec;&#10;">
<g opacity="0.3" clip-path="url(#clip0_2473_45149)">
<path d="M884.876 743.093C855.93 749.009 828.719 726.594 811.735 702.382C797.879 682.579 787.232 659.33 787.586 635.098C787.94 610.867 801.512 586.031 824.201 577.341C854.7 565.645 890.181 585.701 921.026 575.319C954.536 564.02 967.549 523.009 995.97 502.064C1026.6 479.555 1070.15 484.333 1104.46 500.541C1123.02 509.398 1141.19 522.634 1147.32 542.265C1154.58 565.966 1141.77 591.045 1127.08 611.017C1098.35 649.927 1060.19 681.875 1016.83 703.475" stroke="white" stroke-width="11.7001" stroke-miterlimit="10" stroke-linecap="round"/>
<path d="M903.424 699.715C893.619 702.382 884.254 694.405 878.366 686.105C868.981 672.878 863.754 653.971 873.573 641.156C882.203 629.963 898.437 628.388 912.387 630.188C926.336 631.988 940.742 635.805 954.265 632.058C965.994 628.805 975.319 620.24 983.757 611.524C992.194 602.807 1000.17 593.443 1010.67 587.358C1021.26 581.403 1035.24 579.673 1045.15 586.487C1055.14 593.432 1057.14 610.536 1047.1 617.269" stroke="white" stroke-width="11.7001" stroke-miterlimit="10" stroke-linecap="round"/>
</g>
<g opacity="0.3" clip-path="url(#clip1_2473_45149)">
<path d="M62.6746 182.393C42.7014 160.623 47.9089 125.755 59.9226 98.73C69.7669 76.6566 84.2175 55.5597 105.173 43.3887C126.129 31.2176 154.408 30.0668 173.538 45.0445C199.266 65.1697 200.338 105.913 225.119 127.012C252.056 149.924 293.915 139.967 326.502 153.549C361.565 168.216 379.89 208.013 383.658 245.771C385.623 266.248 383.627 288.635 369.953 303.996C353.374 322.425 325.276 324.349 300.595 322.042C252.443 317.438 205.409 301.171 164.57 275.12" stroke="white" stroke-width="11.7001" stroke-miterlimit="10" stroke-linecap="round"/>
<path d="M109.411 175.962C102.077 168.929 104.095 156.794 108.179 147.473C114.687 132.618 128.205 118.403 144.247 120.223C158.285 121.86 167.993 134.967 173.631 147.853C179.269 160.738 183.413 175.053 193.587 184.718C202.414 193.099 214.558 196.683 226.374 199.43C238.19 202.176 250.326 204.194 260.948 210.063C271.506 216.078 280.186 227.171 279.442 239.171C278.635 251.316 265 261.834 254.059 256.693" stroke="white" stroke-width="11.7001" stroke-miterlimit="10" stroke-linecap="round"/>
</g>
<defs>
<clipPath id="clip0_2473_45149">
<rect width="235.484" height="384.63" fill="white" transform="matrix(0.578659 0.81557 0.81557 -0.578659 744.893 621.913)"/>
</clipPath>
<clipPath id="clip1_2473_45149">
<rect width="235.484" height="384.63" fill="white" transform="matrix(-0.401291 0.915951 0.915951 0.401291 94.4978 0)"/>
</clipPath>
</defs>
</svg>