<svg xmlns="http://www.w3.org/2000/svg" version="1.1" xmlns:xlink="http://www.w3.org/1999/xlink" xmlns:svgjs="http://svgjs.com/svgjs" width="512" height="512" x="0" y="0" viewBox="0 0 512 512" style="enable-background:new 0 0 512 512" xml:space="preserve" class=""><g><path d="m382.82 8h-253.64c-15.872 0-28.784 12.912-28.784 28.784v438.432c0 15.872 12.912 28.784 28.784 28.784h253.64c15.872 0 28.784-12.912 28.784-28.784v-438.432c0-15.872-12.912-28.784-28.784-28.784zm-64.384 16-4.12 11.142h-116.631l-4.121-11.142zm77.168 451.216c0 7.049-5.735 12.784-12.784 12.784h-253.64c-7.049 0-12.784-5.735-12.784-12.784v-438.432c0-7.049 5.735-12.784 12.784-12.784h47.327l8.104 21.916c1.161 3.141 4.154 5.226 7.503 5.226h127.773c3.349 0 6.342-2.085 7.503-5.226l8.104-21.916h47.327c7.049 0 12.784 5.735 12.784 12.784v438.432zm-121.356-48.773h-36.496c-11.939 0-21.653 9.714-21.653 21.653s9.714 21.653 21.653 21.653h36.496c11.939 0 21.653-9.714 21.653-21.654 0-11.939-9.713-21.652-21.653-21.652zm0 27.307h-36.496c-3.064 0-5.653-2.589-5.653-5.654 0-3.063 2.589-5.652 5.653-5.652h36.496c3.117 0 5.653 2.536 5.653 5.653s-2.536 5.653-5.653 5.653zm116.475-217.751c0 2.463-1.135 4.789-3.076 6.306l-23.794 18.58c-1.462 1.143-3.196 1.695-4.918 1.695-2.379 0-4.733-1.056-6.312-3.076-2.719-3.482-2.101-8.51 1.382-11.229l5.476-4.276h-57.339c-4.418 0-8-3.582-8-8s3.582-8 8-8h57.339l-5.476-4.276c-3.482-2.719-4.101-7.746-1.382-11.229 2.721-3.48 7.747-4.103 11.229-1.381l23.794 18.58c1.942 1.517 3.077 3.843 3.077 6.306zm-126.723 46.143v57.338l4.276-5.476c2.719-3.481 7.747-4.103 11.229-1.381 3.482 2.719 4.101 7.746 1.381 11.229l-18.58 23.794c-1.517 1.941-3.843 3.076-6.306 3.076s-4.789-1.135-6.306-3.076l-18.58-23.794c-2.72-3.482-2.102-8.51 1.381-11.229 3.481-2.723 8.509-2.103 11.229 1.381l4.276 5.476v-57.338c0-4.418 3.582-8 8-8s8 3.582 8 8zm-104.623-22.638c-1.578 2.02-3.933 3.076-6.312 3.076-1.722 0-3.456-.553-4.918-1.695l-23.794-18.58c-1.941-1.517-3.076-3.843-3.076-6.306s1.135-4.789 3.076-6.306l23.794-18.58c3.48-2.722 8.509-2.103 11.229 1.381 2.719 3.482 2.101 8.51-1.382 11.229l-5.476 4.276h57.339c4.418 0 8 3.582 8 8s-3.582 8-8 8h-57.337l5.476 4.276c3.482 2.719 4.1 7.746 1.381 11.229zm71.737-131.358 18.58-23.794c1.517-1.941 3.843-3.076 6.306-3.076s4.789 1.135 6.306 3.076l18.58 23.794c2.72 3.482 2.102 8.51-1.381 11.229-1.462 1.143-3.196 1.695-4.918 1.695-2.379 0-4.733-1.056-6.311-3.076l-4.276-5.476v57.339c0 4.418-3.582 8-8 8s-8-3.582-8-8v-57.339l-4.276 5.476c-2.719 3.48-7.747 4.103-11.229 1.381-3.482-2.719-4.1-7.746-1.381-11.229zm56.886 107.853c0-17.645-14.355-32-32-32s-32 14.355-32 32 14.355 32 32 32 32-14.355 32-32zm-32 16c-8.822 0-16-7.178-16-16s7.178-16 16-16 16 7.178 16 16-7.178 16-16 16zm25.778-105.125c30.317 8.755 54.592 33.028 63.348 63.348 1.227 4.245-1.221 8.68-5.466 9.905-.741.215-1.488.316-2.224.316-3.473 0-6.67-2.278-7.682-5.782-7.246-25.087-27.33-45.172-52.416-52.416-4.244-1.226-6.692-5.66-5.466-9.905 1.228-4.244 5.66-6.696 9.906-5.466zm-51.556 178.251c-30.318-8.756-54.592-33.03-63.348-63.349-1.227-4.245 1.221-8.68 5.466-9.905 4.243-1.231 8.68 1.221 9.905 5.466 7.245 25.087 27.33 45.172 52.416 52.417 4.245 1.226 6.692 5.66 5.466 9.905-1.012 3.503-4.209 5.782-7.682 5.782-.735 0-1.482-.101-2.223-.316zm114.904-63.348c-8.756 30.319-33.03 54.593-63.349 63.348-.741.215-1.489.316-2.224.316-3.473 0-6.67-2.279-7.682-5.782-1.227-4.245 1.222-8.68 5.466-9.905 25.087-7.244 45.171-27.329 52.417-52.416 1.226-4.245 5.661-6.695 9.905-5.466 4.246 1.226 6.694 5.66 5.467 9.905zm-178.252-51.555c8.756-30.319 33.03-54.593 63.349-63.348 4.243-1.231 8.68 1.222 9.905 5.466 1.227 4.245-1.222 8.68-5.466 9.905-25.087 7.244-45.171 27.329-52.417 52.416-1.012 3.503-4.209 5.782-7.682 5.782-.735 0-1.482-.102-2.224-.316-4.244-1.226-6.692-5.66-5.465-9.905z" fill="#000000" data-original="#000000" class=""></path></g></svg>