<svg xmlns="http://www.w3.org/2000/svg" viewBox="0 0 500 500"><defs><clipPath id="a"><path d="m404.07 274.23-6.86-4.37-25.29-62.47-43.87-20.83h-96l43.87 20.83 25.29 62.47 6.86 4.37h86.69l6.63 4.21 2.68-4.21z" style="fill: rgb(38, 50, 56); stroke: rgb(38, 50, 56); stroke-linecap: round; stroke-linejoin: round;"></path></clipPath></defs><path d="M452 326.14c8.83-69.74-34-162.42-78.33-200.69-80.09-69.1-146.63-55.74-198.39-31s-59.1 107.39-94.84 144.77-56.06 87.66-1.84 137.72 98 24.62 154.64 21.44 131.85 21.82 172.51.09c28.4-15.17 42.38-41.47 46.25-72.33Z" style="fill: rgb(112, 182, 254);"></path><path d="M452 326.14c8.83-69.74-34-162.42-78.33-200.69-80.09-69.1-146.63-55.74-198.39-31s-59.1 107.39-94.84 144.77-56.06 87.66-1.84 137.72 98 24.62 154.64 21.44 131.85 21.82 172.51.09c28.4-15.17 42.38-41.47 46.25-72.33Z" style="fill: rgb(255, 255, 255); opacity: 0.8;"></path><path d="M50.33 337.92c5.05 12.86 14.12 25.95 28.27 39 54.22 50.05 98 24.62 154.64 21.44s131.85 21.82 172.51.09c24.7-13.2 38.5-34.85 44.24-60.55Z" style="fill: rgb(112, 182, 254);"></path><path d="M50.33 337.92c5.05 12.86 14.12 25.95 28.27 39 54.22 50.05 98 24.62 154.64 21.44s131.85 21.82 172.51.09c24.7-13.2 38.5-34.85 44.24-60.55Z" style="fill: rgb(255, 255, 255); opacity: 0.5;"></path><path d="M211.64 169.5c-6.37-3.48-9.27-.58-11.59-3.48s6.38-10.43-11-18c0 0-1.16-16.23-24.92-16.81s-17.38 16.23-23.76 20.28-8.11-2.31-14.48 1.74-3.48 12.17-8.7 13.33-12.17-5.21-18.54-1.16-6.39 7.6-9.28 7.6-8.7-2.32-12.17 0-7.54 5.21-7.54 5.21h146.62s1.72-5.21-4.64-8.71ZM277.76 121.65c-3.19-1.74-4.64-.29-5.8-1.74s3.19-5.23-5.52-9c0 0-.58-8.13-12.48-8.42s-8.7 8.13-11.89 10.16-4.07-1.16-7.26.87-1.74 6.1-4.35 6.68-6.1-2.62-9.29-.58-3.19 3.77-4.64 3.77-4.35-1.16-6.1 0-3.77 2.61-3.77 2.61h73.42s.92-2.61-2.32-4.35ZM347.76 156.65c-3.19-1.74-4.64-.29-5.8-1.74s3.19-5.23-5.52-9c0 0-.58-8.13-12.48-8.42s-8.7 8.13-11.89 10.16-4.07-1.16-7.26.87-1.74 6.1-4.35 6.68-6.1-2.62-9.29-.58-3.19 3.77-4.64 3.77-4.35-1.16-6.1 0-3.77 2.61-3.77 2.61h73.42s.92-2.61-2.32-4.35Z" style="fill: rgb(112, 182, 254);"></path><g style="opacity: 0.6;"><path d="M211.64 169.5c-6.37-3.48-9.27-.58-11.59-3.48s6.38-10.43-11-18c0 0-1.16-16.23-24.92-16.81s-17.38 16.23-23.76 20.28-8.11-2.31-14.48 1.74-3.48 12.17-8.7 13.33-12.17-5.21-18.54-1.16-6.39 7.6-9.28 7.6-8.7-2.32-12.17 0-7.54 5.21-7.54 5.21h146.62s1.72-5.21-4.64-8.71ZM277.76 121.65c-3.19-1.74-4.64-.29-5.8-1.74s3.19-5.23-5.52-9c0 0-.58-8.13-12.48-8.42s-8.7 8.13-11.89 10.16-4.07-1.16-7.26.87-1.74 6.1-4.35 6.68-6.1-2.62-9.29-.58-3.19 3.77-4.64 3.77-4.35-1.16-6.1 0-3.77 2.61-3.77 2.61h73.42s.92-2.61-2.32-4.35ZM347.76 156.65c-3.19-1.74-4.64-.29-5.8-1.74s3.19-5.23-5.52-9c0 0-.58-8.13-12.48-8.42s-8.7 8.13-11.89 10.16-4.07-1.16-7.26.87-1.74 6.1-4.35 6.68-6.1-2.62-9.29-.58-3.19 3.77-4.64 3.77-4.35-1.16-6.1 0-3.77 2.61-3.77 2.61h73.42s.92-2.61-2.32-4.35Z" style="fill: rgb(255, 255, 255);"></path></g><path d="M49.76 309.79s14.41 1.43 21.71 10.36c0 0 7.71-10.35 21.56-10.13a28 28 0 1 0-43.27-.2Z" style="fill: rgb(112, 182, 254);"></path><path d="M49.76 309.79s14.41 1.43 21.71 10.36c0 0 7.71-10.35 21.56-10.13a28 28 0 1 0-43.27-.2Z" style="fill: rgb(255, 255, 255); opacity: 0.3;"></path><path d="m70.99 266.13-.49 72.2h2.44l-1.95-72.2z" style="fill: rgb(38, 50, 56);"></path><path d="M71.72 317.43s4.86-8.76 13.62-11.43c0 0-9.24 2.19-13.86 9.72ZM71.72 292.63s4.86-8.75 13.62-11.43c0 0-9.24 2.19-13.86 9.73ZM71.72 305s4.86-8.76 13.62-11.43c0 0-9.24 2.19-13.86 9.72ZM71 299s-4.69-8.75-13.14-11.43c0 0 8.92 2.19 13.37 9.73ZM71 311.1s-4.69-8.75-13.14-11.42c0 0 8.92 2.19 13.37 9.72Z" style="fill: rgb(38, 50, 56);"></path><path d="M94.43 304.32s17.16 1.7 25.87 12.34c0 0 9.19-12.33 25.7-12.08a33.36 33.36 0 1 0-51.58-.23Z" style="fill: rgb(112, 182, 254);"></path><path d="M94.43 304.32s17.16 1.7 25.87 12.34c0 0 9.19-12.33 25.7-12.08a33.36 33.36 0 1 0-51.58-.23Z" style="fill: rgb(255, 255, 255); opacity: 0.5;"></path><path d="m119.73 252.28-.58 86.05h2.9l-2.32-86.05z" style="fill: rgb(38, 50, 56);"></path><path d="M120.6 313.42s5.79-10.43 16.22-13.62c0 0-11 2.61-16.51 11.59ZM120.6 283.86s5.79-10.43 16.22-13.62c0 0-11 2.61-16.51 11.59ZM120.6 298.64s5.79-10.43 16.22-13.62c0 0-11 2.61-16.51 11.59ZM119.74 291.4s-5.59-10.43-15.66-13.62c0 0 10.63 2.61 15.94 11.59ZM119.74 305.88s-5.59-10.43-15.66-13.62c0 0 10.63 2.61 15.94 11.59Z" style="fill: rgb(38, 50, 56);"></path><path d="M140.52 314.26s12.16 1.2 18.31 8.73a23.55 23.55 0 0 1 18.2-8.55 23.62 23.62 0 1 0-36.51-.16Z" style="fill: rgb(112, 182, 254);"></path><path d="M140.52 314.26s12.16 1.2 18.31 8.73a23.55 23.55 0 0 1 18.2-8.55 23.62 23.62 0 1 0-36.51-.16Z" style="fill: rgb(255, 255, 255); opacity: 0.5;"></path><path d="m158.43 277.42-.41 60.91h2.05l-1.64-60.91z" style="fill: rgb(38, 50, 56);"></path><path d="M159.05 320.7s4.1-7.39 11.48-9.64c0 0-7.79 1.84-11.69 8.2ZM159.05 299.78s4.1-7.39 11.48-9.64c0 0-7.79 1.84-11.69 8.2ZM159.05 310.24s4.1-7.39 11.48-9.64c0 0-7.79 1.84-11.69 8.2ZM158.44 305.11s-4-7.38-11.08-9.64c0 0 7.52 1.85 11.28 8.2ZM158.44 315.36s-4-7.38-11.08-9.64c0 0 7.52 1.85 11.28 8.21Z" style="fill: rgb(38, 50, 56);"></path><path d="M372.07 309.79s14.4 1.43 21.7 10.36c0 0 7.72-10.35 21.57-10.13a28 28 0 1 0-43.27-.2Z" style="fill: rgb(112, 182, 254);"></path><path d="M372.07 309.79s14.4 1.43 21.7 10.36c0 0 7.72-10.35 21.57-10.13a28 28 0 1 0-43.27-.2Z" style="fill: rgb(255, 255, 255); opacity: 0.3;"></path><path d="m393.3 266.13-.49 72.2h2.43l-1.94-72.2z" style="fill: rgb(38, 50, 56);"></path><path d="M394 317.43s4.86-8.76 13.61-11.43c0 0-9.24 2.19-13.86 9.72ZM394 292.63s4.86-8.75 13.61-11.43c0 0-9.24 2.19-13.86 9.73ZM394 305s4.86-8.76 13.61-11.43c0 0-9.24 2.19-13.86 9.72ZM393.31 299s-4.7-8.75-13.14-11.43c0 0 8.91 2.19 13.37 9.73ZM393.31 311.1s-4.7-8.75-13.14-11.42c0 0 8.91 2.19 13.37 9.72Z" style="fill: rgb(38, 50, 56);"></path><path d="M400.6 300.11S419.89 302 429.66 314c0 0 10.33-13.85 28.88-13.57a37.49 37.49 0 1 0-58-.26Z" style="fill: rgb(112, 182, 254);"></path><path d="M400.6 300.11S419.89 302 429.66 314c0 0 10.33-13.85 28.88-13.57a37.49 37.49 0 1 0-58-.26Z" style="fill: rgb(255, 255, 255); opacity: 0.5;"></path><path d="m429.02 241.64-.65 96.69h3.26l-2.61-96.69z" style="fill: rgb(38, 50, 56);"></path><path d="M430 310.34s6.51-11.72 18.23-15.31c0 0-12.37 2.93-18.56 13ZM430 277.13s6.51-11.72 18.23-15.3c0 0-12.37 2.93-18.56 13ZM430 293.73s6.51-11.72 18.23-15.3c0 0-12.37 2.93-18.56 13ZM429 285.59s-6.28-11.72-17.59-15.3c0 0 11.94 2.93 17.91 13ZM429 301.87s-6.28-11.72-17.59-15.3c0 0 11.94 2.93 17.91 13Z" style="fill: rgb(38, 50, 56);"></path><path d="m408.33 143.53 30.67 4.8v-24l-30.67 4.8v14.4z" style="fill: rgb(38, 50, 56); stroke: rgb(38, 50, 56); stroke-linecap: round; stroke-linejoin: round;"></path><path d="m394.12 134.03-10.33 204.3h20.66l-10.33-204.3zM394.33 134.34v-12.99M383.1 134.53h22.16" style="fill: none; stroke: rgb(38, 50, 56); stroke-linecap: round; stroke-linejoin: round;"></path><path d="M399.4 240.15h-10.73l7.96-49.2h-5.19l7.96 49.2z" style="fill: none; stroke: rgb(38, 50, 56); stroke-linecap: round; stroke-linejoin: round;"></path><path d="m385.19 130.09-.8 4.54-21.2-2.18 1.33-7.56 20.67 5.2z" style="fill: rgb(112, 182, 254); stroke: rgb(38, 50, 56); stroke-linecap: round; stroke-linejoin: round;"></path><path d="m384.29 133.48.8 4.53-20.67 5.21-1.33-7.56 21.2-2.18z" style="fill: rgb(38, 50, 56); stroke: rgb(38, 50, 56); stroke-linecap: round; stroke-linejoin: round;"></path><path d="m384.6 136.96 2.3 3.99-17.64 11.96-3.84-6.65 19.18-9.3z" style="fill: rgb(112, 182, 254); stroke: rgb(38, 50, 56); stroke-linecap: round; stroke-linejoin: round;"></path><path d="m386.08 140.14 3.53 2.96-12.49 17.27-5.88-4.94 14.84-15.29z" style="fill: rgb(38, 50, 56); stroke: rgb(38, 50, 56); stroke-linecap: round; stroke-linejoin: round;"></path><path d="m388.56 142.61 4.33 1.58-5.83 20.5-7.21-2.63 8.71-19.45z" style="fill: rgb(112, 182, 254); stroke: rgb(38, 50, 56); stroke-linecap: round; stroke-linejoin: round;"></path><path d="M391.74 144.09h4.6l1.54 21.25h-7.68l1.54-21.25z" style="fill: rgb(38, 50, 56); stroke: rgb(38, 50, 56); stroke-linecap: round; stroke-linejoin: round;"></path><path d="m395.22 144.39 4.33-1.58 8.71 19.45-7.21 2.63-5.83-20.5z" style="fill: rgb(112, 182, 254); stroke: rgb(38, 50, 56); stroke-linecap: round; stroke-linejoin: round;"></path><path d="m398.61 143.48 3.52-2.96 14.84 15.29-5.88 4.94-12.48-17.27z" style="fill: rgb(38, 50, 56); stroke: rgb(38, 50, 56); stroke-linecap: round; stroke-linejoin: round;"></path><path d="m401.47 141.46 2.3-3.98 19.18 9.3-3.84 6.64-17.64-11.96z" style="fill: rgb(112, 182, 254); stroke: rgb(38, 50, 56); stroke-linecap: round; stroke-linejoin: round;"></path><path d="m403.48 138.59.8-4.53 21.2 2.18-1.34 7.56-20.66-5.21z" style="fill: rgb(38, 50, 56); stroke: rgb(38, 50, 56); stroke-linecap: round; stroke-linejoin: round;"></path><path d="m404.38 135.21-.8-4.54 20.67-5.2 1.33 7.56-21.2 2.18z" style="fill: rgb(112, 182, 254); stroke: rgb(38, 50, 56); stroke-linecap: round; stroke-linejoin: round;"></path><path d="m404.07 131.72-2.3-3.99 17.64-11.95 3.84 6.64-19.18 9.3z" style="fill: rgb(38, 50, 56); stroke: rgb(38, 50, 56); stroke-linecap: round; stroke-linejoin: round;"></path><path d="m402.59 128.55-3.53-2.96 12.49-17.27 5.88 4.93-14.84 15.3z" style="fill: rgb(112, 182, 254); stroke: rgb(38, 50, 56); stroke-linecap: round; stroke-linejoin: round;"></path><path d="m400.11 126.08-4.33-1.58 5.83-20.5 7.21 2.63-8.71 19.45zM387.19 127.22l-2.3 3.99-19.18-9.3 3.84-6.65 17.64 11.96z" style="fill: rgb(38, 50, 56); stroke: rgb(38, 50, 56); stroke-linecap: round; stroke-linejoin: round;"></path><path d="m390.06 125.21-3.53 2.96-14.84-15.3 5.88-4.93 12.49 17.27z" style="fill: rgb(112, 182, 254); stroke: rgb(38, 50, 56); stroke-linecap: round; stroke-linejoin: round;"></path><path d="m393.44 124.3-4.33 1.57-8.71-19.45 7.22-2.62 5.82 20.5z" style="fill: rgb(38, 50, 56); stroke: rgb(38, 50, 56); stroke-linecap: round; stroke-linejoin: round;"></path><path d="M396.93 124.6h-4.6l-1.54-21.26h7.68l-1.54 21.26z" style="fill: rgb(112, 182, 254); stroke: rgb(38, 50, 56); stroke-linecap: round; stroke-linejoin: round;"></path><path d="M397 134.34a2.66 2.66 0 1 0-2.66 2.66 2.66 2.66 0 0 0 2.66-2.66ZM297 271.83h99v66.5h-99z" style="fill: rgb(38, 50, 56); stroke: rgb(38, 50, 56); stroke-linecap: round; stroke-linejoin: round;"></path><path d="M299.33 338.33H166.67v-66.66l24.46-62.48L232 189.33l42.13 20 25.2 62.34v66.66z" style="fill: rgb(112, 182, 254); stroke: rgb(38, 50, 56); stroke-linecap: round; stroke-linejoin: round;"></path><path d="m160.87 279.02-2.94-4.04 6.93-5.04 24.58-62.67 42.61-20.71 43.87 20.83 25.29 62.47 6.86 4.37-2.68 4.21-7.81-4.97-.3-.47-24.82-61.72-40.38-19.17-39.13 19.01-24.35 62.27-7.73 5.63z" style="fill: rgb(255, 255, 255); stroke: rgb(38, 50, 56); stroke-linecap: round; stroke-linejoin: round;"></path><path d="M222 214h22v56.17h-22z" style="fill: rgb(112, 182, 254); stroke: rgb(38, 50, 56); stroke-linecap: round; stroke-linejoin: round;"></path><path d="M210 278.17h46v60.17h-46z" style="fill: rgb(255, 255, 255); stroke: rgb(38, 50, 56); stroke-linecap: round; stroke-linejoin: round;"></path><path d="M195.33 268.17h75.33v4h-75.33zM195.33 210h75.33v4h-75.33z" style="fill: rgb(112, 182, 254); stroke: rgb(38, 50, 56); stroke-linecap: round; stroke-linejoin: round;"></path><path d="m220.26 309.76-7.76-22.8v45.6l7.76-22.8zM229.21 283.5h-15.53l7.76 22.8 7.77-22.8zM221.44 313.23l-7.76 22.79h15.53l-7.77-22.79zM222.63 309.76l7.76 22.8v-45.6l-7.76 22.8zM252.2 283.5h-15.53l7.76 22.8 7.77-22.8zM243.25 309.76l-7.64-22.43v44.87l7.64-22.44zM245.61 309.76l7.89 23.16V286.6l-7.89 23.16zM244.43 313.23l-7.76 22.79h15.53l-7.77-22.79zM404.07 274.23l-6.86-4.37-25.29-62.47-43.87-20.83h-96l43.87 20.83 25.29 62.47 6.86 4.37h86.69l6.63 4.21 2.68-4.21z" style="fill: rgb(38, 50, 56);"></path><g style="clip-path: url(&quot;#a&quot;);"><path d="m404.07 274.23-6.86-4.37-25.29-62.47-43.87-20.83h-96l43.87 20.83 25.29 62.47 6.86 4.37h86.69l6.63 4.21 2.68-4.21z" style="fill: rgb(255, 255, 255); opacity: 0.5;"></path><path d="M275.92 207.39h96l-43.87-20.83h-96l43.87 20.83z" style="fill: rgb(255, 255, 255); opacity: 0.5;"></path></g><path d="m404.07 274.23-6.86-4.37-25.29-62.47-43.87-20.83h-96l43.87 20.83 25.29 62.47 6.86 4.37h86.69l6.63 4.21 2.68-4.21z" style="fill: none; stroke: rgb(38, 50, 56); stroke-linecap: round; stroke-linejoin: round;"></path><path d="M308.07 274.23h96l-2.68 4.21h-96l2.68-4.21z" style="fill: rgb(255, 255, 255); stroke: rgb(38, 50, 56); stroke-linecap: round; stroke-linejoin: round;"></path><path d="M308.12 289.5h4.75v7.66h-4.75zM313.87 289.5h4.75v7.66h-4.75zM308.12 298.16h4.75V305h-4.75zM313.87 298.16h4.75V305h-4.75zM327.79 289.5h4.75v7.66h-4.75zM333.54 289.5h4.75v7.66h-4.75zM327.79 298.16h4.75V305h-4.75zM333.54 298.16h4.75V305h-4.75zM360.12 289.5h4.75v7.66h-4.75zM365.87 289.5h4.75v7.66h-4.75zM360.12 298.16h4.75V305h-4.75zM365.87 298.16h4.75V305h-4.75zM379.79 289.5h4.75v7.66h-4.75zM385.54 289.5h4.75v7.66h-4.75zM379.79 298.16h4.75V305h-4.75zM385.54 298.16h4.75V305h-4.75zM341.67 280.67h14v6.67h-14z" style="fill: rgb(255, 255, 255);"></path><path d="M443.67 319.67v3.66h-11v-3.66h-2.75v3.66H419v-3.66h-2.8v3.66h-11v-3.66h-2.75v3.66h-11v-3.66h-2.74v3.66h-11v-3.66H375v3.66h-11v-3.66h-2.75v3.66h-11v-3.66h-2.75v3.66h-11v-3.66h-2.74v3.66h-11v-3.66h-2.75v24.71h2.75v-8.24h11v8.24h2.74v-8.24h11v8.24h2.75v-8.24h11v8.24H364v-8.24h11v8.24h2.75v-8.24h11v8.24h2.74v-8.24h11v8.24h2.75v-8.24h11v8.24H419v-8.24h11v8.24h2.75v-8.24h11v8.24h2.74v-24.71Zm-120.85 13.27v-6.41h11v6.41Zm13.73 0v-6.41h11v6.41Zm13.74 0v-6.41h11v6.41Zm13.73 0v-6.41h11v6.41Zm13.73 0v-6.41h11v6.41Zm13.73 0v-6.41h11v6.41Zm13.74 0v-6.41h11v6.41Zm13.73 0v-6.41h11v6.41Zm13.73 0v-6.41h11v6.41Z" style="fill: rgb(255, 255, 255); stroke: rgb(38, 50, 56); stroke-linecap: round; stroke-linejoin: round;"></path><path d="M320.07 344.38h126.34" style="fill: none; stroke: rgb(38, 50, 56); stroke-linecap: round; stroke-linejoin: round;"></path><path d="M351.21 334.15s.38-2 .42-2.11c.46-1.42 2.18-3.9 3.85-3.9a2 2 0 0 1 1.91 2.25 4.15 4.15 0 0 1-2.13 2.76 14.42 14.42 0 0 1-4.05 1Z" style="fill: rgb(112, 182, 254);"></path><path d="M348 320.75c1.57.56 2.35 3.48 2.3 5 0 .13-.3 2.14-.33 2.13.13.46.26.95.39 1.5.24 1 .5 2.13.69 3.39a34.62 34.62 0 0 1 .45 4.08 25.44 25.44 0 0 1-.16 4.58.13.13 0 0 1 0 .06c.21-.45.83-1.67.89-1.76.82-1.25 3.13-3.18 4.75-2.73a2 2 0 0 1 1.24 2.67 4.13 4.13 0 0 1-2.78 2.09 13.72 13.72 0 0 1-4.13-.1 34.61 34.61 0 0 1-1 4.57c-.25.88-.52 1.75-.81 2.62l.39-.76c.82-1.25 3.14-3.18 4.75-2.73a2 2 0 0 1 1.24 2.67 4.13 4.13 0 0 1-2.78 2.09 13.07 13.07 0 0 1-4-.08l-.33 1c-.56 1.6-1.12 3.19-1.61 4.77-.18.56-.33 1.11-.49 1.67.17-.34.32-.62.34-.66.82-1.25 3.14-3.18 4.75-2.74a2 2 0 0 1 1.24 2.68 4.14 4.14 0 0 1-2.78 2.09 12.54 12.54 0 0 1-3.9-.07c-.14.58-.28 1.15-.39 1.71-.07.38-.16.75-.21 1.14s-.11.77-.16 1.14c-.07.74-.16 1.49-.21 2.2 0 .5-.08 1-.11 1.45.17-.55.52-1.63.56-1.72a7.78 7.78 0 0 1 2.56-2.91 2.16 2.16 0 0 1 .22-.39 2 2 0 0 1 2.91-.45c1.27 1.09.95 4.09.37 5.47 0 .08-.51.92-.81 1.44l.68-.84c.46-.57.94-1.12 1.46-1.72l.78-.85c.26-.29.56-.56.85-.85.66-.64 1.37-1.27 2.1-1.88a13.17 13.17 0 0 1-2.74-2.88 4.16 4.16 0 0 1-.34-3.47 2 2 0 0 1 2.81-.89c1.42.89 1.56 3.9 1.19 5.35 0 .09-.4 1.1-.62 1.65.44-.36.88-.73 1.34-1.08 1.32-1 2.69-2 4.05-3l1.25-.93a13.6 13.6 0 0 1-2.86-3 4.12 4.12 0 0 1-.33-3.47 2 2 0 0 1 2.8-.89c1.42.89 1.56 3.91 1.2 5.35 0 .11-.58 1.56-.74 1.93.91-.68 1.81-1.37 2.68-2.08a34.83 34.83 0 0 0 3.31-3.08 13.74 13.74 0 0 1-2.88-3 4.1 4.1 0 0 1-.33-3.46 2 2 0 0 1 2.81-.89c1.41.89 1.55 3.9 1.19 5.35 0 .09-.44 1.2-.66 1.72l.09.05a25.61 25.61 0 0 0 2.71-3.64c.45-.71.84-1.41 1.2-2.1a13.62 13.62 0 0 1-3.11-2.6 4.18 4.18 0 0 1-.71-3.41 2 2 0 0 1 2.69-1.2c1.51.73 2 3.71 1.78 5.19 0 .08-.22.89-.38 1.47.16-.31.33-.63.48-.94.55-1.14 1-2.21 1.36-3.17.21-.55.38-1 .55-1.51a13.21 13.21 0 0 1-1.55-3.72A4.18 4.18 0 0 1 376 332a2 2 0 0 1 2.94.19c1 1.34 0 4.2-.82 5.42-.07.1-1.43 1.61-1.45 1.59-.15.45-.31.93-.5 1.46-.36 1-.77 2.05-1.3 3.21a32.63 32.63 0 0 1-1.88 3.65 25.49 25.49 0 0 1-2.66 3.74c.41-.26 1.6-.94 1.7-1 1.37-.59 4.37-.92 5.47.34a2 2 0 0 1-.44 2.91 4.13 4.13 0 0 1-3.47.21 14 14 0 0 1-3.39-2.35 34.53 34.53 0 0 1-3.35 3.26c-.69.59-1.4 1.17-2.12 1.74l.75-.42c1.37-.59 4.37-.92 5.47.34a2 2 0 0 1-.44 2.91 4.13 4.13 0 0 1-3.47.21 13 13 0 0 1-3.3-2.27l-.84.65c-1.34 1-2.68 2-4 3.08-.45.37-.89.75-1.32 1.12l.65-.36c1.37-.59 4.37-.92 5.47.34a2 2 0 0 1-.44 2.92 4.18 4.18 0 0 1-3.48.21 12.57 12.57 0 0 1-3.21-2.21c-.44.4-.87.8-1.27 1.21s-.55.54-.8.84l-.77.86c-.47.57-.95 1.15-1.39 1.72-.31.39-.6.77-.89 1.15.45-.37 1.34-1.08 1.42-1.13 1.27-.79 4.18-1.57 5.46-.49a2 2 0 0 1 0 2.94 4.16 4.16 0 0 1-3.41.74 13.59 13.59 0 0 1-3.68-1.8c-.48.63-.94 1.25-1.37 1.84-1.47 2-2.63 3.8-3.42 5l-.08.12-1-.49.16-.24c.83-1.24 2-3 3.57-5 .48-.64 1-1.32 1.56-2a23.09 23.09 0 0 1-1.58-2 14.56 14.56 0 0 1-3.94.48c-.05.79-.1 1.56-.13 2.29-.1 2.52-.09 4.62-.07 6.09v.17l-1.12-.54c0-1.46.05-3.44.2-5.77 0-.81.12-1.66.2-2.54a13.93 13.93 0 0 1-3.82-1.5 4.12 4.12 0 0 1-1.75-3 2 2 0 0 1 2.17-2c1.66.21 3.05 2.89 3.33 4.35 0 .09.08 1.05.12 1.66 0-.36.06-.71.1-1.08.07-.73.17-1.46.27-2.24l.18-1.14c.06-.39.16-.78.24-1.18.2-.9.45-1.82.72-2.73a12.77 12.77 0 0 1-3.88-.89 4.14 4.14 0 0 1-2.19-2.7 2 2 0 0 1 1.85-2.3c1.67 0 3.45 2.4 3.94 3.81 0 .09.27 1.14.4 1.72.16-.55.33-1.1.51-1.64.54-1.59 1.14-3.17 1.72-4.75.18-.49.36-1 .53-1.46a13.86 13.86 0 0 1-4-.9 4.15 4.15 0 0 1-2.19-2.71 2 2 0 0 1 1.85-2.29c1.67 0 3.45 2.39 3.95 3.8 0 .11.38 1.62.44 2 .39-1.07.76-2.13 1.09-3.2a34.67 34.67 0 0 0 1.06-4.4 13.7 13.7 0 0 1-4-.91 4.09 4.09 0 0 1-2.19-2.7 2 2 0 0 1 1.85-2.29c1.67 0 3.45 2.39 3.94 3.8 0 .1.3 1.25.41 1.8h.09a25.32 25.32 0 0 0 .26-4.54c0-.84-.08-1.64-.16-2.41a13.43 13.43 0 0 1-4-.46 4.13 4.13 0 0 1-2.47-2.45 2 2 0 0 1 1.59-2.48c1.65-.22 3.69 2 4.34 3.35 0 .07.3.86.5 1.43-.05-.35-.08-.71-.13-1-.17-1.26-.4-2.39-.61-3.4-.13-.57-.26-1.09-.38-1.56a13.46 13.46 0 0 1-3.34-2.26 4.14 4.14 0 0 1-1.07-3.31 2 2 0 0 1 2.51-1.43Z" style="fill: rgb(112, 182, 254);"></path><path d="M378.21 346.53a14.09 14.09 0 0 1-3.92-1.39s1.41-1.46 1.51-1.54c1.17-.93 4-2 5.36-1.11a2 2 0 0 1 .35 2.92 4.13 4.13 0 0 1-3.3 1.12ZM363 379.26s-8-19.12-12.42-18.26 7.61 30.48 7.61 30.48-13.95-26.32-23.47-26.32 3.49 29.1 15.54 38.79c0 0-19-20.5-30.13-16.07s22.2 25.22 22.2 25.22-19.33-6.1-17.13-1.42 8.25 5.55 8.25 5.55l-21.88 1.1h76.12l-17.13-1.66s17.77-8.87 13-12.47-15.23 4.16-15.23 4.16 18.08-19.95 14.59-27.43-19 13.57-19 13.57 12.69-26.88 10.15-31.59S363 379.26 363 379.26Z" style="fill: rgb(112, 182, 254);"></path><path d="M365.49 380.27c-7 20.62-7 35.21-7 35.21s8.25.32 16.81-6" style="fill: none; stroke: rgb(38, 50, 56); stroke-linecap: round; stroke-linejoin: round;"></path><path d="M362 391.37a124.26 124.26 0 0 0-5.71-18.08" style="fill: none; stroke: rgb(38, 50, 56); stroke-linecap: round; stroke-linejoin: round;"></path><path d="m341.38 379.32 17.76 26.33s12.06-10.15 16.18-15.86M358.83 412s-18.72-8.88-26.33-14" style="fill: none; stroke: rgb(38, 50, 56); stroke-linecap: round; stroke-linejoin: round;"></path><path d="m63.85 328.65.19-1c.21-.65 1-1.77 1.76-1.77a.9.9 0 0 1 .87 1 1.93 1.93 0 0 1-1 1.26 6.32 6.32 0 0 1-1.82.51Z" style="fill: rgb(112, 182, 254);"></path><path d="M62.38 322.55c.72.26 1.07 1.59 1 2.27 0 .05-.14 1-.15 1 0 .21.11.43.17.68.11.45.23 1 .32 1.54a16.83 16.83 0 0 1 .2 1.86 11.39 11.39 0 0 1-.07 2.09c.09-.2.37-.76.4-.8.37-.56 1.43-1.44 2.16-1.24a.9.9 0 0 1 .57 1.21 1.89 1.89 0 0 1-1.27 1 6 6 0 0 1-1.88-.05 15.94 15.94 0 0 1-.45 2.09c-.11.39-.24.79-.37 1.19l.18-.35c.37-.57 1.43-1.45 2.16-1.24A.9.9 0 0 1 66 335a1.89 1.89 0 0 1-1.27 1 6 6 0 0 1-1.82 0c-.06.15-.11.31-.16.46-.25.73-.5 1.45-.73 2.17-.08.25-.15.51-.22.76l.15-.3c.38-.57 1.43-1.45 2.17-1.25a.9.9 0 0 1 .56 1.22 1.88 1.88 0 0 1-1.26.95 5.5 5.5 0 0 1-1.78 0c-.06.26-.13.52-.18.78s-.07.34-.09.52 0 .35-.08.52c0 .33-.07.68-.09 1s0 .44 0 .66c.07-.25.24-.74.25-.78a3.61 3.61 0 0 1 1.17-1.33 1 1 0 0 1 .1-.17.9.9 0 0 1 1.32-.21c.58.5.44 1.86.17 2.49l-.37.66.31-.39.67-.78.35-.39c.12-.13.26-.25.39-.38.3-.3.63-.58 1-.86a5.86 5.86 0 0 1-1.25-1.31 1.91 1.91 0 0 1-.31-1.74.91.91 0 0 1 1.28-.41c.65.41.71 1.78.55 2.44 0 0-.19.5-.29.75l.61-.49c.6-.47 1.23-.92 1.85-1.37l.57-.42a6.12 6.12 0 0 1-1.3-1.36 1.87 1.87 0 0 1-.16-1.58.91.91 0 0 1 1.28-.4c.65.4.71 1.77.54 2.43 0 .05-.26.71-.33.88.42-.31.83-.62 1.22-.94a17 17 0 0 0 1.51-1.41 6.32 6.32 0 0 1-1.33-1.36 1.91 1.91 0 0 1-.16-1.58.91.91 0 0 1 1.28-.4c.65.4.71 1.77.55 2.43 0 .05-.2.55-.3.79a11.65 11.65 0 0 0 1.23-1.66c.21-.32.38-.64.55-1a6.37 6.37 0 0 1-1.42-1.19 1.92 1.92 0 0 1-.32-1.55.91.91 0 0 1 1.23-.55c.68.34.9 1.69.8 2.37 0 0-.09.4-.17.67l.22-.43c.25-.52.45-1 .62-1.45.09-.25.18-.47.25-.68a6.22 6.22 0 0 1-.7-1.7 1.91 1.91 0 0 1 .42-1.53.91.91 0 0 1 1.34.09c.46.61 0 1.91-.37 2.46 0 0-.65.74-.66.73-.06.21-.14.43-.22.67-.17.44-.35.94-.59 1.46a15.54 15.54 0 0 1-.86 1.66 11.13 11.13 0 0 1-1.21 1.71c.19-.12.73-.43.78-.45.62-.27 2-.42 2.49.16a.89.89 0 0 1-.2 1.32 1.9 1.9 0 0 1-1.58.1 6.52 6.52 0 0 1-1.55-1.07A16.42 16.42 0 0 1 71 338l-1 .79.34-.19c.63-.26 2-.42 2.49.16a.89.89 0 0 1-.2 1.32 1.86 1.86 0 0 1-1.58.1 5.77 5.77 0 0 1-1.5-1l-.38.3c-.61.47-1.22.93-1.81 1.41-.21.16-.4.34-.6.51l.29-.17c.63-.27 2-.42 2.49.16a.89.89 0 0 1-.2 1.32 1.89 1.89 0 0 1-1.58.1 5.75 5.75 0 0 1-1.46-1c-.2.18-.4.36-.58.55s-.25.24-.37.38l-.35.39-.63.78-.4.53.64-.52c.58-.36 1.91-.71 2.49-.22a.9.9 0 0 1 0 1.34 1.93 1.93 0 0 1-1.55.34 6.19 6.19 0 0 1-1.68-.83l-.62.84c-.67.93-1.2 1.73-1.56 2.3v.06l-.47-.23.08-.11c.37-.56.92-1.36 1.62-2.29.22-.29.46-.6.71-.91a10.51 10.51 0 0 1-.72-.9 6.61 6.61 0 0 1-1.79.22c0 .36-.05.71-.06 1v2.86l-.51-.25c0-.67 0-1.57.09-2.63 0-.37 0-.76.09-1.16a6 6 0 0 1-1.74-.68 1.89 1.89 0 0 1-.8-1.37.9.9 0 0 1 1-.9c.76.09 1.39 1.31 1.51 2 0 0 0 .48.06.75v-.49c0-.33.07-.66.12-1 0-.17.05-.34.08-.52s.08-.35.11-.53c.09-.41.21-.83.33-1.25a6 6 0 0 1-1.77-.4 1.89 1.89 0 0 1-1-1.23.91.91 0 0 1 .85-1.05c.76 0 1.57 1.09 1.79 1.74 0 0 .13.51.18.78.08-.25.15-.5.24-.75.24-.72.51-1.44.78-2.16l.24-.67a6.14 6.14 0 0 1-1.83-.41 1.89 1.89 0 0 1-1-1.23.9.9 0 0 1 .84-1c.77 0 1.58 1.09 1.8 1.73 0 .05.17.74.21.91.17-.48.34-1 .49-1.46a14.87 14.87 0 0 0 .48-2 6.31 6.31 0 0 1-1.84-.41 1.89 1.89 0 0 1-1-1.23.91.91 0 0 1 .85-1.05c.76 0 1.57 1.09 1.79 1.74 0 0 .14.56.19.81a12.28 12.28 0 0 0 .12-2.07c0-.38 0-.74-.07-1.09a6.26 6.26 0 0 1-1.84-.21 1.9 1.9 0 0 1-1.13-1.12.91.91 0 0 1 .73-1.13c.75-.1 1.68.91 2 1.53 0 0 .15.39.23.65v-.47c-.08-.58-.19-1.09-.28-1.55l-.17-.71a6.51 6.51 0 0 1-1.53-1 1.89 1.89 0 0 1-.48-1.51.9.9 0 0 1 1.11-.79Z" style="fill: rgb(112, 182, 254);"></path><path d="M76.15 334.29a6.38 6.38 0 0 1-1.78-.63s.64-.66.68-.7c.53-.42 1.81-.93 2.45-.51a.9.9 0 0 1 .15 1.33 1.83 1.83 0 0 1-1.5.51ZM69.2 349.2s-3.61-8.71-5.63-8.33S67 354.76 67 354.76s-6.35-12-10.69-12 1.59 13.25 7.08 17.67c0 0-8.67-9.34-13.72-7.32s10.14 11.49 10.14 11.49S51 361.83 52 364s3.75 2.53 3.75 2.53l-10 .5h34.72l-7.8-.76s8.09-4 5.92-5.68-6.93 1.9-6.93 1.9 8.23-9.09 6.64-12.5-8.67 6.19-8.67 6.19 5.78-12.25 4.63-14.39-5.06 7.41-5.06 7.41Z" style="fill: rgb(112, 182, 254);"></path><path d="M70.36 349.66a55.28 55.28 0 0 0-3.18 16 13.26 13.26 0 0 0 7.66-2.66" style="fill: none; stroke: rgb(38, 50, 56); stroke-linecap: round; stroke-linejoin: round;"></path><path d="M68.77 354.72a56 56 0 0 0-2.6-8.24" style="fill: none; stroke: rgb(38, 50, 56); stroke-linecap: round; stroke-linejoin: round;"></path><path d="m59.38 349.23 8.09 12S73 356.6 74.84 354M67.32 364.11s-8.52-4.05-12-6.36M95.18 344.12h92.41" style="fill: none; stroke: rgb(38, 50, 56); stroke-linecap: round; stroke-linejoin: round;"></path><path d="M133.47 322.26h1.9l-.27 16.43h-2.48l.85-16.43z" style="fill: rgb(50, 50, 50);"></path><path d="M101.18 335.89h16.21l1.8 2.26h65.41v-9.01h-82.07l-1.35 6.75z" style="fill: rgb(38, 50, 56);"></path><path d="m94 321.62.07 12.47a1.63 1.63 0 0 0 1.15 1.29 27.78 27.78 0 0 0 3.67.13l3-5.53a3.64 3.64 0 0 1 3.41-2.45c2.7-.06 14.79.58 14.79.58a3.33 3.33 0 0 1 2.06 2.38c.51 1.93.32 7.59.32 7.59l11.13.32.38-16Z" style="fill: rgb(255, 255, 255); stroke: rgb(38, 50, 56); stroke-linecap: round; stroke-linejoin: round;"></path><path d="M180.61 337.63a6.76 6.76 0 1 0-6.75 6.75 6.75 6.75 0 0 0 6.75-6.75Z" style="fill: rgb(38, 50, 56);"></path><path d="M179.26 337.63a5.41 5.41 0 1 0-5.4 5.4 5.4 5.4 0 0 0 5.4-5.4Z" style="fill: rgb(255, 255, 255); stroke: rgb(38, 50, 56); stroke-linecap: round; stroke-linejoin: round;"></path><path d="M177.33 337.63a3.48 3.48 0 1 0-3.47 3.47 3.47 3.47 0 0 0 3.47-3.47Z" style="fill: rgb(255, 255, 255); stroke: rgb(38, 50, 56); stroke-linecap: round; stroke-linejoin: round;"></path><path d="M175.66 337.63a1.8 1.8 0 1 0-1.8 1.8 1.81 1.81 0 0 0 1.8-1.8Z" style="fill: rgb(255, 255, 255); stroke: rgb(38, 50, 56); stroke-linecap: round; stroke-linejoin: round;"></path><path d="M119 337.63a6.76 6.76 0 1 0-6.76 6.75 6.76 6.76 0 0 0 6.76-6.75Z" style="fill: rgb(38, 50, 56);"></path><path d="M117.65 337.63a5.41 5.41 0 1 0-5.41 5.4 5.41 5.41 0 0 0 5.41-5.4Z" style="fill: rgb(255, 255, 255); stroke: rgb(38, 50, 56); stroke-linecap: round; stroke-linejoin: round;"></path><path d="M115.72 337.63a3.48 3.48 0 1 0-3.48 3.47 3.47 3.47 0 0 0 3.48-3.47Z" style="fill: rgb(255, 255, 255); stroke: rgb(38, 50, 56); stroke-linecap: round; stroke-linejoin: round;"></path><path d="M114 337.63a1.8 1.8 0 1 0-1.8 1.8 1.8 1.8 0 0 0 1.8-1.8ZM138.66 311.1s-2.81.14-2.76.51a4.76 4.76 0 0 0 .41 1.1l-1.79 9.29a22.17 22.17 0 0 0-.33 2.76c0 .92-.27 13.44-.27 13.44a1.17 1.17 0 0 0 1.06.74c.87.09 28 .5 28 .5a3.84 3.84 0 0 0 1.43-1.15c.78-.92 4.51-5.66 8.88-7a9 9 0 0 1 8.56 1.42c1.06 1 1.2 4.47 1.34 5.16s1.38.73 1.65.73 1.93-.18 2.3-.69a6.3 6.3 0 0 0 .56-2.34 1.86 1.86 0 0 0-.23-.69l1.24-5.25s.27-1-.05-1.24-1.15-.32-1.29-.83.56-1.47 0-2.21-2.39-1.47-3.77-1.79-9.44-.92-9.44-.92l-12.74-.69-3.2-4.95-2.77-4.33a.59.59 0 0 0-.18-.87c-.55-.37-2.12-.51-5.2-.74s-11.41.04-11.41.04Z" style="fill: rgb(255, 255, 255); stroke: rgb(38, 50, 56); stroke-linecap: round; stroke-linejoin: round;"></path><path d="m136.36 338.47.32-13.77s-.32-.64.45-1.67a10.48 10.48 0 0 1 1.55-1.67l1.15-7.33a2 2 0 0 1 1.87-1.8c1.8-.2 11.83.19 11.83.19l4.06 9.58a10.25 10.25 0 0 1 .51 3.48c-.06 1.93-.64 13.5-.64 13.5ZM155.27 311.84c-.55-.37-2.12-.51-5.2-.74s-11.41 0-11.41 0-2.81.14-2.76.51a2 2 0 0 0 .15.51h19.48a.75.75 0 0 0-.26-.28Z" style="fill: rgb(255, 255, 255); stroke: rgb(38, 50, 56); stroke-linecap: round; stroke-linejoin: round;"></path><path d="m151.63 313.31-8.74-.09a1.64 1.64 0 0 0-1.61 1.33c-.41 1.43-1 6.35-1 6.35s0 .69 1 .74 13.76.28 13.76.28a.89.89 0 0 0 .96-.92c0-.87-3-7.18-3-7.18s-.21-.82-1.37-.51Z" style="fill: rgb(255, 255, 255); stroke: rgb(38, 50, 56); stroke-linecap: round; stroke-linejoin: round;"></path><path d="m155 321.9-4.31-.07 1.28-8.58h.25a1.06 1.06 0 0 1 1 .72c.35.69 3 6 3 6.84a1.1 1.1 0 0 1-1.22 1.09Zm-3.72-.54 3.72.06c.11 0 .66 0 .66-.58s-1.82-4.38-3-6.66v-.05a.51.51 0 0 0-.28-.3Z" style="fill: rgb(38, 50, 56);"></path><path d="m151.9 313.27-1.29 8.56h.62l1.28-8.51a1.13 1.13 0 0 0-.61-.05ZM158.22 317l-2.77-4.33s-.87 0-.5 1.11 3 7.22 3 7.22a2.64 2.64 0 0 0 1.43.74 19.83 19.83 0 0 0 2.35.23v-.08h-.31Z" style="fill: rgb(255, 255, 255); stroke: rgb(38, 50, 56); stroke-linecap: round; stroke-linejoin: round;"></path><path d="m94.05 323.17 39.89.92.04-1.7-39.94-.77.01 1.55z" style="fill: rgb(38, 50, 56);"></path><path d="m134.13 322.71-40.92-1a.4.4 0 0 1-.38-.4.41.41 0 0 1 .39-.38l40.93 1a.39.39 0 0 1 .38.39.4.4 0 0 1-.4.39Z" style="fill: rgb(255, 255, 255);"></path><path d="M134.13 322.71h0l-40.92-1a.4.4 0 0 1-.38-.4.41.41 0 0 1 .39-.38l40.93 1a.39.39 0 0 1 .38.39.4.4 0 0 1-.4.39Z" style="fill: none; stroke: rgb(38, 50, 56); stroke-linecap: round; stroke-linejoin: round;"></path><path d="m96.29 337.89 4.83 1 2.25-7.07s.32-1.35 3.28-1.67 8.55-.33 10.74.32 2.44 2.44 2.76 4.37.13 4.76.65 5.08 3.6.07 4.18-.06 1.22-8 1-10-2.45-4.18-5.6-4.31-12.54-.39-16.72.19-5.66 2.38-6.3 5a64.43 64.43 0 0 0-1.07 7.15ZM187.11 337.88a6.3 6.3 0 0 0 .56-2.34 1.86 1.86 0 0 0-.23-.69l1.24-5.25s.27-1-.05-1.24a4 4 0 0 0-.71-.31c-4.45-.3-14.85-.86-19.14 1.16-4.66 2.18-9.51 8.53-10.68 10.12l4.85.07a3.84 3.84 0 0 0 1.43-1.15c.78-.92 4.51-5.66 8.88-7a9 9 0 0 1 8.56 1.42c1.06 1 1.2 4.47 1.34 5.16s1.38.73 1.65.73 1.93-.17 2.3-.68Z" style="fill: rgb(255, 255, 255); stroke: rgb(38, 50, 56); stroke-linecap: round; stroke-linejoin: round;"></path><path d="M187.44 334.85h1.62l.07.07a1.7 1.7 0 0 1 .44 1.65l-.39 1.39a1.24 1.24 0 0 1-1.41.89l-1.37-.23a3.14 3.14 0 0 1 1.04-3.77Z" style="fill: rgb(255, 255, 255); stroke: rgb(38, 50, 56); stroke-linecap: round; stroke-linejoin: round;"></path><path d="M139.91 322.8s.12.51-.18.64a1.2 1.2 0 0 1-1.15-.34c-.26-.3-.05-.69.64-.69s.69.39.69.39Z" style="fill: rgb(38, 50, 56);"></path><path d="M138.45 322.67a11.24 11.24 0 0 1 4.63.08 1.41 1.41 0 0 1-.6.17c-.3 0-4.67 0-4.03-.25Z" style="fill: rgb(38, 50, 56);"></path></svg>