<?xml version="1.0" encoding="UTF-8"?>
<svg id="Layer_2" data-name="Layer 2" xmlns="http://www.w3.org/2000/svg" viewBox="0 0 97.84 126.19">
  <defs>
    <style>
      .cls-1 {
        fill: #969696;
        stroke-width: 0px;
      }
    </style>
  </defs>
  <g id="Layer_1-2" data-name="Layer 1">
    <g>
      <path class="cls-1" d="M90.14,54.5h0l-.06-.08c-.03-.05-.06-.11-.1-.15h0c-3.94-5.79-9.13-10.61-15.2-14.11-1.42-.22-2.48.95-5.03,3.71-4.48,4.86-8.9,9.7-13.49,14.69,3.78.93,7.27,2.8,10.15,5.43,6.66,6.33,8.44,14.12,6.33,22.91h0c-2.64,7-8.28,12.44-15.37,14.82h0c-3.14.44-6.33.9-9.44.28-8.47-1.69-14.4-6.53-17.13-14.73s-1.05-15.72,4.69-22.15c9.71-10.85,19.44-21.66,29.17-32.44,7.97-9.17,7.81-22.87-.38-31.85-1.04-1.1-1.56-1.11-2.6,0-8.08,9.09-16.28,18.13-24.41,27.13l-14.02,15.54c-1.97-4.3-3.62-5.55-6.73-4.92-4.71.95-3.77,4.91-3.94,8.22-2.53-.8-4.97-1.81-7.02.51-2.5,2.83-1.5,5.62.53,8.23-1.34.59-2.5.99-3.62,1.56-1.74.82-2.73,2.69-2.42,4.59.11,2,1.42,3.73,3.32,4.37,1,.33,2.05.48,3.1.45,1.05,0,1.63-.13,1.23,1.35-3.25,11.92-1.75,23.35,3.81,34.3h0c2.39,4.33,5.4,8.29,8.92,11.76,5.62,5.22,12.46,8.95,19.89,10.85,2.34.56,4.72.95,7.12,1.18,1.52.14,3.02.23,4.52.24,25.47-.13,46.01-20.89,45.87-46.36-.05-9.04-2.75-17.86-7.77-25.38l.06.05Z"/>
      <circle class="cls-1" cx="21.69" cy="15.33" r="15.25" transform="translate(3.07 34.28) rotate(-80.78)"/>
    </g>
  </g>
</svg>