<?xml version="1.0" encoding="UTF-8"?> <svg xmlns="http://www.w3.org/2000/svg" id="Group_6466" data-name="Group 6466" width="99.188" height="33.155" viewBox="0 0 110.188 33.155"><g id="Group_6463" data-name="Group 6463"><g id="Group_6458" data-name="Group 6458"><g id="Group_6457" data-name="Group 6457"><path id="Path_3178" data-name="Path 3178" d="M91.289,0H7.9C7.6,0,7.3,0,7,0c-.254,0-.506.007-.762.011A10.9,10.9,0,0,0,4.573.158,5.57,5.57,0,0,0,3,.678a5.341,5.341,0,0,0-1.341.977A5.209,5.209,0,0,0,.679,3,5.491,5.491,0,0,0,.161,4.576,10.84,10.84,0,0,0,.012,6.236C0,6.49,0,6.745,0,7v19.16c0,.257,0,.506.012.763a10.822,10.822,0,0,0,.148,1.659,5.477,5.477,0,0,0,.518,1.579A5.166,5.166,0,0,0,1.656,31.5,5.222,5.222,0,0,0,3,32.476,5.55,5.55,0,0,0,4.573,33a11.012,11.012,0,0,0,1.661.147c.256.006.508.009.762.009.3,0,.6,0,.908,0H91.289c.3,0,.6,0,.9,0,.252,0,.511,0,.764-.009A10.875,10.875,0,0,0,94.61,33a5.621,5.621,0,0,0,1.582-.522,5.232,5.232,0,0,0,1.34-.977,5.313,5.313,0,0,0,.98-1.338,5.492,5.492,0,0,0,.513-1.579,11.15,11.15,0,0,0,.153-1.659c0-.257,0-.506,0-.763.007-.3.007-.6.007-.907V7.9c0-.3,0-.6-.007-.905,0-.254,0-.509,0-.763a11.17,11.17,0,0,0-.153-1.659A5.507,5.507,0,0,0,98.511,3,5.366,5.366,0,0,0,96.191.678,5.642,5.642,0,0,0,94.61.158,10.77,10.77,0,0,0,92.952.012C92.7.008,92.44,0,92.188,0c-.3,0-.6,0-.9,0Z" fill="#a2a2a2"></path><path id="Path_3179" data-name="Path 3179" d="M7.149,32.58c-.253,0-.5,0-.749-.009a10.459,10.459,0,0,1-1.55-.135,4.861,4.861,0,0,1-1.373-.454,4.454,4.454,0,0,1-1.158-.842,4.417,4.417,0,0,1-.846-1.158,4.768,4.768,0,0,1-.45-1.373,10.268,10.268,0,0,1-.138-1.554C.88,26.879.873,26.3.873,26.3V7.149s.007-.573.012-.741a10.236,10.236,0,0,1,.137-1.552,4.746,4.746,0,0,1,.451-1.378A4.424,4.424,0,0,1,2.314,2.32a4.615,4.615,0,0,1,1.162-.848,4.823,4.823,0,0,1,1.37-.451A10.486,10.486,0,0,1,6.4.885l.748-.01H92.333l.757.011a10.244,10.244,0,0,1,1.54.134,4.934,4.934,0,0,1,1.385.454,4.636,4.636,0,0,1,2,2.006,4.756,4.756,0,0,1,.443,1.367A10.626,10.626,0,0,1,98.6,6.411c0,.235,0,.487,0,.738.007.311.007.607.007.905V25.4c0,.3,0,.6-.007.891,0,.269,0,.516,0,.771a10.408,10.408,0,0,1-.142,1.536,4.742,4.742,0,0,1-.448,1.384,4.538,4.538,0,0,1-.841,1.149,4.466,4.466,0,0,1-1.16.847,4.834,4.834,0,0,1-1.383.456,10.328,10.328,0,0,1-1.549.135c-.243.006-.5.009-.744.009l-.9,0Z" transform="translate(-0.149 -0.15)"></path></g></g><g id="Group_6462" data-name="Group 6462" transform="translate(8.265 7.228)"><g id="Group_6460" data-name="Group 6460"><g id="Group_6459" data-name="Group 6459"><path id="Path_3180" data-name="Path 3180" d="M22.237,19.218a4.1,4.1,0,0,1,1.953-3.442,4.2,4.2,0,0,0-3.308-1.789c-1.392-.146-2.741.833-3.451.833S15.617,14,14.44,14.027a4.4,4.4,0,0,0-3.708,2.26c-1.6,2.776-.407,6.855,1.128,9.1.768,1.1,1.666,2.325,2.841,2.282,1.15-.048,1.579-.734,2.967-.734s1.778.734,2.977.706c1.234-.021,2.011-1.1,2.753-2.213a9.081,9.081,0,0,0,1.258-2.563A3.963,3.963,0,0,1,22.237,19.218Z" transform="translate(-9.972 -9.619)" fill="#fff"></path><path id="Path_3181" data-name="Path 3181" d="M21.479,11.614A4.04,4.04,0,0,0,22.4,8.72,4.111,4.111,0,0,0,19.744,10.1a3.844,3.844,0,0,0-.948,2.786A3.4,3.4,0,0,0,21.479,11.614Z" transform="translate(-11.478 -8.72)" fill="#fff"></path></g></g><g id="Group_6461" data-name="Group 6461" transform="translate(20.271 7.585)"><path id="Path_3182" data-name="Path 3182" d="M40.954,25.589H37.031l-.942,2.782H34.427l3.717-10.293H39.87l3.716,10.293H41.9Zm-3.517-1.284h3.11L39.014,19.79h-.042Z" transform="translate(-34.427 -17.906)" fill="#fff"></path><path id="Path_3183" data-name="Path 3183" d="M53.7,25.179c0,2.332-1.248,3.83-3.132,3.83A2.543,2.543,0,0,1,48.208,27.7h-.036v3.717H46.631V21.426h1.491v1.248h.028a2.664,2.664,0,0,1,2.39-1.326C52.445,21.348,53.7,22.853,53.7,25.179Zm-1.583,0c0-1.519-.786-2.518-1.984-2.518-1.177,0-1.969,1.02-1.969,2.518s.792,2.525,1.969,2.525C51.332,27.7,52.117,26.712,52.117,25.179Z" transform="translate(-36.515 -18.466)" fill="#fff"></path><path id="Path_3184" data-name="Path 3184" d="M63.666,25.179c0,2.332-1.248,3.83-3.132,3.83A2.543,2.543,0,0,1,58.173,27.7h-.036v3.717H56.6V21.426h1.491v1.248h.028a2.663,2.663,0,0,1,2.39-1.326C62.41,21.348,63.666,22.853,63.666,25.179Zm-1.584,0c0-1.519-.785-2.518-1.983-2.518-1.177,0-1.969,1.02-1.969,2.518S58.922,27.7,60.1,27.7C61.3,27.7,62.082,26.712,62.082,25.179Z" transform="translate(-38.22 -18.466)" fill="#fff"></path><path id="Path_3185" data-name="Path 3185" d="M71.385,25.468c.114,1.021,1.106,1.691,2.461,1.691,1.3,0,2.233-.67,2.233-1.591,0-.8-.564-1.277-1.9-1.6l-1.335-.322c-1.89-.457-2.768-1.34-2.768-2.775,0-1.775,1.548-3,3.746-3,2.175,0,3.666,1.22,3.716,3H75.986c-.093-1.027-.942-1.647-2.183-1.647s-2.09.627-2.09,1.54c0,.728.542,1.156,1.869,1.484l1.134.279c2.112.5,2.989,1.348,2.989,2.854,0,1.925-1.533,3.132-3.973,3.132-2.283,0-3.824-1.178-3.924-3.04Z" transform="translate(-40.481 -17.871)" fill="#fff"></path><path id="Path_3186" data-name="Path 3186" d="M82.8,19.3v1.775h1.427V22.3H82.8v4.137c0,.643.286.942.913.942a4.725,4.725,0,0,0,.506-.036v1.213a4.213,4.213,0,0,1-.855.071c-1.519,0-2.112-.571-2.112-2.026V22.3H80.163v-1.22h1.091V19.3Z" transform="translate(-42.253 -18.116)" fill="#fff"></path><path id="Path_3187" data-name="Path 3187" d="M86.065,25.176c0-2.361,1.391-3.845,3.559-3.845s3.56,1.484,3.56,3.845-1.377,3.844-3.56,3.844S86.065,27.543,86.065,25.176Zm5.549,0c0-1.62-.742-2.576-1.99-2.576s-1.989.963-1.989,2.576.741,2.575,1.989,2.575S91.614,26.8,91.614,25.176Z" transform="translate(-43.263 -18.463)" fill="#fff"></path><path id="Path_3188" data-name="Path 3188" d="M96.186,21.426h1.47V22.7h.035A1.791,1.791,0,0,1,99.5,21.348a2.391,2.391,0,0,1,.528.057v1.441a2.171,2.171,0,0,0-.692-.093,1.553,1.553,0,0,0-1.606,1.727v4.451h-1.54Z" transform="translate(-44.995 -18.466)" fill="#fff"></path><path id="Path_3189" data-name="Path 3189" d="M107.986,26.724a3.011,3.011,0,0,1-3.231,2.3c-2.183,0-3.539-1.462-3.539-3.809s1.363-3.881,3.474-3.881c2.076,0,3.382,1.427,3.382,3.7v.528h-5.3v.093a1.954,1.954,0,0,0,2.019,2.125,1.7,1.7,0,0,0,1.733-1.055Zm-5.207-2.24h3.752a1.8,1.8,0,0,0-1.84-1.9A1.9,1.9,0,0,0,102.779,24.484Z" transform="translate(-45.856 -18.463)" fill="#fff"></path></g></g></g><g id="Group_6465" data-name="Group 6465" transform="translate(29.567 6.993)"><g id="Group_6464" data-name="Group 6464"><path id="Path_3190" data-name="Path 3190" d="M37.457,8.731a2.188,2.188,0,0,1,2.327,2.458,2.2,2.2,0,0,1-2.327,2.488H35.671V8.731Zm-1.018,4.246h.932A1.554,1.554,0,0,0,39,11.2a1.559,1.559,0,0,0-1.63-1.769h-.932Z" transform="translate(-35.671 -8.487)" fill="#fff"></path><path id="Path_3191" data-name="Path 3191" d="M41.681,12.044a1.768,1.768,0,1,1,3.52,0,1.769,1.769,0,1,1-3.52,0Zm2.763,0c0-.809-.364-1.282-1-1.282s-1,.473-1,1.282.36,1.286,1,1.286S44.444,12.857,44.444,12.044Z" transform="translate(-36.699 -8.723)" fill="#fff"></path><path id="Path_3192" data-name="Path 3192" d="M50.717,13.927h-.764l-.771-2.749h-.059l-.768,2.749H47.6l-1.029-3.732h.748l.668,2.848h.056l.768-2.848h.706l.768,2.848h.058l.666-2.848h.737Z" transform="translate(-37.536 -8.738)" fill="#fff"></path><path id="Path_3193" data-name="Path 3193" d="M53.854,10.18h.709v.593h.055a1.118,1.118,0,0,1,1.114-.665A1.214,1.214,0,0,1,57.024,11.5v2.416h-.737V11.681c0-.6-.26-.9-.806-.9a.856.856,0,0,0-.891.946v2.184h-.736Z" transform="translate(-38.782 -8.723)" fill="#fff"></path><path id="Path_3194" data-name="Path 3194" d="M59.094,8.437h.736v5.19h-.736Z" transform="translate(-39.679 -8.437)" fill="#fff"></path><path id="Path_3195" data-name="Path 3195" d="M61.218,12.044a1.768,1.768,0,1,1,3.52,0,1.769,1.769,0,1,1-3.52,0Zm2.763,0c0-.809-.364-1.282-1-1.282s-1,.473-1,1.282.36,1.286,1,1.286S63.981,12.857,63.981,12.044Z" transform="translate(-40.043 -8.723)" fill="#fff"></path><path id="Path_3196" data-name="Path 3196" d="M66.4,12.857c0-.671.5-1.059,1.388-1.114l1.01-.058v-.322c0-.394-.26-.617-.763-.617-.412,0-.7.151-.778.414h-.713c.075-.641.678-1.052,1.525-1.052.935,0,1.463.466,1.463,1.254v2.55h-.709v-.525h-.059a1.254,1.254,0,0,1-1.121.586A1.128,1.128,0,0,1,66.4,12.857Zm2.4-.318v-.312l-.911.058c-.514.035-.748.21-.748.539s.292.531.692.531A.88.88,0,0,0,68.8,12.538Z" transform="translate(-40.929 -8.723)" fill="#fff"></path><path id="Path_3197" data-name="Path 3197" d="M71.348,11.758c0-1.18.607-1.926,1.549-1.926a1.23,1.23,0,0,1,1.145.655H74.1V8.437h.736v5.19h-.705v-.59h-.059a1.294,1.294,0,0,1-1.172.652C71.948,13.688,71.348,12.941,71.348,11.758Zm.761,0c0,.792.373,1.268,1,1.268s1-.483,1-1.265-.388-1.268-1-1.268S72.109,10.973,72.109,11.758Z" transform="translate(-41.776 -8.437)" fill="#fff"></path><path id="Path_3198" data-name="Path 3198" d="M79.23,12.044a1.768,1.768,0,1,1,3.52,0,1.769,1.769,0,1,1-3.52,0Zm2.763,0c0-.809-.363-1.282-1-1.282s-1,.473-1,1.282.361,1.286,1,1.286S81.993,12.857,81.993,12.044Z" transform="translate(-43.125 -8.723)" fill="#fff"></path><path id="Path_3199" data-name="Path 3199" d="M84.669,10.18h.71v.593h.055a1.118,1.118,0,0,1,1.114-.665A1.214,1.214,0,0,1,87.839,11.5v2.416H87.1V11.681c0-.6-.26-.9-.806-.9a.856.856,0,0,0-.891.946v2.184h-.737Z" transform="translate(-44.055 -8.723)" fill="#fff"></path><path id="Path_3200" data-name="Path 3200" d="M93.241,9.074v.946h.809v.621h-.809v1.919c0,.391.161.563.528.563a2.494,2.494,0,0,0,.281-.017v.613a2.372,2.372,0,0,1-.4.038c-.819,0-1.145-.288-1.145-1.008V10.641h-.593V10.02H92.5V9.074Z" transform="translate(-45.295 -8.546)" fill="#fff"></path><path id="Path_3201" data-name="Path 3201" d="M95.705,8.437h.729v2.056h.059a1.149,1.149,0,0,1,1.138-.668,1.23,1.23,0,0,1,1.286,1.392v2.41h-.738V11.4c0-.6-.278-.9-.8-.9a.873.873,0,0,0-.94.947v2.18h-.736Z" transform="translate(-45.944 -8.437)" fill="#fff"></path><path id="Path_3202" data-name="Path 3202" d="M104.071,12.9a1.515,1.515,0,0,1-1.617,1.08,1.7,1.7,0,0,1-1.724-1.927,1.721,1.721,0,0,1,1.721-1.95c1.039,0,1.665.71,1.665,1.882v.257H101.48v.041a.987.987,0,0,0,.994,1.069.9.9,0,0,0,.889-.453Zm-2.591-1.2h1.886a.9.9,0,0,0-.919-.967A.955.955,0,0,0,101.48,11.7Z" transform="translate(-46.804 -8.723)" fill="#fff"></path></g></g></svg> 