<svg xmlns="http://www.w3.org/2000/svg" version="1.1" xmlns:xlink="http://www.w3.org/1999/xlink" xmlns:svgjs="http://svgjs.com/svgjs" width="512" height="512" x="0" y="0" viewBox="0 0 64 64" style="enable-background:new 0 0 512 512" xml:space="preserve" class=""><g><path d="M60.5,38.5A3.494,3.494,0,0,0,57.163,41H54.618L52.9,37.553A1,1,0,0,0,52,37H49V33h5.163a3.5,3.5,0,1,0,0-2H49V27h3a1,1,0,0,0,.9-.553L54.618,23h2.545a3.5,3.5,0,1,0,0-2H54a1,1,0,0,0-.9.553L51.382,25H49v-.917a3,3,0,0,0-1.5-2.6L47,21.2V8a5.006,5.006,0,0,0-5-5H22a5.006,5.006,0,0,0-5,5V21.2l-.5.289a3,3,0,0,0-1.5,2.6V25H12.618L10.9,21.553A1,1,0,0,0,10,21H6.837a3.5,3.5,0,1,0,0,2H9.382l1.723,3.447A1,1,0,0,0,12,27h3v4H9.837a3.5,3.5,0,1,0,0,2H15v4H12a1,1,0,0,0-.895.553L9.382,41H6.837a3.5,3.5,0,1,0,0,2H10a1,1,0,0,0,.895-.553L12.618,39H15v.917a3,3,0,0,0,1.5,2.6l.5.289V58a5.006,5.006,0,0,0,5,5H42a5.006,5.006,0,0,0,5-5V42.8l.5-.289a3,3,0,0,0,1.5-2.6V39h2.382l1.723,3.447A1,1,0,0,0,54,43h3.163A3.493,3.493,0,1,0,60.5,38.5Zm-3-8A1.5,1.5,0,1,1,56,32,1.5,1.5,0,0,1,57.5,30.5Zm3-10A1.5,1.5,0,1,1,59,22,1.5,1.5,0,0,1,60.5,20.5Zm-57,3A1.5,1.5,0,1,1,5,22,1.5,1.5,0,0,1,3.5,23.5Zm3,10A1.5,1.5,0,1,1,8,32,1.5,1.5,0,0,1,6.5,33.5Zm-3,10A1.5,1.5,0,1,1,5,42,1.5,1.5,0,0,1,3.5,43.5ZM19,8a3,3,0,0,1,3-3H42a3,3,0,0,1,3,3V9H19Zm0,3H45v9.042L33.5,13.4a3,3,0,0,0-3,0L19,20.042ZM45,58a3,3,0,0,1-3,3H22a3,3,0,0,1-3-3V55h8v2a2,2,0,0,0,2,2h6a2,2,0,0,0,2-2V55h8ZM29,57V55h6v2Zm16-4H19V43.958L30.5,50.6a3,3,0,0,0,3,0L45,43.958Zm2-13.083a1,1,0,0,1-.5.866l-14,8.083a1,1,0,0,1-1,0l-14-8.083a1,1,0,0,1-.5-.866V24.083a1,1,0,0,1,.5-.866l14-8.083a1,1,0,0,1,1,0l14,8.083a1,1,0,0,1,.5.866ZM60.5,43.5A1.5,1.5,0,1,1,62,42,1.5,1.5,0,0,1,60.5,43.5Z" fill="#000000" data-original="#000000"></path><path d="M36.5,20.943l-4-2.309a1,1,0,0,0-1,0l-1,.577a1,1,0,0,0-.5.866V44a1,1,0,0,0,2,0V33.5h3.5a1,1,0,0,0,0-2H32V20.655l3.5,2.021a1,1,0,0,0,1.366-.366h0A1,1,0,0,0,36.5,20.943Z" fill="#000000" data-original="#000000"></path><path d="M44.5,25.562l-5-2.887a1,1,0,0,0-1,1.733l1.5.866V40a1,1,0,0,0,2,0V26.428l1.5.866a1,1,0,0,0,1-1.732Z" fill="#000000" data-original="#000000"></path><path d="M26.5,22.5a1,1,0,0,0-1,1V36.308L21.428,26.129A1,1,0,0,0,19.5,26.5v13a1,1,0,0,0,2,0V31.692l4.072,10.179A1,1,0,0,0,27.5,41.5v-18A1,1,0,0,0,26.5,22.5Z" fill="#000000" data-original="#000000"></path></g></svg>