<svg xmlns="http://www.w3.org/2000/svg" version="1.1" xmlns:xlink="http://www.w3.org/1999/xlink" xmlns:svgjs="http://svgjs.com/svgjs" width="512" height="512" x="0" y="0" viewBox="0 0 512 512" style="enable-background:new 0 0 512 512" xml:space="preserve" class="hovered-paths"><g><g><path d="m356.365 271.808c.624-4.083 4.451-6.861 8.534-6.237s6.861 4.451 6.238 8.534c-4.395 28.096-18.797 52.876-39.438 70.539-20.385 17.407-46.837 27.954-75.699 27.954-32.208 0-61.325-13.07-82.419-34.163-21.093-21.094-34.163-50.239-34.163-82.418s13.07-61.325 34.163-82.418c21.094-21.093 50.211-34.135 82.419-34.135 28.862 0 55.314 10.518 75.699 27.926 20.64 17.663 35.043 42.443 39.438 70.539.624 4.083-2.155 7.91-6.238 8.534s-7.91-2.154-8.534-6.237c-3.828-24.467-16.387-46.043-34.39-61.466-17.749-15.139-40.77-24.297-65.975-24.297-28.04 0-53.443 11.37-71.815 29.741-18.4 18.372-29.741 43.775-29.741 71.815s11.341 53.443 29.741 71.815c18.372 18.372 43.775 29.741 71.815 29.741 25.205 0 48.226-9.158 65.975-24.297 18.002-15.427 30.562-37.003 34.39-61.47zm66.512-86.217c-2.778 1.616-5.897 1.616-8.675 0-24.638-14.204-49.275-28.408-73.913-42.641-2.296-1.332-3.742-3.798-3.742-6.464v-66.797c-25.743-11.114-53.301-16.671-80.859-16.614-27.331.028-54.69 5.585-80.263 16.614v66.796c0 2.977-1.701 5.529-4.196 6.748-24.496 14.119-48.963 28.238-73.431 42.357-2.637 1.843-5.897 1.616-8.675 0l-19.081-11c-11.341 25.913-17.011 53.698-17.011 81.511.028 27.728 5.699 55.484 17.011 81.341l19.704-11.369c2.41-1.389 5.302-1.275 7.541.057l19.421 11.228c3.573 2.042 4.792 6.606 2.75 10.178-2.069 3.601-6.634 4.82-10.206 2.778l-15.792-9.129c-19.846 11.454-39.692 22.908-59.538 34.39l59.538 34.362 59.539-34.362-14.347-8.279c-3.572-2.07-4.791-6.662-2.722-10.235 2.07-3.572 6.663-4.791 10.235-2.722l25.517 14.743c2.325 1.332 3.742 3.799 3.742 6.464v66.796c25.686 11.085 53.131 16.643 80.575 16.614 27.444 0 54.889-5.529 80.547-16.614v-66.796c0-2.949 1.729-5.528 4.225-6.748 24.666-14.232 49.36-28.465 74.054-42.726 2.41-1.389 5.302-1.275 7.542.057l19.562 11.312c11.369-25.913 17.039-53.727 17.011-81.511 0-27.728-5.67-55.456-17.011-81.341zm-11.85-87.806-59.482-34.333v68.724c19.846 11.454 39.664 22.909 59.482 34.362zm-51.997-47.318 59.51 34.39 59.538-34.39-13.069-7.542c-3.601-2.07-4.82-6.635-2.778-10.207 2.069-3.572 6.634-4.792 10.206-2.75l24.24 14.006c2.382 1.332 3.8 3.771 3.8 6.493l.057 86.018c0 2.977-1.73 5.529-4.225 6.748-13.779 7.939-27.558 15.877-41.336 23.844 12.588 28.181 18.911 58.518 18.911 88.854.028 30.393-6.294 60.786-18.911 89.052 13.92 8.023 27.869 16.047 41.79 24.099 2.325 1.332 3.743 3.799 3.771 6.464v86.019c0 2.977-1.73 5.528-4.225 6.748-24.496 14.119-48.963 28.238-73.431 42.357-2.892 1.672-5.784 1.701-8.675 0-24.553-14.375-49.275-28.408-73.913-42.641-2.296-1.332-3.742-3.799-3.742-6.464v-3.005c-25.772 10.235-53.159 15.339-80.547 15.367-27.388 0-54.775-5.132-80.575-15.367v3.005c0 2.977-1.701 5.528-4.196 6.748-24.496 14.119-48.963 28.238-73.431 42.357-2.863 1.672-5.415 1.871-8.675 0-24.751-14.035-49.275-28.408-73.913-42.641-2.296-1.332-3.743-3.799-3.743-6.464v-86.019c0-2.949 1.73-5.528 4.225-6.748 13.779-7.938 27.558-15.877 41.336-23.844-12.617-28.181-18.91-58.518-18.939-88.854 0-30.393 6.294-60.786 18.939-89.024-13.92-8.052-27.869-16.075-41.818-24.127-2.296-1.332-3.743-3.798-3.743-6.464v-86.018c0-2.949 1.73-5.528 4.225-6.748 24.666-14.232 49.36-28.464 74.054-42.726 2.41-1.389 5.302-1.275 7.541.057 24.779 14.318 49.53 28.607 74.31 42.896 3.827 2.155 3.827 5.472 3.827 9.555 25.715-10.207 52.961-15.339 80.263-15.367 27.473-.057 54.945 5.075 80.859 15.367v-3.034c0-2.949 1.729-5.528 4.225-6.748 24.666-14.232 49.36-28.464 74.054-42.726 2.41-1.389 5.302-1.275 7.542.057l20.64 11.937c3.573 2.042 4.82 6.606 2.75 10.178-2.041 3.601-6.605 4.82-10.206 2.779l-17.011-9.838c-19.847 11.452-39.693 22.906-59.511 34.361zm66.994 47.318v68.753c19.847-11.454 39.664-22.908 59.482-34.362v-68.752zm-14.997 325.08-59.482-34.362v68.753c19.846 11.454 39.664 22.908 59.482 34.362zm-52.026-47.291 59.539 34.362 59.538-34.362c-19.874-11.482-39.692-22.936-59.538-34.39-19.846 11.454-39.692 22.908-59.539 34.39zm-273.054 47.291-59.481-34.362v68.753c19.846 11.454 39.664 22.908 59.481 34.362zm14.998 0v68.753c19.847-11.454 39.664-22.908 59.482-34.362v-68.753zm-14.998-325.08-59.481-34.333v68.724c19.846 11.454 39.664 22.909 59.481 34.362zm-51.996-47.318 59.51 34.362 59.51-34.362c-19.846-11.455-39.664-22.909-59.51-34.362-19.847 11.453-39.693 22.907-59.51 34.362zm66.994 47.318v68.753c19.847-11.454 39.664-22.908 59.482-34.362v-68.724zm384.561 290.718-59.482 34.362v68.753c19.847-11.454 39.664-22.908 59.482-34.362zm-283.657-178.246c-4.14 0-7.513-3.374-7.513-7.513s3.374-7.514 7.513-7.514h29.628v-11.709c0-4.139 3.345-7.485 7.513-7.485 4.139 0 7.484 3.346 7.484 7.485v11.709h19.024v-11.709c0-4.139 3.374-7.485 7.513-7.485 4.14 0 7.513 3.346 7.513 7.485v12.56c6.408 1.446 12.163 4.678 16.699 9.186 6.238 6.181 10.093 14.715 10.093 24.127 0 10.405-4.792 20.158-12.929 26.622 8.137 6.492 12.929 16.217 12.929 26.65 0 9.384-3.855 17.918-10.093 24.099-4.536 4.508-10.292 7.768-16.699 9.214v12.532c0 4.14-3.374 7.513-7.513 7.513s-7.513-3.374-7.513-7.513v-11.709h-19.024v11.709c0 4.14-3.345 7.513-7.484 7.513-4.168 0-7.513-3.374-7.513-7.513v-11.709h-29.628c-4.14 0-7.513-3.374-7.513-7.514 0-4.139 3.374-7.485 7.513-7.485h9.526v-91.547h-9.526zm24.524 53.272v38.274h46.638c5.33 0 10.178-2.155 13.666-5.642 3.487-3.458 5.642-8.251 5.642-13.496 0-5.273-2.155-10.064-5.642-13.523s-8.336-5.614-13.666-5.614h-46.638zm46.638-53.272h-46.638v38.274h46.638c5.33 0 10.178-2.183 13.666-5.642 3.487-3.459 5.642-8.25 5.642-13.495 0-5.273-2.155-10.065-5.642-13.524-3.488-3.459-8.336-5.613-13.666-5.613z" fill="#000000" data-original="#000000" class="hovered-path"></path></g></g></svg>