<svg xmlns="http://www.w3.org/2000/svg" xmlns:xlink="http://www.w3.org/1999/xlink" viewBox="0 0 1920.15 699"><defs><style>.cls-1,.cls-14{fill:#fff;}.cls-2{fill:#c5ddf1;}.cls-3{fill:#ececec;}.cls-4{fill:#dcdcdc;}.cls-20,.cls-5{fill:#fbdb14;}.cls-6{fill:#1a2e35;}.cls-7{fill:url(#linear-gradient);}.cls-8{fill:url(#linear-gradient-2);}.cls-9{fill:url(#linear-gradient-3);}.cls-10{fill:#72b4fd;}.cls-11{fill:#a8a8a8;}.cls-12{fill:#c8c8c8;}.cls-13{fill:#375a64;}.cls-14{opacity:0.6;}.cls-14,.cls-16,.cls-17,.cls-20{isolation:isolate;}.cls-15{fill:#ffc800;}.cls-16{opacity:0.2;}.cls-17,.cls-20{opacity:0.1;}.cls-18{fill:#ed776a;}.cls-19{fill:#4492d8;}.cls-21{fill:#ff9bbe;}</style><linearGradient id="linear-gradient" x1="1777.23" y1="525.89" x2="1829.93" y2="525.89" gradientUnits="userSpaceOnUse"><stop offset="0" stop-color="#4042e2"/><stop offset="1" stop-color="#4f52ff"/></linearGradient><linearGradient id="linear-gradient-2" x1="1779.9" y1="494.44" x2="1827.27" y2="494.44" xlink:href="#linear-gradient"/><linearGradient id="linear-gradient-3" x1="1133.65" y1="352.45" x2="1713.19" y2="352.45" xlink:href="#linear-gradient"/></defs><g id="Layer_2" data-name="Layer 2"><g id="Layer_1-2" data-name="Layer 1"><g id="Layer_2-2" data-name="Layer 2"><g id="Layer_1-2-2" data-name="Layer 1-2"><rect class="cls-1" x="757.53" width="1162.61" height="698.94"/><path class="cls-2" d="M1919.51,698.93c-585.57,0-1329.42,0-1915,.07C1,699,0,698.63,0,695.91Q.18,348.15.11.38c1.42-.61,3-.3,4.48-.3C365.64.08,885,.08,1246,0c4.06,0,6.42.82,8.29,3.39,12.35,17.11,20.55,35.11,22.59,54.26,2.32,22-3.1,43.16-16.65,63.18-10.62,15.7-24.7,29.66-41.36,42.48-20,15.44-43.24,28.21-67.28,40.32a615.57,615.57,0,0,0-56.79,32.71,433.34,433.34,0,0,0-75.12,60.8c-18.91,19.35-34.28,40-45.87,62.05A184.39,184.39,0,0,0,953.57,423c-2.8,23-.18,45.67,7.17,68,13.63,41.51,41.08,78.11,80.94,109.92,40.33,32.19,90.93,52.49,150.4,61.75a598.29,598.29,0,0,0,86.85,6.67c53.63.46,106.39-4.56,158.91-11.33,60.62-7.81,120.47-18.17,180.65-27.42,43.78-6.72,87.71-12.85,132.33-16.09,19.18-1.39,38.36-2.51,57.62-2.09,28.48.61,56.72,2.68,83.83,9.52q12,3,23.59,7.13c2.66,1,4.15,2.22,4.14,4.53-.1,21.24-.06,42.47-.06,63.7C1920,697.93,1920.05,698.48,1919.51,698.93Z"/></g></g><path class="cls-3" d="M1812.1,438.14l-16.59.35-8.44.15c-2.81.05-5.64,0-8.43.06h-.56v-.56L1778,424v-.6h.64l16.74.08c5.58,0,11.16.15,16.74.21h.35V424c0,2.4-.11,4.79-.17,7.15Zm0,0-.18-7.15c-.05-2.36-.14-4.69-.16-7l.34.35c-5.58.07-11.16.21-16.74.21l-16.74.08.63-.64-.07,14.16-.56-.56c2.76,0,5.51,0,8.28.07l8.31.13Z"/><path class="cls-3" d="M1793.42,456l-16.6.35-8.43.15c-2.81.06-5.64,0-8.47.06h-.56V456l-.07-14.15v-.63h.63l16.74.08c5.58,0,11.16.14,16.75.21h.35v.34c0,2.4-.11,4.79-.16,7.15Zm0,0-.18-7.15c-.06-2.35-.14-4.68-.16-7l.34.35c-5.58.06-11.16.2-16.74.2l-16.75.08.64-.63L1760.5,456l-.57-.56c2.76,0,5.52,0,8.28.07l8.32.14Z"/><path class="cls-3" d="M1830.77,456l-16.59.35-8.43.15c-2.82.06-5.64,0-8.43.06h-.57V456l-.07-14.15v-.63h.64l16.73.08c5.58,0,11.16.14,16.74.21h.36v.34c0,2.4-.11,4.79-.16,7.15Zm0,0-.17-7.15c-.06-2.35-.15-4.68-.17-7l.34.35c-5.58.06-11.16.2-16.74.2l-16.74.08.63-.63-.07,14.15-.56-.56c2.75,0,5.51,0,8.27.07l8.32.14Z"/><path class="cls-3" d="M1359.93,269.75l-16.59.36-8.44.14c-2.81.06-5.64.05-8.43.07h-.56v-.57l-.07-14.14V255h.64l16.74.09c5.58,0,11.16.13,16.75.2h.34v.35c0,2.4-.11,4.78-.17,7.14Zm0,0-.18-7.14c0-2.36-.14-4.69-.16-7l.34.34c-5.58.07-11.16.2-16.74.21l-16.74.08.63-.63-.07,14.14-.56-.56c2.76,0,5.5,0,8.27.07l8.33.14Z"/><path class="cls-3" d="M1341.25,287.6l-16.6.35-8.43.14c-2.81.06-5.64.05-8.43.07h-.56v-.57l-.07-14.15v-.64h.64l16.74.08c5.58,0,11.16.15,16.74.21h.35v.34c0,2.4-.11,4.79-.17,7.15Zm0,0-.17-7.15c-.07-2.36-.15-4.69-.17-7l.34.34c-5.58.06-11.16.2-16.74.21l-16.74.08.63-.63-.07,14.15-.56-.57c2.76,0,5.51,0,8.27.07l8.32.15Z"/><path class="cls-3" d="M1378.61,287.6,1362,288l-8.43.14c-2.81.06-5.64.05-8.43.07h-.56v-.57l-.07-14.15v-.64h.63l16.75.08c5.58,0,11.16.15,16.74.21h.35v.34c0,2.4-.1,4.79-.17,7.15Zm0,0-.18-7.15c-.06-2.36-.14-4.69-.17-7l.35.34c-5.58.06-11.16.2-16.74.21l-16.75.08.64-.63-.07,14.15-.57-.57c2.76,0,5.52,0,8.28.07l8.32.15Z"/><path class="cls-3" d="M1642,269.75l-16.6.35-8.43.14c-2.81.06-5.64.05-8.43.07H1608v-.56l-.07-14.16V255h.63l16.75.08c5.58,0,11.16.15,16.74.21h.35v.34c0,2.4-.11,4.79-.17,7.15Zm0,0-.18-7.16c-.06-2.35-.14-4.68-.16-7l.34.35c-5.58.07-11.16.21-16.74.21l-16.75.08.63-.64-.06,14.16-.57-.56c2.76,0,5.52,0,8.28.07l8.32.13Z"/><path class="cls-3" d="M1810.16,132.32l-16.59.35-8.44.14c-2.81.06-5.64.05-8.43.07h-.56v-.57l-.07-14.15v-.65h.63l16.74.07c5.58,0,11.17.15,16.75.21h.35v.34c0,2.4-.11,4.79-.16,7.15Zm0,0-.17-7.15c-.06-2.36-.15-4.69-.17-7l.34.34c-5.58.07-11.16.2-16.74.21l-16.74.08.63-.63-.07,14.15-.56-.57c2.76,0,5.51,0,8.28.07l8.32.15Z"/><path class="cls-3" d="M1828.85,150.16l-16.6.35-8.43.15c-2.82.05-5.65,0-8.44.07h-.56v-.57l-.06-14.15v-.63h.64l16.74.07c5.58,0,11.16.15,16.75.21h.34V136c0,2.41-.11,4.79-.17,7.15Zm0,0-.19-7.15c-.05-2.36-.13-4.68-.16-7l.35.34c-5.58.07-11.17.21-16.75.21l-16.74.08.63-.63-.07,14.15-.56-.56c2.76,0,5.51,0,8.28.07l8.32.14Z"/><polygon class="cls-1" points="1145.02 428.15 1056.9 451.19 1027.32 338.08 1092.75 320.97 1115.44 315.04 1121.07 336.59 1145.02 428.15"/><rect class="cls-4" x="1041.34" y="349.62" width="74.32" height="3.01" transform="translate(-53.5 280.28) rotate(-14.45)"/><rect class="cls-4" x="1043.27" y="356.93" width="74.32" height="3.01" transform="translate(-55.27 280.99) rotate(-14.45)"/><rect class="cls-4" x="1045.82" y="367.31" width="74.19" height="3.01" transform="translate(-58.07 285.88) rotate(-14.65)"/><rect class="cls-4" x="1047.15" y="371.54" width="74.32" height="3.01" transform="translate(-58.79 282.42) rotate(-14.45)"/><rect class="cls-4" x="1049.66" y="381.96" width="74.19" height="3.01" transform="translate(-61.65 287.32) rotate(-14.65)"/><rect class="cls-4" x="1051.02" y="386.15" width="74.32" height="3.01" transform="translate(-62.31 283.85) rotate(-14.45)"/><rect class="cls-4" x="1053.49" y="396.63" width="74.19" height="3.01" transform="matrix(0.97, -0.25, 0.25, 0.97, -65.24, 288.77)"/><rect class="cls-4" x="1055.41" y="403.96" width="74.19" height="3.01" transform="translate(-67.03 289.49) rotate(-14.65)"/><rect class="cls-4" x="1057.33" y="411.29" width="74.19" height="3.01" transform="matrix(0.97, -0.25, 0.25, 0.97, -68.82, 290.21)"/><rect class="cls-4" x="1059.25" y="418.62" width="74.19" height="3.01" transform="translate(-70.61 290.94) rotate(-14.65)"/><rect class="cls-4" x="1061.16" y="425.95" width="74.19" height="3.01" transform="translate(-72.4 291.66) rotate(-14.65)"/><polygon class="cls-3" points="1168.41 460.78 1077.48 465.87 1070.95 349.14 1138.47 345.36 1163.13 366.3 1168.41 460.78"/><polygon class="cls-4" points="1138.47 345.36 1163.13 366.3 1139.71 367.61 1138.47 345.36"/><rect class="cls-4" x="1080.98" y="366.78" width="50.64" height="3.01" transform="translate(-18.83 62.33) rotate(-3.2)"/><rect class="cls-4" x="1081.4" y="374.34" width="50.64" height="3.01" transform="translate(-19.25 62.36) rotate(-3.2)"/><rect class="cls-4" x="1081.83" y="381.9" width="50.64" height="3.01" transform="translate(-19.68 62.4) rotate(-3.2)"/><rect class="cls-4" x="1082.23" y="388.81" width="74.19" height="3.01" transform="translate(-20.04 63.09) rotate(-3.2)"/><rect class="cls-4" x="1082.65" y="396.38" width="74.19" height="3.01" transform="translate(-20.46 63.13) rotate(-3.2)"/><rect class="cls-4" x="1079.99" y="406.31" width="74.33" height="3.01" transform="translate(-22.42 67.64) rotate(-3.43)"/><rect class="cls-4" x="1083.5" y="411.51" width="74.19" height="3.01" transform="translate(-21.31 63.2) rotate(-3.2)"/><rect class="cls-4" x="1083.92" y="419.08" width="74.19" height="3.01" transform="translate(-21.73 63.23) rotate(-3.2)"/><rect class="cls-4" x="1084.35" y="426.65" width="74.19" height="3.01" transform="translate(-22.15 63.27) rotate(-3.2)"/><rect class="cls-4" x="1084.78" y="434.21" width="74.19" height="3.01" transform="translate(-22.57 63.3) rotate(-3.2)"/><rect class="cls-4" x="1085.19" y="441.78" width="74.19" height="3.01" transform="translate(-22.99 63.34) rotate(-3.2)"/><rect class="cls-4" x="1085.62" y="449.34" width="74.19" height="3.01" transform="translate(-23.42 63.37) rotate(-3.2)"/><polygon class="cls-3" points="1681.93 223.66 1769.16 287.86 1812.04 229.47 1724.8 165.27 1681.93 223.66"/><polygon class="cls-1" points="1674.77 186.21 1781.21 264.54 1831.15 196.52 1724.7 118.17 1674.77 186.21"/><path class="cls-4" d="M1718.79,146.48a14.37,14.37,0,1,0,20.1-3.06,14.37,14.37,0,0,0-20.1,3.06Z"/><polygon class="cls-4" points="1707.74 210.63 1781.06 264.61 1780.97 187.92 1707.74 210.63"/><polygon class="cls-3" points="1678.98 189.5 1739.52 234.06 1733.06 179.42 1678.98 189.5"/><polygon class="cls-3" points="1624.3 150.75 1768.42 152.68 1769.61 56.29 1625.48 54.35 1624.3 150.75"/><polygon class="cls-1" points="1630.36 144.83 1762.52 146.6 1763.54 62.22 1631.39 60.44 1630.36 144.83"/><path class="cls-4" d="M1643.08,86.9a14.38,14.38,0,1,0,14.58-14.18h0A14.39,14.39,0,0,0,1643.08,86.9Z"/><polygon class="cls-4" points="1671.39 145.51 1762.43 146.72 1717.73 84.42 1671.39 145.51"/><polygon class="cls-3" points="1658.87 191.76 1715.35 192.52 1687.52 161.96 1658.87 191.76"/><path class="cls-5" d="M1843.67,436.81c-16.17,21.91-33,47.33-37.15,74.82a.37.37,0,0,0,.36.37.35.35,0,0,0,.35-.24,165.17,165.17,0,0,1,7.16-22c10.63-2.93,21.07-5.37,26.66-15.88,5.7-10.86,5-25,3.89-36.8A.72.72,0,0,0,1843.67,436.81Z"/><path class="cls-6" d="M1814.54,489.55c7.27-16.3,16.6-32.68,28.46-46.09.07-.09.2,0,.13.13-7.77,9.55-13.66,19.93-19.43,30.54,5.37-5.44,11.22-10.31,16.3-16.1.1-.11.26.05.17.16-5.05,6.05-10.55,12.62-17.11,17.09-1.76,3.25-3.54,6.51-5.37,9.77.45-.25.9-.47,1.35-.69.08,0,.15.07.07.11-.5.25-1,.52-1.53.77-.86,1.53-1.7,3.06-2.58,4.6C1814.84,490.2,1814.36,489.9,1814.54,489.55Z"/><path class="cls-6" d="M1819.91,483.87a96.54,96.54,0,0,0,12.42-8.29c.1-.09.26.06.15.14a65.69,65.69,0,0,1-12.4,8.44C1819.91,484.27,1819.72,484,1819.91,483.87Z"/><path class="cls-5" d="M1804.62,507.54c0,.33.6.32.59,0,.08-9.05,0-18.14.15-27.22,2.3-4.69,7.29-7.27,10.73-11a47.6,47.6,0,0,0,6.45-9,64.39,64.39,0,0,0,7.49-25c1-9.68-2.72-41.62-6.8-40.51-2.11.58-9,16.39-10.78,21.62A151.27,151.27,0,0,0,1806,443C1802.73,464.25,1803,486.11,1804.62,507.54Z"/><path class="cls-6" d="M1804.57,468.5h0c.49-11.45,3.07-23,5.49-34.12,2.6-12,5.64-23.22,11.8-33.89.1-.2.4,0,.3.17a125.69,125.69,0,0,0-9.5,26c.41-.64.91-1.26,1.34-1.86.17-.25.57,0,.4.23a17.1,17.1,0,0,1-1.93,2.71.09.09,0,0,1-.07,0c-2.13,8.55-3.64,17.3-5,26l.29-.34c.1-.11.18,0,.13.11-.16.29-.33.57-.51.87-.66,4.42-1.26,8.84-1.88,13.22,7.88-6.74,14.62-14.68,18.4-24.47,0-.05.09,0,.08,0-3.72,10.15-9.59,19.17-18.62,25.3-.16,1.18-.33,2.36-.49,3.53,0,.25-.43.18-.43-.05,0-1,.06-2.09.1-3.14A.24.24,0,0,1,1804.57,468.5Z"/><path class="cls-6" d="M1808.27,451.93c6-9,11.65-17.73,16.1-27.67,0-.11.24,0,.2.08-3.72,9.89-8.93,19.89-16,27.83C1808.41,452.31,1808.15,452.1,1808.27,451.93Z"/><path class="cls-6" d="M1816.27,422c2.5-4.42,5.13-8.72,7.48-13.22.07-.13.24,0,.19.11a68.93,68.93,0,0,1-7.28,13.33C1816.49,422.48,1816.13,422.28,1816.27,422Z"/><path class="cls-6" d="M1815.31,424s0,0,0,0a0,0,0,0,1,0,0h0a0,0,0,0,1,0,0S1815.29,424,1815.31,424Z"/><path class="cls-5" d="M1798.49,481.37a92.18,92.18,0,0,1-2.11,17.83c.09.64.18,1.29.28,1.95a84.76,84.76,0,0,0,3.18-19.88.56.56,0,0,0,0-.61h0a131.27,131.27,0,0,0-2-26.92c-2.8-16.63-8.92-32.59-20.51-45.06a.84.84,0,0,0-1.18.1.91.91,0,0,0-.11.16c-4.68,11.91-3.07,26.11.94,38a69.52,69.52,0,0,0,9.2,18C1790.19,470.53,1795.26,475.26,1798.49,481.37Z"/><path class="cls-6" d="M1778.73,414.23c11,17.84,18.64,39,19.57,60.07,0,.37-.61.47-.66.08-.26-1.89-.56-3.76-.86-5.63h0c-4.54-4.36-9.19-8.95-12.46-14.39-.06-.1.08-.22.15-.12,4,4.52,7.67,9.15,12.12,13.18q-1.18-7-2.83-13.8l-.87-1c-.18-.22.13-.54.33-.32l.26.29a159.39,159.39,0,0,0-5.74-18.24c-2.8-3.34-5.93-6.23-8-10.24a.09.09,0,0,1,0-.12.09.09,0,0,1,.11,0c1.64,2.3,3.23,4.6,5.08,6.75.77.85,1.53,1.64,2.3,2.47a141.05,141.05,0,0,0-9-18.76.26.26,0,0,1,.21-.29A.26.26,0,0,1,1778.73,414.23Z"/><path class="cls-6" d="M1781,436.24c3.55,4.78,7.6,9.34,10.91,14.29.09.14-.12.29-.23.17-4.25-4-7.84-9.41-10.92-14.32C1780.62,436.23,1780.85,436.1,1781,436.24Z"/><path class="cls-6" d="M1792.35,451.63l.15.15a.12.12,0,0,1,0,.17.11.11,0,0,1-.16,0l-.16-.15a.13.13,0,0,1,0-.17A.09.09,0,0,1,1792.35,451.63Z"/><path class="cls-5" d="M1761.5,448.53c.89,9.2,5.72,20.14,11.6,27.21a28.91,28.91,0,0,0,9.41,7.34c4.07,2,8.34,4.34,12.55,6a83.08,83.08,0,0,1,4.45,15.79c.13-.46.26-.94.4-1.4-2.7-23.24-17.74-43.1-37-55.85a1,1,0,0,0-1.3.28A1,1,0,0,0,1761.5,448.53Z"/><path class="cls-6" d="M1768.15,455.39c-.14-.12,0-.36.2-.25a79,79,0,0,1,24.53,30.21c.14.31-.3.59-.47.27-.9-1.56-1.81-3.1-2.74-4.6h0c-4.39-.83-8.55-3.92-11.81-6.84a.09.09,0,1,1,.13-.13,27.43,27.43,0,0,0,5.55,3.89c1.8.91,3.72,1.49,5.59,2.22-1.63-2.59-3.32-5.06-5.09-7.46-4.73-1.61-9.2-4.52-13.2-7.42a.13.13,0,0,1,.12-.22,132.42,132.42,0,0,0,12.27,6.56,109.54,109.54,0,0,0-8.65-10.09c-1.49-.77-3-1.58-4.46-2.43a.11.11,0,0,1,0-.16.12.12,0,0,1,.14-.06,15.86,15.86,0,0,1,3.41,1.67C1771.85,458.83,1770.08,457.08,1768.15,455.39Z"/><path class="cls-6" d="M1768.54,463.43a5,5,0,0,1,.77.52c.07.07,0,.15-.09.12a4.51,4.51,0,0,1-.77-.44C1768.3,463.54,1768.43,463.33,1768.54,463.43Z"/><polygon class="cls-7" points="1829.93 555.18 1777.23 555.18 1781.48 507.18 1782.42 496.6 1824.74 496.6 1825.67 507.18 1829.93 555.18"/><polygon class="cls-6" points="1825.67 507.18 1781.48 507.18 1782.42 496.6 1824.74 496.6 1825.67 507.18"/><rect class="cls-8" x="1779.9" y="489.2" width="47.37" height="10.47"/><rect class="cls-3" x="1129.38" y="155.75" width="588.09" height="393.39"/><rect class="cls-9" x="1133.65" y="160.55" width="579.55" height="383.79"/><rect class="cls-4" x="1052.77" y="578.65" width="741.29" height="27"/><polygon class="cls-3" points="1052.78 578.65 1129.37 549.15 1717.47 549.15 1794.07 578.65 1052.78 578.65"/><polygon class="cls-6" points="1136.21 568.18 1185.64 549.15 1661.2 549.15 1710.62 568.18 1136.21 568.18"/><rect class="cls-1" x="1166.4" y="189.71" width="514.04" height="325.47"/><rect class="cls-5" x="1165.96" y="202.24" width="505.35" height="82.14"/><rect class="cls-10" x="1165.96" y="189.71" width="514.48" height="12.53"/><path class="cls-10" d="M1175.92,196a3.07,3.07,0,1,1-3.07-3.1,3.06,3.06,0,0,1,3.07,3.1Z"/><path class="cls-10" d="M1188.6,196a3.07,3.07,0,1,1-3.07-3.1,3.06,3.06,0,0,1,3.07,3.1Z"/><path class="cls-10" d="M1201.29,196a3.12,3.12,0,1,1-3.12-3.1h0a3.1,3.1,0,0,1,3.11,3.1Z"/><rect class="cls-4" x="1671.32" y="202.24" width="9.12" height="312.96"/><path class="cls-11" d="M1675.91,310.7h0a2.35,2.35,0,0,1-2.35-2.34h0V206.44a2.35,2.35,0,0,1,2.34-2.36h0a2.36,2.36,0,0,1,2.3,2.36v102A2.35,2.35,0,0,1,1675.91,310.7Z"/><rect class="cls-1" x="1522.12" y="217.5" width="122.86" height="16.4"/><path class="cls-12" d="M1645.15,234H1522v-16.7h123.2Zm-122.86-.33h122.52v-16.1H1522.29Z"/><rect class="cls-13" x="1628.41" y="217.33" width="16.74" height="16.74"/><path class="cls-1" d="M1642,230.3l-1.53,1.14-2.81-3.7-1-1.36a2.59,2.59,0,0,0,.59-.32,2.49,2.49,0,0,0,.77-1l1.1,1.44Z"/><path class="cls-1" d="M1639,221.58a4.13,4.13,0,1,0-1.34,6.13,4.28,4.28,0,0,0,.57-.37,4,4,0,0,0,.86-.89A4.14,4.14,0,0,0,1639,221.58Zm-1.78,4.48a2.59,2.59,0,0,1-.59.32,2.41,2.41,0,1,1,1.38-3.11A2.43,2.43,0,0,1,1637.22,226.06Z"/><rect class="cls-12" x="1525.54" y="220.73" width="0.88" height="9.95"/><rect class="cls-1" x="1232.99" y="217.5" width="282.97" height="16.4"/><path class="cls-12" d="M1516.12,234H1232.8v-16.7h283.29Zm-283-.33h282.62v-16.1H1233.16Z"/><rect class="cls-12" x="1236.42" y="220.73" width="0.88" height="9.95"/><polygon class="cls-1" points="1202.04 231.31 1196.07 225.82 1202.03 220.1 1202.96 221.06 1198.02 225.79 1202.94 230.33 1202.04 231.31"/><polygon class="cls-1" points="1216.45 220.09 1222.42 225.59 1216.47 231.31 1215.54 230.34 1220.48 225.61 1215.55 221.07 1216.45 220.09"/><rect class="cls-5" x="1358.39" y="302.45" width="130.3" height="99.97"/><path class="cls-14" d="M1371.36,324.31a11.83,11.83,0,1,0,13.92-9.29,12,12,0,0,0-4.63,0A11.86,11.86,0,0,0,1371.36,324.31Z"/><polygon class="cls-15" points="1401.37 380.88 1488.68 380.88 1445.02 327.08 1401.37 380.88"/><polygon class="cls-16" points="1401.37 380.88 1488.68 380.88 1445.02 327.08 1401.37 380.88"/><polygon class="cls-15" points="1358.39 380.93 1435.82 380.93 1397.1 345.9 1358.39 380.93"/><polygon class="cls-17" points="1358.39 380.93 1435.82 380.93 1397.1 345.9 1358.39 380.93"/><rect class="cls-15" x="1358.39" y="380.88" width="130.3" height="21.53"/><rect class="cls-17" x="1358.39" y="380.88" width="130.3" height="21.53"/><rect class="cls-11" x="1193.84" y="416.26" width="68.91" height="5.8"/><rect class="cls-3" x="1193.84" y="429.7" width="292.83" height="5.8"/><rect class="cls-3" x="1193.84" y="442.46" width="292.83" height="5.8"/><rect class="cls-3" x="1193.84" y="455.22" width="292.83" height="5.8"/><rect class="cls-3" x="1193.84" y="467.97" width="292.83" height="5.8"/><rect class="cls-3" x="1193.84" y="480.72" width="292.83" height="5.8"/><rect class="cls-11" x="1506.58" y="303.32" width="68.91" height="5.8"/><rect class="cls-3" x="1506.58" y="316.78" width="146.42" height="5.8"/><rect class="cls-3" x="1506.58" y="329.53" width="146.42" height="5.8"/><rect class="cls-3" x="1506.58" y="342.28" width="146.42" height="5.8"/><rect class="cls-3" x="1506.58" y="355.04" width="146.42" height="5.8"/><rect class="cls-3" x="1506.58" y="378.69" width="146.42" height="5.8"/><rect class="cls-3" x="1506.58" y="391.44" width="146.42" height="5.8"/><rect class="cls-3" x="1506.58" y="404.2" width="146.42" height="5.8"/><rect class="cls-3" x="1506.58" y="416.95" width="146.42" height="5.8"/><rect class="cls-3" x="1506.58" y="429.7" width="146.42" height="5.8"/><rect class="cls-3" x="1506.58" y="455.22" width="146.42" height="5.8"/><rect class="cls-3" x="1506.58" y="467.97" width="98.68" height="5.8"/><rect class="cls-6" x="1608.22" y="464.32" width="0.63" height="13.11"/><rect class="cls-11" x="1193.84" y="302.46" width="68.91" height="15.51"/><rect class="cls-3" x="1193.84" y="328.66" width="146.2" height="5.8"/><rect class="cls-3" x="1193.84" y="341.42" width="146.2" height="5.8"/><rect class="cls-3" x="1193.84" y="354.17" width="146.2" height="5.8"/><rect class="cls-3" x="1193.84" y="366.92" width="146.2" height="5.8"/><rect class="cls-3" x="1193.84" y="383.89" width="146.2" height="5.8"/><rect class="cls-3" x="1193.84" y="396.65" width="146.2" height="5.8"/><path class="cls-5" d="M1459.6,623.08s-29.13,2-28.9-17.94S1460,587.86,1460,587.86Z"/><path class="cls-5" d="M1689.3,603.7l-.1,8.74-25.47,12.95h0l-115.08-1.31-74.07-.83-8.16-.09h-.85l-6-.07h-1l.41-35.27H1460l5.91.06h.86l8.15.09,189.18,2.15h0l25.16,13.53Z"/><polygon class="cls-5" points="1694.94 608.12 1689.23 611.07 1689.21 611.08 1689.28 605.13 1692.71 606.93 1694.94 608.12"/><rect class="cls-6" x="1441.13" y="601.46" width="41.12" height="8.16" transform="translate(839.61 2060.26) rotate(-89.35)"/><rect class="cls-6" x="1450" y="601.47" width="41.12" height="8.16" transform="translate(848.63 2069.25) rotate(-89.36)"/><polygon class="cls-6" points="1474.48 626.2 1474.63 612.93 1548.81 621.08 1548.47 625.97 1474.48 626.2"/><path class="cls-6" d="M1280.07,377.48c7.17,8.69,12.86,58,3.78,77.28s-48,23.33-56.47-1.47c-4.41-12.9,6.7-27.32,11.88-61.47C1243.11,366.39,1270.05,365.33,1280.07,377.48Z"/><path class="cls-6" d="M1275.73,461.9a27,27,0,0,0,12.87-16.26c2.06-7.4,1.77-15.62,1.4-23.23a141.73,141.73,0,0,0-9.8-44.65c0-.06.07-.1.09,0a131.37,131.37,0,0,1,10.44,47.21c.26,7.66.48,16.25-2.51,23.5A27.15,27.15,0,0,1,1275.79,462C1275.73,462,1275.65,461.93,1275.73,461.9Z"/><path class="cls-6" d="M1228,424.73c2.2-4.68,4.82-9.15,6.37-14.11,1.53-4.8,2.16-9.8,3.17-14.72,1.53-7.55,4.25-15.2,10.6-20h0c-6.48,5.19-8.73,13.32-10.25,21.13-.83,4.27-1.48,8.59-2.68,12.78a63.12,63.12,0,0,1-4.56,10.87c-4.2,8.37-7.49,17-5.56,26.52a25.06,25.06,0,0,0,14.1,18c.23.1.07.5-.16.41a24.87,24.87,0,0,1-13.77-15.48C1222.51,441.61,1224.22,432.66,1228,424.73Z"/><path class="cls-6" d="M1230.74,425.12a65.46,65.46,0,0,0,4.38-13.72c.85-4.51,1.29-9.08,2.05-13.61,1.29-7.73,3.69-15.69,9.82-21.1.08-.07.2,0,.12.11-5.79,5.71-8.15,13.38-9.42,21.13-1.35,8.36-2,16.6-5.22,24.54-3.06,7.72-7.38,15.49-6.94,24,.43,8.38,6.13,14.88,13,19.16a.16.16,0,0,1,0,.21.15.15,0,0,1-.2.05c-6.14-3.53-11.5-9.14-13-16.1C1223.47,441.27,1227.43,432.88,1230.74,425.12Z"/><path class="cls-18" d="M1535.48,567.28c-3,1.15-90.06,2.73-93.47.77-.37-.22-.27-4.06-1.53-14-.06-.46-2-2.3-5.15-4.91-11.64-9.76-39-30.34-39-30.34l43.46-37.71,42.1,41.39,10.95,10.74s35.57,19.21,39.1,21.75S1538.48,566.13,1535.48,567.28Z"/><path class="cls-5" d="M1535.47,567.28c-3,1.16-90.06,2.73-93.46.77-.37-.22-.26-4.07-1.53-14,10.68,2.85,76.08,4.6,81.08.29,3.32-2.87-9.55-10.61-14.82-13.58,10.39,5.67,23.14,12.72,25.17,14.18C1535.4,557.5,1538.47,566.13,1535.47,567.28Z"/><path class="cls-19" d="M1482.46,520.15,1428.76,548s-56-50.65-61.07-51-80.4,50.7-118.3,50.85c-39.24.17-41.23-40.95-41.23-40.95l57.26-13.15c41.26-20.34,84.25-56.87,112.37-53.46C1408.36,444,1482.46,520.15,1482.46,520.15Z"/><path class="cls-19" d="M1469.34,513.09c-9.07,4.49-6.52,3.07-15.54,7.67-4.41,2.24-26.62,13.44-30.39,16.22a.1.1,0,0,0,0,.14.08.08,0,0,0,.09,0c4.44-1.48,26.4-13.17,30.77-15.49,8.93-4.74,6.32-3.47,15.2-8.3a.14.14,0,0,0,.07-.2.16.16,0,0,0-.2-.07Z"/><path class="cls-19" d="M1419.24,535.15c-10.49-9.26-44.9-39.4-46.3-40.52a18,18,0,0,0-3.58-2.68,3.75,3.75,0,0,0-3.31.27l-4.72,2.3-9.31,4.54c-12,5.87-24,11.9-36.12,17.58-11.66,5.46-20,10.6-32.2,14.8a182.31,182.31,0,0,1-37.36,8.9c-1.53.2-3.14.37-4.71.51a.1.1,0,0,0-.12.06.11.11,0,0,0,.06.12h.06a151.15,151.15,0,0,0,36.8-6.84c12.06-3.71,20.25-8.53,31.7-13.8,11.88-5.47,23.59-11.32,35.27-17.13,6.18-3.06,12.34-6.17,18.54-9.2,1.41-.69,3.41-2.18,5-1.44a8.59,8.59,0,0,1,1.86,1.37l2.06,1.71c2.65,2.21,44.82,38.53,46.2,39.58C1419.2,535.38,1419.35,535.24,1419.24,535.15Z"/><path class="cls-10" d="M1208.05,506.86s-6.42,37.13,12.15,51.72,154.58,12.82,175.21,6.13,21.29-40-1.27-47.69c-21.46-7.34-112.75-10.91-115-11.8-.57-.23,8.09-5.42,8-5.74l-20.77-6.34Z"/><path class="cls-10" d="M1236.23,505.92c0-.16-.27-.1-.27.05a18.37,18.37,0,0,1-4.29,11.79c-3.16,3.65-7.82,5.7-12,7.83-.41.2-.1.84.32.71a37.27,37.27,0,0,0,7.48-3.24,18.25,18.25,0,0,0,5.6-4.66A16,16,0,0,0,1236.23,505.92Z"/><path class="cls-10" d="M1277.64,501.32c-.94-1.2-2-2.35-3-3.52-2.3-2.76-4.65-5.54-7.09-8.21-.23-.26-.68.1-.47.38,1.64,2.15,3.38,4.22,5.09,6.32.87,1.07,1.75,2.14,2.64,3.2a20.06,20.06,0,0,1,2.46,3.13,1.53,1.53,0,0,1-1.43,2.3,4.28,4.28,0,0,1-3-1.1,40.59,40.59,0,0,1-5-5.36c-1-1.11-2-2.2-2.95-3.29s-2.18-2.26-3.24-3.41a.09.09,0,0,0-.14.11c.92,1.26,1.78,2.58,2.7,3.83s1.86,2.52,2.81,3.76,1.83,2.3,2.8,3.46a11.64,11.64,0,0,0,2.83,2.54c1.77,1,4.83,1.26,5.77-1A3.17,3.17,0,0,0,1277.64,501.32Z"/><path class="cls-10" d="M1392.59,564.85c-7.1.14-14.2.56-21.31.7s-14.1.19-21.15.13q-21.24-.21-42.44-1.65c-14.28-1-29.67-2.41-43.85-4.37-6.79-.95-13.66-1.73-20.37-3.17a32.7,32.7,0,0,1-16.1-8.2c-9.2-8.91-12.76-22-14.22-34.5-.2-1.68-.36-3.36-.5-5a.09.09,0,0,0-.08-.08.08.08,0,0,0-.09.08h0c.83,12.83,2.82,26.21,10.89,36.52a32.13,32.13,0,0,0,13.14,10.21c6.35,2.55,13.4,3.14,20.11,4,14.23,1.93,29.69,3.42,44,4.53s28.84,1.82,43.3,2,28.9,0,43.34-.7c1.76-.09,3.52-.19,5.28-.34a.1.1,0,1,0,0-.19Z"/><path class="cls-10" d="M1347.79,510.28c-4.47-.65-8.94-1.3-13.43-1.77s-9.09-.88-13.64-1.26c-9-.77-18-1.45-27-1.87-5.12-.25-10.25-.27-15.37-.2a.12.12,0,1,0,0,.24c9,.82,18,1.39,27.08,2s18,1.4,27,2.25c5.1.49,10.2.86,15.33,1.28C1348.1,511,1348.17,510.33,1347.79,510.28Z"/><path class="cls-10" d="M1288.25,499.05a69.11,69.11,0,0,0-10.35,5.55,82.36,82.36,0,0,0-9.59,6.7c-.08.07,0,.17.12.14,3.51-1.63,6.9-3.66,10.23-5.61a95.06,95.06,0,0,0,9.81-6.3C1288.69,499.36,1288.55,498.92,1288.25,499.05Z"/><path class="cls-18" d="M1249.84,432.68c6.9,23.41,19.93,51.19,25,55.52,6.45,5.47,47.44,13.74,49.46,13.84,5,.2,12.81-36.27,7.47-36.71-8.15-.68-37.57-.49-39.48-2.19s-15.28-16.65-29.13-33.54C1253.67,417.94,1245.56,418.15,1249.84,432.68Z"/><path class="cls-18" d="M1320.19,500.34c.62.27,9.3,4,14.57,5.18,4,.9,15.41,3.16,16.82-1.1,1-2.91-5.61-5-10.24-6.63-2.43-.84-5.5-3.15-4.9-4.72,1.06-2.74,7.34-.43,11.5,1.66,8,4,18.89,11.54,23.4,7.31,1.7-1.6-.54-4.19-3.75-6.67,5.13,2.8,10.56,5,12.52,3.33,1.13-1,1.11-2.21.36-3.58,1.54.41,2.91.23,3.79-.82,1.53-1.79.57-4.22-1.35-6.66a1.9,1.9,0,0,0,1.4-1c3.07-5.37-14.85-19.27-20.83-20.3-17.58-3.07-35.81-1.19-35.81-1.19C1321.23,470.93,1320.19,500.33,1320.19,500.34Z"/><path class="cls-6" d="M1344.72,482.83a29.62,29.62,0,0,1,11.84,3.75c4.6,2.64,7.67,5.86,11.59,9.05a.1.1,0,1,1-.13.16c-1.85-1.54-9.5-7.19-11.5-8.43a28,28,0,0,0-11.83-4.43s0,0,0-.06S1344.7,482.82,1344.72,482.83Z"/><path class="cls-6" d="M1347.5,475.28a71.43,71.43,0,0,1,13.74,3.83c4.77,2.08,8.63,5.71,12.42,9.2q3.4,3.13,6.67,6.43a.1.1,0,1,1-.13.16q-5.76-5.37-11.86-10.46a37.23,37.23,0,0,0-12.73-7c-2.67-.83-5.37-1.46-8.12-2.09C1347.44,475.35,1347.45,475.27,1347.5,475.28Z"/><path class="cls-6" d="M1352,468.55c4.48.64,8.43,1.19,12.45,3.32,5.37,2.82,10.74,7.81,12.59,9.58,2.07,2,4.07,4,6,6,.08.08-.06.22-.15.14a144.67,144.67,0,0,0-14.32-12.55,29.34,29.34,0,0,0-7.85-4.46,53.77,53.77,0,0,0-8.76-2S1352,468.55,1352,468.55Z"/><path class="cls-5" d="M1324.79,463.8l-10,40.09s-34.17-7.54-40.7-13.8-19.94-39.73-24.28-56.09,4.05-16.45,12.38-6.48,29,34.11,30.14,34.61S1324.79,463.8,1324.79,463.8Z"/><path class="cls-5" d="M1310.53,486.59c1.21-4.72,2.47-9.44,3.52-14.21.59-2.7,1.21-5.42,1.77-8.13,0-.1-.15-.15-.18-.05-1.41,4.69-2.82,9.4-4,14.15s-2.42,9.47-3.55,14.21q-1,4.05-1.68,8.15a.05.05,0,0,0,.07,0s0,0,0,0C1308.06,496.09,1309.3,491.35,1310.53,486.59Z"/><path class="cls-5" d="M1310.65,463.53a18.59,18.59,0,0,1-.16,2.69,15.57,15.57,0,0,1-.65,2.61,16.16,16.16,0,0,1-2.59,4.73,11.9,11.9,0,0,1-4.16,3.39,16.64,16.64,0,0,1-5.16,1.5,30.11,30.11,0,0,1-4.55.25h-.82c-1.79-.05-3.57-.19-5.37-.34a103.33,103.33,0,0,0-10.69-.71,19.91,19.91,0,0,0-5.26.71,9.81,9.81,0,0,0-3.51,1.82l-.08-.15a10,10,0,0,1,3.55-1.84,19.79,19.79,0,0,1,5.3-.76,98.59,98.59,0,0,1,10.73.68c1.78.15,3.57.29,5.37.33h1.11a31.35,31.35,0,0,0,4.22-.26,16.68,16.68,0,0,0,5.08-1.48,11.35,11.35,0,0,0,4.06-3.34,16,16,0,0,0,2.54-4.64,15.17,15.17,0,0,0,.77-5.22,1.82,1.82,0,0,0,0-.33h.28C1310.65,463.31,1310.65,463.42,1310.65,463.53Zm-10.66-.77v-.06h-.25v.09a19,19,0,0,1-5.25,14.61,11.85,11.85,0,0,1-1.15,1.09,1.56,1.56,0,0,1-.28.23,16.26,16.26,0,0,1-2.8,1.87,26.43,26.43,0,0,1-5,2c-3.41,1-7,1.64-10.24,3.15a18,18,0,0,0-3.07,1.78s.07.09.08.13a17.3,17.3,0,0,1,3.07-1.76c3.25-1.49,6.79-2.13,10.22-3.12a27.86,27.86,0,0,0,5-2,15.52,15.52,0,0,0,3-2,1.54,1.54,0,0,0,.29-.23c.34-.3.66-.62,1-.95a21,21,0,0,0,4.93-9.4,19.9,19.9,0,0,0,.4-5.39Z"/><path class="cls-20" d="M1315.81,499.87l-1,4s-34.17-7.55-40.71-13.8-19.93-39.73-24.28-56.09c-3.18-12,.47-15.24,5.91-12.23C1270.87,441,1299.41,477.65,1315.81,499.87Z"/><path class="cls-5" d="M1205.07,510.79c2.54,1,76.91-16.55,76.91-16.55l-7.38-25.88s4.68-8,3.07-15.94c-2.12-10.65-20.7-28.92-22.19-30-5.93-4.38-11.33-5.24-16.55-2.79C1217.19,429.8,1205.07,510.79,1205.07,510.79Z"/><path class="cls-1" d="M1275,445.67l.12.22a5.43,5.43,0,0,1-.55-.06h-.35a13,13,0,0,0-1.53,0,19,19,0,0,0-5.22,1.08,18.79,18.79,0,0,0-4.73,2.39,20.29,20.29,0,0,0-3.88,3.64,35.9,35.9,0,0,0-3.06,4.39c-.92,1.54-1.8,3.07-2.73,4.6a29.58,29.58,0,0,1-3.18,4.35,18.08,18.08,0,0,1-2,1.85,12.88,12.88,0,0,1-2.3,1.48,16.25,16.25,0,0,1-5.11,1.68,11.76,11.76,0,0,1-5.37-.36,16.5,16.5,0,0,1-4.79-2.42,30.31,30.31,0,0,1-3.48-2.91l-.22-.22-.39-.36c-1.28-1.26-2.49-2.58-3.68-3.91-1.6-1.78-3.16-3.6-4.81-5.36a.86.86,0,0,1,.06-.23c1.69,1.75,3.29,3.6,4.92,5.41,1.19,1.33,2.4,2.64,3.67,3.89.19.18.37.37.56.53s.16.16.23.23a28.08,28.08,0,0,0,3.28,2.69,16.36,16.36,0,0,0,4.73,2.4,11.57,11.57,0,0,0,5.23.33,16.45,16.45,0,0,0,5-1.66,15.87,15.87,0,0,0,4.15-3.27,28.84,28.84,0,0,0,3.15-4.31c.94-1.53,1.81-3.06,2.75-4.59a34.33,34.33,0,0,1,3.06-4.41,19.77,19.77,0,0,1,3.92-3.67,20.11,20.11,0,0,1,10.07-3.49h1.71Zm.7,1.29-.77-.77c-.13-.13-.25-.25-.38-.36a2.28,2.28,0,0,0-.22-.22,28.31,28.31,0,0,0-3.48-2.9,16.09,16.09,0,0,0-4.8-2.43,11.58,11.58,0,0,0-5.36-.36,16.81,16.81,0,0,0-5.12,1.67,16.05,16.05,0,0,0-2.3,1.48,18.12,18.12,0,0,0-2,1.86,30,30,0,0,0-3.17,4.34c-.94,1.53-1.81,3.07-2.73,4.6a35.87,35.87,0,0,1-3.07,4.38,20.28,20.28,0,0,1-3.83,3.63,19.08,19.08,0,0,1-4.74,2.41,18.56,18.56,0,0,1-5.21,1,10.42,10.42,0,0,1-1.58,0,1,1,0,0,1-.34,0,17.43,17.43,0,0,1-3.36-.54,26.59,26.59,0,0,1-4.93-2c-.77-.4-1.6-.82-2.39-1.25a.58.58,0,0,0,0,.18c.76.42,1.53.85,2.3,1.24a27.13,27.13,0,0,0,5,2,17.73,17.73,0,0,0,3.63.58h.34c.45,0,.91,0,1.36,0a19.84,19.84,0,0,0,5.28-1.08,18.73,18.73,0,0,0,4.79-2.41,20.43,20.43,0,0,0,3.93-3.67,36.2,36.2,0,0,0,3.07-4.41c.94-1.53,1.81-3.07,2.74-4.6a30.87,30.87,0,0,1,3.16-4.3,15.67,15.67,0,0,1,4.15-3.27,16.48,16.48,0,0,1,5-1.66,11.62,11.62,0,0,1,5.24.34,16.53,16.53,0,0,1,4.73,2.37,30.33,30.33,0,0,1,3.27,2.71,1.45,1.45,0,0,1,.22.21l.58.55c.42.4.82.82,1.21,1.24-.08-.22-.2-.43-.3-.64Z"/><path class="cls-6" d="M1265.1,432.07c1.78,2.3,3.7,4.48,5.54,6.73-.83-1.65-1.65-3.3-2.54-4.92,0,0,0-.07.05,0a36.15,36.15,0,0,1,3.42,6.14,48.81,48.81,0,0,1,3.78,5.36,23,23,0,0,1,3,7.26,19.5,19.5,0,0,1-.17,7.87,50.78,50.78,0,0,1-2.92,8.64c-.15.37-.68.1-.56-.26,1.63-4.9,3.46-10.07,2.61-15.34s-3.83-9.69-6.73-13.92a72.06,72.06,0,0,0-5.61-7.41C1264.86,432.09,1265,432,1265.1,432.07Z"/><path class="cls-18" d="M1231.81,424.3c-14.84,11.41-54,57.57-45.78,68.52s64.21,7.31,80.57,2.59c4.86-1.39-7.62-32.34-12.81-33.88-4.32-1.27-28.58,5.32-29,3.91-.5-1.59,4.88-11.82,13.55-30.52C1248.31,413.37,1238.37,419.26,1231.81,424.3Z"/><path class="cls-18" d="M1277.69,456.17c11.21.29,14,2.08,23.64-2.7,6.29-3.14,11-.47,6.71,5.47-7,9.7-21.53,12.37-26.83,11.84Z"/><path class="cls-18" d="M1246.84,461.9s13.44-4.8,25.41-5.67c8.29-.61,26.45.08,40.57,20.45,3.36,4.83,4.7,14.09-3.64,8.19-5.91-4.19-8.43-8.64-12.26-10.46,0,0,.31,12-4.66,15.15a108.5,108.5,0,0,1-13.58,7.35,21.63,21.63,0,0,1-1.61-2.42s-4.92,2.52-13,.37Z"/><path class="cls-18" d="M1280.26,456.91c3.47,2.62,10.73,8.28,15.1,15,4.82,7.45,12.11,23.1,6.57,26.61-4,2.57-7.37-3.17-7.37-3.17s1.65,7.11-2.52,8.63c-3.83,1.39-6.13-3.21-6.13-3.21s.26,4.49-3.66,5.12c-4.72.76-4.48-8.77-10-12.13C1271.13,493,1280.26,456.91,1280.26,456.91Z"/><path class="cls-6" d="M1286.64,475.69c2.86,3,7.66,11.5,8,19.49,0,.19-.13.29-.17.13a87.36,87.36,0,0,0-7.92-19.58s0,0,0-.05S1286.62,475.67,1286.64,475.69Z"/><path class="cls-6" d="M1279.25,480.78c2.22,2.83,6.74,11.79,6.85,19.93,0,.18-.14.28-.18.11a93.33,93.33,0,0,0-6.73-20S1279.23,480.74,1279.25,480.78Z"/><path class="cls-6" d="M1296.9,474.35c3.4,1.64,5.43,3.77,8.1,6.37a49.37,49.37,0,0,0,4.11,3.67c1.33,1,3.28,2.57,5,1.59a3,3,0,0,0,1.14-2.8,14.38,14.38,0,0,0-1.29-4.4s.07-.09.09,0a20.88,20.88,0,0,1,1.54,4,4.88,4.88,0,0,1-.14,2.83c-.85,1.89-3.22,1.76-4.77.95a15.54,15.54,0,0,1-2.59-1.83c-.77-.63-1.54-1.32-2.3-2-1.54-1.43-2.93-2.94-4.43-4.39a46.92,46.92,0,0,0-4.6-3.83S1296.83,474.31,1296.9,474.35Z"/><path class="cls-6" d="M1302.3,488.14a113.85,113.85,0,0,0-5.49-13.73s0-.05,0-.06h0c2.36,3.07,5.67,10.85,6.34,13.26s1.38,5.42,1,7.9c-.61,3.73-3.21,4-4.15,4.06a4.92,4.92,0,0,1-3.07-1.05,9.71,9.71,0,0,1-2.43-3.18c0-.06,0-.11.08-.06,1,1.69,3,3.5,5,3.56a3.43,3.43,0,0,0,2.52-.86,4.45,4.45,0,0,0,1.09-2.91A20.71,20.71,0,0,0,1302.3,488.14Z"/><path class="cls-15" d="M1246.84,461.9l11.25,39.19s-70.06,4-73.94-8.73,30-54.43,44-65.85c16.27-13.27,17.15-7.67,11.85,5.58-5.55,13.89-15.1,33.73-15.1,33.73Z"/><path class="cls-1" d="M1228.13,459l-.12.25a8.69,8.69,0,0,1-1.25,0,16.45,16.45,0,0,1-5.21-1.32,32,32,0,0,1-4-2.09l-.28-.17c-.15-.08-.29-.17-.43-.26-1.53-.95-3-2-4.44-3.06-1.69-1.22-3.38-2.47-5.1-3.65a1,1,0,0,1,.13-.16c1.72,1.18,3.4,2.43,5.1,3.63,1.45,1,2.92,2.06,4.42,3,.21.14.44.27.67.4a1.12,1.12,0,0,0,.28.16,28.56,28.56,0,0,0,3.77,1.94,16.54,16.54,0,0,0,5.13,1.29A12.28,12.28,0,0,0,1228.13,459Zm10.32-30.88a17.11,17.11,0,0,0-1.54,2.24,28.65,28.65,0,0,0-2.15,4.92c-.59,1.69-1.1,3.41-1.67,5.1a35.31,35.31,0,0,1-2,4.94,20.47,20.47,0,0,1-3,4.39,20.17,20.17,0,0,1-9,5.53,11.31,11.31,0,0,1-1.53.35,2,2,0,0,1-.35.06,15.19,15.19,0,0,1-3.37.19,26.11,26.11,0,0,1-5.26-.85c-1.73-.44-3.45-1-5.17-1.43,0,.06-.08.1-.12.14,1.75.49,3.48,1,5.24,1.47a25.71,25.71,0,0,0,5.3.86,17.14,17.14,0,0,0,3.65-.21l.36-.07a10.07,10.07,0,0,0,1.32-.3,20.41,20.41,0,0,0,9.07-5.59,19.92,19.92,0,0,0,3.07-4.43,37.89,37.89,0,0,0,2.05-5c.56-1.69,1.08-3.41,1.67-5.1a28.81,28.81,0,0,1,2.14-4.86,15.77,15.77,0,0,1,3.35-4.1,14,14,0,0,1,1.87-1.36,1.86,1.86,0,0,1,.1-.39,15.57,15.57,0,0,0-2.15,1.54,14.59,14.59,0,0,0-1.92,1.93Zm6.38,34.12h-.09a18.58,18.58,0,0,1,.15,2.36,14.25,14.25,0,0,1-.05,1.46v.18a21.3,21.3,0,0,1-.62,3.64,19.44,19.44,0,0,1-2,4.93,17.38,17.38,0,0,1-3.37,4.12c-2.62,2.42-5.8,4.13-8.74,6.14a25.54,25.54,0,0,0-4.16,3.4,16.81,16.81,0,0,0-2.3,2.88c-.06.1-.12.22-.19.32-.22.39-.44.76-.63,1.18a19.3,19.3,0,0,0-1.6,5.14,18.46,18.46,0,0,0-.31,3.4h.23a19.88,19.88,0,0,1,.29-3.36A18.84,18.84,0,0,1,1223,493a14.05,14.05,0,0,1,.76-1.37,2.36,2.36,0,0,1,.2-.31,15.4,15.4,0,0,1,2.1-2.65,24.79,24.79,0,0,1,4.11-3.39c2.92-2,6.13-3.73,8.76-6.19a17.78,17.78,0,0,0,3.37-4.16,18.52,18.52,0,0,0,2-5,19.89,19.89,0,0,0,.58-3.52v-.18c0-.55.05-1.07.05-1.62a20.33,20.33,0,0,0-.08-2.34Zm4.37,13.4a13.67,13.67,0,0,0-1.65-5.09c-.77-1.49-1.71-2.89-2.6-4.31a.91.91,0,0,1-.11-.16,33.25,33.25,0,0,1-2-3.48h-.08a33.52,33.52,0,0,0,2.06,3.65c0,.06.06.1.09.16.87,1.38,1.77,2.75,2.52,4.2a13.8,13.8,0,0,1,1.62,5,10.77,10.77,0,0,1-.83,5.2,9.35,9.35,0,0,1-3.4,4,19.94,19.94,0,0,1-4.79,2.3,102.74,102.74,0,0,1-10.36,2.64c-1.74.41-3.49.83-5.19,1.34l-.5.16-.32.09a30.45,30.45,0,0,0-4.22,1.64,16.59,16.59,0,0,0-4.44,3.06,11.73,11.73,0,0,0-2.91,4.52l-.11.34h.28a.88.88,0,0,1,.09-.29,11.56,11.56,0,0,1,2.83-4.42,16.12,16.12,0,0,1,4.37-3,29.25,29.25,0,0,1,3.92-1.54,1.58,1.58,0,0,1,.31-.09c.25-.1.5-.17.76-.25,1.71-.51,3.45-.94,5.18-1.34a106.07,106.07,0,0,0,10.38-2.68,19.82,19.82,0,0,0,4.83-2.35,9.55,9.55,0,0,0,3.45-4.07,10.73,10.73,0,0,0,.81-5.28Z"/><path class="cls-6" d="M1202.77,472.09a80.89,80.89,0,0,1,10.81-4.16,77.73,77.73,0,0,1,11.18-2.47c2.16-.34,4.32-.57,6.48-.81a.05.05,0,0,1,0,.07l0,0a98.52,98.52,0,0,0-11.27,2.37q-5.52,1.44-11,3.06c-2.07.62-4.1,1.34-6.13,2C1202.74,472.27,1202.69,472.13,1202.77,472.09Z"/><path class="cls-6" d="M1246.67,461.76c-.35,0-19.83,3.07-20.48,3.26.12-.26,5.06-9.53,5.79-10.89l.21-.41c.44-.59.89-1.17,1.31-1.78s1.07-1.53,1.6-2.3h0c-.56.77-1.14,1.54-1.7,2.26-.26.34-.5.7-.77,1.06.5-1,1-1.93,1.46-2.9.77-1.54,1.49-3.12,2.2-4.69,0-.06,0-.09-.08,0-1.45,2.69-3,5.36-4.46,8.05s-7,12.61-7,12.61l22-3.91a.18.18,0,0,0,.15-.21.19.19,0,0,0-.21-.15Z"/><path class="cls-6" d="M1244,485.68c-1.23-4.37-2.43-8.76-3.84-13.08-.76-2.46-1.53-4.92-2.38-7.37,0-.09-.19-.05-.17,0,1.07,4.43,2.14,8.87,3.4,13.26s2.48,8.74,3.79,13.09c.75,2.46,1.58,4.91,2.47,7.33,0,.05.1,0,.08,0C1246.46,494.46,1245.24,490.09,1244,485.68Z"/><path class="cls-6" d="M1258.86,501.81c-.49-1.24-1.08-3-1.62-4.2-.15-.32-.38-.3-.27,0,.34,1.11.58,2.3.92,3.44-1,0-2,0-3,.09l-3.39.14q-3.33.14-6.66.2c-4.5.08-9,.08-13.5,0a261.46,261.46,0,0,1-27-1.91c-2.51-.32-5-.69-7.49-1.14s-4.88-.9-7.29-1.53c-.07,0-.1.09,0,.11a40.29,40.29,0,0,0,6.26,1.89c2.24.48,4.48.91,6.74,1.25,4.5.7,9,1.15,13.57,1.48q13.5,1,27.06.81c2.53,0,5.06-.08,7.58-.17,1.28,0,2.55-.09,3.83-.15S1259,502,1258.86,501.81Z"/><path class="cls-18" d="M1245.06,421c0,1.37,4.29,11.17,10.27,12.22,1.94.34,4.28-10.2,4.28-10.2l.36-.77,4.89-10.35-12.55-12.61S1245.06,420.39,1245.06,421Z"/><path class="cls-6" d="M1264.89,411.9l-4.9,10.34a23,23,0,0,1-10.11-15.71c1.24-3.67,2.3-6.71,2.43-7.15v-.07l1.61,1.54Z"/><path class="cls-18" d="M1285,400.27c-2.81,19.93-15,20.46-19.33,19.85-3.89-.56-17.09-2.94-16.34-23s10.87-25.07,19.84-24.27S1287.85,380.37,1285,400.27Z"/><path class="cls-6" d="M1282.63,398.1c-.44-.17-.86-.36-1.28-.57a2.33,2.33,0,0,1-1.18-.82.72.72,0,0,1,.19-.85,1.77,1.77,0,0,1,1.79-.05,2.59,2.59,0,0,1,1.4,1.24.77.77,0,0,1-.92,1.05Z"/><path class="cls-6" d="M1269.21,395.45a10.75,10.75,0,0,0,1.39,0,2.2,2.2,0,0,0,1.42-.27.7.7,0,0,0,.17-.85,1.78,1.78,0,0,0-1.61-.77,2.65,2.65,0,0,0-1.8.56.77.77,0,0,0,0,1.09A.76.76,0,0,0,1269.21,395.45Z"/><path class="cls-6" d="M1271.82,398.94c0-.05-.12.05-.13.1-.21,1.35-.68,2.87-2,3.07,0,0,0,.07,0,.07C1271.24,402.27,1271.83,400.25,1271.82,398.94Z"/><path class="cls-6" d="M1270.88,397.33c-2.13-.58-3.12,3.73-1.14,4.26S1272.66,397.79,1270.88,397.33Z"/><path class="cls-6" d="M1270,397.33c-.43.16-.9.51-1.37.44s-.83-.61-1.06-1.12c0,0-.08,0-.1,0a1.63,1.63,0,0,0,.77,2.07c.84.33,1.53-.29,1.92-1.08C1270.24,397.54,1270.16,397.28,1270,397.33Z"/><path class="cls-6" d="M1279.22,400.3c0-.05.08.09.07.14-.36,1.32-.55,2.89.55,3.62,0,0,0,.09,0,.08C1278.39,403.58,1278.66,401.49,1279.22,400.3Z"/><path class="cls-6" d="M1280.73,399.19c2.18.35,1.33,4.68-.69,4.36S1278.91,398.9,1280.73,399.19Z"/><path class="cls-6" d="M1281.58,399.63c.3.3.56.77,1,.89s.91-.28,1.3-.66c0-.05.07,0,.06.05-.14.84-.58,1.65-1.41,1.65s-1.15-.81-1.18-1.68C1281.3,399.74,1281.46,399.54,1281.58,399.63Z"/><path class="cls-6" d="M1268.83,410.58c.23.4.43.91.89,1.09a3.64,3.64,0,0,0,1.54.06s.07,0,0,.08a1.84,1.84,0,0,1-1.87.25,1.48,1.48,0,0,1-.72-1.45C1268.68,410.52,1268.83,410.52,1268.83,410.58Z"/><path class="cls-6" d="M1275.67,406.87s-.16,2.05-.36,3c0,.1-.26.09-.59,0h0a4.6,4.6,0,0,1-4-2.61.1.1,0,0,1,0-.13.1.1,0,0,1,.13,0,6.92,6.92,0,0,0,3.83,2.06c.12-.25.15-3.53.3-3.51a8.58,8.58,0,0,1,2,.94c.45-4.27.21-8.58.76-12.83a.13.13,0,0,1,.14-.13.12.12,0,0,1,.12.13c.56,4.5.15,9.43-.2,13.86C1277.8,408.24,1276,407.11,1275.67,406.87Z"/><path class="cls-6" d="M1274.26,409.44a5.11,5.11,0,0,1-2.3,1.18,2.33,2.33,0,0,1-1.4-.18c-1-.46-.77-1.38-.47-2.14a5.73,5.73,0,0,1,.69-1.11A6.69,6.69,0,0,0,1274.26,409.44Z"/><path class="cls-21" d="M1271.89,410.62a2.33,2.33,0,0,1-1.4-.18c-1-.46-.77-1.38-.47-2.14A2.4,2.4,0,0,1,1271.89,410.62Z"/><path class="cls-6" d="M1249.11,398.16a8.32,8.32,0,0,0,6.39-5.15A21.78,21.78,0,0,0,1266,388.7c-.24.36-2,3-3,4.25,12.94,1.35,19.52-6.9,19.52-6.9a22.74,22.74,0,0,1,3.07,9.35s2.3-7.49,0-13.67a12.65,12.65,0,0,0-9.7-8.32,18.12,18.12,0,0,0-18.5.15C1246.79,379.9,1249.11,398.16,1249.11,398.16Z"/><path class="cls-6" d="M1272.91,393.7a23.9,23.9,0,0,1-7,.43h0a19.9,19.9,0,0,0,10.61-2.77,19.12,19.12,0,0,0,3.74-2.9,13.16,13.16,0,0,0,3-4.19c0-.12.23,0,.18.06a15.19,15.19,0,0,1-2.41,4.55,14.09,14.09,0,0,1-3.92,3.25,16.6,16.6,0,0,1-4.26,1.6"/><path class="cls-18" d="M1252.3,399.07s-2.87-7.09-6-6.21-2,10.49,1,12.45a3.4,3.4,0,0,0,4.76-.65l.09-.12Z"/><path class="cls-6" d="M1246.71,395.6s-.08.06,0,.09c2.06,1.45,2.78,3.83,3.11,6.23a1.87,1.87,0,0,0-2.62-1.13c-.07,0,0,.13,0,.13a2.13,2.13,0,0,1,2.08,1.23,9.87,9.87,0,0,1,.65,2.06c.06.23.45.21.43,0v-.06C1251.1,401.22,1249.77,396.62,1246.71,395.6Z"/><rect class="cls-12" x="1273.45" y="510.2" width="82.74" height="3.7"/><polygon class="cls-11" points="1356.19 510.2 1356.19 513.9 1299.95 513.9 1302.78 510.2 1356.19 510.2"/><polygon class="cls-12" points="1306.35 513.9 1386.98 513.9 1393.7 459.14 1313.06 459.14 1306.35 513.9"/><path class="cls-1" d="M1345.12,486.52a4.8,4.8,0,0,0,4.69,4.91h.13a5,5,0,0,0,5-4.91,4.8,4.8,0,0,0-4.69-4.91h-.13A5,5,0,0,0,1345.12,486.52Z"/><path class="cls-1" d="M1360.53,361.1a30.17,30.17,0,0,1-50.41,19.09L1295,382.4l7.56-13a30.17,30.17,0,1,1,58-8.26Z"/><path class="cls-6" d="M1351.72,336a30.43,30.43,0,0,0-25.54-8.48,30.74,30.74,0,0,0-13,4.88,31.27,31.27,0,0,0-9.56,10.16,30.94,30.94,0,0,0-2,26.76L1293.71,383a.34.34,0,0,0,0,.34.31.31,0,0,0,.31.13l15.82-2.43a30.59,30.59,0,0,0,14.81,7.2,27.08,27.08,0,0,0,4.21.44c.42,0,.85,0,1.28,0,.77,0,1.54,0,2.24-.09l.77,0a30.69,30.69,0,0,0,15.54-6,21.17,21.17,0,0,0,2.3-1.93l.9-.82.83-.9a20.19,20.19,0,0,0,2-2.26,30.4,30.4,0,0,0,6.13-15.46h0A30.77,30.77,0,0,0,1351.72,336Zm8.49,25.11a29.94,29.94,0,0,1-6.13,15.08,19.47,19.47,0,0,1-1.88,2.18c-.28.29-.57.59-.81.87l-.89.76a19.48,19.48,0,0,1-2.3,1.86,27.84,27.84,0,0,1-7.2,3.88,30.09,30.09,0,0,1-8,1.75h-.77a21.07,21.07,0,0,1-3.37,0,23.85,23.85,0,0,1-4-.49,29.05,29.05,0,0,1-14.29-7.36l-.15-.14a.35.35,0,0,0-.22-.08h0l-13.58,1.9,6.9-11.75a.34.34,0,0,0,0-.28l-.12-.27a30.12,30.12,0,0,1-2.1-13,29.31,29.31,0,0,1,3.79-12.63,30.78,30.78,0,0,1,8.94-9.72,29.47,29.47,0,0,1,12.32-4.87,29.54,29.54,0,0,1,33.85,32.31Z"/><path class="cls-6" d="M1318.85,359.17a3.28,3.28,0,1,1-3.28-3.29,3.28,3.28,0,0,1,3.28,3.29Z"/><circle class="cls-6" cx="1330.89" cy="359.17" r="3.28"/><circle class="cls-6" cx="1346.2" cy="359.17" r="3.28"/><path class="cls-18" d="M1271.35,410.17l1.63-1.86-1.93-1.12a11.44,11.44,0,0,1-4.12,5.89l1.73,1a6.84,6.84,0,0,1,1.25-3.42,6.39,6.39,0,0,1,1.19-1.3,5.81,5.81,0,0,1,.76-.54,2.46,2.46,0,0,0,.39-.22c.09-.08-.09,0-.08,0l-.41-.41c.33.46.1,1.38-.1,1.86a2.72,2.72,0,0,1-.49.77c.07-.08-.23.23-.25.2s.28,0,.25.06a3,3,0,0,1-.14-.57,2.53,2.53,0,0,1,.14-.9c.13-.45.56-1.34,1.06-1.44h-.6l-.42-.41a2.18,2.18,0,0,1,0,1.7,2.77,2.77,0,0,1-.69,1.14c-.4.4-.17,0,.17.25l.41.41c.23.4,0,.26.15,0a5.2,5.2,0,0,1,.26-.45,3,3,0,0,1,.64-.64,2.68,2.68,0,0,1,.84-.39,2.32,2.32,0,0,0,.38-.07h0c-.07-.64-.16-.8-.26-.49l.29-.5.19-.11h.61c.13.47.23.61.31.41v-.1a1.84,1.84,0,0,0,.19-.4c.18-.35.38-.7.58-1.05a12.79,12.79,0,0,1,1.33-1.77H1275c-.07-.08,0-.23,0,.1a2.51,2.51,0,0,1-.08.45c-.09.41-.19.83-.31,1.23-.22.86-.5,1.7-.76,2.54h2.22c-.55-2.12.38-4.28,1.16-6.21l-2.3-.31a20.19,20.19,0,0,1-.83,5.88l2.26.31a13.45,13.45,0,0,1,1.36-7.61l-1.81.23c-.13-.14-.06.23-.07.34s0,.47-.07.71c-.07.56-.14,1.11-.24,1.67-.2,1.12-.46,2.22-.77,3.32a1.15,1.15,0,0,0,2.21.61,32.82,32.82,0,0,0,.91-4.25c.19-1.32.63-2.92-.36-4a1.15,1.15,0,0,0-1.63,0,1.24,1.24,0,0,0-.17.23,15.43,15.43,0,0,0-1.67,8.77,1.16,1.16,0,0,0,2.3.31,23,23,0,0,0,.91-6.5,1.13,1.13,0,0,0-1-1.12,1.17,1.17,0,0,0-1.26.82c-1,2.37-1.83,4.86-1.17,7.43a1.15,1.15,0,0,0,1.46.76,1.12,1.12,0,0,0,.76-.76,29.34,29.34,0,0,0,1-3.43c.26-1.08.48-2.3-.42-3.14a1.18,1.18,0,0,0-1.62,0,15.35,15.35,0,0,0-1.91,2.63c-.5.88-1.15,2-.77,3a1.65,1.65,0,0,0,2.06,1.07,1.67,1.67,0,0,0,.63-.37,1.74,1.74,0,0,0-.17-2.46,1.49,1.49,0,0,0-.29-.2c-1.73-1-4,.53-5,1.95-.55.82-1,2.16-.23,3s2,.36,2.79-.36c1.3-1.27,2.18-3.79,1.24-5.51-.65-1.21-2-1-2.9-.18a5.31,5.31,0,0,0-1.53,2.48,4.2,4.2,0,0,0,.11,2.86,2.13,2.13,0,0,0,2.41,1.29c2.07-.47,2.94-3.26,2.69-5.1a1.92,1.92,0,0,0-2-1.88,1.78,1.78,0,0,0-.56.1,6.75,6.75,0,0,0-2.66,1.84,9.41,9.41,0,0,0-2.57,5.84,1.17,1.17,0,0,0,1.17,1.15,1.27,1.27,0,0,0,.57-.15,14,14,0,0,0,5.17-7.27,1.16,1.16,0,0,0-.85-1.4,1.14,1.14,0,0,0-1.06.28l-1.63,1.86c-1,1.11.65,2.75,1.63,1.63Z"/><path class="cls-18" d="M1278.79,408.32c.11-1.19.22-2.37.23-3.56a23.74,23.74,0,0,0-.34-3.67,7.46,7.46,0,0,1,.37-3.25c.32-1.21.65-2.42,1-3.62a1.16,1.16,0,0,0-2.11-.89,2.66,2.66,0,0,1-1.07,1.11l1.74,1a.68.68,0,0,1,.19-.55l-.58.15h.16l-1-.57,0,.09-.12-.88v.09l1.11-.84h-.08c-1.47.1-1.48,2.4,0,2.3h.08a1.22,1.22,0,0,0,1.11-.84,1.28,1.28,0,0,0-.12-1.08,1.17,1.17,0,0,0-1-.57c-1.35,0-2.05,1.54-2.07,2.69a1.15,1.15,0,0,0,1.17,1.14,1.2,1.2,0,0,0,.56-.15,5,5,0,0,0,1.88-1.94l-2.1-.88-1,3.75a9.35,9.35,0,0,0-.44,3.52c.18,1.2.31,2.4.37,3.61s-.11,2.55-.23,3.84a1.16,1.16,0,0,0,1.15,1.15,1.18,1.18,0,0,0,1.15-1.15Z"/><path class="cls-18" d="M1280,397.08a2.58,2.58,0,0,1,.68,0l-.31-.05a3.37,3.37,0,0,1,.77.21l-.28-.11a3.23,3.23,0,0,1,.77.43l-.24-.18a2.84,2.84,0,0,1,.52.52l-.18-.23a2.69,2.69,0,0,1,.2.27l.68-1.68a2,2,0,0,1-.48.12h.31a2.91,2.91,0,0,1-.59,0h.31a2.94,2.94,0,0,1-.6-.16l.28.11a2.29,2.29,0,0,1-.55-.31l.24.18a2.65,2.65,0,0,1-.41-.41l.18.24a1.76,1.76,0,0,1-.24-.42l.12.28a.7.7,0,0,1-.06-.19v.21l0,.31a.24.24,0,0,1,0-.12l-.12.28a.06.06,0,0,0,0-.06l-.17.24.06-.07-.23.19.08-.05-.28.12.16-.05h0l-.31-.05a3,3,0,0,1,.48.16l-.28-.12a5.26,5.26,0,0,1,1.1.64l-.23-.18a2.62,2.62,0,0,1,.49.45l-.18-.23.06.1-.11-.27v-.37l.11-.28,0,.09.17-.24-.09.09.23-.17-.15.08.27-.11-.21,0h.3a1.13,1.13,0,0,1-.26,0h.3a1.68,1.68,0,0,1-.4-.11l.27.11a1.31,1.31,0,0,1-.36-.21l.24.18a2,2,0,0,1-.33-.32l.18.23a1.58,1.58,0,0,1-.2-.36l.11.27-.07-.2a1.15,1.15,0,0,0-1.41-.76,1.17,1.17,0,0,0-.76,1.41,2.82,2.82,0,0,0,2.6,2.06,1.77,1.77,0,0,0,1.76-1.19,1.55,1.55,0,0,0-.38-1.45,2.74,2.74,0,0,0-.48-.43,6.54,6.54,0,0,0-1.48-.89c-.13-.05-.26-.11-.4-.15a2.28,2.28,0,0,0-.51-.09,1.56,1.56,0,0,0-.77.08,1.49,1.49,0,0,0-1,1,1.8,1.8,0,0,0,.22,1.34,3.14,3.14,0,0,0,1,1.15,3.2,3.2,0,0,0,.63.34,3.26,3.26,0,0,0,.69.22,3.35,3.35,0,0,0,1.72-.13,1.18,1.18,0,0,0,.77-.66,1.09,1.09,0,0,0-.06-1,4.27,4.27,0,0,0-3.91-2,1.24,1.24,0,0,0-.82.34,1.17,1.17,0,0,0,0,1.63,1.1,1.1,0,0,0,.82.33Z"/><path class="cls-18" d="M1271.79,394.13l-5.94-.23a1.15,1.15,0,1,0,0,2.3l5.94.23a1.15,1.15,0,1,0,0-2.3Z"/><rect class="cls-18" x="1266.37" y="395.47" width="7.06" height="7.97"/><rect class="cls-18" x="1277.5" y="398.16" width="6.51" height="6.59"/></g></g></svg>