<svg xmlns="http://www.w3.org/2000/svg" version="1.1" xmlns:xlink="http://www.w3.org/1999/xlink" xmlns:svgjs="http://svgjs.com/svgjs" width="512" height="512" x="0" y="0" viewBox="0 0 32 32" style="enable-background:new 0 0 512 512" xml:space="preserve" class=""><g><g id="bluetooth_communication_transfer_data" data-name="bluetooth, communication, transfer, data"><path d="m16.667 16 6.933-5.2a.999.999 0 0 0 0-1.6l-8-6a1 1 0 0 0 -1.6.8v10l-4.4-3.3a1 1 0 1 0 -1.2 1.6l4.933 3.7-4.933 3.7a1 1 0 1 0 1.2 1.6l4.4-3.3v10a1 1 0 0 0 1.6.8l8-6a.999.999 0 0 0 0-1.6zm-.667-10 5.333 4-5.333 4zm0 20v-8l5.333 4z" fill="#000000" data-original="#000000"></path></g></g></svg>