<svg xmlns="http://www.w3.org/2000/svg" version="1.1" xmlns:xlink="http://www.w3.org/1999/xlink" xmlns:svgjs="http://svgjs.com/svgjs" width="512" height="512" x="0" y="0" viewBox="0 0 64 64" style="enable-background:new 0 0 512 512" xml:space="preserve" class=""><g><g id="outline"><path d="m29.63 51a3 3 0 1 0 3 3 3 3 0 0 0 -3-3zm0 4a1 1 0 1 1 1-1 1 1 0 0 1 -1 1z" fill="#000000" data-original="#000000" class=""></path><path d="m22.29 25.71 4 4a1 1 0 0 0 .71.29 1 1 0 0 0 .67-.26l10-9a1 1 0 1 0 -1.34-1.48l-9.33 8.36-3.33-3.33a1 1 0 0 0 -1.42 1.42z" fill="#000000" data-original="#000000" class=""></path><path d="m29.5 9h3a1 1 0 0 0 0-2h-3a1 1 0 0 0 0 2z" fill="#000000" data-original="#000000" class=""></path><path d="m26.5 9a1 1 0 1 0 -1-1 1 1 0 0 0 1.01 1z" fill="#000000" data-original="#000000" class=""></path><path d="m15 22v36a2 2 0 0 0 2 2h25a2 2 0 0 0 2-2v-1.46h.07a1 1 0 0 0 .76-1.65 18.23 18.23 0 0 1 -4.24-10.47 1 1 0 0 0 -.5-.78l-7.25-7.25a2 2 0 0 1 0-2.82 2.05 2.05 0 0 1 2.83 0l8.12 8.12a1 1 0 0 0 1.41 0 1 1 0 0 0 0-1.42l-1.2-1.18v-9.93l4.6 4.6a4.69 4.69 0 0 1 1.4 3.87l-1.65 15.7a7.28 7.28 0 0 0 0 1.32l.4 4.44a1 1 0 0 0 1 .91h.09a1 1 0 0 0 .91-1.09l-.41-4.44a5.79 5.79 0 0 1 0-.93l1.66-15.7a6.71 6.71 0 0 0 -2-5.49l-6-6v-20.35a2 2 0 0 0 -2-2h-25a2 2 0 0 0 -2 2v3a1 1 0 0 0 -1 1v6a1 1 0 0 0 1 1v2a1 1 0 0 0 -1 1v1a1 1 0 0 0 1 1zm2 36v-8h22.75a20.62 20.62 0 0 0 2.25 4.47s0 0 0 .06v3.47zm25-52v31.09l-4.92-4.92a4 4 0 1 0 -5.65 5.66l7.21 7.17a19.67 19.67 0 0 0 .5 3h-22.14v-42z" fill="#000000" data-original="#000000" class=""></path></g></g></svg>