<?xml version="1.0" encoding="UTF-8"?>
<svg id="Layer_2" data-name="Layer 2" xmlns="http://www.w3.org/2000/svg" viewBox="0 0 125.5 137.29">
  <defs>
    <style>
      .cls-1 {
        fill: #00dc00;
        stroke-width: 0px;
      }
    </style>
  </defs>
  <g id="Layer_1-2" data-name="Layer 1">
    <g>
      <g id="Group_1" data-name="Group 1">
        <g>
          <path id="Path_1" data-name="Path 1" class="cls-1" d="M.24,66.44c7.86-.39,15.73.47,23.28,2.44,14.15,3.54,26.89,11.09,36.96,21.62,2.12,2.28,3.22,2.12,5.35,0,14.7-15.02,32.71-23.04,53.78-24.06,1.81-.08,3.7-.39,5.9.47-3.7,3.3-6.92,5.98-12.19,6.61-18.01,2.2-32.87,10.85-45.29,23.9-3.38,3.54-6.29,3.62-9.44.24-13.13-13.84-28.78-22.65-47.97-24.53-4.32-.39-6.61-3.77-10.38-6.68Z"/>
          <path id="Path_2" data-name="Path 2" class="cls-1" d="M12.19,53.78c16.75,1.34,33.18,7.71,47.73,18.87,2.44,1.89,3.85,2.12,6.45.08,14.15-11.17,31.3-17.77,49.22-18.95,1.42-.08,4.01-1.57,4.17,1.34.08,2.28.31,4.88-3.77,5.19-18.87,1.18-35.38,8.41-49.54,20.84-2.36,2.04-3.77,2.36-6.29.16-13.76-12.42-31.14-19.82-49.54-21.15-3.15-.24-4.64-2.36-4.09-5.35.24-1.26.39-1.34,5.66-1.02Z"/>
          <path id="Path_3" data-name="Path 3" class="cls-1" d="M26.35,36.01c3.85,4.25,7.39,8.26,11.01,12.19,1.26,1.42,2.67,2.67,4.17,3.85,1.26,1.02,2.91,1.65,3.07-.94.24-2.91,1.97-1.65,3.07-1.02,4.32,2.28,8.65,4.56,12.74,7.08,1.97,1.26,3.38,1.42,5.43,0,4.09-2.83,8.49-5.27,13.13-7.23.94-.39,2.44-1.65,2.67.63.39,3.77,2.36,2.12,3.77.94,3.93-3.3,7.23-7.31,10.62-11.17,1.26-1.42,2.12-3.15,3.93-4.01.24.24.47.31.55.55,3.7,9.04,4.48,9.44,13.92,6.68,1.65-.47,3.38-1.1,5.03-1.42,1.26-.24,3.22-1.73,3.54.47.24,1.81-.31,4.09-3.15,4.25-3.38.16-6.76.47-10.06.86-15.8,1.97-30.82,7.78-43.72,17.06-2.12,1.49-3.54,1.57-5.66.08-15.18-10.77-33.18-16.98-51.82-17.85-1.1,0-2.12-.08-3.22-.31-2.2-.63-2.28-2.83-2.04-4.25.24-1.65,1.97-.71,2.99-.39,2.75.71,5.5,1.49,8.18,2.28,6.29,1.73,7.86.94,10.38-4.88.47-1.02.86-2.04,1.49-3.46Z"/>
          <path id="Path_4" data-name="Path 4" class="cls-1" d="M87.29,22.57c-.16,2.2-1.18,4.17-4.4,5.11-5.98,1.73-11.72,4.17-17.14,7.23-1.49.94-3.38,1.02-4.88.08-5.82-3.22-11.87-5.74-18.24-7.71-3.62-1.1-3.38-3.93-3.62-6.45-.24-2.36,1.73-.94,2.59-.71,6.45,1.89,12.82,4.32,18.79,7.39,1.73,1.02,3.93,1.02,5.66,0,6.05-2.99,12.35-5.43,18.79-7.39,1.73-.47,2.99-.79,2.44,2.44Z"/>
          <path id="Path_5" data-name="Path 5" class="cls-1" d="M42.23,34.13c6.13,1.89,12.03,4.48,17.61,7.71,2.52,1.42,4.32,1.26,6.68-.08,5.58-3.22,11.48-5.74,17.61-7.63.08,4.48-.86,7.63-5.66,9.04-4.48,1.34-8.57,3.93-12.58,6.37-1.97,1.18-3.54,1.34-5.5,0-3.85-2.67-8.1-4.88-12.58-6.37-4.4-1.34-5.74-4.25-5.58-9.04Z"/>
          <path id="Path_6" data-name="Path 6" class="cls-1" d="M20.69,82.48c2.44-.86,4.17.16,5.9.86,8.18,2.99,15.57,7.63,21.94,13.52,1.18,1.18,4.17,2.44,2.75,4.01-1.34,1.49-4.8,2.36-6.76.79-5.66-4.8-12.74-7.71-17.77-13.37-1.73-2.04-3.85-3.77-6.05-5.82Z"/>
          <path id="Path_7" data-name="Path 7" class="cls-1" d="M74,100.57c8.73-9.12,18.64-15.41,30.82-18.16-3.38,3.54-6.21,7.55-10.22,10.38-3.46,2.36-7.16,4.4-10.22,7.23-3.46,2.99-6.53,2.12-10.38.55Z"/>
          <path id="Path_8" data-name="Path 8" class="cls-1" d="M71.09,17.14c.08.63-.39.94-.79,1.26-3.7,3.07-10.14,3.07-14.15.16-2.2-1.57,0-2.83.24-4.17.31-1.49,1.18-2.52,2.91-1.49,2.2,1.26,4.32,1.73,6.84.39,2.36-1.18,5.11,1.1,4.95,3.85Z"/>
          <path id="Path_9" data-name="Path 9" class="cls-1" d="M62.91,0c1.34,2.12,4.17,3.77,2.2,6.53-.86,1.26-2.99,1.1-4.01-.08-2.12-2.67,1.49-4.09,1.81-6.45Z"/>
          <path id="Path_10" data-name="Path 10" class="cls-1" d="M90.35,103.72c1.42-1.18,2.28-3.62,4.4-2.44.86.47,1.73,2.83,1.49,2.99-1.89,1.57-3.77-.47-5.9-.55Z"/>
          <path id="Path_11" data-name="Path 11" class="cls-1" d="M36.18,103.95l-6.21,1.18c0-2.04.86-3.85,2.04-4.17,1.65-.39,3.07,1.18,4.17,2.99Z"/>
        </g>
      </g>
      <g>
        <path class="cls-1" d="M87.52,129.21c2.02.3,3.96.59,5.91.87.7.1,1.39.19,2.09.29.86.13.41.81.48,1.24.07.47-.28.51-.65.47-2.47-.27-4.95-.53-7.42-.8-1.13-.13-1.13-.14-1.4.95-.32,1.32-.65,2.64-.97,3.96-.21.87-.39.97-1.25.83-.72-.11-.77-.48-.66-1.13.91-5.63,2.75-10.92,5.97-15.66.73-1.07,1.68-2.03,2.64-2.91,3.02-2.76,6.53-1.16,8.19,1.15,1.83,2.55,2.87,5.41,3.48,8.46.62,3.1.91,6.22.85,9.37,0,.55-.18.74-.73.75-1.58.03-1.54.04-1.62-1.51-.24-4.87-.72-9.7-2.86-14.18-.5-1.04-1.24-2-2.04-2.83-1.16-1.19-2.42-1.23-3.72-.17-.83.68-1.6,1.47-2.22,2.34-1.75,2.47-2.99,5.21-4.01,8.04-.04.11-.04.23-.07.44Z"/>
        <path class="cls-1" d="M17.32,131.68c.33.44.64.79.88,1.18.07.12,0,.42-.1.54-1.85,2.2-4.19,3.5-7.07,3.79-3.36.34-6.23-.64-8.46-3.23-1.65-1.92-2.43-4.17-2.55-6.71-.16-3.54,1.02-6.5,3.54-8.93,3.89-3.74,10.85-3.18,14.13,1.09.29.38.29.67-.04.97-.27.25-.56.49-1.05.91-.22-.32-.38-.66-.62-.89-2.14-2.03-4.68-2.83-7.58-2.25-2.63.53-4.47,2.14-5.51,4.59-1.04,2.44-1.05,4.95-.14,7.42,1.45,3.92,5.52,5.76,9.69,4.49,1.83-.56,3.43-1.51,4.88-3Z"/>
        <path class="cls-1" d="M41.88,125.84c0-1.64.01-3.29,0-4.93,0-.48.19-.69.65-.71.19,0,.37-.04.56-.05.95-.01.98.02.98.98,0,1.15.01,2.3,0,3.45,0,.49.12.71.67.72,3.13.07,6.25.18,9.37.26.52.01.9.1.84.73-.05.5.26,1.19-.71,1.19-2.72,0-5.45.11-8.17.02-1.76-.06-1.79-.17-1.74,1.58.05,1.69.17,3.37.3,5.06.01.16.25.43.4.44,1.5.09,3,.15,4.49.19,1.9.05,3.81.08,5.71.12.56.01,1.14-.04,1.69.04.2.03.49.34.51.55.07.56-.47,1.08-1.04,1.17-2.8.41-5.62.51-8.43.4-1.73-.07-3.46-.25-5.19-.44-.21-.02-.52-.39-.55-.64-.16-.99-.3-2-.31-3.01-.04-2.37-.01-4.74-.01-7.11,0,0,0,0,0,0Z"/>
        <path class="cls-1" d="M79.83,136.94c-.6-.36-1.25-.64-1.78-1.08-5.05-4.19-9.04-9.21-11.81-15.17-.4-.87.4-.92.78-1.21.44-.34.54.18.69.42,2.73,4.52,5.79,8.8,9.56,12.52.28.28.58.54,1.03.96.11-.73.28-1.31.27-1.88-.05-2.87-.13-5.73-.23-8.6-.07-1.81-.18-3.61-.32-5.41-.06-.76.42-.88.94-.92.5-.04.99-.2,1.14.68.87,5.01.88,10.05.76,15.1-.04,1.5-.46,2.99-.71,4.48-.11.04-.22.08-.33.12Z"/>
        <path class="cls-1" d="M112.13,117.8c-.44-1.8-.44-1.79,1.3-1.71,2.84.13,5.61.53,8.16,1.86,1.7.88,3.08,2.09,3.63,4.01.96,3.32-.71,6.6-3.94,7.81-.17.06-.34.14-.61.25.14.27.25.51.38.74.94,1.65,1.88,3.31,2.84,4.95.35.6.22.97-.35,1.33-.55.35-.96.41-1.34-.21-1.12-1.84-2.31-3.64-3.36-5.53-.36-.64-.7-.87-1.4-.85-1.93.06-3.85.05-5.69-.69-.73-.29-1.05-1.24-.55-1.84.09-.11.41-.13.59-.08,1.54.46,3.11.84,4.71.67,1.38-.15,2.81-.36,4.1-.85,2.85-1.08,3.92-5.26.76-7.45-1.83-1.27-3.91-1.77-6.07-2.05-1.04-.13-2.09-.23-3.18-.34Z"/>
        <path class="cls-1" d="M38.11,127.57c0,2.77,0,5.55,0,8.32,0,.92-.87,1.4-1.64.9-.15-.1-.23-.39-.23-.59-.06-2.25-.12-4.51-.15-6.76-.02-1.84,0-1.81-1.88-1.86-2.44-.06-4.89-.19-7.33-.26-.55-.01-.6-.35-.65-.73-.14-1.07.08-1.31,1.17-1.31,2.05,0,4.09,0,6.14,0,.66,0,1.31.07,1.97.13.43.04.58-.14.59-.56.03-1.57.09-3.15.15-4.72.03-.92.08-1.83.14-2.74.05-.76.69-.56,1.13-.62.42-.06.77.04.76.64-.02,3.38,0,6.77,0,10.15h-.15Z"/>
        <path class="cls-1" d="M61.58,130.6c.07-3.19.11-6.39.23-9.58.06-1.52.25-3.04.42-4.55.02-.17.27-.42.45-.46.31-.06.67-.04.97.05.18.06.42.32.42.49.05,2.72.1,5.44.07,8.17-.02,2.35-.12,4.69-.2,7.04-.06,1.57-.17,3.14-.2,4.71-.01.74-.43.77-.97.75-.51-.02-1.07.1-1.06-.72.02-1.97,0-3.94,0-5.91-.05,0-.1,0-.15,0Z"/>
        <path class="cls-1" d="M107.18,130.16c.12-3.45.24-6.9.38-10.34.04-1.03.2-2.05.28-3.08.05-.65.39-.81.98-.74,1.14.12,1.15.14,1.11,1.27-.09,2.28-.16,4.55-.22,6.83-.1,4.11-.2,8.21-.28,12.32,0,.45-.17.66-.61.64-.07,0-.14,0-.21,0-1.17.03-1.2.03-1.22-1.12-.02-1.92,0-3.85,0-5.77-.07,0-.14,0-.2,0Z"/>
        <path class="cls-1" d="M21.03,129c.12-4.21.26-8.41.37-12.62.01-.45.19-.54.6-.55,1.87-.04,1.82-.05,1.67,1.8-.14,1.68-.15,3.38-.19,5.07-.07,2.66-.1,5.31-.18,7.97-.06,1.9-.19,3.8-.23,5.7-.02.87-.61.63-1.08.69-.57.06-.73-.2-.72-.73.02-2.44,0-4.89,0-7.33-.07,0-.15,0-.22,0Z"/>
        <path class="cls-1" d="M50.29,118.29c-2.47,0-4.93.01-7.4-.01-.28,0-.76-.16-.81-.34-.11-.43-.04-.92,0-1.38,0-.06.23-.15.35-.16.58-.06,1.17-.12,1.76-.13,3.41-.01,6.81-.03,10.22,0,1.38.02,2.76.15,4.14.28.18.02.48.31.48.47,0,.39.28.95-.36,1.13-.33.09-.7.11-1.05.12-2.44,0-4.89,0-7.33,0,0,0,0,0,0,0Z"/>
      </g>
    </g>
  </g>
</svg>