<svg xmlns="http://www.w3.org/2000/svg" version="1.1" xmlns:xlink="http://www.w3.org/1999/xlink" xmlns:svgjs="http://svgjs.com/svgjs" width="512" height="512" x="0" y="0" viewBox="0 0 512 512" style="enable-background:new 0 0 512 512" xml:space="preserve" class=""><g><path d="m501.640625 117.273438c6.585937-4.6875 10.359375-11.777344 10.359375-19.445313v-74.296875c0-12.976562-10.558594-23.53125-23.53125-23.53125h-464.9375c-12.972656 0-23.53125 10.554688-23.53125 23.53125v74.296875c0 7.667969 3.773438 14.753906 10.359375 19.445313 8.570313 6.109374 13.6875 16.015624 13.6875 26.5 0 10.484374-5.117187 20.390624-13.6875 26.5-6.585937 4.691406-10.359375 11.777343-10.359375 19.445312v74.296875c0 12.976563 10.558594 23.53125 23.53125 23.53125h464.9375c12.976562 0 23.53125-10.554687 23.53125-23.53125v-74.296875c0-7.667969-3.773438-14.753906-10.359375-19.445312-8.570313-6.109376-13.6875-16.015626-13.6875-26.5 0-10.484376 5.117187-20.390626 13.6875-26.5zm-4.640625-19.445313c0 2.753906-1.480469 5.390625-4.0625 7.230469-12.515625 8.917968-19.984375 23.390625-19.984375 38.714844 0 15.324218 7.46875 29.796874 19.984375 38.714843 2.582031 1.839844 4.0625 4.476563 4.0625 7.230469v74.296875c0 4.707031-3.828125 8.53125-8.53125 8.53125h-464.9375c-4.703125 0-8.53125-3.828125-8.53125-8.53125v-74.296875c0-2.753906 1.480469-5.390625 4.0625-7.230469 12.515625-8.917969 19.984375-23.390625 19.984375-38.714843 0-15.324219-7.46875-29.796876-19.984375-38.714844-2.582031-1.839844-4.0625-4.472656-4.0625-7.230469v-74.296875c0-4.703125 3.828125-8.53125 8.53125-8.53125h464.9375c4.703125 0 8.53125 3.828125 8.53125 8.53125zm0 0" fill="#000000" data-original="#000000" class=""></path><path d="m256 32.0625c-4.140625 0-7.5 3.359375-7.5 7.5v16.035156c0 4.140625 3.359375 7.5 7.5 7.5s7.5-3.359375 7.5-7.5v-16.035156c0-4.140625-3.359375-7.5-7.5-7.5zm0 0" fill="#000000" data-original="#000000" class=""></path><path d="m256 224.453125c-4.140625 0-7.5 3.355469-7.5 7.5v16.03125c0 4.140625 3.359375 7.5 7.5 7.5s7.5-3.359375 7.5-7.5v-16.03125c0-4.144531-3.359375-7.5-7.5-7.5zm0 0" fill="#000000" data-original="#000000" class=""></path><path d="m256 128.257812c-4.140625 0-7.5 3.359376-7.5 7.5v16.03125c0 4.144532 3.359375 7.5 7.5 7.5s7.5-3.355468 7.5-7.5v-16.03125c0-4.140624-3.359375-7.5-7.5-7.5zm0 0" fill="#000000" data-original="#000000" class=""></path><path d="m256 80.160156c-4.140625 0-7.5 3.359375-7.5 7.5v16.03125c0 4.144532 3.359375 7.5 7.5 7.5s7.5-3.355468 7.5-7.5v-16.03125c0-4.140625-3.359375-7.5-7.5-7.5zm0 0" fill="#000000" data-original="#000000" class=""></path><path d="m256 176.355469c-4.140625 0-7.5 3.359375-7.5 7.5v16.03125c0 4.140625 3.359375 7.5 7.5 7.5s7.5-3.359375 7.5-7.5v-16.03125c0-4.144531-3.359375-7.5-7.5-7.5zm0 0" fill="#000000" data-original="#000000" class=""></path><path d="m436.960938 65.710938c-3.273438-2.546876-7.984376-1.957032-10.527344 1.3125l-112.222656 144.292968c-2.546876 3.269532-1.957032 7.980469 1.3125 10.523438 1.371093 1.0625 2.992187 1.578125 4.597656 1.578125 2.238281 0 4.449218-.992188 5.925781-2.894531l112.226563-144.292969c2.542968-3.265625 1.957031-7.976563-1.3125-10.519531zm0 0" fill="#000000" data-original="#000000" class=""></path><path d="m336.160156 127.226562c17.398438 0 31.550782-14.152343 31.550782-31.546874 0-17.398438-14.152344-31.550782-31.550782-31.550782-17.394531 0-31.546875 14.152344-31.546875 31.550782 0 17.394531 14.152344 31.546874 31.546875 31.546874zm0-48.097656c9.125 0 16.550782 7.421875 16.550782 16.546875s-7.425782 16.550781-16.550782 16.550781-16.546875-7.425781-16.546875-16.550781 7.421875-16.546875 16.546875-16.546875zm0 0" fill="#000000" data-original="#000000" class=""></path><path d="m416.324219 160.320312c-17.398438 0-31.550781 14.15625-31.550781 31.550782 0 17.394531 14.152343 31.546875 31.550781 31.546875 17.394531 0 31.546875-14.152344 31.546875-31.546875 0-17.394532-14.152344-31.550782-31.546875-31.550782zm0 48.101563c-9.125 0-16.550781-7.425781-16.550781-16.550781s7.425781-16.546875 16.550781-16.546875 16.546875 7.421875 16.546875 16.546875-7.421875 16.550781-16.546875 16.550781zm0 0" fill="#000000" data-original="#000000" class=""></path><path d="m191.871094 104.210938h-31.421875c9.597656-5.171876 19.015625-10.945313 24.015625-15.941407 9.171875-9.175781 9.171875-24.105469 0-33.28125-9.179688-9.175781-24.105469-9.171875-33.28125 0-4.832032 4.832031-10.386719 13.796875-15.425782 23.0625-5.035156-9.261719-10.59375-18.230469-15.421874-23.0625-9.179688-9.175781-24.105469-9.171875-33.28125 0-9.175782 9.175781-9.175782 24.105469 0 33.28125 4.996093 4.996094 14.414062 10.769531 24.011718 15.941407h-31.421875c-8.554687 0-15.515625 6.960937-15.515625 15.515624v96.195313c0 8.554687 6.960938 15.515625 15.515625 15.515625h112.226563c8.558594 0 15.515625-6.960938 15.515625-15.515625v-96.195313c0-8.554687-6.960938-15.515624-15.515625-15.515624zm-30.082032-38.617188c3.328126-3.324219 8.738282-3.324219 12.066407 0 3.328125 3.328125 3.328125 8.742188 0 12.066406-5.21875 5.222656-18.570313 12.554688-30.570313 18.503906 5.949219-11.992187 13.28125-25.34375 18.503906-30.570312zm-64.128906.003906c1.664063-1.664062 3.847656-2.496094 6.03125-2.496094 2.1875 0 4.371094.832032 6.035156 2.496094 5.21875 5.21875 12.550782 18.566406 18.503907 30.566406-12-5.949218-25.351563-13.28125-30.570313-18.5-3.328125-3.328124-3.328125-8.742187 0-12.066406zm94.210938 150.835938h-112.226563c-.285156 0-.515625-.230469-.515625-.515625v-56.628907h72.660156c4.140626 0 7.5-3.355468 7.5-7.5 0-4.140624-3.359374-7.5-7.5-7.5h-72.660156v-24.5625c0-.285156.230469-.515624.515625-.515624h112.226563c.285156 0 .515625.230468.515625.515624v24.5625h-8.53125c-4.144531 0-7.5 3.359376-7.5 7.5 0 4.144532 3.355469 7.5 7.5 7.5h8.53125v56.628907c0 .285156-.230469.515625-.515625.515625zm0 0" fill="#000000" data-original="#000000" class=""></path></g></svg>