<svg xmlns="http://www.w3.org/2000/svg" version="1.1" xmlns:xlink="http://www.w3.org/1999/xlink" xmlns:svgjs="http://svgjs.com/svgjs" width="512" height="512" x="0" y="0" viewBox="0 0 32 32" style="enable-background:new 0 0 512 512" xml:space="preserve" class=""><g><g id="_x32_0"><path d="m16 18c.5517578 0 1 .4482422 1 1 0 .5527344.4472656 1 1 1s1-.4472656 1-1c0-1.3019409-.838501-2.4016113-2-2.8157349v-.1842651c0-.5527344-.4472656-1-1-1s-1 .4472656-1 1v.1842651c-1.161499.4141236-2 1.513794-2 2.8157349 0 1.6542969 1.3457031 3 3 3 .5517578 0 1 .4482422 1 1s-.4482422 1-1 1-1-.4482422-1-1c0-.5527344-.4472656-1-1-1s-1 .4472656-1 1c0 1.3019409.838501 2.4015503 2 2.8156738v.1843262c0 .5527344.4472656 1 1 1s1-.4472656 1-1v-.1842651c1.161499-.4141236 2-1.513794 2-2.8157349 0-1.6542969-1.3457031-3-3-3-.5517578 0-1-.4482422-1-1s.4482422-1 1-1z" fill="#000000" data-original="#000000" class=""></path><path d="m23 15.3553467v-12.3553467c0-.5527344-.4472656-1-1-1h-4c-.5527344 0-1 .4472656-1 1v3h-3c-.5527344 0-1 .4472656-1 1v2h-3c-.5527344 0-1 .4472656-1 1v5.3553467c-1.2484131 1.545227-2 3.5078735-2 5.6446533 0 4.9628906 4.0371094 9 9 9s9-4.0371094 9-9c0-2.1367798-.7515869-4.0994263-2-5.6446533zm-4-11.3553467h2v9.5216675c-.6160889-.413269-1.2894897-.7443237-2-.9966431zm-2 4v4.05896c-.3287354-.0365601-.6616821-.05896-1-.05896s-.6712646.0223999-1 .05896v-4.05896zm-4 3v1.5250244c-.7105103.2523193-1.3839111.583374-2 .9966431v-2.5216675zm3 17c-3.859375 0-7-3.140625-7-7s3.140625-7 7-7 7 3.140625 7 7-3.140625 7-7 7z" fill="#000000" data-original="#000000" class=""></path><path d="m29 2h-2c-.5527344 0-1 .4472656-1 1 0 .430481.274353.7894287.6554565.930481l-1.3624878 1.3624878c-.390625.390625-.390625 1.0234375 0 1.4140625.1953126.1953125.4511719.2929687.7070313.2929687s.5117188-.0976563.7070313-.2929688l1.3624878-1.3624878c.1410522.3811036.4999999.6554566.9304809.6554566.5527344 0 1-.4472656 1-1v-2c0-.5527344-.4472656-1-1-1z" fill="#000000" data-original="#000000" class=""></path><path d="m29 26c-.430481 0-.7894287.274353-.930481.6554565l-1.3624878-1.3624878c-.390625-.390625-1.0234375-.390625-1.4140625 0s-.390625 1.0234375 0 1.4140625l1.3624268 1.3624268c-.3810425.1410523-.6553955.5001221-.6553955.930542 0 .5527344.4472656 1 1 1h2c.5527344 0 1-.4472656 1-1v-2c0-.5527344-.4472656-1-1-1z" fill="#000000" data-original="#000000" class=""></path><path d="m3 6c.4304199 0 .7894897-.274353.930542-.6553955l1.3624268 1.3624268c.1953125.1953125.4511718.2929687.7070312.2929687s.5117188-.0976563.7070313-.2929688c.390625-.390625.390625-1.0234375 0-1.4140625l-1.3624878-1.3624877c.3811035-.1410523.6554565-.5.6554565-.930481 0-.5527344-.4472656-1-1-1h-2c-.5527344 0-1 .4472656-1 1v2c0 .5527344.4472656 1 1 1z" fill="#000000" data-original="#000000" class=""></path><path d="m5.2929688 25.2929688-1.3624268 1.3624267c-.1410523-.3811035-.500061-.6553955-.930542-.6553955-.5527344 0-1 .4472656-1 1v2c0 .5527344.4472656 1 1 1h2c.5527344 0 1-.4472656 1-1 0-.430481-.274292-.7894897-.6553955-.930542l1.3624268-1.3624268c.390625-.390625.390625-1.0234375 0-1.4140625s-1.0234375-.3906249-1.4140625.0000001z" fill="#000000" data-original="#000000" class=""></path></g></g></svg>