<svg xmlns="http://www.w3.org/2000/svg" version="1.1" xmlns:xlink="http://www.w3.org/1999/xlink" xmlns:svgjs="http://svgjs.com/svgjs" width="512" height="512" x="0" y="0" viewBox="0 0 64 64" style="enable-background:new 0 0 512 512" xml:space="preserve" class=""><g><g fill="rgb(0,0,0)"><path d="m21.79 64a21.79 21.79 0 1 1 21.791-21.79 21.815 21.815 0 0 1 -21.791 21.79zm0-40.836a19.047 19.047 0 1 0 19.047 19.046 19.068 19.068 0 0 0 -19.047-19.046z" fill="#000000" data-original="#000000" class=""></path><path d="m46.293 35.415a1.372 1.372 0 0 1 0-2.744 14.963 14.963 0 1 0 -14.963-14.962 1.372 1.372 0 0 1 -2.744 0 17.707 17.707 0 1 1 17.707 17.706z" fill="#000000" data-original="#000000" class=""></path><path d="m23.832 55.833a1.374 1.374 0 0 1 -1.372-1.372v-2.042a.67.67 0 0 0 -.67-.67h-2.041a.67.67 0 0 0 -.671.67v2.042a1.372 1.372 0 1 1 -2.743 0v-2.042a.67.67 0 0 0 -.67-.67h-2.042a1.372 1.372 0 1 1 0-2.743h2.042a.67.67 0 0 0 .67-.67v-12.251a.67.67 0 0 0 -.67-.67h-2.042a1.372 1.372 0 1 1 0-2.744h2.042a.67.67 0 0 0 .67-.67v-2.042a1.372 1.372 0 0 1 2.743 0v2.041a.67.67 0 0 0 .671.67h2.041a.67.67 0 0 0 .67-.67v-2.041a1.372 1.372 0 0 1 2.744 0v2.419a.67.67 0 0 0 .445.631 5.394 5.394 0 0 1 2.907 7.79.668.668 0 0 0 .223.9 5.45 5.45 0 0 1 -2.905 10.054.67.67 0 0 0 -.67.67v2.042a1.374 1.374 0 0 1 -1.372 1.368zm-4.083-12.251a.67.67 0 0 0 -.671.67v4.084a.67.67 0 0 0 .671.67h6.125c3.589 0 3.585-5.424 0-5.424zm0-8.167a.67.67 0 0 0 -.671.67v4.083a.67.67 0 0 0 .671.67h4.083c3.59 0 3.585-5.423 0-5.423z" fill="#000000" data-original="#000000" class=""></path><path d="m44.921 27.918c-.023-.1.113-.751-.471-.933a5.5 5.5 0 0 1 -3.524-3.243 1.371 1.371 0 0 1 2.566-.968 2.869 2.869 0 0 0 2.754 1.676c2.569 0 4.858-3.375-.456-5.465-6.86-2.7-5.9-8.846-1.315-10.467.593-.211.418-.871.446-1.018a1.372 1.372 0 0 1 2.744 0c.023.1-.113.751.471.933a5.5 5.5 0 0 1 3.524 3.242 1.372 1.372 0 0 1 -2.567.97c-.942-2.5-5.512-2.176-5.512.817 0 3.2 8.167 3.06 8.167 8.494a5.238 5.238 0 0 1 -3.637 4.944c-.594.21-.418.871-.446 1.018a1.372 1.372 0 0 1 -2.744 0z" fill="#000000" data-original="#000000" class=""></path><path d="m42.11 60.239c11.056-.8 19.806-11.361 19.106-23.051a1.372 1.372 0 0 1 2.738-.165c.8 13.383-8.907 25.025-21.645 25.953a1.372 1.372 0 0 1 -.199-2.737z" fill="#000000" data-original="#000000" class=""></path><path d="m1.028 21.652a24.2 24.2 0 0 1 7.824-15.465 23.571 23.571 0 0 1 18.176-6.075 1.372 1.372 0 0 1 -.261 2.731 21.16 21.16 0 0 0 -23.01 19.09 1.372 1.372 0 0 1 -2.729-.281z" fill="#000000" data-original="#000000" class=""></path></g></g></svg>