<svg xmlns="http://www.w3.org/2000/svg" version="1.1" xmlns:xlink="http://www.w3.org/1999/xlink" xmlns:svgjs="http://svgjs.com/svgjs" width="512" height="512" x="0" y="0" viewBox="0 0 512 512" style="enable-background:new 0 0 512 512" xml:space="preserve" class=""><g><path d="m254.979 195.741c0-8.836 7.163-16 16-16h157.759l-26.905-28.33c-6.085-6.407-5.824-16.535.583-22.62 6.408-6.086 16.535-5.823 22.62.583l52.564 55.348c5.864 6.175 5.864 15.861 0 22.036l-52.564 55.348c-3.146 3.312-7.371 4.982-11.604 4.982-3.957 0-7.92-1.458-11.016-4.398-6.407-6.085-6.668-16.212-.583-22.62l26.906-28.33h-157.76c-8.837.001-16-7.163-16-15.999zm63.667-58.027c3.146 3.312 7.371 4.982 11.604 4.982 3.956 0 7.92-1.458 11.016-4.398 6.407-6.085 6.668-16.212.583-22.62l-26.905-28.33h157.76c8.837 0 16-7.164 16-16s-7.163-16-16-16h-157.76l26.905-28.33c6.085-6.407 5.824-16.535-.583-22.62s-16.534-5.823-22.62.583l-52.565 55.349c-5.864 6.175-5.864 15.861 0 22.036zm183.836 294.484-63.222 56.597c-17.273 15.463-39.197 23.205-64.996 23.205-23.546 0-50.321-6.448-79.738-19.361-51.103-22.432-107.859-63.398-159.813-115.353-51.954-51.954-92.92-108.71-115.352-159.813-27.061-61.648-25.732-111.696 3.844-144.733l56.597-63.222c7.058-7.885 17.43-10.865 28.459-8.178 20.509 4.998 43.012 29.784 58.278 49.696 13.846 18.062 31.702 45.699 36.455 64.148 3.451 13.394-.892 20.863-5.143 24.771 0 0-33.6 30.866-44.455 41.657-1.717 1.708-1.705 7.015.032 13.522 6.297 23.593 32.237 60.278 67.698 95.739s72.146 61.401 95.739 67.698c6.506 1.736 11.814 1.75 13.521.032 10.782-10.845 41.658-44.455 41.658-44.455 3.906-4.25 11.375-8.596 24.771-5.143 18.449 4.753 46.086 22.608 64.147 36.454 19.913 15.266 44.699 37.768 49.697 58.278 2.689 11.029-.292 21.402-8.177 28.461zm-23.259-22.127c-2.19-5.806-12.989-20.471-39.019-40.199-22.272-16.88-40.734-26.327-49.061-29.211-11.809 12.853-27.307 29.686-38.062 40.504-7.237 7.281-20.826 14.633-44.468 8.325-29.148-7.779-70.312-36.187-110.114-75.988-39.802-39.802-68.209-80.966-75.988-110.115-6.31-23.641 1.044-37.23 8.325-44.468 10.818-10.755 27.645-26.248 40.504-38.062-2.885-8.327-12.332-26.789-29.212-49.061-19.729-26.03-34.394-36.829-40.199-39.019l-54.882 61.306c-26.011 29.055-13.479 76.143 1.615 110.528 20.873 47.549 59.468 100.837 108.679 150.048 49.21 49.21 102.498 87.807 150.048 108.679 34.385 15.094 81.473 27.626 110.528 1.615z" fill="#000000" data-original="#000000" class=""></path></g></svg>