<?xml version="1.0" encoding="UTF-8"?>
<svg id="Layer_2" data-name="Layer 2" xmlns="http://www.w3.org/2000/svg" viewBox="0 0 144.3 132.59">
  <defs>
    <style>
      .cls-1 {
        fill: #969696;
        stroke-width: 0px;
      }
    </style>
  </defs>
  <g id="Layer_1-2" data-name="Layer 1">
    <g>
      <path class="cls-1" d="M43.21,28.01s-.83-9.81,6.11-12.61c6.93-2.79,1.49,0,1.49,0l.17,1.52s-6.6,3.13-6.27,11.08-1.49,0-1.49,0Z"/>
      <path class="cls-1" d="M97.87,28.01s.83-9.81-6.11-12.61c-6.93-2.79-1.49,0-1.49,0l-.17,1.52s6.6,3.13,6.27,11.08c-.33,7.95,1.49,0,1.49,0Z"/>
      <path class="cls-1" d="M82.04,27.73c2.37,1.08,4.89,1.81,6.8,3.66.58.56.97,1.49,1.11,2.3.46,2.8.76,5.62,1.12,8.43.05.38.05.76.36,1.25.34-.54.88-1.01,1.25-1.51,2.41-3.26,2.28-7.38,2.26-11.32,0-1.4,1.46-2.75,3.12-2.88,1.43-.11,3.19,1.16,3.28,2.5.78,11.93-4.84,23.18-17.88,27.06-1.54.46-1.56.44-1.26,2.04.45,2.36.96,4.72,1.39,7.08.3,1.61.26,1.64-1.3,1.96-2.47.51-4.95.97-7.42,1.52-1.06.24-1.31-.33-1.48-1.15-.55-2.79-1.16-5.56-1.65-8.36-.18-1.06-.58-1.41-1.68-1.4-5.52.03-10.82-1.04-15.77-3.56-7.48-3.81-11.73-9.98-13.16-18.14-.37-2.13-.47-4.31-.58-6.47-.1-2.11,1.75-3.38,3.79-2.71,2.04.67,2.2.9,2.4,3.05.18,3.73,1.16,7.26,3.1,10.61.15.26.35.5.73,1.03.12-.65.21-1.03.26-1.41.3-2.31.53-4.62.89-6.92.31-2.03,1.36-3.58,3.31-4.45,1.56-.7,3.1-1.45,4.85-2.28.05.63.1,1,.1,1.37.02,2.45,0,4.89.06,7.34.03.99-.2,1.67-1.1,2.25-1.32.85-1.53,2.72-.63,4,.83,1.18,2.57,1.56,3.8.83,1.31-.78,1.8-2.44,1.11-3.82-.14-.28-.3-.62-.55-.75-1.31-.64-1.32-1.77-1.3-3,.04-2.48.06-4.97,0-7.46-.03-1.08.31-1.72,1.29-2.24,2.1-1.12,2.06-1.18,3.06.98.84,1.83,1.7,3.65,2.56,5.46.18.38.41.73.78,1.4.42-1.38.84-2.39.13-3.5-.57-.9-.83-2.12.08-2.68.77-.47,2.03-.45,2.99-.24.96.2,1.22,1.67.48,2.75-.8,1.17-.43,2.21.07,3.68.47-.9.83-1.52,1.13-2.17.92-1.92,1.83-3.85,2.71-5.79.41-.9.94-.95,1.67-.43.29.21.58.4.89.58,1.69.98,1.64,2.8.15,4.04-.91.76-1.72,1.9-2.07,3.02-.71,2.33-1.11,4.76-1.58,7.16-.31,1.61,1.54,3.56,3.13,3.29.35-.06.61-.66.91-1.01-.4-.34-.79-.95-1.21-.98-1.64-.08-1.74-.15-1.41-1.75.31-1.47.58-2.94.9-4.41.16-.73.33-1.47.56-2.18.5-1.53,1.49-2.42,2.59-2.4,1.06.02,2.06.88,2.45,2.4.59,2.33,1.08,4.69,1.53,7.05.21,1.12-.14,1.35-1.28,1.35-.43,0-.99.23-1.26.55-.17.2-.03.98.19,1.1.38.21,1,.28,1.39.11,2.42-1.07,2.62-1.47,2.13-4.09-.36-1.94-.76-3.87-1.22-5.79-.38-1.58-1.13-2.93-2.64-3.76-.83-.46-.87-.74-.45-2.2Z"/>
      <path class="cls-1" d="M113.56,74.92c1.39.17,2.53.24,3.64.46,2.11.41,3.39,1.8,3.61,3.87.23,2.19.15,4.41.12,6.61,0,.27-.47.55-.75.81-.07.06-.23.02-.35.02-10.02,0-20.04-.02-30.06-.03-1.44,0-2.6-.56-3.48-2.07-1.31,2.53-3.53,2.07-5.59,2.1-1.22.02-2.45,0-3.67,0-1.59.02-3.19.06-4.32-1.46-.1.05-.2.09-.3.14-.03.67-.07,1.33-.1,2-.19,3.63-2.61,5.71-6.21,5.34-.75-.08-1.14-.31-1.05-1.18.08-.85.41-1.01,1.22-.93,2.69.25,3.8-.73,3.86-3.49.08-3.23.03-6.47.04-9.7,0-.72-.21-1.49,1.03-1.51,1.32-.02,1.1.8,1.1,1.56,0,1.22-.03,2.45.02,3.67.09,2.21,1.21,3.34,3.42,3.39,2.13.05,4.26.03,6.39,0,1.56-.02,2.08-.49,2.13-2.04.06-1.81.06-3.63.02-5.44-.02-.9.34-1.14,1.19-1.14.86,0,1.08.37,1.06,1.15-.03,1.38-.04,2.76.02,4.14.08,2.15,1.18,3.23,3.34,3.33.83.04,1.66,0,2.49,0,8.28,0,16.57-.02,24.85.03,1.12,0,1.6-.3,1.49-1.46-.08-.9.01-1.82-.05-2.72-.14-2.11-1.07-3.04-3.2-3.2-.9-.07-1.82,0-2.72-.07-.55-.04-1.53-.15-1.56-.34-.1-.73-.1-1.62.23-2.25.79-1.49,1.79-2.88,2.71-4.3.69-1.06,1.42-2.09,2.08-3.16.43-.69.85-.64,1.45-.24.58.39.86.71.37,1.4-1.25,1.77-2.45,3.58-3.66,5.37-.26.38-.49.78-.82,1.31Z"/>
      <path class="cls-1" d="M143.72,118.99c-.66.03-1.33.09-1.99.09-17.95,0-35.91,0-53.86,0-7.81,0-15.63,0-23.44,0q-1.96,0-2.55-1.82c-.03-.1-.14-.17-.21-.26-.73,1.21-1.68,1.85-3.07,2.41-.35.14-.63.84-.67,1.3-.29,3.46-.51,6.92-.76,10.38-.04.5-.14,1-.4,1.49-.46-3.79-.92-7.58-1.37-11.37-.1-.88.08-1.87-1.27-2.02-.19-.02-.4-.7-.45-1.1-.19-1.35-.31-2.7-.46-4.06-.11,0-.22,0-.34,0-.17,1.23-.39,2.46-.5,3.69-.1,1.12-.51,1.78-1.77,1.6-.78-.11-1.12.32-1.27,1.06-.36,1.8-.79,3.6-1.18,5.39-.11.01-.22.02-.33.03-.32-1.18-.63-2.37-.97-3.55-1.03-3.61-.29-2.93-3.75-2.93-13.61-.03-27.23-.02-40.84-.02-.59,0-1.19,0-1.77-.06-.18-.02-.33-.25-.49-.39.16-.14.29-.34.47-.41.21-.08.47-.04.7-.04,14.76,0,29.52,0,44.28-.03.95,0,1.47.3,1.65,1.26.13.69.39,1.35.6,2.02.11.02.22.03.34.05.17-.67.4-1.33.49-2.01.14-.95.58-1.43,1.57-1.29,1.01.14,1.29-.44,1.4-1.3.48-3.56.98-7.11,1.48-10.67.05-.38.15-.75.49-1.13.12,1.31.25,2.63.37,3.94.22,2.59.42,5.19.64,7.78.06.66.08,1.33,1.03,1.47.25.04.52.62.6.99.18.88.26,1.78.6,2.69.1-.87.25-1.73.27-2.6.02-.83.3-1.19,1.19-1.2,2.02-.03,2-.07,2.37-2.12.31-1.73.67-3.46,1.01-5.19.1-.01.2-.03.3-.04.1.38.23.75.29,1.14.25,1.64.5,3.28.7,4.92.09.77.44,1.14,1.23,1.1.43-.02.87,0,1.3,0,25.57,0,51.14,0,76.71,0,.55,0,1.09.09,1.64.13,0,.22,0,.43,0,.65Z"/>
      <path class="cls-1" d="M71.38.01c1.74-.09,3.21.34,4.13,1.98.14.24.46.43.74.54,1.99.74,3,2.32,3.32,4.27.36,2.21.67,4.46.61,6.69-.03,1.28-.79,2.57-1.31,3.81-.28.68-.72,1.3-1.14,1.92-.89,1.34-1.64,2.81-2.74,3.94-2.37,2.44-5.81,2.35-8.23-.05-.53-.52-1.03-1.1-1.43-1.73-1.04-1.66-2.01-3.36-2.99-5.06-.2-.34-.46-.71-.47-1.08-.09-3.96-.6-8.03,2.11-11.44C65.85,1.46,68.29.04,71.38.01ZM64.03,11.82c.24,1.89.29,3.32.61,4.69.59,2.5,1.64,4.78,3.88,6.28,1.79,1.21,3.28,1.15,5.02-.14,3.48-2.59,5.41-10.23,3.59-14.2-.88-1.93-2.17-2.54-4.28-2.3-1.31.15-2.67.14-3.98-.03-1.69-.23-3.1.2-3.78,1.73-.6,1.36-.8,2.91-1.07,3.98Z"/>
      <path class="cls-1" d="M140.61,103.79c.22.17.3.26.41.3,2.36.96,3.33,2.3,3.27,4.5-.06,2.04-1.49,4.07-3.67,4.57-1.82.42-3.74.46-5.62.51-3.07.07-3.05.02-3.04-3.06.02-4.62.04-9.23-.02-13.85-.02-1.21.37-1.59,1.55-1.53,1.77.1,3.55-.03,5.32.08,3.36.2,5.35,2.68,4.32,5.53-.34.95-1.33,1.67-2.03,2.49-.12.14-.27.26-.5.46ZM134.82,108.22s0,0,.01,0c0,.75-.09,1.51.04,2.23.06.33.51.83.8.85,1.05.07,2.13.04,3.17-.11,1.32-.19,2.16-1.21,2.27-2.49.19-2.15-.95-3.29-3.55-3.32-3.14-.03-2.7-.46-2.75,2.6,0,.08,0,.16,0,.24ZM134.83,100.31s.01,0,.02,0c0,.63-.07,1.27.03,1.88.05.3.42.78.63.77,1.12-.05,2.31-.04,3.34-.41,1.65-.59,2.12-3.17.86-4.24-1.29-1.1-2.91-1-4.37-.63-.36.09-.35,1.63-.51,2.51,0,.04,0,.08,0,.12Z"/>
      <path class="cls-1" d="M.53,104.41c0-2.64.03-5.29-.01-7.93-.01-.9.24-1.29,1.2-1.24,2.2.1,4.42,0,6.62.2,4.54.42,7.13,3.15,7.49,7.69.49,6.05-3.28,10.26-9.48,10.54-1.57.07-3.16-.01-4.73.03-.83.02-1.11-.31-1.1-1.12.03-2.72.01-5.44.01-8.16h0ZM3.45,104.47h0c0,1.46,0,2.92,0,4.38.02,2.68-.28,2.4,2.42,2.38,4.68-.03,7.26-2.87,6.95-7.58-.24-3.58-2.17-5.61-5.68-5.91-.86-.07-1.73-.01-2.6-.05-.81-.04-1.13.29-1.11,1.11.04,1.89.01,3.78.01,5.68Z"/>
      <path class="cls-1" d="M92.2,105.12c1.9,2.79,3.74,5.49,5.62,8.25-2.18.74-3.14.44-4.15-1.16-.94-1.5-1.83-3.04-2.79-4.53-.63-.98-1.57-1.49-2.77-1.58-.94-.07-1.39.18-1.36,1.22.06,1.77-.02,3.55.04,5.32.03,1-.5,1.11-1.27,1.04-.72-.06-1.66.32-1.65-1.02.03-5.48.02-10.97.02-16.45,0-.61.17-.97.87-.96,2.05.04,4.11-.08,6.15.08,3.75.28,5.81,3.26,4.51,6.6-.39,1.01-1.42,1.8-2.22,2.63-.3.31-.79.44-1.02.56ZM86.77,100.51c0,.2,0,.39,0,.59.06,3.01-.56,2.76,2.91,2.69,1.82-.04,3.13-1.56,3.07-3.36-.08-2.11-1.44-2.97-4.62-2.9q-1.36.03-1.36,2.75c0,.08,0,.16,0,.24Z"/>
      <path class="cls-1" d="M44.8,86.69c-5.17,0-10.34-.03-15.51.02-1.09,0-1.51-.25-1.49-1.44.06-5.92.03-11.83.02-17.75,0-.73-.02-1.29,1.01-1.29.96,0,1.2.35,1.2,1.26-.03,5.17-.02,10.34-.01,15.5,0,1.56.03,1.57,1.59,1.57,8.8,0,17.6-.02,26.4.02,1.19,0,1.61-.33,1.57-1.53-.08-2.01.02-4.02-.02-6.03-.02-.83.31-1.1,1.11-1.1.84,0,1.1.34,1.09,1.13-.03,2.8-.05,5.6,0,8.4.02,1.04-.41,1.26-1.33,1.25-5.21-.03-10.42-.01-15.62-.01h0Z"/>
      <path class="cls-1" d="M17,113.68c.74-2.03,1.36-3.76,2-5.49,1.43-3.88,2.88-7.76,4.3-11.65.29-.79.58-1.44,1.63-1.3,1.06.13,2.18-.34,2.74,1.27,1.79,5.18,3.75,10.3,5.64,15.44.17.47.31.96.56,1.71-1.01,0-1.86.05-2.68-.03-.25-.03-.55-.41-.66-.7-.41-1.02-.69-2.11-1.17-3.09-.19-.39-.76-.82-1.17-.84-1.85-.09-3.71-.09-5.56,0-.41.02-.97.47-1.17.87-.41.8-.69,1.68-.89,2.56-.23.99-.73,1.41-1.75,1.26-.49-.07-1-.01-1.81-.01ZM25.5,98.58c-.17.08-.28.09-.3.14-.82,2.33-1.64,4.66-2.44,7-.22.63.14.86.73.86,1.26,0,2.52-.02,3.77,0,.85.02,1.02-.32.75-1.09-.72-1.99-1.4-4-2.11-6-.11-.31-.26-.61-.4-.92Z"/>
      <path class="cls-1" d="M129.06,113.68c-.93,0-1.71.07-2.48-.03-.29-.04-.65-.4-.78-.71-.43-1.02-.69-2.1-1.17-3.09-.19-.39-.75-.83-1.17-.85-1.85-.09-3.7-.02-5.55-.05-.72-.01-1.07.31-1.27.97-.25.83-.61,1.63-.81,2.47-.24,1.01-.76,1.47-1.82,1.32-.49-.07-1-.01-1.71-.01.73-2.06,1.35-3.91,2.03-5.74,1.39-3.76,2.82-7.52,4.21-11.28.3-.82.57-1.53,1.68-1.42,1.08.1,2.16-.28,2.71,1.31,1.85,5.36,3.88,10.66,5.83,15.98.12.32.17.66.3,1.15ZM120.8,98.47c-.1,0-.2,0-.3.01-.81,2.38-1.61,4.75-2.43,7.13-.22.65-.04.98.68.97,1.26,0,2.52-.01,3.78.01.78.01.98-.35.74-1.04-.28-.82-.56-1.64-.85-2.45-.54-1.54-1.08-3.09-1.62-4.63Z"/>
      <path class="cls-1" d="M64.31,113.61c.64-1.82,1.21-3.49,1.82-5.14,1.43-3.88,2.88-7.75,4.32-11.63.53-1.42,2.28-2.15,3.68-1.51.22.1.41.38.49.61,2.12,5.77,4.23,11.54,6.34,17.31.02.06-.02.15-.06.41-.81,0-1.67.07-2.5-.04-.27-.03-.58-.48-.71-.81-.38-.95-.71-1.92-1-2.9-.2-.66-.58-.97-1.28-.96-1.85.02-3.71.02-5.56,0-.72,0-1.07.31-1.25.98-.19.72-.52,1.41-.68,2.14-.27,1.22-.89,1.86-2.21,1.62-.41-.07-.83-.06-1.42-.09ZM72.65,97.97c-.95,2.83-1.8,5.31-2.6,7.8-.07.2.18.73.3.73,1.66.05,3.32.03,5.22.03-1-2.93-1.9-5.58-2.92-8.56Z"/>
      <path class="cls-1" d="M39.65,105.1c-.02.49-.06.99-.06,1.48,0,2.05-.02,4.1,0,6.15.01,1.27-.91.91-1.59.95-.67.04-1.35.13-1.34-.95.03-5.48.04-10.96,0-16.45,0-1.36.92-.95,1.63-1.03.82-.08,1.35.05,1.31,1.1-.07,1.89-.02,3.79-.02,5.68,0,.46.04.92.08,1.75.47-.51.74-.75.95-1.03,1.48-1.95,3.08-3.82,4.38-5.88,1.13-1.8,2.63-1.79,4.61-1.5-1.12,1.42-2.12,2.7-3.14,3.97-1.04,1.29-2.07,2.58-3.17,3.83-.6.68-.51,1.18.03,1.84,2.03,2.46,4.02,4.96,6.03,7.45.24.3.44.62.68.96-2.14.72-3.43.34-4.64-1.28-1.58-2.12-3.16-4.23-4.75-6.34-.21-.28-.46-.52-.69-.78-.1.03-.21.05-.31.08Z"/>
      <path class="cls-1" d="M98.35,95.27c.99,0,1.82-.11,2.61.05.39.08.8.59.99,1,1.03,2.17,2,4.38,2.99,6.57.14.32.31.62.58,1.17.31-.52.54-.85.71-1.2.91-1.88,1.78-3.78,2.7-5.66,1.07-2.2,1.08-2.19,3.79-1.8-.17.41-.29.79-.47,1.15-1.58,3.09-3.2,6.16-4.72,9.28-.38.78-.55,1.71-.61,2.58-.1,1.41-.08,2.84-.02,4.26.06,1.26-.79,1-1.51,1.03-.77.03-1.42.01-1.34-1.09.08-1.02-.08-2.06.02-3.07.19-1.95-.55-3.6-1.41-5.27-1.4-2.69-2.71-5.43-4.05-8.16-.08-.17-.12-.37-.27-.83Z"/>
      <path class="cls-1" d="M59.12,105.72c0,2.25-.05,4.5.02,6.74.04,1.16-.56,1.25-1.46,1.24-.89,0-1.48-.06-1.46-1.24.06-4.46,0-8.91.04-13.37.01-1.08-.32-1.51-1.41-1.43-.98.07-1.97,0-2.96.02-1,.03-.88-.66-.89-1.29-.02-.65.05-1.16.92-1.15,3.86.02,7.73.03,11.59,0,.98,0,.93.59.94,1.25.02.7-.03,1.26-.98,1.22-1.06-.05-2.13.03-3.19-.02-.87-.04-1.19.31-1.17,1.18.04,2.29.01,4.57.01,6.86h0Z"/>
      <path class="cls-1" d="M12.96,86.69c-2.68,0-5.36.01-8.04,0-3.14-.02-4.36-1.26-4.38-4.39,0-.95.03-1.89-.01-2.84-.04-.84.34-1.08,1.13-1.08.81,0,1.15.25,1.11,1.09-.05,1.02-.05,2.05.01,3.07.09,1.41.61,1.97,1.98,1.98,4.97.04,9.94,0,14.91.03.83,0,.98-.43.98-1.12,0-2.13.03-4.26,0-6.39-.01-.8.24-1.14,1.08-1.13.78.01,1.16.22,1.15,1.07-.04,2.92-.05,5.84-.03,8.75,0,.85-.44.96-1.12.96-2.92-.01-5.84,0-8.75,0,0,0,0,0,0,0Z"/>
      <path class="cls-1" d="M137.56,86.68c-1.42,0-2.84-.02-4.26,0-.74.01-1.27-.04-1.28-1.05,0-1.06.54-1.11,1.34-1.1,2.09.03,4.18-.01,6.27.03.87.02,1.23-.29,1.18-1.17-.07-1.22.02-2.45-.13-3.66-.23-1.86-1.15-2.69-3.03-2.88-.94-.1-1.89-.09-2.84-.09-.72,0-.95-.35-.95-1.03,0-.69.25-1.02.97-.99,1.26.05,2.53,0,3.78.12,2.45.24,4.13,1.81,4.33,4.26.18,2.24.09,4.49.13,6.74.01.73-.44.82-1.01.82-1.5-.01-3,0-4.5,0Z"/>
      <path class="cls-1" d="M125.95,76.35c0-3,.02-6-.01-8.99,0-.79.21-1.14,1.06-1.14.83,0,1.1.32,1.1,1.12-.02,6.11-.02,12.23,0,18.34,0,.8-.34,1.01-1.07,1.01-.72,0-1.09-.18-1.08-.99.03-3.12.01-6.23.01-9.35Z"/>
      <path class="cls-1" d="M89.22,13.52c.98.03,1.87.95,1.86,1.92,0,1-.89,1.82-1.94,1.82-1.01,0-1.84-.87-1.84-1.91,0-1.02.89-1.86,1.91-1.83Z"/>
      <path class="cls-1" d="M53.29,15.41c-.01,1.02-.89,1.89-1.88,1.86-1.07-.03-1.87-.85-1.83-1.88.04-1.04.88-1.88,1.88-1.87,1.02,0,1.85.86,1.83,1.89Z"/>
      <path class="cls-1" d="M79.97,75.64c-.31-.46-.81-.9-.87-1.39-.1-.78.53-1.32,1.26-1.15.47.11,1.12.75,1.13,1.16,0,.46-.62.93-.97,1.4-.18,0-.36-.02-.55-.02Z"/>
      <path class="cls-1" d="M12.23,88.1c.36.47,1,.93,1.01,1.41,0,.39-.68,1.02-1.16,1.13-.73.17-1.35-.37-1.25-1.15.07-.49.58-.92.89-1.38.17,0,.34,0,.52-.01Z"/>
      <path class="cls-1" d="M75.99,75.65c-.31-.49-.9-1-.86-1.46.04-.42.73-1.01,1.2-1.09.73-.12,1.32.47,1.17,1.24-.1.49-.63.88-.97,1.32-.18,0-.36-.01-.54-.02Z"/>
      <path class="cls-1" d="M42.97,88.11c.34.47.95.94.94,1.4,0,.4-.67,1.02-1.13,1.12-.72.17-1.36-.36-1.26-1.14.07-.49.59-.91.91-1.37l.54-.02Z"/>
      <path class="cls-1" d="M48.23,89.78c-.5.31-1.02.87-1.5.84-.41-.02-1.08-.73-1.09-1.13,0-.39.69-1.09,1.1-1.11.48-.02.99.54,1.49.85,0,.18,0,.36,0,.54Z"/>
      <path class="cls-1" d="M82.19,59.26c.46,2.37.96,4.72,1.4,7.08.29,1.61.26,1.63-1.3,1.96-2.47.52-4.95.97-7.42,1.52-1.07.24-1.31-.32-1.48-1.15-.55-2.79-1.16-5.56-1.64-8.36-.19-1.06-.58-1.41-1.69-1.4-5.52.04-10.82-1.04-15.77-3.56-7.48-3.81-11.73-9.98-13.16-18.14-.37-2.13-.47-4.31-.57-6.48-.1-2.11,1.75-3.38,3.79-2.71,2.04.67,2.2.89,2.39,3.05.39,4.42,1.66,9.92,5.16,12.9,7.17,6.1,16.64,9.91,26.07,7.47,1.53-.4,3.02-.95,4.45-1.65,2.7-1.32,5.26-2.99,7.46-5.06,1.01-.95,2.08-2,2.73-3.23s1.05-2.71,1.42-4.1c.6-2.24.89-4.55.9-6.87,0-1.4,1.46-2.75,3.12-2.87,1.43-.11,3.19,1.16,3.28,2.5.78,11.92-4.85,23.18-17.88,27.06-1.54.46-1.56.44-1.26,2.04Z"/>
    </g>
  </g>
</svg>