<svg xmlns="http://www.w3.org/2000/svg" version="1.1" xmlns:xlink="http://www.w3.org/1999/xlink" xmlns:svgjs="http://svgjs.com/svgjs" width="512" height="512" x="0" y="0" viewBox="0 0 64 64" style="enable-background:new 0 0 512 512" xml:space="preserve" class=""><g><path d="m57.953 51.516h-34.355c-3.996 0-7.341-2.842-8.12-6.61h.002l33.85-3.98c3.09-.36 5.56-2.64 6.16-5.68l3.8-18.94c.08-.43-.02-.88-.29-1.22-.27-.35-.68-.56-1.12-.58l-6.83-.31c-.79-7.75-7.35-13.82-15.31-13.82-7.48 0-13.73 5.37-15.11 12.44l-5.7-.26-.018-.001c-.577-2.601-1.79-5.049-3.597-7.12l-4.188-4.35c-.575-.597-1.524-.615-2.121-.041-.596.575-.614 1.524-.04 2.122l4.138 4.294c2.064 2.368 3.202 5.403 3.202 8.544v27.219c0 .119.014.234.018.352 0 .007-.004.012-.004.019 0 .06 0 .12.01.18.001.005.004.009.004.014.246 4.938 3.67 9.043 8.27 10.311-.001.002-.003.003-.005.005-.85 1.01-1.37 2.31-1.37 3.74 0 3.19 2.59 5.78 5.78 5.78s5.78-2.59 5.78-5.78c0-1.24-.39-2.389-1.06-3.329h13.081c-.67.94-1.06 2.09-1.06 3.329 0 3.19 2.59 5.78 5.78 5.78s5.79-2.59 5.79-5.78c0-1.24-.39-2.389-1.07-3.329h5.703c.828 0 1.5-.672 1.5-1.5s-.672-1.499-1.5-1.499zm-26.213-37.881c.01-.1.02-.21.03-.31 0-.05 0-.1.01-.14 0-.004.001-.007.001-.01.797.059 1.594.098 2.39.098.839 0 1.676-.032 2.507-.098 1.024-.08 2.017-.218 2.991-.383 0 .004.001.008.002.013.03.26.05.54.08.83v.05c.08 1 .1 2.01.08 3.01-.02.77-.07 1.53-.15 2.29-.79.12-1.55.21-2.3.26-1.86.14-3.72.12-5.56-.09-.1-.94-.15-1.88-.16-2.83-.021-.89.009-1.79.079-2.69zm-2.57 8.17c.003.001.007.001.01.002.3 1.749.76 3.499 1.35 5.198-2.79-1.29-5.03-3.6-6.22-6.46 1.59.55 3.22.97 4.86 1.26zm4.98 6.26c-.8-1.9-1.42-3.86-1.84-5.85.91.08 1.83.12 2.74.12.85 0 1.7-.03 2.55-.1.53-.04 1.06-.09 1.6-.17-.41 2.01-1.04 4.03-1.87 6-.52.07-1.05.1-1.59.1s-1.07-.03-1.59-.1zm8.21-6.55c1.72-.38 3.41-.9 5.04-1.56-1.12 3.13-3.46 5.67-6.45 7.05.63-1.82 1.11-3.65 1.41-5.49zm5.77-5.75c0 .2 0 .41-.02.61-.46.23-.93.44-1.4.63-1.29.54-2.61.98-3.96 1.33.04-.5.07-1 .08-1.51.02-1 0-2-.07-3 0-.14-.01-.29-.02-.43-.03-.43-.07-.84-.12-1.22 0-.005-.001-.009-.002-.014 1.492-.392 2.966-.893 4.411-1.498 0 .001.001.001.001.002.48 1.06.82 2.2.98 3.39.08.56.12 1.13.12 1.71zm-2.68-7.69c0 .001.001.001.001.002-1.09.438-2.199.809-3.32 1.115-.001-.002-.001-.005-.001-.007-.33-1.62-.78-3.2-1.35-4.74 1.84.82 3.44 2.08 4.67 3.63zm-8.31-4.62c.918 2.035 1.616 4.18 2.057 6.375-.895.152-1.808.28-2.752.354-1.405.111-2.825.116-4.245.021.44-2.31 1.16-4.58 2.14-6.75.46-.05.93-.08 1.4-.08s.94.03 1.4.08zm-6.44.99c-.659 1.757-1.148 3.573-1.488 5.409-1.292-.211-2.572-.498-3.828-.874 1.299-1.978 3.138-3.566 5.316-4.535zm-6.66 7.25v-.001c1.559.493 3.151.872 4.761 1.131 0 .003-.001.007-.001.01-.01.11-.02.23-.03.35-.01.07-.01.15-.02.22-.07.92-.1 1.85-.09 2.78 0 .83.03 1.65.1 2.48-1.82-.38-3.61-.93-5.35-1.64-.03-.36-.05-.72-.05-1.08-.01-.06-.01-.12-.01-.18 0-.97.11-1.91.32-2.81.1-.43.22-.85.37-1.26zm-8.74 3.89 5.05.23c.03 8.47 6.92 15.35 15.39 15.35 8 0 14.59-6.14 15.32-13.96l4.94.22-3.45 17.23c-.35 1.76-1.78 3.08-3.57 3.29l-33.67 3.97-.004.001v-25.911c0-.141-.015-.28-.019-.421zm32.23 45.04c-1.53 0-2.78-1.25-2.78-2.78 0-1.54 1.25-2.79 2.78-2.79 1.54 0 2.79 1.25 2.79 2.79 0 1.53-1.25 2.78-2.79 2.78zm-22.52 0c-1.53 0-2.78-1.25-2.78-2.78 0-1.54 1.25-2.79 2.78-2.79s2.78 1.25 2.78 2.79c0 1.53-1.25 2.78-2.78 2.78z" fill="#000000" data-original="#000000" class=""></path></g></svg>