<svg xmlns="http://www.w3.org/2000/svg" version="1.1" xmlns:xlink="http://www.w3.org/1999/xlink" xmlns:svgjs="http://svgjs.com/svgjs" width="512" height="512" x="0" y="0" viewBox="0 0 60 60" style="enable-background:new 0 0 512 512" xml:space="preserve" class=""><g><path d="M54,20H6a6.006,6.006,0,0,0-6,6v8a6.006,6.006,0,0,0,6,6H7v4.586l-.293-.293a1,1,0,0,0-1.414,1.414l2,2a1,1,0,0,0,1.414,0l2-2a1,1,0,0,0-1.414-1.414L9,44.586V40H29v4.586l-.293-.293a1,1,0,0,0-1.414,1.414l2,2a1,1,0,0,0,1.414,0l2-2a1,1,0,0,0-1.414-1.414L31,44.586V40H51v4.586l-.293-.293a1,1,0,0,0-1.414,1.414l2,2a1,1,0,0,0,1.414,0l2-2a1,1,0,0,0-1.414-1.414L53,44.586V40h1a6.006,6.006,0,0,0,6-6V26A6.006,6.006,0,0,0,54,20Zm4,14a4,4,0,0,1-4,4H6a4,4,0,0,1-4-4V26a4,4,0,0,1,4-4H54a4,4,0,0,1,4,4Z" fill="#000000" data-original="#000000" class=""></path><path d="M35,10a3,3,0,0,0,3-3V3a3,3,0,0,0-3-3H25a3,3,0,0,0-3,3V7a3,3,0,0,0,3,3h4v4.586l-.293-.293a1,1,0,0,0-1.414,1.414l2,2a1,1,0,0,0,1.414,0l2-2a1,1,0,0,0-1.414-1.414L31,14.586V10ZM24,7V3a1,1,0,0,1,1-1H35a1,1,0,0,1,1,1V7a1,1,0,0,1-1,1H25A1,1,0,0,1,24,7Z" fill="#000000" data-original="#000000" class=""></path><path d="M3,10H7v4.586l-.293-.293a1,1,0,0,0-1.414,1.414l2,2a1,1,0,0,0,1.414,0l2-2a1,1,0,0,0-1.414-1.414L9,14.586V10h4a3,3,0,0,0,3-3V3a3,3,0,0,0-3-3H3A3,3,0,0,0,0,3V7A3,3,0,0,0,3,10ZM2,3A1,1,0,0,1,3,2H13a1,1,0,0,1,1,1V7a1,1,0,0,1-1,1H3A1,1,0,0,1,2,7Z" fill="#000000" data-original="#000000" class=""></path><path d="M57,0H47a3,3,0,0,0-3,3V7a3,3,0,0,0,3,3h4v4.586l-.293-.293a1,1,0,0,0-1.414,1.414l2,2a1,1,0,0,0,1.414,0l2-2a1,1,0,0,0-1.414-1.414L53,14.586V10h4a3,3,0,0,0,3-3V3A3,3,0,0,0,57,0Zm1,7a1,1,0,0,1-1,1H47a1,1,0,0,1-1-1V3a1,1,0,0,1,1-1H57a1,1,0,0,1,1,1Z" fill="#000000" data-original="#000000" class=""></path><path d="M35,50H25a3,3,0,0,0-3,3v4a3,3,0,0,0,3,3H35a3,3,0,0,0,3-3V53A3,3,0,0,0,35,50Zm1,7a1,1,0,0,1-1,1H25a1,1,0,0,1-1-1V53a1,1,0,0,1,1-1H35a1,1,0,0,1,1,1Z" fill="#000000" data-original="#000000" class=""></path><path d="M13,50H3a3,3,0,0,0-3,3v4a3,3,0,0,0,3,3H13a3,3,0,0,0,3-3V53A3,3,0,0,0,13,50Zm1,7a1,1,0,0,1-1,1H3a1,1,0,0,1-1-1V53a1,1,0,0,1,1-1H13a1,1,0,0,1,1,1Z" fill="#000000" data-original="#000000" class=""></path><path d="M57,50H47a3,3,0,0,0-3,3v4a3,3,0,0,0,3,3H57a3,3,0,0,0,3-3V53A3,3,0,0,0,57,50Zm1,7a1,1,0,0,1-1,1H47a1,1,0,0,1-1-1V53a1,1,0,0,1,1-1H57a1,1,0,0,1,1,1Z" fill="#000000" data-original="#000000" class=""></path><path d="M13.414,26.586A1.986,1.986,0,0,0,12,26H6.5A1.5,1.5,0,0,0,5.44,28.561L6.88,30,5.44,31.439A1.5,1.5,0,0,0,6.5,34H12a1.986,1.986,0,0,0,1.414-.586l2-2a2,2,0,0,0,0-2.828ZM12,32H7.708l.586-.586a2,2,0,0,0,0-2.828L7.708,28H12l2,2Z" fill="#000000" data-original="#000000" class=""></path><path d="M26.414,26.586A1.986,1.986,0,0,0,25,26H19.5a1.5,1.5,0,0,0-1.061,2.561L19.88,30l-1.44,1.439A1.5,1.5,0,0,0,19.5,34H25a1.986,1.986,0,0,0,1.414-.586l2-2a2,2,0,0,0,0-2.828ZM25,32H20.708l.586-.586a2,2,0,0,0,0-2.828L20.708,28H25l2,2Z" fill="#000000" data-original="#000000" class=""></path><path d="M39.414,26.586A1.986,1.986,0,0,0,38,26H32.5a1.5,1.5,0,0,0-1.061,2.561L32.88,30l-1.44,1.439A1.5,1.5,0,0,0,32.5,34H38a1.986,1.986,0,0,0,1.414-.586l2-2a2,2,0,0,0,0-2.828ZM38,32H33.708l.586-.586a2,2,0,0,0,0-2.828L33.708,28H38l2,2Z" fill="#000000" data-original="#000000" class=""></path><path d="M52.414,26.586A1.986,1.986,0,0,0,51,26H45.5a1.5,1.5,0,0,0-1.061,2.561L45.88,30l-1.44,1.439A1.5,1.5,0,0,0,45.5,34H51a1.986,1.986,0,0,0,1.414-.586l2-2a2,2,0,0,0,0-2.828ZM51,32H46.708l.586-.586a2,2,0,0,0,0-2.828L46.708,28H51l2,2Z" fill="#000000" data-original="#000000" class=""></path><path d="M55,4H49a1,1,0,0,0,0,2h6a1,1,0,0,0,0-2Z" fill="#000000" data-original="#000000" class=""></path><path d="M34,5a1,1,0,0,0-1-1H27a1,1,0,0,0,0,2h6A1,1,0,0,0,34,5Z" fill="#000000" data-original="#000000" class=""></path><path d="M5,6h6a1,1,0,0,0,0-2H5A1,1,0,0,0,5,6Z" fill="#000000" data-original="#000000" class=""></path><path d="M55,54H49a1,1,0,0,0,0,2h6a1,1,0,0,0,0-2Z" fill="#000000" data-original="#000000" class=""></path><path d="M33,54H27a1,1,0,0,0,0,2h6a1,1,0,0,0,0-2Z" fill="#000000" data-original="#000000" class=""></path><path d="M11,54H5a1,1,0,0,0,0,2h6a1,1,0,0,0,0-2Z" fill="#000000" data-original="#000000" class=""></path></g></svg>