<svg xmlns="http://www.w3.org/2000/svg" version="1.1" xmlns:xlink="http://www.w3.org/1999/xlink" xmlns:svgjs="http://svgjs.com/svgjs" width="512" height="512" x="0" y="0" viewBox="0 0 96 96" style="enable-background:new 0 0 512 512" xml:space="preserve" class=""><g><g id="Backend_Coding-4" data-name="Backend Coding"><path d="M90.33,9.67H5.67A5.67,5.67,0,0,0,0,15.33V80.67a5.67,5.67,0,0,0,5.67,5.66H90.33A5.67,5.67,0,0,0,96,80.67V15.33A5.67,5.67,0,0,0,90.33,9.67ZM94,15.33V21.5H19.46V11.67H90.33A3.67,3.67,0,0,1,94,15.33Zm-92,0a3.67,3.67,0,0,1,3.67-3.66H17.46V21.5H2ZM94,80.67a3.67,3.67,0,0,1-3.67,3.66H5.67A3.67,3.67,0,0,1,2,80.67V23.5H94Z" fill="#000000" data-original="#000000" class=""></path><path d="M80,17.58h.4a1,1,0,1,0,0-2H80a1,1,0,0,0,0,2Z" fill="#000000" data-original="#000000" class=""></path><path d="M84.38,17.58h.4a1,1,0,1,0,0-2h-.4a1,1,0,0,0,0,2Z" fill="#000000" data-original="#000000" class=""></path><path d="M88.73,17.58h.41a1,1,0,1,0,0-2h-.41a1,1,0,0,0,0,2Z" fill="#000000" data-original="#000000" class=""></path><path d="M17.62,27.71V80.12a1,1,0,0,0,2,0V27.71a1,1,0,0,0-2,0Z" fill="#000000" data-original="#000000" class=""></path><path d="M12.92,29.25H6.42a1,1,0,0,0,0,2h6.5a1,1,0,1,0,0-2Z" fill="#000000" data-original="#000000" class=""></path><path d="M12.92,35.17H6.42a1,1,0,0,0,0,2h6.5a1,1,0,1,0,0-2Z" fill="#000000" data-original="#000000" class=""></path><path d="M12.92,41.08H6.42a1,1,0,0,0,0,2h6.5a1,1,0,1,0,0-2Z" fill="#000000" data-original="#000000" class=""></path><path d="M12.92,47H6.42a1,1,0,0,0,0,2h6.5a1,1,0,1,0,0-2Z" fill="#000000" data-original="#000000" class=""></path><path d="M12.92,52.92H6.42a1,1,0,0,0,0,2h6.5a1,1,0,1,0,0-2Z" fill="#000000" data-original="#000000" class=""></path><path d="M12.92,58.83H6.42a1,1,0,0,0,0,2h6.5a1,1,0,1,0,0-2Z" fill="#000000" data-original="#000000" class=""></path><path d="M12.92,64.75H6.42a1,1,0,0,0,0,2h6.5a1,1,0,1,0,0-2Z" fill="#000000" data-original="#000000" class=""></path><path d="M12.92,70.67H6.42a1,1,0,0,0,0,2h6.5a1,1,0,1,0,0-2Z" fill="#000000" data-original="#000000" class=""></path><path d="M12.92,76.58H6.42a1,1,0,0,0,0,2h6.5a1,1,0,1,0,0-2Z" fill="#000000" data-original="#000000" class=""></path><path d="M24,31.25h5.25a1,1,0,0,0,0-2H24a1,1,0,0,0,0,2Z" fill="#000000" data-original="#000000" class=""></path><path d="M24,37.17H40.75a1,1,0,0,0,0-2H24a1,1,0,0,0,0,2Z" fill="#000000" data-original="#000000" class=""></path><path d="M24,43.08H34.62a1,1,0,0,0,0-2H24a1,1,0,0,0,0,2Z" fill="#000000" data-original="#000000" class=""></path><path d="M24,49H37.5a1,1,0,0,0,0-2H24a1,1,0,0,0,0,2Z" fill="#000000" data-original="#000000" class=""></path><path d="M24,66.75H55.12a1,1,0,1,0,0-2H24a1,1,0,0,0,0,2Z" fill="#000000" data-original="#000000" class=""></path><path d="M24,72.67H49.88a1,1,0,1,0,0-2H24a1,1,0,0,0,0,2Z" fill="#000000" data-original="#000000" class=""></path><path d="M24,78.58h4.62a1,1,0,1,0,0-2H24a1,1,0,0,0,0,2Z" fill="#000000" data-original="#000000" class=""></path><path d="M37.79,52.8a1,1,0,0,0,0,1.42l2.3,2.3-2.3,2.3a1,1,0,0,0,1.41,1.41l3-3a1,1,0,0,0,0-1.41l-3-3A1,1,0,0,0,37.79,52.8Z" fill="#000000" data-original="#000000" class=""></path><path d="M26.3,60.23a1,1,0,1,0,1.41-1.41l-2.3-2.3,2.3-2.3a1,1,0,0,0,0-1.42,1,1,0,0,0-1.41,0l-3,3a1,1,0,0,0,0,1.41Z" fill="#000000" data-original="#000000" class=""></path><path d="M33.93,54l-3.64,3.64A1,1,0,1,0,31.7,59l3.64-3.64A1,1,0,1,0,33.93,54Z" fill="#000000" data-original="#000000" class=""></path><path d="M40.61,42.08a1,1,0,0,0-1-1H38.16a1,1,0,0,0,0,2h1.45A1,1,0,0,0,40.61,42.08Z" fill="#000000" data-original="#000000" class=""></path><path d="M32.38,31.25h3.24a1,1,0,1,0,0-2H32.38a1,1,0,1,0,0,2Z" fill="#000000" data-original="#000000" class=""></path><path d="M38.16,76.58h-5a1,1,0,1,0,0,2h5a1,1,0,0,0,0-2Z" fill="#000000" data-original="#000000" class=""></path><path d="M67.41,43.08H78a1,1,0,0,0,0-2H67.41a1,1,0,0,0,0,2Z" fill="#000000" data-original="#000000" class=""></path><path d="M67.41,49h13.5a1,1,0,0,0,0-2H67.41a1,1,0,0,0,0,2Z" fill="#000000" data-original="#000000" class=""></path><path d="M67.41,66.75h17.5a1,1,0,0,0,0-2H67.41a1,1,0,0,0,0,2Z" fill="#000000" data-original="#000000" class=""></path><path d="M67.41,72.67H75a1,1,0,0,0,0-2H67.41a1,1,0,0,0,0,2Z" fill="#000000" data-original="#000000" class=""></path><path d="M67.41,78.58H72a1,1,0,0,0,0-2H67.41a1,1,0,0,0,0,2Z" fill="#000000" data-original="#000000" class=""></path><path d="M81.19,37a1,1,0,0,0,1.42,0l3-3a1,1,0,0,0,0-1.41l-3-3A1,1,0,0,0,81.19,31l2.3,2.3-2.3,2.3A1,1,0,0,0,81.19,37Z" fill="#000000" data-original="#000000" class=""></path><path d="M69.71,37a1,1,0,0,0,1.41-1.41l-2.3-2.3,2.3-2.3a1,1,0,0,0,0-1.42,1,1,0,0,0-1.41,0l-3,3a1,1,0,0,0,0,1.41Z" fill="#000000" data-original="#000000" class=""></path><path d="M74.4,36.08a1,1,0,0,0,.71-.3l3.64-3.63a1,1,0,0,0-1.42-1.42l-3.64,3.64A1,1,0,0,0,74.4,36.08Z" fill="#000000" data-original="#000000" class=""></path><path d="M81.56,43.08H83a1,1,0,0,0,0-2H81.56a1,1,0,0,0,0,2Z" fill="#000000" data-original="#000000" class=""></path><path d="M75.53,77.58a1,1,0,0,0,1,1H88.79a1,1,0,0,0,0-2H76.53A1,1,0,0,0,75.53,77.58Z" fill="#000000" data-original="#000000" class=""></path><path d="M67.41,54.51H75a1,1,0,0,0,0-2H67.41a1,1,0,0,0,0,2Z" fill="#000000" data-original="#000000" class=""></path><path d="M67.41,60.52H81.9a1,1,0,0,0,0-2H67.41a1,1,0,0,0,0,2Z" fill="#000000" data-original="#000000" class=""></path></g></g></svg>