<svg width="24" height="24" viewBox="0 0 24 24" fill="none" xmlns="http://www.w3.org/2000/svg">
<path d="M12 2H8.66998C6.82998 2 5.34003 3.48999 5.34003 5.32999C5.34003 7.16999 6.82998 8.66 8.66998 8.66H12V2Z" stroke="#71B8FE" stroke-width="1.5" stroke-miterlimit="10"/>
<path d="M12 8.67004H8.66998C6.82998 8.67004 5.34003 10.16 5.34003 12C5.34003 13.84 6.82998 15.33 8.66998 15.33H12V8.67004Z" stroke="#71B8FE" stroke-width="1.5" stroke-miterlimit="10"/>
<path d="M12 15.33H8.66998C6.82998 15.33 5.34003 16.82 5.34003 18.66C5.34003 20.5 6.82998 21.99 8.66998 21.99C10.51 21.99 12 20.5 12 18.66V15.33Z" stroke="#71B8FE" stroke-width="1.5" stroke-miterlimit="10"/>
<g opacity="0.4">
<path d="M12 2H15.33C17.17 2 18.66 3.48999 18.66 5.32999C18.66 7.16999 17.17 8.66 15.33 8.66H12V2Z" stroke="#71B8FE" stroke-width="1.5" stroke-miterlimit="10" stroke-linecap="round" stroke-linejoin="round"/>
<path d="M15.33 8.67004C17.17 8.67004 18.66 10.16 18.66 12C18.66 13.84 17.17 15.33 15.33 15.33C13.49 15.33 12 13.84 12 12C12 10.16 13.49 8.67004 15.33 8.67004Z" stroke="#71B8FE" stroke-width="1.5" stroke-miterlimit="10"/>
</g>
</svg>
