<svg xmlns="http://www.w3.org/2000/svg" version="1.1" xmlns:xlink="http://www.w3.org/1999/xlink" xmlns:svgjs="http://svgjs.com/svgjs" width="512" height="512" x="0" y="0" viewBox="0 0 128 128" style="enable-background:new 0 0 512 512" xml:space="preserve" class=""><g><path d="m10.1 114.4h66c.6 0 1-.4 1-1v-49.9c0-.6-.4-1-1-1h-66c-.6 0-1 .4-1 1v49.8c0 .6.5 1.1 1 1.1zm1-49.9h64v47.8h-64zm104.2-53.4h-57.9c-2.5 0-4.5 2-4.5 4.5s2 4.5 4.5 4.5h57.9c2.5 0 4.5-2 4.5-4.5s-2-4.5-4.5-4.5zm0 7h-57.9c-1.4 0-2.5-1.1-2.5-2.5s1.1-2.5 2.5-2.5h57.9c1.4 0 2.5 1.1 2.5 2.5s-1.1 2.5-2.5 2.5zm-102.6-7c-2.5 0-4.5 2-4.5 4.5s2 4.5 4.5 4.5 4.5-2 4.5-4.5-2.1-4.5-4.5-4.5zm0 7c-1.4 0-2.5-1.1-2.5-2.5s1.1-2.5 2.5-2.5 2.5 1.1 2.5 2.5-1.2 2.5-2.5 2.5zm12.4-7c-2.5 0-4.5 2-4.5 4.5s2 4.5 4.5 4.5 4.5-2 4.5-4.5-2-4.5-4.5-4.5zm0 7c-1.4 0-2.5-1.1-2.5-2.5s1.1-2.5 2.5-2.5 2.5 1.1 2.5 2.5-1.1 2.5-2.5 2.5zm12.5-7c-2.5 0-4.5 2-4.5 4.5s2 4.5 4.5 4.5 4.5-2 4.5-4.5-2-4.5-4.5-4.5zm0 7c-1.4 0-2.5-1.1-2.5-2.5s1.1-2.5 2.5-2.5 2.5 1.1 2.5 2.5-1.1 2.5-2.5 2.5zm90.4-4.7c0-4.8-3.9-8.7-8.7-8.7h-110.6c-4.8 0-8.7 3.9-8.7 8.7v101.2c0 4.8 3.9 8.7 8.7 8.7h110.6c4.8 0 8.7-3.9 8.7-8.7 0-4.9 0 3 0-101.2zm-126 0c0-3.7 3-6.7 6.7-6.7h110.6c3.7 0 6.7 3 6.7 6.7v11h-124zm124 101.2c0 3.7-3 6.7-6.7 6.7h-110.6c-3.7 0-6.7-3-6.7-6.7v-88.2h124zm-112.8-59.2h101.6c2.2 0 4.1-1.8 4.1-4.1v-12.5c0-2.2-1.8-4.1-4.1-4.1h-101.6c-2.2 0-4.1 1.8-4.1 4.1v12.6c0 2.2 1.9 4 4.1 4zm103.7-16.6v12.6c0 1.1-.9 2.1-2.1 2.1h-83.7v-16.8h83.6c1.2 0 2.2.9 2.2 2.1zm-105.8 0c0-1.1.9-2.1 2.1-2.1h15.9v16.7h-15.9c-1.1 0-2.1-.9-2.1-2.1zm10.8 9.4 2.1 2.1c.4.4 1 .4 1.4 0s.4-1 0-1.4l-2.1-2.1c1.2-1.8.9-4.2-.6-5.8-1.8-1.8-4.8-1.8-6.6 0s-1.8 4.8 0 6.6c1.5 1.5 3.9 1.8 5.8.6zm-4.4-5.8c1-1 2.7-1 3.7 0s1 2.7 0 3.7-2.7 1-3.7 0-1-2.7 0-3.7zm43.3 50.5 6.1-3.2c.8-.4.7-1.6-.2-1.9l-21.2-5.5c-.3-.1-.7 0-1 .3s-.3.6-.2 1l6.4 20.9c.3.9 1.5 1 1.9.1l2.9-6.2 8.4 8c.4.4 1 .4 1.4 0l3.9-4.1c.4-.4.4-1 0-1.4zm3.7 11.4-8.6-8.3c-.5-.5-1.3-.3-1.6.3l-2.4 5.2-5.1-16.8 16.9 4.4-5.1 2.6c-.6.3-.7 1.1-.2 1.6l8.7 8.3zm53.4-41.8h-32.7c-.6 0-1 .4-1 1v20.4c0 .6.4 1 1 1h32.6c.6 0 1-.4 1-1v-20.4c.1-.5-.4-1-.9-1zm-1 20.4h-30.7v-18.4h30.6v18.4zm1 9.1h-32.7c-.6 0-1 .4-1 1v20.4c0 .6.4 1 1 1h32.6c.6 0 1-.4 1-1v-20.4c.1-.5-.4-1-.9-1zm-1 20.4h-30.7v-18.4h30.6v18.4z" fill="#000000" data-original="#000000" class=""></path></g></svg>