<svg xmlns="http://www.w3.org/2000/svg" version="1.1" xmlns:xlink="http://www.w3.org/1999/xlink" xmlns:svgjs="http://svgjs.com/svgjs" width="512" height="512" x="0" y="0" viewBox="0 0 32 32" style="enable-background:new 0 0 512 512" xml:space="preserve" class=""><g><g id="designing_x2C__modeling_x2C__vr_x2C__virtual_reality"><g id="XMLID_611_"><g id="XMLID_610_"><g id="XMLID_3462_"><g><path d="m23.07 7.265c-.035 0-.071-.003-.107-.012l-.188-.039.05-.5.102-.489.248.052c.27.059.441.325.382.595-.05.233-.257.393-.487.393z" fill="#000000" data-original="#000000"></path></g></g><g id="XMLID_3460_"><g><path d="m20.612 6.854c-.021 0-.042-.001-.063-.004l-.539-.063c-.274-.03-.473-.276-.443-.551.029-.274.273-.476.551-.443l.556.064c.274.034.468.284.434.558-.032.253-.247.439-.496.439z" fill="#000000" data-original="#000000"></path></g></g><g id="XMLID_652_"><g><path d="m17.814 6.621c-.008 0-.016 0-.024 0l-.247-.011c-.276-.011-.49-.244-.479-.52s.222-.515.52-.479l.253.011c.276.013.489.247.476.523-.013.267-.234.476-.499.476z" fill="#000000" data-original="#000000"></path></g></g></g><g id="XMLID_631_"><g id="XMLID_3463_"><g><path d="m27.07 6.6c-.08 0-.16-.019-.235-.059l-.205-.104c-.248-.122-.35-.422-.227-.669.122-.248.424-.349.669-.227l.233.119c.244.13.335.434.205.677-.089.167-.261.263-.44.263z" fill="#000000" data-original="#000000"></path></g></g><g id="XMLID_651_"><g><path d="m20.168 4.801c-.018 0-.037-.001-.055-.003l-.483-.05c-.274-.027-.476-.271-.449-.546.026-.274.278-.476.546-.449l.495.051c.275.03.473.277.443.551-.028.257-.245.446-.497.446z" fill="#000000" data-original="#000000"></path></g></g><g id="XMLID_650_"><g><path d="m22.604 5.169c-.031 0-.063-.003-.095-.009l-.427-.08c-.272-.049-.453-.309-.404-.58.049-.272.305-.456.58-.404l.441.083c.271.052.449.314.396.585-.047.239-.256.405-.491.405z" fill="#000000" data-original="#000000"></path></g></g><g id="XMLID_562_"><g><path d="m25.023 5.775c-.049 0-.1-.007-.149-.023l-.396-.12c-.266-.077-.418-.354-.341-.619s.354-.419.619-.341l.416.125c.264.083.41.363.328.626-.067.215-.264.352-.477.352z" fill="#000000" data-original="#000000"></path></g></g><g id="XMLID_3461_"><g><path d="m17.75 4.618c-.007 0-.014 0-.021 0l-.248-.01c-.276-.009-.492-.241-.482-.517.009-.276.258-.506.517-.482l.253.01c.276.011.49.244.479.52-.011.268-.232.479-.498.479z" fill="#000000" data-original="#000000"></path></g></g></g><g id="XMLID_644_"><g><path d="m26.5 26.521c-.102 0-.202-.031-.288-.091-.133-.094-.212-.246-.212-.409v-16c0-.211.132-.399.331-.47 2.332-.841 3.669-1.924 3.669-2.97 0-.276.224-.5.5-.5s.5.224.5.5v16c0 1.537-1.498 2.89-4.331 3.91-.055.02-.112.03-.169.03zm.5-16.153v14.923c1.917-.797 3-1.769 3-2.71v-13.947c-.673.643-1.679 1.227-3 1.734z" fill="#000000" data-original="#000000"></path></g></g><g id="XMLID_643_"><g><path d="m5.5 26.521c-.057 0-.114-.01-.169-.03-2.833-1.021-4.331-2.373-4.331-3.91v-16c0-.276.224-.5.5-.5s.5.223.5.5c0 1.046 1.337 2.129 3.669 2.969.199.072.331.26.331.471v16c0 .163-.079.315-.212.409-.086.06-.186.091-.288.091zm-3.5-17.887v13.947c0 .942 1.083 1.913 3 2.71v-14.923c-1.321-.507-2.327-1.091-3-1.734z" fill="#000000" data-original="#000000"></path></g></g><g id="XMLID_471_"><g id="XMLID_591_"><g><path d="m30.5 23.081c-.276 0-.5-.224-.5-.5 0-.89-.951-1.634-1.749-2.102-.238-.14-.318-.446-.179-.685.14-.238.445-.319.685-.179.523.307.929.616 1.243.919v-13.953c0-2.128-5.75-4.5-14-4.5s-14 2.371-14 4.5v13.955c.319-.308.732-.622 1.267-.933.239-.14.544-.059.684.181.139.239.058.545-.181.684-.808.469-1.77 1.217-1.77 2.113 0 .276-.224.5-.5.5s-.5-.224-.5-.5v-16c0-3.443 7.626-5.5 15-5.5s15 2.057 15 5.5v16c0 .276-.224.5-.5.5z" fill="#000000" data-original="#000000"></path></g></g><g id="XMLID_620_"><g><path d="m5.5 19.633c-.205 0-.396-.126-.47-.33-.094-.26.041-.546.3-.641 1.563-.566 3.501-1.006 5.605-1.272.28-.027.524.159.559.433s-.159.524-.433.559c-2.031.257-3.896.679-5.39 1.221-.057.021-.115.03-.171.03z" fill="#000000" data-original="#000000"></path></g></g><g id="XMLID_593_"><g><path d="m26.52 19.64c-.057 0-.114-.01-.171-.03-.856-.311-1.828-.582-2.887-.806-.27-.057-.443-.322-.386-.593s.321-.442.593-.386c1.105.234 2.122.518 3.022.845.259.094.394.381.299.641-.074.203-.266.329-.47.329z" fill="#000000" data-original="#000000"></path></g></g></g><g id="XMLID_1246_"><g><path d="m13.5 31.021c-.276 0-.5-.224-.5-.5v-13.005c-2.403-1.005-4-3.383-4-5.996v-4c0-.827.673-1.5 1.5-1.5s1.5.673 1.5 1.5v4c0 1.93 1.57 3.5 3.5 3.5h2.5c2.206 0 4 1.794 4 4v6.5c0 .827-.673 1.5-1.5 1.5s-1.5-.673-1.5-1.5v-6c0-.276.224-.5.5-.5s.5.224.5.5v6c0 .276.224.5.5.5s.5-.224.5-.5v-6.5c0-1.654-1.346-3-3-3h-2.5c-2.481 0-4.5-2.019-4.5-4.5v-4c0-.276-.224-.5-.5-.5s-.5.225-.5.501v4c0 2.282 1.44 4.352 3.585 5.152.195.072.415.288.415.497v13.35c0 .277-.224.501-.5.501z" fill="#000000" data-original="#000000"></path></g></g><g id="XMLID_1245_"><g><path d="m19.5 31.021c-.276 0-.5-.224-.5-.5v-5c0-.276.224-.5.5-.5s.5.224.5.5v5c0 .276-.224.5-.5.5z" fill="#000000" data-original="#000000"></path></g></g><g id="XMLID_866_"><g><path d="m16.5 31.021c-.276 0-.5-.224-.5-.5v-3c0-.276.224-.5.5-.5s.5.224.5.5v3c0 .276-.224.5-.5.5z" fill="#000000" data-original="#000000"></path></g></g><g id="XMLID_634_"><g><path d="m13.329 9.021c-.056 0-.112-.009-.167-.029-.26-.092-.396-.378-.304-.638.094-.267.142-.547.142-.833 0-1.378-1.122-2.5-2.5-2.5-.473 0-.934.133-1.332.384-.232.147-.542.077-.689-.157-.148-.233-.078-.542.156-.689.557-.352 1.203-.538 1.865-.538 1.93 0 3.5 1.57 3.5 3.5 0 .401-.067.793-.2 1.167-.072.205-.265.333-.471.333z" fill="#000000" data-original="#000000"></path></g></g><g id="XMLID_617_"><g><path d="m7.896 9.51c-.173 0-.342-.09-.435-.251-.301-.528-.461-1.128-.461-1.738 0-.375.059-.744.176-1.097.086-.262.367-.407.631-.318.262.086.405.369.318.631-.083.251-.125.515-.125.784 0 .436.114.865.329 1.241.137.24.054.545-.186.683-.078.043-.163.065-.247.065z" fill="#000000" data-original="#000000"></path></g></g><g id="XMLID_3400_"><g><path d="m16.5 14c-1.654 0-3-1.346-3-3s1.346-3 3-3 3 1.346 3 3-1.346 3-3 3zm0-5c-1.103 0-2 .897-2 2s.897 2 2 2 2-.897 2-2-.897-2-2-2z" fill="#000000" data-original="#000000"></path></g></g></g></g></g></svg>