<svg xmlns="http://www.w3.org/2000/svg" version="1.1" xmlns:xlink="http://www.w3.org/1999/xlink" xmlns:svgjs="http://svgjs.com/svgjs" width="512" height="512" x="0" y="0" viewBox="0 0 1580 1580" style="enable-background:new 0 0 512 512" xml:space="preserve" class=""><g><g fill="rgb(0,0,0)"><g><path d="m1087.4 1192.7c-6 0-12.1-.3-18.6-.9-35.6-3.5-77.4-16.8-124.2-39.5-93.4-45.2-198.4-123.8-295.8-221.1-97.4-97.4-175.9-202.4-221.1-295.8-22.7-46.8-36-88.6-39.5-124.2-4.1-41.5 5.1-73.7 27.1-95.8 22.1-22.1 54.3-31.2 95.8-27.1 35.6 3.5 77.4 16.8 124.2 39.5 93.4 45.2 198.4 123.8 295.8 221.1 97.4 97.4 175.9 202.4 221.1 295.8 22.7 46.8 36 88.6 39.5 124.2 4.1 41.5-5.1 73.7-27.1 95.8-18.7 18.6-44.6 28-77.2 28zm-404.6-295.5c93.7 93.7 194.1 168.9 282.8 211.9 78.7 38.2 140.5 46.2 165.1 21.6 24.7-24.6 16.6-86.4-21.6-165.1-43-88.7-118.2-189.1-211.9-282.8s-194.1-168.9-282.8-211.9c-78.7-38.2-140.5-46.2-165.1-21.6-24.7 24.7-16.6 86.4 21.6 165.1 43 88.7 118.2 189.1 211.9 282.8z" fill="#000000" data-original="#000000" class=""></path><path d="m473.9 1186c-24.6 0-44.2-7.2-58.5-21.4-19.8-19.8-25.9-49.8-18.2-89.4 6.4-32.6 22.1-71.7 46.8-116.1 49.3-88.7 130-191 227-288.1 97.1-97.1 199.4-177.7 288.1-227 44.4-24.7 83.5-40.5 116.1-46.8 39.5-7.7 69.6-1.6 89.4 18.2s25.9 49.8 18.2 89.4c-6.4 32.6-22.1 71.7-46.8 116.1-49.3 88.7-130 191-227 288.1-97.1 97.1-199.4 177.7-288.1 227-44.4 24.7-83.5 40.5-116.1 46.8-11.1 2.1-21.4 3.2-30.9 3.2zm631.9-744c-24.4 0-64.8 11.5-123.3 44-85 47.2-183.5 125-277.5 219s-171.8 192.5-219 277.5c-48.8 87.7-50.2 134.6-36.7 148.2 13.6 13.6 60.5 12.1 148.2-36.7 85-47.2 183.5-125 277.5-219l17 17-17-17c94-94 171.8-192.5 219-277.5 48.8-87.7 50.2-134.6 36.7-148.2-4.5-4.5-12.8-7.3-24.9-7.3z" fill="#000000" data-original="#000000" class=""></path><path d="m790 864.7c-19.9 0-38.7-7.8-52.8-21.9-29.1-29.1-29.1-76.5 0-105.6s76.5-29.1 105.6 0c14.1 14.1 21.9 32.8 21.9 52.8 0 19.9-7.8 38.7-21.9 52.8s-32.9 21.9-52.8 21.9zm0-101.3c-6.8 0-13.7 2.6-18.8 7.8-10.4 10.4-10.4 27.3 0 37.7 5 5 11.7 7.8 18.8 7.8s13.8-2.8 18.8-7.8 7.8-11.7 7.8-18.8-2.8-13.8-7.8-18.8c-5.1-5.3-12-7.9-18.8-7.9z" fill="#000000" data-original="#000000" class=""></path></g><path d="m790 1558c-103.6 0-204.2-20.3-299-60.4-91.5-38.7-173.6-94-244.1-164.5s-125.8-152.6-164.5-244.1c-40.1-94.8-60.4-195.4-60.4-299s20.3-204.2 60.4-299c38.7-91.5 94-173.6 164.5-244.1 70.5-70.4 152.6-125.8 244.1-164.5 94.8-40.1 195.4-60.4 299-60.4s204.2 20.3 299 60.4c91.5 38.7 173.6 94 244.1 164.5s125.8 152.6 164.5 244.1c40.1 94.8 60.4 195.4 60.4 299s-20.3 204.2-60.4 299c-38.7 91.5-94 173.6-164.5 244.1s-152.6 125.8-244.1 164.5c-94.8 40.1-195.4 60.4-299 60.4zm0-1488c-97.2 0-191.5 19-280.3 56.6-85.7 36.3-162.7 88.2-228.8 154.3s-118 143.1-154.3 228.8c-37.6 88.8-56.6 183.1-56.6 280.3s19 191.5 56.6 280.3c36.3 85.8 88.2 162.7 154.3 228.8s143.1 118 228.8 154.3c88.8 37.6 183.1 56.6 280.3 56.6s191.5-19.1 280.3-56.6c85.8-36.3 162.7-88.2 228.8-154.3s118-143.1 154.3-228.8c37.6-88.8 56.6-183.1 56.6-280.3s-19.1-191.5-56.6-280.3c-36.3-85.8-88.2-162.7-154.3-228.8s-143.1-118-228.8-154.3c-88.8-37.6-183.1-56.6-280.3-56.6z" fill="#000000" data-original="#000000" class=""></path><g><g><path d="m166.2 1437.8c-6.1 0-12.3-2.3-17-7-9.4-9.4-9.4-24.6 0-33.9l96.9-96.9c9.4-9.4 24.6-9.4 33.9 0 9.4 9.4 9.4 24.6 0 33.9l-96.9 96.9c-4.6 4.6-10.7 7-16.9 7z" fill="#000000" data-original="#000000" class=""></path><path d="m125 1537.4c-22 0-42.7-8.6-58.2-24.1s-24.2-36.3-24.2-58.3 8.6-42.7 24.1-58.2c32.1-32.1 84.3-32.1 116.4 0 15.6 15.6 24.1 36.2 24.1 58.2s-8.6 42.7-24.1 58.2c-15.5 15.6-36.1 24.2-58.1 24.2zm0-116.7c-8.8 0-17.6 3.3-24.3 10-6.5 6.5-10.1 15.1-10.1 24.3s3.6 17.8 10.1 24.3 15.1 10.1 24.3 10.1 17.8-3.6 24.3-10.1c6.5-6.5 10.1-15.1 10.1-24.3s-3.6-17.8-10.1-24.3c-6.7-6.6-15.5-10-24.3-10z" fill="#000000" data-original="#000000" class=""></path></g><g><path d="m1316.7 287.3c-6.1 0-12.3-2.3-17-7-9.4-9.4-9.4-24.6 0-33.9l96.9-96.9c9.4-9.4 24.6-9.4 33.9 0 9.4 9.4 9.4 24.6 0 33.9l-96.9 96.9c-4.6 4.7-10.8 7-16.9 7z" fill="#000000" data-original="#000000" class=""></path><path d="m1454.9 207.5c-22 0-42.7-8.6-58.2-24.1-32.1-32.1-32.1-84.3 0-116.4 15.6-15.6 36.2-24.1 58.2-24.1s42.7 8.6 58.2 24.1c32.1 32.1 32.1 84.3 0 116.4-15.6 15.5-36.2 24.1-58.2 24.1zm0-116.7c-9.2 0-17.8 3.6-24.3 10.1-13.4 13.4-13.4 35.2 0 48.6 6.5 6.5 15.1 10.1 24.3 10.1s17.8-3.6 24.3-10.1c13.4-13.4 13.4-35.2 0-48.6-6.5-6.5-15.2-10.1-24.3-10.1z" fill="#000000" data-original="#000000" class=""></path></g></g><path d="m790 1438c-87.5 0-172.3-17.1-252.2-50.9-77.2-32.6-146.5-79.4-206-138.9s-106.2-128.8-138.9-206c-33.8-79.9-50.9-164.7-50.9-252.2s17.1-172.3 50.9-252.2c32.6-77.2 79.4-146.5 138.9-206s128.8-106.2 206-138.9c79.9-33.8 164.7-50.9 252.2-50.9s172.3 17.1 252.2 50.9c77.2 32.6 146.5 79.4 206 138.9s106.2 128.8 138.9 206c33.8 79.9 50.9 164.8 50.9 252.2 0 87.5-17.1 172.3-50.9 252.2-32.6 77.2-79.4 146.5-138.9 206s-128.8 106.2-206 138.9c-79.9 33.8-164.7 50.9-252.2 50.9zm0-1248c-330.8 0-600 269.2-600 600s269.2 600 600 600 600-269.2 600-600-269.2-600-600-600z" fill="#000000" data-original="#000000" class=""></path></g></g></svg>