<svg xmlns="http://www.w3.org/2000/svg" viewBox="0 0 3303.95 1500"><defs><style>.cls-1{fill:#fff;}.cls-2{fill:#7eb0df;}.cls-3{fill:#c7dff4;}.cls-4{fill:#c5ddf1;}.cls-5{fill:#6870b5;}.cls-6{fill:#fadb11;}.cls-7{fill:#25b482;}.cls-8{fill:#244480;}.cls-9{fill:#dbefec;}.cls-10{fill:#eea985;}.cls-11{fill:#252e3b;}.cls-12{fill:#e7f6fd;}.cls-13{fill:#c6def4;}.cls-14{fill:#3a3f47;}.cls-15{fill:#fcb857;}.cls-16{fill:#cfd0d0;}.cls-17{fill:#e0e0df;}.cls-18{fill:#3f4786;}.cls-19{fill:#1f3a67;}.cls-20{fill:#26b382;}.cls-21{fill:#f9db12;}.cls-22{fill:#6d685f;}.cls-23{fill:#203f6d;}.cls-24{fill:#474341;}.cls-25{fill:#254480;}.cls-26{fill:#e0e0de;}.cls-27{fill:#a87960;}.cls-28{fill:#edaa87;}.cls-29{fill:#7eb1df;}.cls-30{fill:#ffca56;}.cls-31{fill:#d6d5d5;}.cls-32{fill:#264581;}.cls-33{fill:#eda985;}.cls-34{fill:#272f3c;}.cls-35{fill:#eca984;}.cls-36{fill:#eca985;}.cls-37{fill:#28303c;}.cls-38{fill:#202235;}.cls-39{fill:#e9e8e8;}.cls-40{fill:#eca885;}.cls-41{fill:#202236;}.cls-42{fill:#1a3644;}.cls-43{fill:#cdbcb6;}.cls-44{fill:#c3c3c3;}.cls-45{fill:#f9da21;}.cls-46{fill:#f9da20;}.cls-47{fill:#eeac88;}.cls-48{fill:#2d4882;}.cls-49{fill:#333762;}.cls-50{fill:#dbdfeb;}.cls-51{fill:#303460;}.cls-52{fill:#282b3f;}.cls-53{fill:#e0a07b;}.cls-54{fill:#cb9370;}.cls-55{fill:#ebab8a;}.cls-56{fill:#eeae8b;}.cls-57{fill:#304982;}.cls-58{fill:#cacad4;}.cls-59{fill:#e6b84c;}.cls-60{fill:#e3a382;}.cls-61{fill:#dea07e;}.cls-62{fill:#eaa987;}.cls-63{fill:#f0b493;}.cls-64{fill:#4c4f73;}.cls-65{fill:#fcb95e;}.cls-66{fill:#c4bfbd;}.cls-67{fill:#cec9c7;}.cls-68{fill:#e8ae8b;}.cls-69{fill:#c3bebc;}.cls-70{fill:#ccc8c6;}.cls-71{fill:#cecac8;}.cls-72{fill:#d0ccca;}.cls-73{fill:#cdc8c7;}.cls-74{fill:#ccc7c5;}.cls-75{fill:#cec9c8;}.cls-76{fill:#cdc9c7;}.cls-77{fill:#cfcac8;}.cls-78{fill:#cbc7c5;}.cls-79{fill:#cfcbc9;}.cls-80{fill:#d6c5c4;}.cls-81{fill:#cdc8c6;}.cls-82{fill:#cac5c4;}.cls-83{fill:#cbc6c5;}.cls-84{fill:#cac6c4;}.cls-85{fill:#cac5c3;}.cls-86{fill:#c9c4c3;}.cls-87{fill:#c7c2c1;}.cls-88{fill:#2b4780;}.cls-89{fill:#d48d69;}.cls-90{fill:#d0cccb;}.cls-91{fill:#c9c5c3;}.cls-92{fill:#b98469;}.cls-93{fill:#827585;}.cls-94{fill:#b68268;}.cls-95{fill:#bc876b;}.cls-96{fill:#f6b21b;}.cls-97{fill:#f6b31b;}.cls-98{fill:#f9db11;}.cls-99{fill:#4b6eb5;}.cls-100{fill:#cf8763;}.cls-101{fill:#d08864;}.cls-102{fill:#8eb8e1;}.cls-103{fill:#678db8;}.cls-104{fill:#729ac6;}.cls-105{fill:#85bee8;}.cls-106{fill:#1a598c;}.cls-107{fill:#74b1e0;}.cls-108{fill:#2374b5;}.cls-109{fill:#7fb1df;}.cls-110{fill:#1b5a8d;}.cls-111{fill:#5da5db;}.cls-112{fill:#2675b6;}.cls-113{fill:#5da6db;}.cls-114{fill:#e9f2fa;}.cls-115{fill:#edaa86;}.cls-116{fill:#31436b;}.cls-117{fill:#272a3e;}.cls-118{fill:#5886c3;}.cls-119{fill:#6d6c6b;}.cls-120{fill:#8d8886;}.cls-121{fill:#868382;}.cls-122{fill:#fcca56;}.cls-123{fill:#c3dbf1;}.cls-124{fill:#6695cd;}.cls-125{fill:#98828b;}.cls-126{fill:#f9db14;}.cls-127{fill:#fbfdfb;}.cls-128{fill:#605953;}.cls-129{fill:#8c877c;}.cls-130{fill:#806f67;}.cls-131{fill:#decdc5;}.cls-132{fill:#edaa88;}.cls-133{fill:#b1bac8;}.cls-134{fill:#233b6d;}.cls-135{fill:#d58e6b;}.cls-136{fill:#d58e6a;}.cls-137{fill:#70645e;}.cls-138{fill:#d18965;}.cls-139{fill:#d48d6a;}.cls-140{fill:#d38c68;}.cls-141{fill:#cf8864;}.cls-142{fill:#d18a66;}.cls-143{fill:#393c3f;}.cls-144{fill:#ecaa86;}.cls-145{fill:#e8aa8b;}.cls-146{fill:#eba988;}.cls-147{fill:#d4d8e7;}.cls-148{fill:#bfaeb3;}.cls-149{fill:#8e8a88;}.cls-150{fill:#8d8987;}.cls-151{fill:#787676;}.cls-152{fill:#fadb13;}</style></defs><g id="Layer_2" data-name="Layer 2"><g id="Layer_1-2" data-name="Layer 1"><rect class="cls-1" x="1217.72" y="0.11" width="2086.12" height="1496.46"/><path class="cls-2" d="M2725.42,658.72c.11-5.76-2.16-8.51-7.54-9.59-8.1-1.63-16.12-3.63-24.22-5.25-4.09-.81-6.28-2.88-7.4-6.89a199.62,199.62,0,0,0-15.28-38.6c-2.23-4.26-1.74-7.68.84-11.44,4.41-6.41,8.69-12.91,13.12-19.31,4.31-6.24,4.25-9.54-1-14.9-16.67-17-32.35-35-49.72-51.34-6.44-6.06-8.88-6.32-16.77-1.88-7,3.94-13.46,8.74-20.23,13-2.91,1.85-5.68,2.63-8.83.76-12.4-7.38-25.75-12.61-39.43-17-4.48-1.44-6.51-4.28-7.42-8.84-1.58-7.86-2.63-15.82-4.49-23.63-1.13-4.78-3.45-7.21-9-7.44-25.76-1.05-51.53-.2-77.28-.67-5.44-.1-8.13,2.09-9.19,7.12-1.72,8.08-3.66,16.12-5.27,24.22-.86,4.32-3,6.69-7.3,7.93a193.86,193.86,0,0,0-38.59,15.29c-4,2.13-7.21,1.74-10.77-.71-6.61-4.56-13.41-8.83-19.89-13.56-5.05-3.67-9.84-3.71-14.41.82C2328.08,514,2309.74,530,2293,547.6c-4.53,4.76-5.19,9.41-1.79,15.09,4.25,7.11,9,13.9,13.48,20.82,2,3.08,3,6,.89,9.45-7.41,12.39-12.62,25.75-17,39.43-1.35,4.16-3.91,6.23-8.25,7.08-7.64,1.5-15.36,2.55-22.92,4.34-2.83.68-6.18.93-7.42,4.1l.65.12q-.21,10.76-.43,21.51h0l.06,16.08h0c0,2.92,0,5.84.05,8.76q0,8,0,16.06h0c-.6,5.34,1.44,10.92-1.44,16.07v8.75c2,2.73,4.69,4,7.94,4.61,7.16,1.36,14.19,3.35,21.36,4.55,5.12.86,8.08,3.22,9.51,8.44a187,187,0,0,0,15,37.85c2.11,4,1.68,7.22-.73,10.78-4.5,6.63-8.75,13.42-13.53,19.86-3.74,5-3.8,9.76.75,14.34,17.11,17.22,33,35.62,50.73,52.24,5.87,5.49,8.3,5.71,15.53,1.6s13.9-8.91,20.81-13.42c3.24-2.1,6.17-2.31,9.48-.36a178.75,178.75,0,0,0,38.06,16.37c5.05,1.56,7.45,4.54,8.35,9.7,1.29,7.41,2.38,14.87,4.14,22.19.77,3.16,1,7,5.51,7.52h60.71c5.44.38,10.95-.82,16.33.74h8.76c3.06-2.07,4.17-5.2,4.84-8.64,1.37-7.16,3.3-14.21,4.59-21.38.82-4.57,3-7.19,7.63-8.5a197.08,197.08,0,0,0,38.59-15.3c3.68-1.94,6.78-1.77,10.15.53,6.63,4.51,13.33,8.92,19.93,13.49,6.32,4.39,9.67,4.4,14.92-.72,17.22-16.8,35.37-32.66,51.85-50.23,5.59-6,5.91-8.52,2-15.57-4-7.24-8.89-13.93-13.44-20.83-2.07-3.15-2.68-6.07-.66-9.46,7.26-12.19,12.44-25.3,16.74-38.76,1.4-4.4,4-6.72,8.64-7.62,7.87-1.53,15.82-2.63,23.63-4.49,4.63-1.09,7.49-3.08,7.72-8.79C2725.78,710.24,2724.94,684.47,2725.42,658.72Zm-238.71,142.2c-58.83,0-106.57-47.89-106.5-106.9.07-58.41,47.95-106.11,106.54-106.14,58.83,0,106.57,47.9,106.5,106.91C2593.18,753.2,2545.3,800.9,2486.71,800.92Z"/><path class="cls-3" d="M2342.66,712.4c-2-5-5-6.56-10-5.53-7.58,1.54-15.23,2.74-22.8,4.3-3.83.78-6.47-.21-8.9-3.26a186.41,186.41,0,0,0-27.23-27.73c-3.47-2.86-4.3-6-3.43-10.18,1.46-7.13,2.79-14.3,4.28-21.43,1.45-7,.2-9.77-6.28-12.49-20.57-8.62-40.64-18.41-61.57-26.19-7.77-2.88-10-2.22-15.16,4.49-4.6,6-8.43,12.43-12.7,18.61-1.84,2.65-3.94,4.33-7.34,3.86-13.39-1.84-26.8-1.49-40.21-.32-4.39.39-7.17-1.32-9.62-4.92-4.22-6.21-8-12.69-12.47-18.76-2.71-3.7-5.6-5-10.48-3.13-22.61,8.47-44.52,18.58-66.91,27.55-4.73,1.89-6.25,4.77-5.34,9.49,1.47,7.6,2.71,15.24,4.28,22.81.83,4-.13,6.86-3.42,9.5a182.08,182.08,0,0,0-27.71,27.24c-2.66,3.28-5.59,4.12-9.56,3.3-7.35-1.52-14.77-2.73-22.09-4.45-5.69-1.33-9.84.38-12.13,6-8.66,21-18.66,41.52-26.69,62.85-2.17,5.75-1,10,4,13.67,6.25,4.58,12.78,8.72,19.2,13.05,2.86,1.92,4.73,4.1,4.21,7.83-1.89,13.38-1.51,26.8-.33,40.21.36,4.08-1.11,6.79-4.54,9.11-6,4.07-12.32,7.78-18.19,12.09-2.2,1.61-5,3.05-4.91,6.23l.61-.14q3.74,9.36,7.46,18.71h0q3,6.93,5.9,13.85h0c1.08,2.52,2.16,5,3.23,7.55q2.94,6.92,5.86,13.84h0c1.44,4.83,5.23,8.9,4.61,14.39l3.19,7.55c2.68,1.64,5.5,1.73,8.53,1.08,6.67-1.43,13.46-2.28,20.08-3.85,4.73-1.12,8.14-.16,11.27,3.82a175.72,175.72,0,0,0,26.73,27.18c3.27,2.67,4.08,5.62,3.3,9.57-1.47,7.35-2.67,14.76-4.45,22.06-1.39,5.69.28,9.8,5.87,12.09,21,8.63,41.44,18.71,62.78,26.59,7.06,2.61,9.23,1.91,14-4.26s8.74-12.75,13.07-19.16c2-3,4.48-4.23,8-3.76a167.2,167.2,0,0,0,38.79.27c4.92-.5,8.08,1.21,10.73,5.33,3.82,5.92,7.47,12,11.65,17.62,1.81,2.46,3.39,5.72,7.49,4.49q8.73-3.66,17.48-7.37l13.58-5.73,7.91-3.34,13.4-5.65c4.83-1.66,9.15-4.7,14.36-5.32l7.55-3.19c1.89-2.9,1.71-6,1-9.21-1.42-6.68-2.33-13.46-3.82-20.12-.95-4.24-.06-7.28,3.49-10.11A184.42,184.42,0,0,0,2300,953.71c2.47-3,5.2-4,8.94-3.25,7.37,1.49,14.75,2.84,22.11,4.39,7,1.48,9.94.28,12.6-6.05,8.75-20.77,18.63-41.06,26.45-62.21,2.65-7.18,2-9.51-3.93-14.16-6.1-4.79-12.74-8.79-19.18-13.08-2.94-2-4.52-4.26-4-7.92,1.82-13.16,1.52-26.35.32-39.53-.39-4.3,1-7.24,4.68-9.72,6.24-4.18,12.69-8,18.75-12.47,3.6-2.63,5.34-5.39,3.46-10.39C2361.72,756.71,2351.62,734.79,2342.66,712.4ZM2188.51,922c-50.74,21.44-109.36-2.52-130.79-53.44-21.2-50.41,2.74-109,53.27-130.34,50.74-21.44,109.36,2.52,130.78,53.45C2263,842,2239,900.61,2188.51,922Z"/><path class="cls-2" d="M2966.83,593.53c-1.93-2.94-4-3.55-7.12-2.24-4.64,2-9.38,3.74-14,5.73a5.29,5.29,0,0,1-6.11-.92,121.9,121.9,0,0,0-21-14.2,6.08,6.08,0,0,1-3.53-6.06c0-4.76-.08-9.51-.06-14.27s-1.15-6.28-5.64-7.17c-14.29-2.83-28.41-6.48-42.82-8.72-5.34-.84-6.66-.12-9.11,4.84-2.17,4.41-3.77,9.06-5.7,13.57-.83,1.94-2,3.29-4.19,3.43a117.21,117.21,0,0,0-25.77,5c-2.76.82-4.76.09-6.8-1.89-3.51-3.43-6.79-7.08-10.42-10.38-2.22-2-4.23-2.44-7.12-.63-13.36,8.37-26.06,17.7-39.21,26.36-2.78,1.82-3.38,3.86-2.18,6.77,1.93,4.66,3.72,9.39,5.71,14a5.64,5.64,0,0,1-.94,6.52,119.08,119.08,0,0,0-14.18,21,5.69,5.69,0,0,1-5.68,3.36c-4.91,0-9.82.18-14.72,0-3.82-.12-6.25,1.52-7,5.39-2.79,14.6-6.51,29-8.87,43.69-.63,4,.64,6.54,4.32,8.23,4.59,2.12,9.31,3.92,14,5.85,2.08.86,3.56,2,3.71,4.46a114.82,114.82,0,0,0,5,25.77,5.9,5.9,0,0,1-1.72,6.42c-3.33,3.39-6.87,6.59-10.06,10.11-1.2,1.32-2.8,2.6-2.33,4.63l.37-.17,7.22,11h0l5.58,8.09h0l3.05,4.41q2.79,4,5.56,8.09h0c1.55,2.9,4.5,5,4.82,8.6l3,4.42a7.24,7.24,0,0,0,5.6-.42c4.08-1.79,8.31-3.22,12.35-5.09,2.87-1.33,5.18-1.16,7.71,1a114.21,114.21,0,0,0,20.65,13.9,5.77,5.77,0,0,1,3.35,5.69c0,4.9.22,9.8,0,14.69-.15,3.83,1.45,6.24,5.33,7,14.58,2.78,29,6.56,43.64,8.82,4.85.75,6.15,0,8.39-4.56s3.93-9.29,5.86-14a5,5,0,0,1,4.65-3.45,109,109,0,0,0,24.85-4.89c3.09-1,5.33-.28,7.57,2,3.21,3.29,6.34,6.67,9.75,9.75,1.48,1.34,2.91,3.22,5.38,1.9l10.22-7,7.94-5.44,4.63-3.16,7.84-5.37c2.87-1.69,5.24-4.2,8.49-5.28l4.42-3c.82-2.1.31-4.07-.55-6-1.78-4.09-3.24-8.31-5.07-12.37a5.87,5.87,0,0,1,.91-6.93,119.92,119.92,0,0,0,14.18-21,5.46,5.46,0,0,1,5.3-3.25c4.91,0,9.81-.1,14.72-.07,4.71,0,6.4-1.12,7.28-5.52,2.88-14.43,6.55-28.7,8.8-43.26.76-4.93,0-6.34-4.36-8.54s-9.3-4-14-5.87c-2.14-.87-3.45-2.13-3.6-4.54a113.14,113.14,0,0,0-4.95-25.33,6.21,6.21,0,0,1,1.72-6.83c3.45-3.49,7.08-6.8,10.37-10.43,2-2.15,2.72-4.14.86-7.1C2984.81,619.39,2975.49,606.68,2966.83,593.53Zm-71.28,154.2a65.13,65.13,0,1,1,17.07-90.35C2932.77,686.87,2925.09,727.47,2895.55,747.73Z"/><path class="cls-4" d="M3303.07,1499.86c-1007.63,0-2287.64,0-3295.28.14-6.16,0-7.79-.8-7.79-6.63Q.3,747.09.19.81C2.63-.49,5.33.16,7.89.16c621.3,0,1515,0,2136.28-.15,7,0,11.06,1.76,14.27,7.29,21.26,36.7,35.36,75.34,38.87,116.44,4,47.25-5.33,92.61-28.64,135.58-18.28,33.69-42.52,63.64-71.18,91.14C2063,383.6,2023.08,411,1981.71,437A1030.66,1030.66,0,0,0,1884,507.18a805.67,805.67,0,0,0-129.27,130.48c-32.55,41.52-59,85.85-78.94,133.16a468.33,468.33,0,0,0-34.9,137c-4.81,49.25-.31,98,12.34,146,23.45,89.08,70.69,167.62,139.28,235.88,69.41,69.08,156.48,112.64,258.81,132.5,49.22,9.56,99,13.77,149.46,14.32,92.27,1,183.07-9.78,273.45-24.3,104.31-16.76,207.29-39,310.86-58.86,75.33-14.41,150.92-27.57,227.71-34.51,33-3,66-5.4,99.15-4.5,49,1.32,97.61,5.76,144.25,20.44a368,368,0,0,1,40.59,15.29c4.58,2.06,7.14,4.77,7.13,9.73-.17,45.57-.1,91.13-.1,136.7C3303.85,1497.71,3304,1498.88,3303.07,1499.86Z"/><path class="cls-5" d="M2741.52,980.38q2.24,15.93,4.46,31.86c-15.44.09-30.88.24-46.32.25q-93.4,0-186.81,0c-2.85,0-5.69-.17-8.54-.26-.51-6.28,2.83-14.31-1.48-18.39-3.92-3.7-11.76-.83-17.87-1.15-2.12-.12-4.25-.16-6.38-.23,3.46-2.39,7.46-3.33,11.47-4.26,46.36.58,92.69-1,139-2.11,29.93-.7,59.89-1.22,89.76-3.55C2726.41,982,2734,981.11,2741.52,980.38Z"/><path class="cls-6" d="M2720.08,512.8A460.94,460.94,0,0,1,2775.37,539c27.65,15.52,43.76,38.06,47.46,70.06,4.31,37.33,7.55,74.69,8.68,112.23l-1,.93c-2.87,1.55-6,1.26-9.08,1.32-5.94.11-11.91-.29-17.83.2-13.28,1.1-20.75,9-21.27,22.19-.14,3.56-.06,7.13-.06,10.7q0,63.48,0,127c0,3.78.36,7.62-1,11.3-1.58,3.3-4.77,4.43-7.83,5.69-7.67,3.16-15.29,6.45-23.14,9.14-4.72,1.61-6.82,4.62-6.69,9.56.47,17.5-1.07,35,1,52.52.43,3.59.39,7.17-3,9.64-5.26,2.6-11,2.73-16.68,3.2-18,1.51-36,2.41-54,2.67-24.45.36-48.86,1.95-73.33,1.91-32.53-.06-65,2.27-97.58,1.16-2.6-.09-5.23.22-7.76-.6-2.21-.9-3.27-2.16-.85-4,2.12-1.6,4.72-2.21,7.2-3q38.63-12.72,78.12-22.45C2621,949.37,2665,937,2708,921.57c12.58-4.49,12.63-4.39,9.71-17.63-3.3-15-8.33-29.27-17.78-41.61-5-6.59-7.12-6.84-14.4-2.83-47.91,26.37-97.09,50.25-146.24,74.2-2.36,1.15-4.8,2.47-7.42,2.36a126.11,126.11,0,0,1-34.89-6.45,3.7,3.7,0,0,1-2-2c-.21-10.78,2.44-21.14,5.1-31.4,3-11.5,2.93-23,1.71-34.59-2.77-26.16-7.24-52.09-11.67-78-.56-3.28-1.5-6.44-2.32-9.64.65-13.23-3.12-25.91-4.89-38.84-1.92-14.09-5-28.09-3.42-42.46a4.3,4.3,0,0,1,.22-.86c-1.88,8.57-1.22,17.81-1.36,26.82-.43,27.07-1.82,54.22,2.49,81.18a39,39,0,0,0,1.26,5.51c.86,3.7-1.51,6.21-3.32,8.93-4.07,6.13-9.55,11-14.36,16.52-1.55,1.78-3.3,3.6-6,1.71-3.57-10-3.3-20.52-4.39-30.82-.64-6-2.79-8.38-8.75-8.27-10,.18-20,.21-29.92-.06-2.77-.07-6.38,1-7.59-3.16,12.67-9.27,15.11-23.53,18.08-37.43,8.63-40.33,14.67-81.19,24.32-121.31a268,268,0,0,1,36.15-84.62c5.27-8.07,13.1-13,21.21-17.45,23.17-12.76,47.9-21.72,73.08-29.55,3,3.46-.55,5.59-1.91,7.84-9.43,15.52-17.57,31.5-21.09,49.56-5.05,25.92,7.44,41.86,33.79,43.84,29,2.18,53.52-8,75.68-25.62,19.05-15.15,33.57-34.12,46.31-54.61C2715.24,517.87,2716.44,514.3,2720.08,512.8Z"/><path class="cls-7" d="M1708.8,1005.15c-22.6-27.09-42.87-55.73-58.93-87.24a465.5,465.5,0,0,1-49.65-173.52,256.76,256.76,0,0,1-1-29.8c38.71,42.69,89.38,64.42,139.64,86.83,10.22,1.12,18.63,7,27.54,11.16,33.78,15.89,66.67,33.45,98.07,53.81,32.66,21.17,57.46,49.42,77.91,82,5.56,8.86,10.4,18.14,15.59,27.21,1.73,3,4.07,6,3,9.94a5.2,5.2,0,0,1-2.31,2.28c-16.26,2.54-32,6.64-46.93,13.87-22.13,10.72-36.25,27.42-42.28,51.52-4.42,17.71-11,34.87-16.07,52.43-.65,2.25-1.31,4.61-3.49,6-2.48,1.07-4.62,0-6.74-1.11-35.15-18.68-68.37-40.1-98-66.94-11.46-10.39-22.55-21.06-32.94-32.48C1711.12,1009.14,1709.18,1007.59,1708.8,1005.15Z"/><path class="cls-8" d="M2407.77,790.19c13.63,1.56,27.3.61,40.94.53,5.42,0,6.81,2,7.22,6.79,1,11.93,1.75,23.91,4.17,35.69,3.45,4.18,2.85,9.43,3.36,14.23q4.23,40.25,8.68,80.48c1.51,18.79,4.08,37.47,5.87,56.23.23,2.42.67,4.7,3.21,5.83,5.64,1.21,11.32.25,17,.46,5.46.2,8.43,2.68,8.41,8.19,0,4.88,1.19,10-2,14.42-2.94,2-6.34,1.82-9.65,1.82q-99.51.06-199,0a29.37,29.37,0,0,1-7.77-.67c-5.1-2-3.71-6-2.69-9.57a245.67,245.67,0,0,0,7-36.25,29.88,29.88,0,0,0,0-8.55c-2.16-.8-2.84,1.2-3.91,2.15-14.06,12.44-31.09,19.81-47.68,27.93a5.21,5.21,0,0,1-4.8.26c-2.86-4-.46-7.84.62-11.53a104.14,104.14,0,0,0-1.83-65.76,83.38,83.38,0,0,0-10.94-20.72c-4-5.56-4.84-5.64-10-1.31-18.85,15.85-34.74,34.33-48.63,54.61-2,2.91-3,7.28-7.85,7.17-5.57-51.28-11.06-102.56-16.82-153.82-.7-6.2.13-8.49,7.28-8.47,83.78.28,167.55.18,251.33.17C2402.08,790.51,2404.93,790.3,2407.77,790.19Z"/><path class="cls-8" d="M2216.28,1105.47q-8.78,81-17.57,162c-.23,2.12-.57,4.23-.86,6.34-3.89,3.32-8.6,2.25-13,2.25-75.86.07-151.71-.1-227.56.17-18,.06-36,2-54.08-.09-3.28-.37-6.69.18-9.72-1.65-3.27-3.58-2.37-7.93-2.25-12.14-.06-5.41,3-7.37,8-7.9,5.31-.57,11.7,2.24,15.68-2.22,3.51-3.93,2.12-10,2.69-15.17q8.22-74.8,16.19-149.65c1.37-12.81,2.7-14.29,15.24-14.28,69,.08,138-.24,207,.14,18.27-.4,36.54-.24,54.81-.09,8.59.07,10.74,2.51,9.66,10.88C2219.64,1091.26,2220.23,1098.84,2216.28,1105.47Z"/><path class="cls-9" d="M1960.49,985.25c-27.77-60-70-106.08-128.79-137.2-29.19-15.45-58.45-30.65-88.54-44.25-1.48-.68-2.86-1.58-4.29-2.38,2.13-1.45,1.25-3.13.58-5a305.35,305.35,0,0,1-16.37-73.06c-4.55-46.32,4-89.94,24.41-131.42,6.8-13.83,15.49-26.57,25-38.71,2.12-2.7,3.79-3.48,6.87-.81,22.2,19.24,43.88,38.94,63.81,60.65,18.92,20.6,37.1,41.72,53.71,64.2,5.34,7.22,10.15,14.84,15.5,22.07,1.08,1.46,1.28,5.24,4.91,3.43C1929.16,722.91,1941,743,1951,764.2c1,2.14,2.1,4.26,1.78,6.77-.55,2.88-2.28,5.19-3.67,7.66a81.8,81.8,0,0,0-10.57,38.07c-.65,22.23-1.53,44.52,1.62,66.74,4.36,30.7,13.95,59.45,30.33,85.87,1.32,3.68.92,7.45.21,11.12C1969.58,986.12,1966.51,987.47,1960.49,985.25Z"/><path class="cls-10" d="M2720.08,512.8c-19.33,34.31-43.27,64.15-79.83,81.58-18.36,8.76-37.65,11-57.59,7.16-20.58-3.92-31.28-20.11-27.72-40.85,3.44-20,12-37.84,22.75-54.8,1.18-1.85,3.66-3.23,2.92-6.06,3.38-.86,6.72-2.15,10.15-2.5,7.33-.74,13.67-2.2,13.42-11.55,2.15,4,4.81,4.49,9.21,2.78,19.37-7.54,36.91-17.52,49.76-34.42a64.31,64.31,0,0,0,5.52-9.2c-17,17.06-38.05,29.24-64.32,30.95-18.25.15-30.22-9.17-38.25-24.89-12.49-24.43-17.72-51-22.93-77.52-2.19-11.13-5-22.24-4.26-33.77,4.48-2.63,9.31-.5,14-.85,20.9-1.59,41.14-7.07,61.83-9.8a86.75,86.75,0,0,1,12.77-.81c10.08.15,15,4.14,17.73,14,1.46,5.35,1.13,10.82,1.3,16.26.07,2.07-.33,4.66,2.07,5.62,2.66,1.08,5.11-.13,7.12-2,1.41-1.3,2.13-3.13,3.22-4.67,7.34-10.39,19.38-9.53,24.89,1.95,4.27,8.88,5.81,18.45,6.08,28.24-7.68,22.54-6,45.78-4.83,68.91.63,12.74,2.49,25.41,3.36,38.14.27,3.91,2,5,5.33,6.09C2703,503.78,2711.94,507.4,2720.08,512.8Z"/><path class="cls-11" d="M1969.13,970c-18.52-27.27-27.65-57.88-31.51-90.21a309.25,309.25,0,0,1-.16-71c1.57-14.17,6.69-26.94,14.53-38.73,4.16-9.68,12.73-14.69,21.54-18.56,37.1-16.29,72-12.3,104.21,12.66,3.07,2.38,4.93,5.64,7.24,8.58,15.34,15.81,17.08,35.73,17.35,56.26.28,22.1-5.61,43.17-9.75,64.58-3.59,18.58-4,37.26,1.8,55.68,2.63,8.39,6.93,15.41,13.89,21a105.26,105.26,0,0,1,26.45,32.33,5.5,5.5,0,0,1,3,2.89c6.44,15.65,10.74,31.66,8,48.81-3.3,3.23-4.43-.47-5.76-2.09-4.34-5.32-9-10.43-13.09-15.86-15.29-20.11-35.62-32.09-59.73-38.34-7.1-1.84-14.09-4.1-21.26-5.67-4.83-1.32-7.94-4.31-8.51-9.38-1.37-12-4.32-23.81-1.9-36.08,1-5,2.09-9.65,4.84-14,9.68-15.2,16-31.79,20-49.29,1.13-4.84,1-9.36-1.4-13.82a253,253,0,0,0-39-54.25c-3.51-3.73-5-3-7.67.87-11.75,16.77-24.48,32.71-40.65,45.6-5.79,4.62-11.73,9-18.48,12-4.42,2-5.87,5-5.23,9.6,2.77,20.19,7.47,39.68,19.44,56.75,5.86,8.37,5.37,17.93,4.21,27.47A2.39,2.39,0,0,1,1969.13,970Z"/><path class="cls-12" d="M2831.51,721.32q122.34,0,244.67.08c6.85,0,13.75.38,19.87,4,7.59,4.49,11.07,11.36,11.07,20.09q0,93.75,0,187.51c0,13.8-10,23.84-23.75,23.85q-78.1,0-156.22,0c-3.18-3.92-2.23-8.61-2.24-13q-.09-102.63,0-205.25c0-13.43,0-13.43-13.16-13.44-23.53,0-47.06.09-70.59-.1-3.46,0-7.81,1.21-9.62-3.65Z"/><path class="cls-7" d="M2085,772.71c-14.22-13-30.12-23.39-49.33-26.9C2003.91,740,1975.24,746,1952,770c-9.91-20.51-20.42-40.69-32.81-59.83a13.18,13.18,0,0,1-1.86-7.43c7.79-43.44,26.83-80.88,59.31-111.17,16.17-15.08,16.14-15.07,28.21,2.87,35.67,53,63.84,109.5,79,171.95C2084.33,768.48,2084.6,770.61,2085,772.71Z"/><path class="cls-13" d="M2831.48,721.37c2.13,2.28,4.92,1.35,7.43,1.36,26.87.07,53.75.18,80.62-.07,5.68-.06,7.81,1.2,7.79,7.39q-.33,113.4-.19,226.79l-54,.07c-2.69-2.47-2.26-5.73-2.28-8.88.37-14.76.37-14.76,15.5-14.79,20.07,0,20.07,0,20.07-20.24V821.76c0-2.62.1-5.23-.13-7.84-.63-7.42-3.95-10.4-11.55-10.45-16.87-.11-33.75.55-50.6-.36-4.88-4.18-9.79-2.75-14.72,0-5.46.65-10.93.17-16.38.43-8.42.4-11.6,3.43-12,11.73-.34,6.64-.11,13.29-.11,19.94,0,27.77-.06,55.54,0,83.31,0,12.92,1.9,14.65,15,14.72,2.85,0,5.7.09,8.55,0,6.1-.09,9.46,2.48,9.15,8.91-.26,5.41,1.59,16.09-5.7,15.8-29.2-1.15-46.22,2.8-49.21-19.39-1.71-12.72-.78-25.6-.45-38.41,0-1.69,1-3.15,1.83-4.59,0-49.37.39-98.75-.2-148.11-.21-17.07,12.11-26.48,26-26.06C2814.38,721.73,2822.94,721.42,2831.48,721.37Z"/><path class="cls-14" d="M2689.88,387.68c-3.37-4.69-2-10.56-3.91-15.63-1.51-4-2.5-8.16-4.17-12.06-2-4.59-5.12-8.27-10.66-8s-9.22,3.25-11.64,8.15c-1.07,2.16-.88,4.88-4.26,6-9.43,3-10.58,2.28-10.63-7.69-.15-30.07-7.85-30.59-31.16-27.12-19.94,3-39.54,8-59.72,9.52a52,52,0,0,1-14.82-1.11c-4-3.94-5.1-9.17-5.53-14.33-1.48-18.15,0-36,6.32-53.3,3.46-9.46,9.3-15.86,19.08-19.57,24.78-9.41,49.89-15.35,76.56-10.7a42.13,42.13,0,0,1,8.29,2c12,4.78,23.68,9.72,36.85,11.45,10.29,1.35,16.89,9.12,18.34,20.09,2.91,22.08,1.2,44.12-.84,66.13C2696.53,357.07,2694.42,372.6,2689.88,387.68Z"/><path class="cls-15" d="M1893.33,1273.8c18.51.47,37,.59,55.55.5,80.14-.4,160.29-.17,240.43-.19,2.85,0,5.69-.21,8.54-.32l115.51-.15c4.28-3.33,8.81-.63,13.23-.55,7.61.28,15.21,0,22.81.15,9,.18,10.55,3,6.2,11-.93,1.69-1.95,3.28-4,3.85-3.33,0-6.65-.14-10-.14q-359.1,0-718.19.08c-5.6,0-8.82-.44-8.51-7.46.25-5.6,2.22-6.63,7.25-6.6,23.31.13,46.63-.1,69.94-.19,4-3.41,8.86-1.62,13.34-2.08,35-.52,69.93-.13,104.89-.22q36-.09,72.07,0C1886.22,1271.45,1890.14,1271,1893.33,1273.8Z"/><path class="cls-7" d="M2216.28,1105.47c.83-8.21,1.49-16.45,2.55-24.64.57-4.37-.72-5.7-5.22-5.66-19.16.19-38.33,0-57.5-.07-4.6-4.83-8.4-10.13-9.84-16.82,6.24-15.13,17.18-26.73,29.68-36.55,16.48-12.93,35.39-22,54.25-31,1.51-.71,3.07-1.31,4.8-.76,21.53-8.61,42.14-18.76,59.47-36.36,1,21-4.2,39.85-8.93,58.75.48,5.36-1.78,9.68-5.13,13.6-9.13,19.29-19.59,37.74-34.28,53.48C2237.07,1089.16,2227.54,1098.31,2216.28,1105.47Z"/><path class="cls-9" d="M2235,990q-17.6,9.18-35.19,18.36c-22.42,11.65-40.43,27.91-52.67,50.22-2-.37-3.53-1-2.45-3.49,1.22-18.37-2.94-35.72-10-52.52,4.39-6.52,6.09-14.21,8.93-21.36,3.92-9.89,10.24-18.55,13.79-28.56,6.47-8.63,12.77-17.41,19.46-25.87,11.06-14,23.71-26.46,36.68-38.69,5.39-5.08,7.62-3.5,11.05,1.55,19,28,22.51,58.16,13.68,90.26C2237.37,983.29,2236.11,986.62,2235,990Z"/><path class="cls-15" d="M2280.41,1026q2.58-6.81,5.13-13.6l218.77-.14c2.44-1.82,5.29-2,8.16-2,77.22,0,154.43-.17,231.65.08.47,0,1,.07,1.42.1,26.85-.27,53.71-.35,80.56,0,6,0,12.08-.05,18.11-.47,7.55.78,15.14.25,22.7.54,6.58.6,13.37-1.63,19.74,1.52,2.84.16,5.68.45,8.52.46,31.15,0,62.31.15,93.47-.1,5.46,0,5.59,2.63,5.44,6.56-.13,3.58.65,7.55-5.12,7-1.88-.19-3.8,0-5.71,0H2290.4C2287.07,1025.88,2283.74,1025.94,2280.41,1026Z"/><path class="cls-16" d="M2170.19,417.45c5.06-3.37,3.45-9.11,4.09-13.63.95-6.81,2.7-10.15,10.48-9.55,9.37.72,14.89-7.93,10.61-16.48-3.23-6.46-2.41-10.36,3.84-14.2,8.05-4.95,15.71-10.6,23.25-16.33,3.9-3,6.4-2.33,9.63,1,2.85,2.95,4.86,6.76,11.09,5.5s9.27-4.07,10.63-9.45c1.43-5.64,3.76-7.5,10.06-5.85,9.09,2.38,18.58,3.34,27.93,4.65,5.91.84,8.58,3.6,8.51,9.87-.11,10.54,7.48,15.59,16.89,10.57,6.72-3.59,9.48-1.3,12.86,4.1,4.53,7.21,9.27,14.44,15,20.71s3.05,10.78-1.77,15c-3.38,3-3.73,6-2.77,10,1.12,4.67,3.57,7.39,8.33,8.49,6.14,1.4,8.2,4.88,6.51,11.49a131,131,0,0,0-4.28,25.81c-.4,7.85-5.07,8.8-10.86,9.44-10.59,1.16-14.83,8-9.63,17.31,3.33,5.95,1.31,8.83-3.28,12-8.2,5.64-16.36,11.34-24.37,17.25-3.62,2.67-6.19,2.91-9.37-.86-3-3.57-5.75-7.88-12.27-5.76-4.81,1.56-8.14,3.69-9.27,8.51-1.48,6.39-4.56,8.25-11.31,6.51a167.82,167.82,0,0,0-27.93-4.62c-6-.5-7.48-3.19-6.72-8.17.9-5.95-1.26-9.67-6.65-12.47-3.32-1.73-5.8-2.21-9.17-.45-3.93,2.05-8.13,3.88-12.82,2.33-2.22.06-2.12-1.34-1.83-2.87a4.31,4.31,0,0,1,2.26-1.65c5.4-1.39,5.35-4.32,2.61-8.33-7.37-10.8-10.62-23.27-14.23-35.59a4.88,4.88,0,0,1,.69-2.92c3.72-2.36,6.75.17,9.89,1.49,2.12.89,4,2.83,6.45.92,2-.06,3,1.08,3.4,2.9a15.78,15.78,0,0,1-4.19,9.61c-2.42,2.66-4.32,5.15-1.25,8.58,2.8,3.13,4.2,8.74,10.39,5.6a5.3,5.3,0,0,1,2.8-.35c3.2.61,5.06,2.93,6.81,5.35,1.18,2.23,2.79,1.11,4.34.52a6.05,6.05,0,0,1,3,.06c3.12,1.21,5.83,3.22,8.86,4.58,3.77,1.7,6.29,4.31,6.14,8.7-.19,5.51,3.59,6.41,7.82,7.27,4.08.84,7,.14,8.37-4.21a7.38,7.38,0,0,1,.94-1.91c3.93-6,28.58-11,34.06-6.35,4.49,3.78,7.51,1.86,11.29-.69s5.13-5.33,2.9-9.54-.95-7.72,2-11a34.41,34.41,0,0,0,5.89-8.88c2.66-5.94,5.81-10.65,13.51-10.52,4.88.09,4.6-4.61,5.2-8s1.52-7-3-8.25c-5.83-1.63-7.54-6-8.15-11.24a49.41,49.41,0,0,0-2.39-11.13c-2-5.48-2.55-10.47,2.06-15.14,3.11-3.15.74-6.15-1.2-8.9s-4-5.79-8-3.81c-5.6,2.76-10,.75-14.38-2.74a36.53,36.53,0,0,0-7.72-5.08c-5.92-2.64-10.76-5.56-10.35-13.36.21-4-4-4.08-6.91-4.74-3.36-.76-7.15-1.29-8.64,2.65-2.41,6.39-7.14,8.27-13.32,8.62a25.4,25.4,0,0,0-8.37,1.67c-6.07,2.55-11.57,3.68-16.71-2.17-2.41-2.76-5.3-.62-7.58,1.17-2.7,2.12-6.77,3.83-4.89,8.34,2.7,6.46.38,11.46-3.65,16.32a35.68,35.68,0,0,0-5.14,8.52c-2.27,5.21-5.51,8.82-11.76,8.49-3.29-.17-4.41,2-5,4.87s-.69,6.17-2.48,8.85C2180.8,425.51,2174.53,423.5,2170.19,417.45Z"/><path class="cls-2" d="M2811.64,401.69l22.81-.45c5.29-3.18,11.13-1.44,16.73-1.79,3.78-.24,7.59-.07,11.39,0,11.89.09,17.38,4.94,18,17a253.41,253.41,0,0,1-.12,31.3c-.84,3.81-1.25,7.82-4.62,10.53-4.51,2.71-9.54,2.47-14.53,2.58-8.48.17-17.07-1-25.31,2.08-.07-3.07-1.34-4.52-4.7-4.34-4.87.28-9.76.14-14.64.09-2.21,0-4.89.67-5.35-2.79C2809.56,437.8,2807.17,419.73,2811.64,401.69Z"/><path class="cls-17" d="M2306,1232.39c5.23-10.36,11-20.57,10-32.8-.79-9.71-4-18.75-8.45-28.45-10.79,24.78-31.71,39.61-51.52,55.49-2.91-1.49-6-2.81-5.71-7,5.26-7.07,11.79-13,18.2-18.88,10.64-9.79,18.45-21.36,24.84-34.21,4.69-9.43,10.86-18,22-20.71,5.22-1.27,10.71-1.41,16.08-2.06,5.65,4.69,5.69,11.73,7.57,18,1.07,11.11.82,22-2.52,32.88-3.12,10.14-4.25,20.77-6,31.22-1.31,3.35-.69,7.06-1.9,10.43C2322.61,1242.84,2312,1241,2306,1232.39Z"/><path class="cls-10" d="M2351.64,1288a47.5,47.5,0,0,0,4.82-13h-30.53c.06-2.24,1.83-2.55,3.42-2.91a20.27,20.27,0,0,1,6.4-.34c11.31,1.09,21.4-1.09,30.63-8.48,6.58-5.27,15-7,23.54-7.14,4.44-.1,8.51.85,11.69,4.24,2.4,22.89,4.68,45.79,7.26,68.65.93,8.23,1.83,16.51,4.43,24.46-1.72,1.92-3.44.81-5.15,0a3,3,0,0,1-1.09-1.51c-8.25-18.94-16.18-38-20.36-58.34-.38-1.85-.55-3.75-.81-5.62-2.17-2.18-2.79-5.28-4.8-7.65-.52,2.75-1.13,5.59-3.65,7.44-14,20.39-24.86,42.53-36.05,64.49-1.84,1.84-3.92,1.66-6.09.73l-.77-.79c4.35-11.76,6.84-24,9.66-36.19C2346.38,1306.62,2348.91,1297.31,2351.64,1288Z"/><path class="cls-18" d="M2836,462.91c1-3.3,2.91-4.56,6.62-4.53,11.09.1,22.19-.34,33.29-.57,2.91,1.26,6.2,1.68,8.66,3.94a109.58,109.58,0,0,0,3.94,10.66c10.95,22.61,6.84,45.83,3,69.05-3.24,2.39-6.39.77-9.56-.23-.53-13.26-1.26-26.51-1.51-39.78a23.66,23.66,0,0,0-5.82-15.54c-5.8-6.84-11.5-13.77-17.94-21.49-3.89,9.46-4.61,18.58-6.42,27.39-4.36,21.1-7.21,42.46-10.32,63.77a14.89,14.89,0,0,1-1.23,3.15c-3.14,2.11-6.44,2.68-10,1.07C2830.26,527.44,2830.61,495,2836,462.91Z"/><path class="cls-17" d="M1653.09,1153.88c-1-4.11-2.41-7.47-7.22-9-3.62-1.17-2.8-5-1.82-8,1.83-5.62,3.72-11.22,5.56-16.83,1.38-4.2,1.63-8.31-1.3-12.69-8,10.17-18.22,17.89-25.94,28-2.71,3.56-6,6.76-10.27,8.54-2.64-1.77-5.46-3.4-5.85-7,2.09-6.35,5.85-11.83,10-16.88a212.17,212.17,0,0,0,25.23-38.21c4.33-8.52,12.57-5.63,19.07-7.84,5.45,0,6.39,5,9,8.2,4.66,10.49,3.39,21.81,4.42,32.78.75,8-.28,16.07.66,24.08-.76,10.72-2.48,12.53-12.83,12.46A13.44,13.44,0,0,0,1653.09,1153.88Z"/><path class="cls-19" d="M2100,585.35c6.22-13.26,13.73-26.09,18.38-39.89,7.36-21.81,20.84-39.68,33.64-58.13,6.3-2.5,12.06.4,18,1.78,5,2.74,6.34,9.28,11.95,11.37,2.76,2.08.54,3.37-.74,4.83-3.58,3-7.38,5.58-12.23,6.05-2.12,1.51-4.22,3-6.36,4.54-10.79,7.5-19.91,15.61-25.14,28.82-6.07,15.3-15.57,29.23-23.59,43.76-.8,1.44-1.47,3-3.54,3A15.09,15.09,0,0,1,2100,585.35Z"/><path class="cls-20" d="M2401.61,1260.4c-15.58-5.65-28.91-.24-41,9.06a22.1,22.1,0,0,1-14.88,4.92c-6.57-.13-13.23-1.07-19.76.65l-12.57-1.39c-17.09-8.1-19.7-22.69-7.38-41.25,6.61,3.22,12.47,10,20.93,4.38,8.37-.33,16.77.24,25.08-1,3,3.91,6.55,3.3,10.33,1.45,2.23.29,4.44.62,5.65,2.89-.4,5.33-5.29,3.59-8.07,5.17-5.83,1.08-11.72.4-17.5.53,6.56,4.1,13.77,6.37,21.08,8.38,9.22-1.41,18.49-1.08,27.74-1,2.58,0,5.27-.13,7.39,1.86C2399.81,1256.68,2402,1257.81,2401.61,1260.4Z"/><path class="cls-21" d="M2878.63,448.81c0-9.94.11-19.89.11-29.84a24,24,0,0,0-.45-6.35c-2.68-9.74-5.17-11.43-15.39-11.35-9.48.06-19,0-28.45,0-1-10.9-8.87-17.51-16.15-24-10.42-9.32-15.21-20.9-16.45-34.38,1.65-2.91,3.84-3,6.38-1.21,1.48,3.48,3.66,6.83,4.3,10.46,1.88,10.75,9.67,16.24,17.88,21.59,4.78,3.13,9.73,4.6,15.31,2.42,2.37,2.06-1.1,7.19,4,7.74,4.18.46,7-1.94,9.47-4.91,1.34-1.62,2.61-3.32,4.93-3.57,11.31.46,17,7.33,20.06,17.37.8,2.64,2,5.15,3.06,7.73,4.25,4.5,5.07,10.31,4.74,15.9-.65,11.27-.26,22.74-4.12,33.64C2884.38,452.61,2881.35,451.91,2878.63,448.81Z"/><path class="cls-2" d="M1653.09,1153.88c-.13-3.86.39-5.67,5.5-4.71,10.91,2.07,11.47,1.29,14.71-9.18,2.92-3.23,6.79-2.73,10.53-2.7,2.55,5.13,7.47,5,12.17,5.43,6.63,14.47,11,29.41,9.53,45.57-3.83,4-8.25,5.51-13.58,3.26l-11.25,1.1a12.82,12.82,0,0,1-12.92.38C1660.52,1180.87,1656,1167.7,1653.09,1153.88Z"/><path class="cls-22" d="M2398.61,1255c-11.09.36-22.24-.44-33.28,1.31-1.4.22-2.84.31-4-.84a10,10,0,0,1,.76-3.78c2.1-3.44.46-5.9-2.11-8.12,2-2.25,6.56,1.1,7.55-3.42.61-8.82,4.68-16.55,7.78-24.6,3.84-5,8.57-4.11,13.48-2,11.14.19,22.28.58,33.42.47,5.34,0,6,1.53,4,6.19-3.65,8.72-7.14,17.55-10,26.56-1.69,5.31-4.09,8-9.95,7.35C2403.79,1253.79,2401.17,1254.65,2398.61,1255Z"/><path class="cls-23" d="M2180.3,504.39c-.2-1.28,2.92-.93,1.41-2.86,3.74-5.12,9.11-4.51,14.42-4.09l1.26,2.73c3.26,8.66,7.91,16.62,12.48,24.61,2.75,4.83,7.27,6.47,12.53,6.74,11.86.6,23.73.9,35.51-.71,3.07-.42,4.87.23,6.25,2.75,1.15,4.08,1.73,8.1-1.13,11.79-14.4,1.15-28.67,3.5-43.18,3.73a27.38,27.38,0,0,1-19.42-6.88c-9.9-8.53-19.26-17.53-27.22-27.92C2172.55,508.82,2179.12,508.53,2180.3,504.39Z"/><path class="cls-17" d="M1694.78,1142.31c-8.59,4.21-9.1,4-9.9-4-1-10.82-1.19-21.7-2.78-32.47s-3.74-21.44-9.26-31.08a2.48,2.48,0,0,1,.59-2.21c3.34-.36,3.68-3.39,4.76-5.59,7.49-15.27,12.82-31.42,19.24-47.13,1.43-3.49,3.09-6.89,4.65-10.33,4.24-1.42,8-.88,10.79,2.92-1,15.94-4.06,31.78-9.86,46.32-9.4,23.52-8.55,47.11-5.6,71.21C1698,1134.35,1699.26,1139,1694.78,1142.31Z"/><path class="cls-24" d="M2319.13,1119.66a28.11,28.11,0,0,1-1.23-16.75c2.21-8.89,9.63-14.82,17.77-14.66,9.19.18,21.17,8.08,23.06,15.3a12.83,12.83,0,0,1-1.73,10.9c-3.44,5-3.05,9.8.56,14.39,2.57,3.28,3.47,6.33,1.27,10.35-2.45,4.48-1.59,8.71,2.85,11.81,2.26,8.19,1,10.59-7.22,13.93-2.5.59-4.88-.18-7.28-.7-10.39-3.84-12.68-8.52-9-18.44,4.37-11.87-.1-26.16-10.38-33.73-2.14-1.57-2.77-.36-3.81,1.15C2322.45,1115.42,2322.7,1119,2319.13,1119.66Z"/><path class="cls-25" d="M2206,454.4l-2.84-3c-4.38-1.85-7.79-5.39-12.29-7.06-2.61-2.24-5.3-3.92-8.66-1.32-7.59.44-15.05,3-22.76,1.27-5.95-2-8.71-6.74-10.45-12.33a10.29,10.29,0,0,1-.24-3.32c1.88-5.76,2.61-12.18,8.86-15.44,4.71-.12,8.26,3.19,12.57,4.24l17.33,8c7.39-.42,12.73,3.93,17.83,8.24s9.37,9.16,14,13.79c2.48,2.66,5.07,5.23,7.71,7.75,2.23,2.85,6.31,4.68,5.23,9.37a14.61,14.61,0,0,1-7.67,5.34c-4.44.73-7.12-2.29-10.08-4.72C2212,461.41,2207.57,459,2206,454.4Z"/><path class="cls-26" d="M2353.9,1163.83c7-1.61,8-6.86,7.78-12.83,9.47,7.82,10,20,14.36,30.2,4.5,10.65,7,22.13,12.76,32.31-4.15,1.37-9.72-2.4-12.62,3.49-5.25-1.58-6.62-6.34-8.61-10.56-1.57-3.35-2.11-7.15-4.46-11.07-2.4,4.11-2.2,7.85-2.41,11.54-.6,10.36.86,20.65.93,31-6.12,5.66-7.64,5.48-9.25-1.13a13.59,13.59,0,0,1-1.42-5.22c1.89-20.27,1.12-40.6,1.34-60.91A12.36,12.36,0,0,1,2353.9,1163.83Z"/><path class="cls-27" d="M2604.35,475.89c10.61-3.07,21.49-5.14,31.62-9.92,14.13-6.67,26.61-15.3,36.85-29.72-.43,7.56-3.45,12.1-6.35,16.3-14.27,20.68-35.28,31.86-58.33,39.64-6.24,2.11-2.44-4.33-4-6.42C2604.24,482.48,2604.29,479.18,2604.35,475.89Z"/><path class="cls-28" d="M1692,1191.55a44.44,44.44,0,0,0,12.9-3.52c6.53,5.38,5.11,12.17,2.49,18.48a155,155,0,0,0-9.52,35.6c-1.28,8.12-1,15.51,3.77,22.41a5,5,0,0,1,.76,3.41c-5.12,4.22-9.77,3.17-12.42-3a27.41,27.41,0,0,1-1.85-11.6c1.69-3.67.68-7.39.29-11.13-1.31-12.74-2.65-25.53,4.58-37.21C1695.91,1200.2,1693.69,1195.92,1692,1191.55Z"/><path class="cls-29" d="M2887,450.24c.86-8.45,1.49-16.93,2.66-25.33s-1.09-16.36-2.47-24.45c14.21-.27,14.21-.27,14.25,13.93,0,11.6-.26,23.22.29,34.8.31,6.45-1.53,9.26-8.15,8.3a29.56,29.56,0,0,0-5,.1C2886.12,455.57,2885.24,453.2,2887,450.24Z"/><path class="cls-30" d="M2300.25,1121c-7.47-6.35-15.32-3.78-22.57-3.72-6.27,0-8.07-1.65-7.88-7.94.44-14,.1-14,14.24-14,16.21,0,16.21,0,16.21,16.07Z"/><path class="cls-28" d="M1667.78,1193l12.92-.38c-.34,18.11-.38,18.2-18.38,16.79a89.85,89.85,0,0,1-14-2c-9.47-2.3-19-3.29-28.65-2-.79-4.68,2.67-6.08,6-7.17,3.74-1.25,7.39-2.74,11.11-4,2,4.16,5.36,5.94,9.86,5a62.93,62.93,0,0,1,17-1.27C1667.5,1198.19,1667.77,1195.84,1667.78,1193Z"/><path class="cls-31" d="M3017.11,554.33c2.27-13,14.8-12.76,23.47-19.09.1,7.54-8.15,10.83-6.35,17.73-9.08,13.44-17.76,27.13-25.78,41.23l-5.6,7.22c-2.22.27-2.4-1.36-2-2.69C3005,583.49,3008.93,568.12,3017.11,554.33Z"/><path class="cls-32" d="M2151.38,456.87c-5.32,8.38-12.32,9.1-21,5.39-6.22-2.66-12.92-4.22-19.4-6.27-2.18-.68-4.8-.81-5.07-3.94-1.68-2.92-1.23-5.31,1.75-7.08,7.1,1.7,14.28,3.09,21.27,5.18,6.76,2,11.93.86,15.64-5.44a18,18,0,0,1,2.86-3C2151.62,446,2154,450.78,2151.38,456.87Z"/><path class="cls-33" d="M2319.13,1119.66c2.12-4.12,3-8.94,7-12.53,1.68,2.13,2.83,5,4.87,5.95,10.59,5.11,8.85,15.58,11.17,24.3.67,2.54-.59,4.6-1.52,6.77-4.93,11.43-4.11,13.59,7,18.64.37,5.78-2.55,5.51-6.38,3.42-2.13-1.16-2.43-3.82-4.2-5.31l-5.67-17.09c1.44-3.42,1.62-5.7-2.83-7.61C2321.65,1133.25,2321.47,1125.66,2319.13,1119.66Z"/><path class="cls-34" d="M1659.24,1064.12c-5.21-2.41-8.42-7.3-13.08-10.54s-3.85-11.72,1.06-14.19c5.58-2.8,11.75-5.22,18.18-4.93a8.89,8.89,0,0,1,8.44,6.6c-2,6.2-5.08,11.74-11.15,14.59C1658.52,1057.61,1662,1062,1659.24,1064.12Z"/><path class="cls-35" d="M2864.1,375.37c-2.26,2.7-4.27,5.66-6.85,8-3.16,2.89-7.33,4-11.09,1.71s-.81-5.93-.44-9l2.67-1.68c1.55-1.59,4-1.66,5.6-3.16-1.75,1.29-3.49,2-5.5.43-4.58-1.14-5.44-4.62-5.44-8.63.77-.5,2-.85,1.92-1.82-.11-1.26-1.4-.7-2.22-.81-1.77-2.78-1-5.84-1-8.81,4.71-3.25,9.23-1.72,13.71.56a3.61,3.61,0,0,1,1.08,4.05,2.51,2.51,0,0,1-1.68,1.82c-.48.22-1.17.27-1.24,1,.71.07,1.17-.45,1.73-.78,1.86-1.23,1.36-3.77,2.93-5.14,7.77-1.64,2.68,4.73,4.31,6.92-.78,3.11-1.59,6.22-2.33,9.34C2859.47,372.7,2861,374.56,2864.1,375.37Z"/><path class="cls-36" d="M2154.07,407.54l.71,4.11c0,5.55-2,10-7.12,12.62l-2.83-5.65c1.15-2.14-.69-2.14-1.88-2.62-7.22,2.85-15.35-3.46-14.27-11.28.48-3.43-1.58-6.89.34-10.23,2.67-2.49,5.71-1.6,8.71-.93,3.44.77,6,5.42,10.59,1.63,1.32-1.1,3.18,1.47,3.27,3.56A23.18,23.18,0,0,0,2154.07,407.54Z"/><path class="cls-37" d="M2154.07,407.54c-2.69-.61-3.65-2.78-4.17-5.06s2.46-5.64-1.49-6.44c-3.64-.74-1.84,4.3-4.82,5.57-2-7.95-8.43-7.23-14.57-7.12-2.44-4-2-7.77,1-11.12s6.6-3.32,10.5-1.95,7.63,2.52,11.42,3.87c3.51,1.26,4.11,4.2,4.24,7.48C2156.41,397.84,2154.72,402.61,2154.07,407.54Z"/><path class="cls-38" d="M2263,545.35c.44-3.92-.84-8,1.14-11.79,2.5-.68,5-1.41,7.5-2,2.88-.71,4.64.73,5.23,3.37,1.67,7.37,3.26,14.75,4.65,22.17.37,2,.84,4.69-1.83,5.48-2.1.62-3.22-1.57-4.44-3C2271.16,554.87,2269.74,547.84,2263,545.35Z"/><path class="cls-39" d="M3017.11,554.33c-4.41,12.68-8.92,25.33-13.16,38.07-.94,2.84-4,5.64-1.1,9-.66,1.58-1.72,2.71-4.31,3.82,2.95-13.62.05-26.83,2.87-39.79.69-3.16,3.1-4.09,5.18-5.4C3010,557.92,3013.59,556.21,3017.11,554.33Z"/><path class="cls-40" d="M1659.24,1064.12c-.23-1.83-.1-3.81-.75-5.47-1.29-3.29-2.18-4.75,3-4.29,3.64.33,5.42-4.59,7.82-7.39,1.61-1.89,1.5-5.09,4.5-5.91,2.18,3.51,4.08,7.1,3.86,11.42-.76.57.17-.2-.57.4a4.8,4.8,0,0,0,.56-.45c2.35,6.7.58,12-5.38,15.88-2.27.51-4,1.44-3.18,4.25-2.84,2.32-5.63,1.84-8.41-.11C1660.79,1069.57,1661,1066.67,1659.24,1064.12Z"/><path class="cls-41" d="M2100,585.35a23.92,23.92,0,0,1,10.35,6.13c-3,11.3-3,11.25-14.46,7.32-4.66-1.6-9.43-2.85-14.11-4.38-1.79-.59-3.94-1.56-3.91-3.6,0-2.88,3-2.56,4.87-3C2088.44,586.51,2094.6,588.5,2100,585.35Z"/><path class="cls-42" d="M2855.62,353.2l-13.87-1.57c-.64-4.83-.83-9.68,4.32-12.27,4.61-2.31,16.2,0,18.35,3.88,3.19,5.78,0,11.33-1.83,16.82-1-2.9-3.13-5.76-4.19-5.73C2856.92,355.31,2856.49,353.73,2855.62,353.2Z"/><path class="cls-43" d="M2151.38,456.87c.21-5.46-2.59-10.13-4-15.18,1.43-4.86-2.58-9.69-.1-14.56,1.67-.8,2.15.47,2.71,1.58l.06,2.48a42.56,42.56,0,0,0,1.77,10c6,12.44,9.41,25.87,15.15,38.4,1,2.1,2.27,4.32.31,6.63-5,.25-10.12,1.11-14.1-3.15.28-6,2.23-11.92,1.42-18C2154.24,462.09,2153.79,459.07,2151.38,456.87Z"/><path class="cls-44" d="M3008.45,594.2c-1.64-1.19-.8-2.48-.07-3.65q10.89-17.61,21.84-35.19a4.42,4.42,0,0,1,4-2.39c4.72,3.83,2.91,7.27-.33,11C3025.31,574,3016.92,584.12,3008.45,594.2Z"/><path class="cls-45" d="M2423.16,1368.93c1.77,2.08,5.84,3.59,4.82,6.29-1.23,3.31-5.39,1.31-8.26,1.74-6.54,1-10.25-2-11.38-8.54-1.78,1.47-.75,3.38-1.91,4.78,1.42-7.06-6.53-14.25.64-21.22l.15.47c2.56,2.35,2.83,5.92,4.71,8.69C2414.72,1365.27,2417.93,1368.46,2423.16,1368.93Z"/><path class="cls-46" d="M2350.35,1368c1.87,2.52,6.65,4.22,5.14,7.53s-6,1.06-9.18,1.42c-5,.56-6.86-2.42-9.68-6.23-2.67-3.61-3.55-7.18-4.55-11-.73-2.81-.73-5.74,2.45-7.44l0,.24c3,3.79,4.83,8.4,8.1,12.07C2344.77,1366.9,2346.83,1369,2350.35,1368Z"/><path class="cls-47" d="M2250.27,1219.67l5.71,7q-4.32,5-8.66,9.94c-3.66-.39-7.22-1.5-10.92-1.58-1.3-.24-4.35.53-1.67-2.28,3.23-3.39,6.79-6.47,10.15-9.64-1-2.47-4.6-1.14-5.63-4.49Z"/><path class="cls-48" d="M1636.76,1194.25c-1.18,4.31-5.07,4.56-8.37,5.11-4,.68-7.05,2.26-8.7,6.09-2.4,1.61-3.17,7.61-7.14,4.37-3.5-2.85.19-6.39,2-9.32,1.64-2.61,4.1-3.64,7-4.26,4.73-1,6.77-2.93.77-6.75C1627.83,1190.73,1632.68,1191.28,1636.76,1194.25Z"/><path class="cls-49" d="M2828.74,559.8c3.2-1.57,6.61-1.08,10-1.07,2,4.75.41,7.64-4.56,8.94-2.26.59-4.4,2.08-6.65,2.22-3.87.23-9.73,1.67-10.86-2.34s5-3.52,7.86-5.16C2825.94,561.56,2827.33,560.67,2828.74,559.8Z"/><path class="cls-50" d="M2811.64,401.69l-.3,54.18c-1.82-2.61-1.84-5.75-2.61-8.67.92-6.59-1.65-12.79-2.14-19.21-.45-5.89-4-11.68-.8-17.74C2805.34,405.76,2810.51,405.1,2811.64,401.69Z"/><path class="cls-51" d="M2882,541.23c3.25-2.55,6.36.84,9.57.23a22.58,22.58,0,0,0,1.91,2.11c2.15,1.88,4.76,3.57,4.22,6.91-.3,1.9-2,2.48-3.85,2.42-3.42-.12-7.31,1.13-9.24-3.32C2883.39,546.88,2880.31,544.81,2882,541.23Z"/><path class="cls-52" d="M2886.65,1012c-6.4.91-12.82.55-19.25.27-1.76-1.53-1.77-3.49-1.36-5.55,1.85-5.84,5.23-6.46,9.83-2.86,2.33,2.58,5.69,2.75,8.7,3.78C2886.57,1008.35,2889.83,1008.75,2886.65,1012Z"/><path class="cls-53" d="M2350.35,1368c-1.53,5.27-4.87,2.23-6.28.66-4.21-4.68-8.87-9.29-9.49-16.15l6.82-.18Z"/><path class="cls-54" d="M2423.16,1368.93c-2.37,2.57-5.07,1.7-6.92-.18-4.45-4.55-9.09-9.18-9-16.3l6.08,1.06Z"/><path class="cls-55" d="M2887,450.24c.54,2.44,1.07,4.89,1.61,7.34-.18,2.53-1.69,3.76-4,4.17-3.52.09-7.2.52-8.66-3.94l2.7-9Z"/><path class="cls-56" d="M2808.23,341.64l-6.39,1.21c-2.49-6.93-1.38-14.29-3.05-22.21,5.44,3.51,8.54,7.34,8.6,13.3A74.56,74.56,0,0,0,2808.23,341.64Z"/><path class="cls-57" d="M1688.08,1253.32c1.21,3.78,2.14,7.68,3.69,11.32,2,4.67,5.23,6.68,10,3.12,3.62.59,4.32,2.79,3.3,6l-12.92,0C1688.55,1267.37,1684.64,1261.08,1688.08,1253.32Z"/><path class="cls-58" d="M2805.79,410.25q2,15.56,4,31.09c.27,2.06.94,4.2-1,5.86-2.12-10.32-4.11-20.67-6.43-30.94C2801.53,412.82,2800.77,410,2805.79,410.25Z"/><path class="cls-59" d="M1660.72,1072.45c2.84-.48,6,1,8.53-1.31a1.64,1.64,0,0,1,2.61-.08l1.56,1.46q-.06.64-.06,1.29c.76,1,.75,2.21,1.06,3.33.67,2.43,2.35,5.32-.37,7.14-3.41,2.27-4.7-1.86-7-3.12-2.42-2.21-3.19-5.92-6.57-7.27C1660.59,1073.41,1660.66,1072.93,1660.72,1072.45Z"/><path class="cls-60" d="M1606.25,1136.82c1.69,2.57,5.85,3.09,5.85,7-1.5,2.19-1.75,5.86-5.53,5.47a6.26,6.26,0,0,1-5.44-4.94C1600.58,1140.88,1603.25,1138.5,1606.25,1136.82Z"/><path class="cls-61" d="M2096,448.75c-5.05-.87-5-4.37-3.71-8,.76-2.12.58-6.63,5.23-3.73,4.21,2,4.83,6.12,4.53,9.72C2101.81,449.84,2098.72,450.05,2096,448.75Z"/><path class="cls-62" d="M2096,448.75c4.16-.32,7.82-.7,3-5.86-1.28-1.38.94-4.33-1.49-5.84,5.37.09,8.16,3.47,10.11,7.92q-.89,3.54-1.75,7.08C2102.38,451.63,2099,450.94,2096,448.75Z"/><path class="cls-63" d="M2236.4,1235c4.24-3.59,7.51-.53,10.92,1.58-1.72,5.36-7.3,5.28-10.53,4.94C2230.76,1240.87,2237,1237.27,2236.4,1235Z"/><path class="cls-64" d="M2153.22,483.08l13.71,2.46c3.43-.17,3.8,1.88,3.32,4.56l-18.2-2.77Z"/><path class="cls-65" d="M2377.44,1287.81c.71-3.14,1.4-6.29,3.52-9.07,3.74,2.08,4.89,5.37,4.93,9.28Z"/><path class="cls-66" d="M1992.52,454c2.47,5.89,2.06,11.77,0,17.66Z"/><path class="cls-67" d="M2061,604.92a27.27,27.27,0,0,1-12.51-12.64C2054,595.2,2057.89,599.71,2061,604.92Z"/><path class="cls-68" d="M1711.81,1011.08c-3.83,3-6.19-2.89-9.73-1.6-.41-1.31-.81-2.61-2-6.44,3.65,5.94,6.07,1.79,8.72,2.11q2,2.1,4,4.19C1712.85,1010.14,1712.87,1010.91,1711.81,1011.08Z"/><path class="cls-69" d="M2732.89,118h17.33c-5.77,3.08-11.59,2.27-17.4,1.94C2732.84,119.28,2732.86,118.63,2732.89,118Z"/><path class="cls-70" d="M2426.66,221.36c-5,3.85-10.75,5.63-17,6.18A37.83,37.83,0,0,1,2426.66,221.36Z"/><path class="cls-71" d="M2353.24,242.59c-5.5,3-11.58,3.49-17.71,3.81A31.58,31.58,0,0,1,2353.24,242.59Z"/><path class="cls-72" d="M2259.8,257.79c5.48-3.73,11.7-3.07,17.82-3.08C2272.27,258.78,2265.73,256.76,2259.8,257.79Z"/><path class="cls-73" d="M2000.31,509.35c-4.28-5-3.92-11.1-4.89-16.92C1999,497.52,1999.66,503.45,2000.31,509.35Z"/><path class="cls-74" d="M2127.93,284c-4.91,3.83-10.67,5.64-16.76,6.66C2116.29,287.32,2121.43,284,2127.93,284Z"/><path class="cls-74" d="M2172.8,680.75c6.3.25,11.51,3.39,16.72,6.55C2183.27,687,2177.91,684.27,2172.8,680.75Z"/><path class="cls-75" d="M2225.28,698.75A27.65,27.65,0,0,1,2208.1,694C2214.27,693.81,2219.72,696.34,2225.28,698.75Z"/><path class="cls-76" d="M3064.07,457.25c-.17-6.56,1.27-12.15,2.75-18.76C3068.76,444.23,3067.56,451.79,3064.07,457.25Z"/><path class="cls-77" d="M2846.74,130.73c5.86,1.14,12,1.46,16.69,6.43l-17.06-4.6C2846.49,132,2846.61,131.34,2846.74,130.73Z"/><path class="cls-74" d="M2563.77,153.48l-16.27,7.14c-.26-.55-.52-1.09-.77-1.64a47.5,47.5,0,0,1,16.11-7.1Z"/><path class="cls-78" d="M2528.47,169.68,2513,177.5l-1.06-1.95c5-2.9,10-5.84,15.67-7.67Z"/><path class="cls-79" d="M2239.52,261.25c-5.7-.13-11.08,3.05-17.11-.25l17-2.13C2239.41,259.67,2239.46,260.46,2239.52,261.25Z"/><path class="cls-80" d="M2150,428.71l-2.71-1.58.33-2.86a31.28,31.28,0,0,0,7.13-12.62l2.84,1.56C2154.14,417.91,2152.08,423.31,2150,428.71Z"/><path class="cls-81" d="M2006.79,528.26c4.24,4.66,6.27,10.39,8.2,16.17C2010.31,540,2008.2,534.29,2006.79,528.26Z"/><path class="cls-79" d="M2184.46,269.65c5.31-4.15,11.45-4,17.29-5.34.14.73.27,1.46.41,2.19Z"/><path class="cls-82" d="M2825.79,126.88c-6.14.77-11.73-.81-17.28-2.65C2814.74,122.65,2820.36,124.43,2825.79,126.88Z"/><path class="cls-83" d="M2883,142.24c6.27.76,11.85,2.6,16.57,6.54C2893.62,147.47,2887.63,146.33,2883,142.24Z"/><path class="cls-74" d="M2479,195.31c4.8-3.51,9.8-6.67,16.22-7.62l-15.19,9.48Z"/><path class="cls-83" d="M3011.18,223.79l11.35,13.66c-.51.42-1,.84-1.52,1.27-4-4.38-8.31-8.49-11.26-13.74Z"/><path class="cls-73" d="M2390.55,233.22c-4.86,3.93-10.86,3.92-16.56,4.94C2379,234.66,2384.77,233.94,2390.55,233.22Z"/><path class="cls-76" d="M2146.93,277.67c5-3.52,11-4.08,16.89-4.79C2158.85,276.53,2152.86,277,2146.93,277.67Z"/><path class="cls-78" d="M2120.38,653.87l-15.2-10.23,1-1.55c5.59,2.63,10.52,6.31,15.37,10.14Z"/><path class="cls-84" d="M3057.68,305.26c-4.8-4.45-4.77-10.95-7.1-16.45C3055.14,293.36,3055.61,299.65,3057.68,305.26Z"/><path class="cls-70" d="M3062.6,325.26c3.54,5.21,4.48,11.06,4.34,17.18C3063.43,337.22,3063.41,331.14,3062.6,325.26Z"/><path class="cls-84" d="M2918.71,156.19a28.14,28.14,0,0,1,14.58,9.25l-15.51-7.56Z"/><path class="cls-76" d="M2000.33,417.46q-1.9,8-3.82,16C1994.62,427.21,1996.35,421.83,2000.33,417.46Z"/><path class="cls-85" d="M2983.28,197.39c5.69,2.51,8.82,7.9,12.31,12.94L2982,198.72C2982.42,198.28,2982.85,197.83,2983.28,197.39Z"/><path class="cls-82" d="M2952.24,175.58c5.5,2.07,10.46,4.93,14.13,9.63C2960.9,183.09,2956,180.14,2952.24,175.58Z"/><path class="cls-85" d="M2444.81,212.76l15.79-7.5.86,1.68c-4.61,3.8-10.7,4.69-15.71,7.68C2445.43,214,2445.12,213.38,2444.81,212.76Z"/><path class="cls-86" d="M2298.22,250.91l16.33-2.25c-5.08,3.45-10.58,4.23-16.2,4.33C2298.31,252.3,2298.26,251.61,2298.22,250.91Z"/><path class="cls-82" d="M2025.43,363.53a28.31,28.31,0,0,1,9.73-14C2033.73,355.45,2029.14,359.25,2025.43,363.53Z"/><path class="cls-84" d="M3071,380.28c-1.81-5.69-3.29-11.41-1.47-19.2C3072.5,368.46,3071.16,374.42,3071,380.28Z"/><path class="cls-83" d="M2062.76,322.33l-13.14,12,1.2,1.26q5.47-7.14,10.93-14.3Z"/><path class="cls-84" d="M3041.47,271.13l-9.32-15.62C3036.56,257.23,3039.56,261.58,3041.47,271.13Z"/><path class="cls-82" d="M2077.76,308.39c4.56-3.37,9-6.9,15.36-7.48l-14.29,9.26Z"/><path class="cls-82" d="M2673.62,123c-5.34,3-11.25,2.93-17,3.53C2661.79,122.78,2667.82,123.47,2673.62,123Z"/><path class="cls-73" d="M2694.3,120.91c5.42-3.13,11.27-1.45,17-1.57A26.45,26.45,0,0,1,2694.3,120.91Z"/><path class="cls-85" d="M2089.24,630.86c-5-3.19-10.07-6.44-14.84-12.12C2081.79,621.88,2085.06,624.54,2089.24,630.86Z"/><path class="cls-85" d="M2154,671.59c-6.2-.76-10.6-5-15.65-8C2144.71,664.14,2149.07,668.44,2154,671.59Z"/><path class="cls-85" d="M2034.73,576.52a27.38,27.38,0,0,1-8.42-14.8l10,13.8Z"/><path class="cls-85" d="M2619.85,134c4.89-3.27,10.58-3.55,16.24-4.05A33.14,33.14,0,0,1,2619.85,134Z"/><path class="cls-82" d="M2582.78,145.59c4.8-3.6,10.39-5.24,16.33-5.89C2594.36,143.44,2588.46,144.09,2582.78,145.59Z"/><path class="cls-85" d="M2015.35,381.37l-8,16.92C2006.76,392.62,2008.08,389.5,2015.35,381.37Z"/><path class="cls-87" d="M2787.17,121.36c-5.34.34-10.7,1.18-17.06-1.93C2776.88,118.83,2782.2,118.39,2787.17,121.36Z"/><path class="cls-88" d="M2180.3,504.39c.14,5.09-5.72,5.89-7.09,9.89l-4.2-2.92Z"/><path class="cls-69" d="M3069,417.92q.67-8.21,1.34-16.42l.69,0v16.31Z"/><path class="cls-89" d="M2842.75,360.44c.89-1.27,1.53-3.39,3.56-2.37,1.5.75,2,2.44,1.23,4.25-1.12,2.76-2.8,1.64-4.49.75Z"/><path class="cls-90" d="M3060.25,476.63c.15,3.12-.38,5.94-2.9,8.1C3056.66,481.53,3057.35,478.71,3060.25,476.63Z"/><path class="cls-91" d="M2253.82,706.14l-7.86-1.09C2249.8,703,2249.8,703,2253.82,706.14Z"/><path class="cls-92" d="M2848.49,371.7c3.15.14,5.82-1.53,9-2a14.75,14.75,0,0,1-9.06,4.76C2848.42,373.52,2848.45,372.61,2848.49,371.7Z"/><path class="cls-93" d="M2875.87,1003.89c-4-2.35-7-1.81-8.48,3.05-1.79-2-2-4,.33-5.79l7.71,0C2875.58,1002.09,2875.72,1003,2875.87,1003.89Z"/><path class="cls-94" d="M2143,416l5.26-3.15c.44,3.42-1.56,4.54-3.38,5.77Z"/><path class="cls-95" d="M1671.86,1071.06l-2.61.08c-.36-1-2.54-1.81-1.6-2.51s3.06-.27,4.65-.32C1672.16,1069.23,1672,1070.14,1671.86,1071.06Z"/><path class="cls-10" d="M2478.58,992.46c-4.57-3.81-2.48-9.26-3.06-13.88-2.08-16.68-3.51-33.44-5.19-50.18,8.47-4.28,17-5.91,25.55-.3l27.16,5.59a25.39,25.39,0,0,0,17.09-2.45c49.49-24.31,99.17-48.24,147.3-75.17,6.48-3.63,9.67-.56,13.09,3.73,10.78,13.54,16.17,29.42,19.59,46.08,2.56,12.5,2.4,12.51-9.94,16.94C2657,942,2602.28,956,2547.55,969.89A448.88,448.88,0,0,0,2490,988.2C2487.08,991.91,2482.38,991,2478.58,992.46Z"/><path class="cls-96" d="M2741.66,788.43c-8.43-17.15-12.22-35.65-15.82-54.2-3.64-18.76-3.2-37.76-2.73-56.71.19-7.73,1.81-15.42,3.68-23.24,3.61,31.45,9.87,62.32,17.5,92.92-.77,10.11,1.71,20.12.86,30.23C2744.81,781.38,2745.46,785.6,2741.66,788.43Z"/><path class="cls-97" d="M2489.06,774.61a181.09,181.09,0,0,1-7.83,32.38c-3.93-4.3-3-10-3.48-14.94a448.9,448.9,0,0,1-.57-83.11c.3-3.31-.06-6.68.29-10,.32-3,1.19-5.92,2.18-10.58,1.74,26.64,6,51.18,10.43,75.69A21.33,21.33,0,0,1,2489.06,774.61Z"/><path class="cls-98" d="M2144.69,1055.07l2.45,3.49c2.33,5.87,7.23,10.35,9,16.54l-188.3.2c-8.32,0-16.66.28-25-.12-4.3-.2-5.66,1.17-6.08,5.34-2.47,24.32-5.24,48.61-7.84,72.92q-5.22,48.84-10.29,97.72c-.42,4-1.8,5.86-6.2,5.44s-9.07.3-13.53-.2c-5-.57-6.09,1.87-5.85,6-1.47,1.2-3.15,1-4.74.46-19-6-38-12.07-55-22.81-7.6-4.78-10.76-11.1-10.7-20.11.07-12.48,2.61-24.5,5.29-36.51,4.85-21.76,10.95-43.2,17.21-64.59.8-2.72,1.53-5.52,3.9-7.43,6.23-19.37,13.58-38.45,18.43-58.16,7.46-30.29,27.17-47.88,55.09-58.32a143.83,143.83,0,0,1,36.57-8.7c3,4.59,2.44,10,3.7,15.06,3.75,15.06,9,29.11,22.69,38.31,15.79,10.66,38.54,8.67,50.21-4.57,6.5-7.38,8-16.41,8.51-25.87.31-6.3-1.65-12.83,1.65-18.86,8.19,2.28,16.3,4.9,24.58,6.79,30.89,7,51.21,28.05,69.36,52C2141.34,1051.15,2143.05,1053.08,2144.69,1055.07Z"/><path class="cls-10" d="M2045.84,990.3c.79,8.75,1.33,17.62-.16,26.24-5.19,30-37.26,42.26-62.22,24.12-14-10.19-19.62-25-23-41.07-.92-4.36-2.16-8.78-1.39-13.35l1.42-1c8,.44,9.09.16,8.64-15.3,1.51-11.07,2-21.43-5.22-31.64-12.61-17.71-15.93-38.81-18.68-59.87-.28-2.19.73-3,2.34-3.74,27.75-12.64,45.8-35.61,63.22-59.26,1.27-1.71,2.46-3.49,3.72-5.22a11.52,11.52,0,0,1,1.31-1.22c19.51,18.52,34.62,40.22,46.93,64,1.42,2.75.9,5.63.23,8.38-4.63,19-10.9,37.26-21.9,53.75-5.53,8.28-4.72,18.21-4.33,27.65.27,6.62,1.81,13.17,2.33,19.79C2039.44,987.09,2041.68,989.39,2045.84,990.3Z"/><path class="cls-99" d="M2327.47,903.91c0,14.1-7.35,21.76-19.45,20.15a13.84,13.84,0,0,1-3.42-.86c-13.72-5.65-17.85-30.47-6.72-40.29,6.15-5.43,14.17-5.5,20.58.2C2324.61,888.59,2327.93,895.48,2327.47,903.91Z"/><path class="cls-99" d="M2086.09,1172.19c-.24,5.65-1.37,11-4.35,15.67-4,6.35-9.56,11-17.5,10-7.65-.92-11.77-6.27-14-13.43-3.22-10.49,1-23.45,10.12-29.58a14.39,14.39,0,0,1,15.52-.94C2083.06,1157.78,2085.65,1164.53,2086.09,1172.19Z"/><path class="cls-100" d="M2612.73,393.1c-1.53,3.63-1.26,9.19-6,8.81-4.16-.33-5-5.12-5.07-9.09s1.31-7.76,5.62-7.63C2611.74,385.33,2611.47,390.14,2612.73,393.1Z"/><path class="cls-101" d="M2570,405.29c-.15,1,1.41,5.41-3.62,4.7-5.65-.79-5.87-5.86-6.16-10.29-.17-2.74-.34-6.77,3.56-6.23C2569,394.18,2570.6,398.56,2570,405.29Z"/><path class="cls-102" d="M1970.47,778.54c24.11-30.7,68.58-25.67,85.71,9.69.74,1.61-.12,1.77-1.4,1.54-3.91-4.13-7.59-8.51-11.79-12.34-19.5-17.78-45.16-18.15-66.68-1.12-1.48,1.17-2.9,2.42-4.35,3.64C1970.6,780.39,1970,780,1970.47,778.54Z"/><path class="cls-103" d="M1970.47,778.54,1972,780l-6,6.82A13.16,13.16,0,0,1,1970.47,778.54Z"/><path class="cls-104" d="M2054.78,789.77l1.4-1.54c1.72,1.95,3.26,3.95,2.34,7.65Z"/><path class="cls-105" d="M3069.93,846.92c-18.92,23.71-54.52,30.86-82.44,16.55-27.49-14.08-42-46.86-33.91-76.38,8.54-31,36-51.47,66.84-49.84,2.66,5.25,1.56,10.86,1.59,16.35-1.45,2.49-4,2.41-6.3,2.38-20.84-.27-40.4,19.31-44.15,36.43-4.31,19.68,4.14,41.54,21.11,52.11,18.55,11.56,40.51,9.93,57.71-4.28,1.82-1.51,3.41-3.35,5.81-4C3062.42,837.66,3066.81,841.47,3069.93,846.92Z"/><path class="cls-106" d="M3021.66,754c-3.35-5.38-.62-11.21-1.24-16.79,26-1,52.71,18.22,61.09,44.06,1.53,3.28-1.06,4.16-3.16,5-3.47,1.38-6.93,2.91-10.76,3.05-2.22-.26-3.1-2-4-3.68-8.07-16.39-20.67-26.88-39-29.92A4.16,4.16,0,0,1,3021.66,754Z"/><path class="cls-107" d="M3045.45,879.63c16.53-3.65,34.64,8,38.58,25.25,3.55,15.49-3.4,30.65-16.42,37.6-14.8,7.91-30,5.42-42-6.87a13,13,0,0,1,6.44-6.31c2.53.19,4.21,2,6.2,3.27,8.62,5.41,18.56,5.14,26.65-.75,7.5-5.47,11-16.47,8.36-26.23-2.29-8.42-10.92-15-20.7-15.86-2.11-.19-4.29.31-6.31-.64C3044.41,886.08,3047.77,882.61,3045.45,879.63Z"/><path class="cls-108" d="M3066.75,788.51c4.71-2.84,11.39-1.63,14.76-7.21,6.31,16.4,5.79,32.6-1.38,48.62-7,.82-12.34-1.49-15.81-7.76C3066.93,811.07,3065.63,799.7,3066.75,788.51Z"/><path class="cls-109" d="M2981.42,926.91c5.93,0,11.87.08,17.81,0,4.17-.06,5.2,2.27,5.17,5.91s-.16,6.83-5,6.82c-12.12,0-24.23,0-36.34,0-5,0-4.53-3.72-4.68-7.11-.16-3.76,1-5.79,5.22-5.63C2969.53,927.08,2975.48,926.91,2981.42,926.91Z"/><path class="cls-109" d="M2980.63,919.61c-5.45,0-10.91-.13-16.35,0-4.87.14-5.83-2.48-6-6.71-.14-4.63,1.5-6.26,6.16-6.15,11.13.25,22.27.19,33.4,0,4.36-.06,6.5,1.21,6.59,6,.1,5.07-2.22,6.8-6.8,6.78C2992,919.59,2986.31,919.6,2980.63,919.61Z"/><path class="cls-2" d="M2980.73,898.51c-5.92,0-11.85-.11-17.76,0-4.7.12-4.54-2.94-4.57-6.17s.37-5.59,4.48-5.56q18.48.16,36.95,0c4.7-.05,4.52,2.95,4.56,6.18s-.39,5.63-4.48,5.55C2993.52,898.42,2987.13,898.51,2980.73,898.51Z"/><path class="cls-110" d="M3031.78,929.62c-.79,3.3-3.27,4.85-6.16,6-9.46-11.31-11.27-23.72-5.29-37.22,4.4-1.77,6.5.76,8.08,4.29C3026.35,912.05,3029.11,920.83,3031.78,929.62Z"/><path class="cls-111" d="M3065.36,822.42c3.95,4.43,9.64,5.4,14.77,7.5a42,42,0,0,1-10.2,17L3057,837C3056.87,830.45,3060.72,826.21,3065.36,822.42Z"/><path class="cls-112" d="M3027.42,902.9c-1.43-3-4.11-4-7.09-4.51a31,31,0,0,1,18.08-16.9c2.94,2,3.77,4.87,3.56,8.21C3036.73,893.67,3032.81,899.09,3027.42,902.9Z"/><path class="cls-113" d="M3041.27,889.53q-1.42-4-2.86-8a11.63,11.63,0,0,1,7-1.86c5.63,2.71,3.21,5.63.22,8.56C3044.56,889.79,3043.28,890.86,3041.27,889.53Z"/><path class="cls-2" d="M2872.68,948.61a442.23,442.23,0,0,0-5.58-47.17c-4.68-8.85-3.36-18.08-2.2-27.47,1.22-9.82,4-18.34,13.62-23,10.48-5,14-14.13,14.63-24.91,1.27-5.48,5.43-10.21,4.47-17.26-2.57,2.28-2.18,5.72-4.67,7,.1,1-3.23-1-1.37,1.57,1.38,2.28,2.45,4.61,1.76,7.36-3.52,8.24-5.61,17.69-16.62,19.58-6.36.62-12.74,2.67-19-.42a5,5,0,0,1-2.31-2.3c1.17-5.48,4.56-10.77,1.49-16.63-3.12-7-5.86-8.53-11-6s-6.44,7-3.33,13.2c.86,1.7,2.08,3.18,2.84,5a9.36,9.36,0,0,1,.62,3.23,6.16,6.16,0,0,1-1.46,4.27c-7,3.33-12,.19-16.46-4.87-3.6-3.91-3.19-8.15-2.08-13.09,2-8.69,8.15-15.16,11.13-23.26.59-1.6,2.24-2.32,4-2.29q27.42.1,54.86.21c8.88,0,12.56,3.63,12.57,12.4q0,54.84,0,109.68c0,9.27-3,12.12-12.47,12.19-5.22,0-10.48.37-15.66-.09-5.89-.52-8.41,1.43-7.48,7.49C2873.25,944.78,2872.8,946.72,2872.68,948.61Z"/><path class="cls-2" d="M2836.26,902.39c-2.78,11.31-1.42,23-3.24,34.43-.33,2.06.13,4.27-1.25,6.12.44-5.58-1.57-8.27-7.69-7.48-4.22.55-8.55.13-12.83.1-9.49-.07-12.42-2.79-12.51-12.28-.15-14.26,0-28.52,0-42.78q0-32.1,0-64.19c0-11.82,3.28-15,15.34-15,5.95,0,11.89.05,17.84.07,2.38,3.92.38,7.41-1.35,10.71-2.55,4.83-4.89,9.78-7.59,14.51-3.5,6.14-4,12,.13,18,4.4,9.12,11.94,16.72,12.82,27.55C2836.71,882.24,2839.78,892.26,2836.26,902.39Z"/><path class="cls-109" d="M2853.65,784.13c-15.91,0-31.82-.07-47.72,0-4.36,0-7.31-.63-7.34-6.08,0-5.16,2.55-6.68,7-6.68h96.15c4.45,0,7,1.53,7,6.69,0,5.47-3,6.08-7.34,6C2885.46,784.06,2869.55,784.13,2853.65,784.13Z"/><path class="cls-114" d="M2854.25,747.05c16.14,0,32.28,0,48.43,0,3.36,0,6.1.06,6,4.71-.09,4.2-1,6.79-5.91,6.78q-49.14-.13-98.28,0c-4.29,0-5.91-1.87-5.87-6,0-4.59,2.62-5.45,6.48-5.43C2821.49,747.09,2837.87,747.05,2854.25,747.05Z"/><path class="cls-115" d="M2821.58,844.25c-4.76-4.6-4.42-9.38-1.89-15.3,4-9.24,11.1-17.1,12.18-27.59,3-3.37,6-7.19,9.29-.28-6.46,9.49-11.72,19.56-14.74,30.69-.69,2.53,1.14,4.4,2.14,6.46C2827.47,841.67,2825.65,844.26,2821.58,844.25Z"/><path class="cls-116" d="M2183.3,447.51c1.62-.54,2.67.75,4,1.23,0,.91,0,1.82,0,2.72A8.57,8.57,0,0,1,2183.3,447.51Z"/><path class="cls-117" d="M2834.5,1002.39a12.48,12.48,0,0,0,6.57,4.67c2.31.75,4.34,2,2.36,5-5.38.92-10.78.6-16.18.28,0-2.27.07-4.55.11-6.82C2828.34,1001.21,2831.19,1001.28,2834.5,1002.39Z"/><path class="cls-8" d="M2170.25,490.1c-.85-1.71-1.44-3.6-3.33-4.56q-7.23-19-14.47-38.06c-.91-2.4-1.73-4.83-2.59-7.25,3.8-1.49,5.41,2.79,8.48,3.21,4.53,1.78,9.22.26,13.84.64,3.53.29,7,.5,10.27,1.87,2.52,1,3.64,3.28,4.79,5.51,5,13.65,8.86,27.79,17.72,39.69,1.67,2.25.74,3.48-1.38,4.21-2.43.83-5,1.39-7.45,2.08l-14.42,4.09C2174.87,500.75,2174,494,2170.25,490.1Z"/><path class="cls-118" d="M2191.82,443.24c-2.67-1.27-5.38-2.34-8.43-1.6a12.74,12.74,0,0,1-2.47,0c-.93,0-1.85.08-2.77.14-1.8.13-3.6.33-5.39.53a80.72,80.72,0,0,1-11.2.73,7.46,7.46,0,0,1-2.16-.29,8.93,8.93,0,0,1-2.82-1.84c-.86-.71-1.76-1.32-2.58-2.06-3.42-3.08-5-7.19-6.52-11.44a6.66,6.66,0,0,1-.56,1,5.93,5.93,0,0,0-.38,1.37,3.92,3.92,0,0,0,.44,2.66c.81,1.54,2.16,2.57,3.15,4a40.34,40.34,0,0,0,3,4.36c1.86,2.07,4.42,3.86,7.23,4,7.63.43,15.64.25,23,2.69,1.32.44,2.28,2,4,1.23a26.6,26.6,0,0,1,12.25,5.29c3.79,2.81,3.43-.34,3.63-2.62A19.94,19.94,0,0,0,2191.82,443.24Z"/><path class="cls-119" d="M2215,478.66l-4.8-7c-.52-1.43.37-1.78,1.5-1.94a18.63,18.63,0,0,1,10.76,13c-.26,1.09-.73,1.92-2.09,1.6Z"/><path class="cls-120" d="M2230.31,481.35l-3.22,3-2.16.42-.73-.68c.14-2.8,1.79-4.2,4.4-4.69C2229.68,479.61,2230.45,480.07,2230.31,481.35Z"/><path class="cls-121" d="M2220.4,484.34l1.3-1.31c1.37-.84,2.09,0,2.7,1.06a3,3,0,0,0,.53.7C2223.15,487.37,2221.64,487.3,2220.4,484.34Z"/><path class="cls-21" d="M2337,1160.9c1.64,1.32,3.36,2.54,4.89,4,3.35,3.11,4.85,1.51,5.69-2.08l6.3,1c2,22.89,1,45.75-1.05,68.58-1.22,2.63-3.53,2.87-6,2.59-4-.47-8-.46-12-.56-5.27-.13-8.15-2.11-6.26-7.89a135.21,135.21,0,0,1,5.34-30.63A86.21,86.21,0,0,0,2337,1160.9Z"/><path class="cls-122" d="M2328.63,1226.55c-.11,3.81.89,6.64,5.55,5.79,6.24-1.13,12.44,2.17,18.67.07-.15,1.45-.31,2.9-.47,4.35-8.49,2.33-17,3.38-25.47,0C2328.08,1233.46,2326.4,1229.68,2328.63,1226.55Z"/><path class="cls-21" d="M2821.58,844.25l7-6c4.5,4.06,9.08,7.91,15.84,5.58,4.21-.39,8.36-1.48,12.63-1.24,6.72,2,13.5,0,20.25.28,3.65,1.8,4.61,4.58,3.1,8.3-.07.23-.07.57-.22.66-17,10.53-14,27.29-13.55,43.26.06,2.13.32,4.25.49,6.37-10.22,2.19-20.44,4.62-30.84.95-.47-7.28-1-14.56-1.4-21.85-.59-11.34-3.87-21.64-11.17-30.52C2822.34,848.38,2821.13,846.59,2821.58,844.25Z"/><path class="cls-123" d="M2858.75,956.87c-6.54,0-20.07,0-15.52,1.39L2850,935.5c1.42-1.18,2.78-1.25,4.06.23C2856.45,942.59,2859,949.42,2858.75,956.87Z"/><path class="cls-124" d="M2854,935.73l-4.06-.23c.11-1.77-.53-3.75,1.49-5.13C2853.59,931.6,2853.51,933.82,2854,935.73Z"/><path class="cls-125" d="M2834.5,1002.39c-2.77.13-5.83-.4-7.14,3.09q.06-3.54.13-7.08c1.35,3.41,4.49,2.61,7.11,3A.66.66,0,0,1,2834.5,1002.39Z"/><path class="cls-126" d="M1667.1,1081.16c2.32.18,3.57,3.28,6.26,2.35v-9.7c8.64,10.7,9.87,23.8,11.13,36.62.91,9.2,3.77,18.54.38,27.86l-11.57,1.7c-2.32-2.08-1.4-4.85-1.35-7.31.28-13.65-.81-27.23-1.47-40.84C1670.28,1087.89,1668.09,1084.76,1667.1,1081.16Z"/><path class="cls-127" d="M2361.63,1237.89c-4.74-13.05-3-26.46-1.94-39.78.19-2.28.54-6.06,3.51-6.13,2.54-.07,2.54,3.51,3.22,5.64,2.24,7,4.63,13.86,9.76,19.37a150.16,150.16,0,0,1-8.64,23.15Z"/><path class="cls-128" d="M2360,1243.56c7.13,1.09,7.17,1.21,2.93,8.92-.77.56-1.69,1.26-2.54.92-7.27-2.88-15.45-3.74-21.47-9.46Z"/><path class="cls-129" d="M2338.91,1243.94c7.86,3.25,15.66,6.66,24,8.54a2.68,2.68,0,0,1-1.58,3c-7.66-2.9-15.36-5.7-23-8.76C2335.46,1245.52,2335.59,1244.28,2338.91,1243.94Z"/><path class="cls-130" d="M2396.26,1239.37c-1.9-.12-3.41-1.81-3-4.55.46-3.26,2.55-5.84,5.81-6.09a3.48,3.48,0,0,1,3.45,4.35C2401.76,1235.79,2401.66,1239.54,2396.26,1239.37Z"/><path class="cls-16" d="M2218.75,448.85c1.58-6.52-1.73-12.59-1.54-19.14.64-21.71,19.24-42.44,40.2-43.77,26.38-1.67,46.88,14.51,50.12,38.77,3.76,28.25-16.63,51.05-44.86,52-6.55.22-13.68-1-19.53-5.19-.83-1.37,0-2.37.71-3.42.6-.71,1.28-1.34,1.92-2,1.73-4-2.26-5.54-3.64-8.18-1.13-2.16-4.6-3.93-1-6.78,7.4,2.85,13.84,7.88,22.63,7.28,11.68-.81,22.22-8.27,25.38-19.41,3.24-11.42-1.56-24.83-11-30.8-11-6.93-23.82-6.17-33,2-10.67,9.44-12.87,21.14-6.4,34,1,1.89,2.35,3.6,2.37,5.86-1.42,4.37-5.14-1.11-7,1.63-2.32,2.18-4.71,4.19-8.15,4.1A19.17,19.17,0,0,1,2218.75,448.85Z"/><path class="cls-131" d="M2226,455.8c1.82-2.46,5.54-2.35,7.05-5.22,6.25-.54,15.37,11.65,12.85,17.16a2,2,0,0,1-.75.91c-1.94.65-3.28,2.18-4.9,3.31-4.28-.94-6.43-4.23-8.42-7.68C2231.27,460.49,2226.92,459.32,2226,455.8Z"/><path class="cls-132" d="M2231.82,464.28c3.81,1.2,5.39,4.92,8.2,7.26.54.2.8.5.76.88s-.14.65-.29.65c-1.61,4.95-4.71,8.07-10.18,8.28l-1.68-1.36c-4.56-2.51-6.24-6.1-4.19-11.1Z"/><path class="cls-131" d="M2224.44,468.89a22.33,22.33,0,0,0,4.19,11.1l-4.23,4.1-2.7-1.06c-2.16-5.23-6-9.1-10.15-12.77-1.87-3.43,1.48-4.21,3-5.9l0,0C2218.8,463.74,2219.91,470.09,2224.44,468.89Z"/><path class="cls-133" d="M2191.82,443.24c-2.89-.11-5.85.17-8.43-1.6-.12-1.28-.82-3.47,1.5-2.64C2187.38,439.89,2190.45,440.33,2191.82,443.24Z"/><path class="cls-134" d="M2175.52,438.05c-1.16.29-1.84.69-2.25.5a9.43,9.43,0,0,1-2-1.56c.5-.19,1.09-.64,1.49-.51A16.18,16.18,0,0,1,2175.52,438.05Z"/><path class="cls-135" d="M2329.28,1117.51a4.42,4.42,0,0,1,3.57,3.84,1.87,1.87,0,0,1-1.86,2.35,3.14,3.14,0,0,1-3.36-2.81A3,3,0,0,1,2329.28,1117.51Z"/><path class="cls-135" d="M2324.94,1126.76c-2.36-2.27-4-4-2.39-6.89.23-.41,1.45-.79,1.74-.57C2326.83,1121.26,2326.2,1123.6,2324.94,1126.76Z"/><path class="cls-136" d="M2855.82,358.57c-.33,2.14-.61,4.61-3.63,3.9-1.82-.42-2.41-2.25-1.75-4,1.09-2.9,3.12-2.21,5.15-1.09.52.18.73.42.62.72S2856,358.57,2855.82,358.57Z"/><path class="cls-137" d="M2855.82,358.57a2.7,2.7,0,0,0-.22-1.22c0-1.38,0-2.76,0-4.15l2.78,1.13C2857.84,355.93,2857.81,357.84,2855.82,358.57Z"/><path class="cls-138" d="M2137.43,403.16c0,1.51-.37,3.18-2,3.23s-2.16-1.6-2.15-3.09c0-1.66.08-3.69,2.35-3.53C2137.26,399.89,2137.36,401.7,2137.43,403.16Z"/><path class="cls-139" d="M1671.8,1055.55c-.11,1.58-.36,3-1.7,3.14-2,.24-3-1.37-3.37-3a2.23,2.23,0,0,1,2.45-2.73C1670.91,1053,1671.33,1054.54,1671.8,1055.55Z"/><path class="cls-140" d="M1677.69,1052.43c-.48,1.57.38,4.15-2.49,4-1.77-.09-2-1.78-1.72-3.15.72-3.31,2.69-1.14,4.22-.81Z"/><path class="cls-27" d="M2028.21,949.16c-4.08,12.47-14,19.24-26.82,19.2-13,0-23.1-6.12-26.61-16.76C1993.07,962.71,2010.68,962.83,2028.21,949.16Z"/><path class="cls-141" d="M2023.16,894.33c-.07-3.55-.14-7.6,3.62-7.74,3.25-.12,3.56,3.67,3.59,6.65,0,3.27-.39,7-4,7.2C2022.17,900.66,2023.55,896.48,2023.16,894.33Z"/><path class="cls-142" d="M1970.34,892.08c.15-2.88-.08-6.6,3.33-6.11,4,.57,3.44,4.91,3.75,8,.23,2.35,0,5.55-3,5.38C1969.84,899.09,1970.74,894.86,1970.34,892.08Z"/><path class="cls-12" d="M3065.36,822.42,3057,837c-10.91,10.68-23.64,17.25-39.24,17.1-24.85-.23-46.75-20.22-49.09-44.7-2.48-26,15.16-50.22,40.25-54.86,4.14-.76,8.51-.34,12.77-.47,22.64,1.55,36.73,14.27,45.09,34.47C3069.56,800,3069.4,811.26,3065.36,822.42Z"/><path class="cls-12" d="M3041.27,889.53l4.4-1.34c11.7-1.8,21.09,1.84,27.31,12.12,5.19,8.58,4,20.14-2.52,28.75-9.21,12.16-26,12.4-38.68.56-6.47-8.09-7.6-17-4.36-26.72C3030.76,897.12,3034.94,892.21,3041.27,889.53Z"/><path class="cls-143" d="M2844.3,837.2c-6.35-7.89-7.26-13.13-3.06-17.52,6.41-6.69,13.72-4.8,17.19,4.44C2857,832.27,2850.61,838.18,2844.3,837.2Z"/><path class="cls-144" d="M2880.38,851.15c-1-2.77-2.07-5.53-3.1-8.3,6.8-2.39,10.67-7.35,12.43-14.17.47-1.81.78-3.74,2.67-4.77,1.64-.39,2.5.1,2.12,1.93C2894.31,836.8,2892.43,846.81,2880.38,851.15Z"/><path class="cls-145" d="M2844.3,837.2c4.15-.8,9-.86,7.44-7.43-.24-1,.55-2.54,1-2.23,4.75,3.42,3.38-3.08,5.71-3.42,2.84,6.24,2.17,12-2.37,17.23-3.95,1-8.22,4.86-11.36-1.27C2844.57,839.12,2844.43,838.16,2844.3,837.2Z"/><path class="cls-146" d="M2894.5,825.84l-2.12-1.93L2890,817c-.36-1.39.12-2,1.58-1.68,2-.91,2.14-2.9,2.6-4.69s-.71-4.94,2.79-4.51c3,.36,3,3.06,3.13,5.5.17,3.57-2,6.2-3.42,9.14C2895.89,822.44,2895.23,824.15,2894.5,825.84Z"/><path class="cls-147" d="M2844.7,840.08c3.47,3.26,7.61.52,11.36,1.27l1,1.22c-4,2.89-8.21,2.95-12.63,1.24Z"/><path class="cls-148" d="M2891.59,815.34,2890,817c-1.21-.68-3.06-1.9-2.25-2.9C2889.12,812.45,2890.46,814.31,2891.59,815.34Z"/><path class="cls-149" d="M2240.49,473.07c-.15-.51-.31-1-.47-1.53,1.23-1.8,2.67-3.24,5.11-2.89l-2,2.91Z"/><path class="cls-150" d="M2214.56,464.36c-.23,2.35-3.57,3.13-3,5.9l-1.32,1.39C2207.75,467.65,2208,467.27,2214.56,464.36Z"/><path class="cls-151" d="M2245.89,467.74c.42-5.15-7-15-12.85-17.16,3.46-6.42,4.66,1.14,7.09,1.15h0c1.62,4.26,5.13,7.18,7.83,10.66S2248.66,466.77,2245.89,467.74Z"/><path class="cls-8" d="M2829.91,956.92c1.58-4.53,1.55-9.28,1.86-14,.21-8.42.13-16.84.47-25.26.2-5.18.32-10.38,3-15.05,7-2.38,14.28.41,21.38-1.27,3.54-.83,7.28-1.89,10.95-.18,3.58,11.29,6.65,22.61,4.84,34.7a34.25,34.25,0,0,0,.24,12.72c.14,2.77.27,5.53.41,8.3l2.34,44.28c-2.63,2.27-5.43,2-8.31.55-5.91-10.18-7.36-21.59-8.93-32.93-.51-3.7-.6-7.47-1.27-11.16,0-7-2-13.66-4.12-20.24-.49-.81-.08-2-1.12-2.6a14.69,14.69,0,0,0-.46,1.93c-1.95,7.69-4.7,15.12-6.52,22.83-2.47,11.53-4.33,23.16-6.49,34.74-.54,2.93-.43,6.27-3.77,7.92-4.09,1.13-6.84-.39-8.46-4.21C2824.41,984.05,2824.22,970.2,2829.91,956.92Z"/><path class="cls-152" d="M2771.74,183.65c-24.75-1.1-45.56,19.12-45.46,47a39.36,39.36,0,0,0,18.78,32.68c8.3,5.1,12.74,12.12,15.85,20.44,2.3,6.14,3.57,12.69,5,19.13,2,8.76,7,12.15,15.86,10.26,4.21-.9,8.39-1.95,12.6-2.83,11.8-2.47,14.31-6.26,11.59-18-3.73-16.11-6-32,4.36-46.86,2.81-4,2.91-9.11,3.38-14C2816.19,206,2797.62,184.8,2771.74,183.65Zm12.9,102.71c-3.29.43-6.73,3-8.43-2.71-2.91-9.71-6.39-19.25-10.1-30.25,6.2,3.84,7.14-1.27,9.53-4.3,3.57,3,7.15,5.6,11.2.3,1,10.92,1.59,20.84,2.92,30.67C2790.39,284.73,2788.45,285.86,2784.64,286.36ZM2806,245.42c-5.82,10-6.85,19.89-6.62,30.62,0,.77,0,1.54.08,2.29.31,2.78.06,5.33-3.45,5.53-4,.22-2.54-3.07-2.72-5-1.25-12.65-2.33-25.33-3.53-38.63-3.43,1.08-4.35,3.67-6,5.49s-3.09,2.45-5.1.72c-2.83-2.43-5.45-3.87-7.11,1.23-.88,2.7-2.75,2.29-4.79,1.14s-4-2-7.42-3.63c4.51,13.35,8.64,25.2,12.41,37.18.63,2,4.15,4.93-.64,6.81s-4.72-2-5.82-4.66c-4.13-9.84-8.83-18.51-18.72-24.77-17.87-11.3-21.7-36-10.09-54.16a40.29,40.29,0,0,1,53.71-13.06C2808.79,203.17,2816.72,227,2806,245.42Z"/></g></g></svg>