<svg xmlns="http://www.w3.org/2000/svg" version="1.1" xmlns:xlink="http://www.w3.org/1999/xlink" xmlns:svgjs="http://svgjs.com/svgjs" width="512" height="512" x="0" y="0" viewBox="0 0 100 100" style="enable-background:new 0 0 512 512" xml:space="preserve" class=""><g>
<g id="XMLID_77_">
	<path id="XMLID_266_" d="M67.9,53.7l-9.6-9.6c-0.5-0.5-1.1-0.7-1.8-0.7v0H33.9c-1.4,0-2.5,1.1-2.5,2.5v40.6c0,1.4,1.1,2.5,2.5,2.5   h32.2c1.4,0,2.5-1.1,2.5-2.5v-31h0C68.6,54.8,68.4,54.2,67.9,53.7z M36.4,84V48.4H54v7.1c0,1.4,1.1,2.5,2.5,2.5h7.1v26H36.4z" fill="#000000" data-original="#000000"></path>
	<path id="XMLID_302_" d="M83.1,34.1c0-0.3,0-0.7,0-1c0-12.2-9.9-22.1-22.1-22.1c-7.9,0-15.2,4.3-19.1,11.1   c-1.1-0.2-2.2-0.3-3.3-0.3c-7.7,0-14.5,4.7-17.3,11.7c-0.1,0-0.2,0-0.3,0C12.2,33.5,5,40.7,5,49.6c0,8.9,7.2,16.1,16.1,16.1h2.8   c1.4,0,2.5-1.1,2.5-2.5s-1.1-2.5-2.5-2.5h-2.8c-6.1,0-11.1-5-11.1-11.1s5-11.1,11.1-11.1c0.6,0,1.1,0,1.6,0.1   c1.3,0.2,2.5-0.6,2.8-1.8c1.6-5.9,7-10,13.1-10c1.4,0,2.7,0.2,3.9,0.6c1.2,0.4,2.5-0.2,3-1.4c2.8-6.1,8.9-10,15.5-10   c9.4,0,17.1,7.7,17.1,17.1c0,0.9-0.1,1.8-0.2,2.6c-0.1,0.7,0.1,1.4,0.5,1.9c0.4,0.5,1,0.9,1.7,1c5.6,0.6,9.9,5.3,9.9,11   c0,6.1-5,11.1-11.1,11.1h-2.8c-1.4,0-2.5,1.1-2.5,2.5s1.1,2.5,2.5,2.5h2.8c8.9,0,16.1-7.2,16.1-16.1C95,42.2,90,35.9,83.1,34.1z" fill="#000000" data-original="#000000"></path>
</g>
</g></svg>