<svg xmlns="http://www.w3.org/2000/svg" version="1.1" xmlns:xlink="http://www.w3.org/1999/xlink" xmlns:svgjs="http://svgjs.com/svgjs" width="512" height="512" x="0" y="0" viewBox="0 0 6.3499999 6.3500002" style="enable-background:new 0 0 512 512" xml:space="preserve" class=""><g><g id="layer1" transform="translate(0 -290.65)"><path id="path9551" d="m.99803884 292.14575-.100769-.42219c-.027826-.12598-.1424437-.21353-.2713013-.20723-.1676123.008-.28569659.16771-.2439128.33022l.2635499 1.0914c.034213.14167.1765313.229.3183268.19534l1.09192296-.26148c.3438205-.0834.2187636-.5991-.1250569-.51573l-.5250325.1266c.3634816-.45901.8991221-.77976 1.5285887-.84697 1.2447641-.13292 2.3558162.76493 2.488737 2.00969.028588.36279.5765208.3037.5270998-.0568-.1530798-1.43356-1.3734172-2.50112-2.9277284-2.48641-.9124758.0902-1.5757793.48172-2.02442426 1.0436zm3.29178876 2.62465c-.3579755.0733-.2287844.6122.1235067.51521l.5245158-.1266c-.3634835.45886-.899056.7782-1.5285889.84542-1.244765.13292-2.3552993-.76286-2.48822036-2.00763-.012748-.13856-.1306388-.24358-.2697509-.24029-.15631.004-.2750712.14197-.2557984.29714.1632871 1.52913 1.54096696 2.64169 3.07009706 2.4784.7693279-.0821 1.4318755-.47491 1.8805054-1.03611l.1023194.42271c.064434.37006.6238184.23612.5136637-.12299l-.2619997-1.09192c-.029792-.12595-.1463125-.21186-.2979145-.19921z" font-variant-ligatures="normal" font-variant-position="normal" font-variant-caps="normal" font-variant-numeric="normal" font-variant-alternates="normal" font-feature-settings="normal" text-indent="0" text-align="start" text-decoration-line="none" text-decoration-style="solid" text-decoration-color="rgb(0,0,0)" text-transform="none" text-orientation="mixed" white-space="normal" shape-padding="0" isolation="auto" mix-blend-mode="normal" solid-color="rgb(0,0,0)" solid-opacity="1" vector-effect="none" paint-order="stroke fill markers" fill="#000000" data-original="#000000"></path></g></g></svg>