<svg xmlns="http://www.w3.org/2000/svg" version="1.1" xmlns:xlink="http://www.w3.org/1999/xlink" xmlns:svgjs="http://svgjs.com/svgjs" width="512" height="512" x="0" y="0" viewBox="0 0 128 128" style="enable-background:new 0 0 512 512" xml:space="preserve" class=""><g><g><path d="M100.42,51.587A36.42,36.42,0,1,0,64,88.007,36.461,36.461,0,0,0,100.42,51.587ZM64,84.507a32.92,32.92,0,1,1,32.92-32.92A32.957,32.957,0,0,1,64,84.507Z" fill="#000000" data-original="#000000" class=""></path><path d="M64,23.167a28.42,28.42,0,1,0,28.42,28.42A28.452,28.452,0,0,0,64,23.167Zm0,53.34a24.92,24.92,0,1,1,24.92-24.92A24.948,24.948,0,0,1,64,76.507Z" fill="#000000" data-original="#000000" class=""></path><path d="M64,41.122A9.78,9.78,0,0,0,51.407,56L62.763,67.358a1.748,1.748,0,0,0,2.474,0L76.593,56A9.781,9.781,0,0,0,64,41.122ZM74.119,53.527,64,63.647,53.881,53.527a6.28,6.28,0,0,1,8.882-8.881,1.75,1.75,0,0,0,2.474,0,6.28,6.28,0,0,1,8.882,8.881Z" fill="#000000" data-original="#000000" class=""></path><path d="M127.766,110.208l-19.48-33.741.26-10.4,9.287-13.484a1.747,1.747,0,0,0,0-1.984l-9.287-13.484-.409-16.367a1.749,1.749,0,0,0-1.169-1.606L91.523,13.7,81.584.685A1.747,1.747,0,0,0,79.692.07L64,4.76,48.307.07a1.744,1.744,0,0,0-1.891.615L36.477,13.7l-15.445,5.44a1.75,1.75,0,0,0-1.168,1.606l-.41,16.367L10.167,50.6a1.747,1.747,0,0,0,0,1.984l9.287,13.484.26,10.4L.234,110.208A1.754,1.754,0,0,0,.261,112a1.772,1.772,0,0,0,1.593.827L14.01,112.1h0l4.827-.289L21,116.139h0l5.449,10.891a1.748,1.748,0,0,0,1.512.966h.053a1.75,1.75,0,0,0,1.515-.875L44.9,100.5l1.517,1.986a1.746,1.746,0,0,0,1.892.614L64,98.414,79.693,103.1a1.745,1.745,0,0,0,1.891-.614L83.1,100.5l15.368,26.618a1.748,1.748,0,0,0,1.515.875h.053a1.748,1.748,0,0,0,1.512-.966L107,116.139h0l2.164-4.325,4.827.289h0l12.155.727a1.778,1.778,0,0,0,1.594-.827A1.754,1.754,0,0,0,127.766,110.208Zm-19.548-1.958a1.742,1.742,0,0,0-1.67.964l-1.225,2.45L92.346,89.186l6.236-2.2,12.37,21.425ZM19.978,83.01a1.841,1.841,0,0,0,1.053,1.025l5.028,1.771-13.2,22.859-7.971.477Zm15.677,6.176L22.677,111.664l-1.225-2.449a1.75,1.75,0,0,0-1.565-.967q-.053,0-.105,0l-2.734.164,12.37-21.426Zm-7.529,33.37-3.573-7.141L38.215,91.752,42.6,97.49ZM79.537,99.4,64.5,94.911a1.761,1.761,0,0,0-1,0L48.464,99.4l-2.377-3.112h0l-7.146-9.357a1.977,1.977,0,0,0-.809-.587L29.21,83.205h0l-5.876-2.069L22.94,65.454a1.749,1.749,0,0,0-.309-.948l-8.9-12.919,8.9-12.919a1.746,1.746,0,0,0,.309-.948l.393-15.682,14.8-5.212a1.746,1.746,0,0,0,.81-.588L48.463,3.77,63.5,8.263a1.761,1.761,0,0,0,1,0L79.536,3.77l9.523,12.468a1.746,1.746,0,0,0,.81.588l14.8,5.212.392,15.682a1.749,1.749,0,0,0,.309.948l8.9,12.919-8.9,12.919a1.746,1.746,0,0,0-.309.948L104.7,79.942l-.03,1.193-5.876,2.07h0l-8.922,3.143c-.556.156-.942.76-1.271,1.193l-6.684,8.751,0,0Zm20.337,23.152L85.4,97.49l4.383-5.738,13.661,23.663Zm15.264-13.891-13.2-22.858,5.027-1.771a1.847,1.847,0,0,0,1.053-1.025l15.087,26.131Z" fill="#000000" data-original="#000000" class=""></path></g></g></svg>