<?xml version="1.0" encoding="UTF-8"?>
<svg id="Layer_2" data-name="Layer 2" xmlns="http://www.w3.org/2000/svg" viewBox="0 0 138.85 121.04">
  <defs>
    <style>
      .cls-1 {
        fill: #dbd9d8;
      }

      .cls-1, .cls-2 {
        stroke-width: 0px;
      }

      .cls-2 {
        fill: #969696;
      }
    </style>
  </defs>
  <g id="Layer_1-2" data-name="Layer 1">
    <g>
      <path class="cls-2" d="M81.2.34c2.31.17,4.6.43,6.88.8,9.86,1.63,19.33,5.66,27.27,11.73,22.19,16.96,29.6,47.23,18.17,72.62-3.71,8.23-9.25,15.61-16.19,21.39-.98.82-2,1.61-3.03,2.36-10.06,7.32-21.36,10.46-33.56,11.7-2.52.26-2.58.2-2.58-2.31,0-11.47,0-22.94-.02-34.42,0-.93.11-1.38,1.22-1.46,1.48-.1,3-.21,4.43-.72,1.66-.49,3.3-1.05,4.86-1.82,2.57-1.18,4.75-2.88,6.54-5.05.51-.62,1.22-1.13,1.42-1.98.17-.5.53-.89.75-1.37,1.2-1.9,2.01-3.96,2.49-6.15.08-.35.1-.71.28-1.02.64-3.37.49-6.71-.41-10.01-.22-.68-.4-1.38-.71-2.04-.56-1.28-1.17-2.53-1.86-3.74-1.06-1.7-2.29-3.25-3.85-4.53-.33-.37-.85-.54-1.08-1.02-.93-.89-1.96-1.62-3.19-2.04-2.72-1.54-5.63-2.45-8.75-2.64-7.99-.48-16-.47-23.97-.09-6.15.29-12.29.15-18.43.26-6.13.12-12.26.03-18.4.02-.54,0-1.08.03-1.61-.04-.69-.18-.63-.58-.27-1.03.39-.48.91-.81,1.34-1.25C30.37,25.02,41.88,13.61,53.35,2.16c.59-.59,1.19-1.18,1.94-1.54.99-.47,2.12-.49,3.21-.5,7.56-.05,15.16-.34,22.7.22Z"/>
      <path class="cls-1" d="M39.14,120.57c-11.85,0-23.69,0-35.54,0-2.16,0-3.6-1.44-3.6-3.59,0-10.08,0-20.17,0-30.25,0-2.17,1.43-3.61,3.59-3.61,23.73,0,47.46,0,71.18,0q1.47,0,1.47,1.5c0,11.48,0,22.97,0,34.45q0,1.5-1.47,1.5c-11.88,0-23.76,0-35.65,0Z"/>
      <path class="cls-1" d="M55.38,38.75c0,10.62-.01,21.24,0,31.86,0,1.46-.28,2.87-1.19,3.99-.82,1-2.04,1.59-3.34,1.6-9.76.04-19.52.03-29.28.02-2.06,0-4.32-2.3-4.32-4.32,0-11.05,0-22.1,0-33.15.3-.18.63-.1.95-.1,12.08,0,24.16,0,36.23,0,.32,0,.65-.08.94.1Z"/>
    </g>
  </g>
</svg>