<svg xmlns="http://www.w3.org/2000/svg" version="1.1" xmlns:xlink="http://www.w3.org/1999/xlink" xmlns:svgjs="http://svgjs.com/svgjs" width="512" height="512" x="0" y="0" viewBox="0 0 512 512" style="enable-background:new 0 0 512 512" xml:space="preserve" class=""><g><path d="m432 368c0 11.046-8.954 20-20 20-26.53-1.053-26.522-38.951 0-40 11.046 0 20 8.954 20 20zm80 .544c-.041 42.293-24.864 69.289-48.87 95.395-11.161 12.138-22.702 24.689-31.652 38.782-3.669 5.779-10.039 9.279-16.883 9.279h-5.189c-6.845 0-13.214-3.5-16.883-9.278-8.95-14.093-20.491-26.644-31.652-38.782-24.006-26.106-48.829-53.102-48.87-95.353 5.655-133.468 194.369-133.368 199.999-.043zm-40 .004c-3.428-80.353-116.626-80.289-120 .042.025 26.636 16.923 45.011 38.314 68.274 7.24 7.875 14.625 15.906 21.686 24.651 7.061-8.745 14.445-16.776 21.686-24.651 21.391-23.263 38.289-41.638 38.314-68.316zm40-288.548v157c-1.056 26.536-38.953 26.516-40 0v-112.141l-127.834 128.26c-3.749 3.761-8.839 5.877-14.149 5.881h-.017c-5.304 0-10.392-2.107-14.143-5.858l-78.629-78.629-83.424 83.424 120.313 119.896c7.824 7.797 7.847 20.46.05 28.284-7.798 7.824-20.461 7.846-28.285.049l-120.362-119.944-85.52 85.52v60.258c0 22.056 17.944 40 40 40h230c26.536 1.056 26.516 38.953 0 40h-230c-44.112 0-80-35.888-80-80v-352c0-44.112 35.888-80 80-80h352c44.112 0 80 35.888 80 80zm-303.055 66.229-106.229-106.229h-22.716c-22.056 0-40 17.944-40 40v235.174zm261.688-76.611c-4.584-17.039-20.167-29.618-38.633-29.618h-272.716l170.692 170.692zm.271 1.064c-.017-.072-.035-.144-.053-.216-.145.229-.14.315.053.216z" fill="#000000" data-original="#000000" class=""></path></g></svg>