<svg xmlns="http://www.w3.org/2000/svg" viewBox="0 0 230.48 348.21"><defs><style>.cls-1,.cls-16,.cls-19{fill:#263238;}.cls-15,.cls-17,.cls-2,.cls-20,.cls-23,.cls-24,.cls-25,.cls-5,.cls-7,.cls-8{fill:#fff;}.cls-3{fill:#f5f5f5;}.cls-22,.cls-26,.cls-27,.cls-4{fill:#70b6fe;}.cls-5{opacity:0.7;}.cls-17,.cls-5,.cls-7,.cls-8{isolation:isolate;}.cls-11,.cls-12,.cls-13,.cls-18,.cls-21,.cls-6{fill:none;}.cls-6{stroke:#70b6fe;}.cls-11,.cls-12,.cls-13,.cls-15,.cls-19,.cls-21,.cls-23,.cls-24,.cls-25,.cls-26,.cls-27,.cls-6{stroke-linecap:round;stroke-linejoin:round;}.cls-7{opacity:0.5;}.cls-8{opacity:0.6;}.cls-14,.cls-9{fill:#999;}.cls-10{fill:#737373;}.cls-11,.cls-12,.cls-14,.cls-15,.cls-16,.cls-18,.cls-19,.cls-20,.cls-21,.cls-22,.cls-23,.cls-24,.cls-25,.cls-26,.cls-27{stroke:#263238;}.cls-12{stroke-width:2px;}.cls-13{stroke:#fff;}.cls-14,.cls-16,.cls-18,.cls-20,.cls-22{stroke-miterlimit:10;}.cls-17{opacity:0.2;}.cls-21{stroke-width:0.75px;}</style></defs><g id="Layer_2" data-name="Layer 2"><g id="Layer_1-2" data-name="Layer 1"><g id="freepik--Device--inject-73"><path class="cls-1" d="M180.81,348.21l-118.3-.07a25.76,25.76,0,0,1-25.76-25.76h0l.06-296.58A25.77,25.77,0,0,1,62.56,0h0L180.9.07a25.78,25.78,0,0,1,25.8,25.76v0l-.06,296.58a25.76,25.76,0,0,1-25.76,25.76Z"/><path class="cls-2" d="M180.77,10.58H157.83a5.7,5.7,0,0,0-5.57,5.82v4.16a5.71,5.71,0,0,1-5.56,5.81H102a5.71,5.71,0,0,1-5.57-5.83V16.35a5.72,5.72,0,0,0-5.57-5.82H62.7a18,18,0,0,0-18,18v0L44.59,318a18.05,18.05,0,0,0,18,18.06l118.06.06a18,18,0,0,0,18.06-17.94v-.06l.06-289.49A18.06,18.06,0,0,0,180.77,10.58Z"/><path class="cls-3" d="M198.81,28.63a18.06,18.06,0,0,0-18-18h-23a5.7,5.7,0,0,0-5.57,5.82v4.16a5.71,5.71,0,0,1-5.56,5.81H102a5.71,5.71,0,0,1-5.57-5.83V16.35a5.72,5.72,0,0,0-5.57-5.82H62.7a18,18,0,0,0-18,18v0l-.06,27.68H198.8Z"/><path class="cls-1" d="M186.26,38.8a57.73,57.73,0,0,1-6.17.21c-3.41,0-6.18,0-6.18-.1a57.73,57.73,0,0,1,6.17-.21C183.49,38.67,186.26,38.72,186.26,38.8Z"/><path class="cls-1" d="M186.28,42a57.73,57.73,0,0,1-6.17.21c-3.41,0-6.17,0-6.17-.1a57.73,57.73,0,0,1,6.17-.21A43,43,0,0,1,186.28,42Z"/><path class="cls-1" d="M186.31,45.12a57.73,57.73,0,0,1-6.17.21,57.89,57.89,0,0,1-6.18-.11c0-.08,2.77-.18,6.18-.2A53.91,53.91,0,0,1,186.31,45.12Z"/></g><g id="freepik--background-simple--inject-81"><path class="cls-4" d="M175.26,72.67a51.34,51.34,0,0,0-50.06,6.21c-12.51,9.14-21.15,22.43-33.67,31.58C74.41,123,54.72,131.64,37.34,143.8S4.26,173,1,193.92c-3.85,24.76,3.84,51.7,19.88,70.85C46.94,295.9,88.61,301.19,126.54,294c80.15-15.24,104.22-119.88,78.67-187.46C199.65,91.88,190.09,78.6,175.26,72.67Z"/><path class="cls-5" d="M175.26,72.67a51.34,51.34,0,0,0-50.06,6.21c-12.51,9.14-21.15,22.43-33.67,31.58C74.41,123,54.72,131.64,37.34,143.8S4.26,173,1,193.92c-3.85,24.76,3.84,51.7,19.88,70.85C46.94,295.9,88.61,301.19,126.54,294c80.15-15.24,104.22-119.88,78.67-187.46C199.65,91.88,190.09,78.6,175.26,72.67Z"/></g><g id="freepik--Graphics--inject-81"><polygon class="cls-6" points="62.35 221.91 58.58 223.63 56.72 219.55 52.24 221.6 54.11 225.68 50.35 227.4 52.47 232.03 56.23 230.31 58.1 234.39 62.57 232.34 60.7 228.26 64.47 226.54 62.35 221.91"/><polygon class="cls-6" points="85.03 146.31 80.91 145.94 81.31 141.47 76.41 141.03 76 145.5 71.88 145.13 71.43 150.2 75.55 150.57 75.15 155.04 80.05 155.48 80.45 151.01 84.57 151.38 85.03 146.31"/><polygon class="cls-6" points="192.99 170.91 189.93 173.7 186.91 170.37 183.26 173.68 186.28 177 183.21 179.78 186.63 183.56 189.7 180.77 192.72 184.09 196.36 180.79 193.35 177.46 196.41 174.68 192.99 170.91"/><circle class="cls-6" cx="42.52" cy="213.05" r="2.97"/><path class="cls-6" d="M77.51,163.14a.79.79,0,0,1-.57,1,.79.79,0,0,1-.39-1.53h0A.8.8,0,0,1,77.51,163.14Z"/><path class="cls-6" d="M39.32,159A2.77,2.77,0,1,1,36,157,2.78,2.78,0,0,1,39.32,159Z"/><path class="cls-6" d="M167.1,165.14a1.57,1.57,0,1,1-1.91-1.14h0A1.57,1.57,0,0,1,167.1,165.14Z"/><circle class="cls-6" cx="138.98" cy="119.24" r="3.52"/></g><g id="freepik--Character--inject-81"><path class="cls-2" d="M140,193.16c.21.31,6.61,1.59,9.93,6.42a46.2,46.2,0,0,1,4.83,8.87,59.38,59.38,0,0,1,8.4,6c2.85,2.72,6.24,6.34,8.86,8.24s8,5.49,9.35,9.7c0,0-8.07,22.11-10.35,27s-7.91,15.26-7.91,15.26L153,317.35H94.76l-2-14.64s-17.85-3.5-25.31-10c0,0-.7-16.18,2.41-30.61s13.73-44.45,20.92-53.62c0,0,11.47-5.49,21.6-7.25,0,0,6.57-5.19,10.87-5.75S140,193.16,140,193.16Z"/><path class="cls-4" d="M93.56,309.31c5.17,1,9.68,1.84,15,1.78s10.64-1.25,14.95-4.27a9.36,9.36,0,0,1,2.79-1.61c2.29-.65,4.55.87,6.82,1.57a13.78,13.78,0,0,0,8.86-.6,40.88,40.88,0,0,0,7.88-4.4q-.56,7.7-.36,15.42l3.59.15,9.18-40.44s-15.71,18.26-23.37,23.71l-14.7-3.78a10.23,10.23,0,0,1-4.3,1.73s-1.33,5.12-8.83,5.14-18.25-1-18.25-1Z"/><path class="cls-7" d="M93.56,309.31c5.17,1,9.68,1.84,15,1.78s10.64-1.25,14.95-4.27a9.36,9.36,0,0,1,2.79-1.61c2.29-.65,4.55.87,6.82,1.57a13.78,13.78,0,0,0,8.86-.6,40.88,40.88,0,0,0,7.88-4.4q-.56,7.7-.36,15.42l3.59.15,9.18-40.44s-15.71,18.26-23.37,23.71l-14.7-3.78a10.23,10.23,0,0,1-4.3,1.73s-1.33,5.12-8.83,5.14-18.25-1-18.25-1Z"/><path class="cls-4" d="M78.5,233.86S71.68,267,72,278.36c0,0,9.28-2.6,15.75,0,0,0-11-1.22-15.76,3.83s9.85,18.31,39.06,15.62c0,0,5.82,1.82,8.78.75,0,0-.79,5.28-8.83,5.14-8-.32-31.43-.51-43.57-11C67.46,292.68,65.93,262.23,78.5,233.86Z"/><path class="cls-8" d="M78.5,233.86S71.68,267,72,278.36c0,0,9.28-2.6,15.75,0,0,0-11-1.22-15.76,3.83s9.85,18.31,39.06,15.62c0,0,5.82,1.82,8.78.75,0,0-.79,5.28-8.83,5.14-8-.32-31.43-.51-43.57-11C67.46,292.68,65.93,262.23,78.5,233.86Z"/><path class="cls-4" d="M92.45,240.21s2,14.67,5.27,17.74,18.41,2.06,24.42,5.37A50,50,0,0,1,138,247.4l-13.86,21.83-12-2.83-14.62-2.24L96.32,267h-2.2S93.88,251.33,92.45,240.21Z"/><path class="cls-7" d="M92.45,240.21s2,14.67,5.27,17.74,18.41,2.06,24.42,5.37A50,50,0,0,1,138,247.4l-13.86,21.83-12-2.83-14.62-2.24L96.32,267h-2.2S93.88,251.33,92.45,240.21Z"/><path class="cls-4" d="M149.75,210.33c6.26,3.69,7,7.85,8.26,10.82-3.26.64-6.63,1.34-9.32,3.28-3.35,2.44-5.16,6.46-6.57,10.38a103.16,103.16,0,0,0-3.35,11.3,38.91,38.91,0,0,1,12.55-13.58c3-2,6.73-3.59,10.16-2.47-2.88,1.23-6.14,2.88-6.75,5.95a2.88,2.88,0,0,0,.06,1.54c.52,1.44,2.31,1.83,3.67,2.53,2.66,1.37,4,4.47,4.16,7.47s-.8,5.9-1.71,8.74l-2.4,7.47A36.45,36.45,0,0,1,154.6,273c-1.84,2.79-4.62,5.13-7.91,5.68a6.91,6.91,0,0,1-4.09-.47,13.5,13.5,0,0,1-2.7-1.92,27.84,27.84,0,0,0-13.75-5.94c6.49,4.29,9.56,12.07,12.24,19.36a14.19,14.19,0,0,0-5.16-5.22,3.29,3.29,0,0,0-1.87-.59c-1.76.14-2.32,2.39-3.38,3.79a6.17,6.17,0,0,1-5.69,2,17.88,17.88,0,0,1-5.88-2.24L92.69,275.18l-1.67,5s18.89,15.06,47.84,20.39c0,0,18.8-14.86,25.46-28s17-40.17,17-40.17-3.78-7.18-10.28-10.92c0,0-4.85-2.3-5.87-5.13s-10.13-7.73-10.13-7.73S156.23,211.65,149.75,210.33Z"/><path class="cls-8" d="M149.75,210.33c6.26,3.69,7,7.85,8.26,10.82-3.26.64-6.63,1.34-9.32,3.28-3.35,2.44-5.16,6.46-6.57,10.38a103.16,103.16,0,0,0-3.35,11.3,38.91,38.91,0,0,1,12.55-13.58c3-2,6.73-3.59,10.16-2.47-2.88,1.23-6.14,2.88-6.75,5.95a2.88,2.88,0,0,0,.06,1.54c.52,1.44,2.31,1.83,3.67,2.53,2.66,1.37,4,4.47,4.16,7.47s-.8,5.9-1.71,8.74l-2.4,7.47A36.45,36.45,0,0,1,154.6,273c-1.84,2.79-4.62,5.13-7.91,5.68a6.91,6.91,0,0,1-4.09-.47,13.5,13.5,0,0,1-2.7-1.92,27.84,27.84,0,0,0-13.75-5.94c6.49,4.29,9.56,12.07,12.24,19.36a14.19,14.19,0,0,0-5.16-5.22,3.29,3.29,0,0,0-1.87-.59c-1.76.14-2.32,2.39-3.38,3.79a6.17,6.17,0,0,1-5.69,2,17.88,17.88,0,0,1-5.88-2.24L92.69,275.18l-1.67,5s18.89,15.06,47.84,20.39c0,0,18.8-14.86,25.46-28s17-40.17,17-40.17-3.78-7.18-10.28-10.92c0,0-4.85-2.3-5.87-5.13s-10.13-7.73-10.13-7.73S156.23,211.65,149.75,210.33Z"/><path class="cls-9" d="M147.76,159s1.26-14.77-5.1-16.18-9.94-7.26-9.94-7.26l-22.59,6.31-3.5,13.58,2.23,6.87s.47,6.38.56,9.53,0,5.58,2.38,9.41,4.61,7.63,9.77,10.93v8.7s-3.19,9.31-1.43,15c0,0,1.06,1.11,4-.56s15.37-10,19.72-18.69l1.35-22.1a5,5,0,0,0,5.13-2.71,11.41,11.41,0,0,0,1.3-10c-.88-3-4.67-1.07-4.67-1.07Z"/><path class="cls-10" d="M121.82,180.63a6.28,6.28,0,0,1,5.06-2s2.72-4.29,5.58-3.5c0,0,.89,4.54-2.55,6.33A7.46,7.46,0,0,1,121.82,180.63Z"/><path class="cls-11" d="M113.43,140s-5.41,7.1-5.1,14.5,1.39,12.66,1.08,18.37,5.71,15.28,11.89,19.14a13.79,13.79,0,0,0,14.89-.56c5-3.35,7.78-9.36,8.79-15.14.1-.55.18-1.11.24-1.71"/><path class="cls-11" d="M121.3,192s.88,8,0,10.74c-1,3-2.13,10-1.12,13.18s20-10.13,23.69-19.26c0,0,.51-17.72,1.77-22.15"/><path class="cls-11" d="M120.78,180.43s8.64,2.45,12.17-6.47"/><path class="cls-1" d="M121.47,193.91s1.84,5.71,5.82,6.05,13.91-7.62,17.29-17v-4.7s-2.79,12.28-11,14.51-12-.61-12-.61Z"/><path class="cls-11" d="M132.46,175.11c-3.84-.27-5.58,3.5-5.58,3.5a5.71,5.71,0,0,0-5.07,2,6.85,6.85,0,0,0,7.08,1.28C133.26,180.4,132.46,175.11,132.46,175.11Z"/><path class="cls-11" d="M122.83,158.28a37.54,37.54,0,0,1-.23,5.3,19,19,0,0,1-1.55,4.57c-.55,1.35-1.49,3.43-.71,4.85.88,1.62,3.81,0,3.81,0"/><path class="cls-11" d="M126,172.67c1,.13,2.39,0,2.67-1.71"/><path class="cls-12" d="M129.14,156.15a5.14,5.14,0,0,1,7.09,0"/><path class="cls-12" d="M117.89,157.54s-2.62-3.35-6,0"/><path class="cls-11" d="M143.17,166s3-7.17,6.87-5.63c2.69,1.06,2.85,5.69,1.43,8.92s-2.14,6.53-6.88,4.69"/><path class="cls-1" d="M143.7,164.91s-2.87-1-3.4-5.68,2.32-9.32,1.26-12.67-9.41-1.67-11.31-7.51c0,0-6.27,4.68-18.41,3.67,0,0-2.56,4.37-3,7a43.4,43.4,0,0,0,0,12.57,2,2,0,0,0,.08.43c.87,4.55-3.46-6.18-3.35-10.76s-2.64-10.4,1-14.73,16.79-6.88,19.39-8.91,7.66,3.38,13.5,5.38,10.68,4.38,10,12.67,0,9.39.07,13.75C149.47,160.16,146.77,159.15,143.7,164.91Z"/><path class="cls-1" d="M132.7,162.18c0,1.12-.43,2-1,2s-1-.92-1-2,.43-2,1-2S132.7,161.07,132.7,162.18Z"/><path class="cls-1" d="M117.89,162.18c0,1.12-.43,2-1,2s-1-.92-1-2,.43-2,1-2S117.89,161.07,117.89,162.18Z"/><path class="cls-11" d="M129.14,164.91a8.58,8.58,0,0,0,4.52,2.41"/><path class="cls-11" d="M115.58,167.32s3.64-.25,4.46-2.41"/><path class="cls-11" d="M124,217.25c2.72-1.72,6.3-1.07,9.27.15,1.63.67,3.18,1.52,4.81,2.23a18.15,18.15,0,0,0,2.47.88c2,.53,1.31-2,1.19-3.13-.17-1.62-.28-3.25-.48-4.86a1.5,1.5,0,0,1,.11-1,1.33,1.33,0,0,1,.8-.48c3.57-1.12,7.43-.63,11.15-.56a1.69,1.69,0,0,0,1-.18c.55-.37.49-1.19.34-1.83-1.29-5.52-5.83-11-10.78-13.76"/><path class="cls-11" d="M121.61,195.61a33.19,33.19,0,0,0-7.11,3.66,13.64,13.64,0,0,0-2.11,1.91,3,3,0,0,0-.91,1.85,2.19,2.19,0,0,0,.89,1.67,5.35,5.35,0,0,0,1.22.77c1,.48,2.24,1,2.67,2a1.13,1.13,0,0,1,.11.7,1.24,1.24,0,0,1-.31.56c-.85,1-2.34,1.83-2.23,3.16.07,1,1.11,1.67,2,2.13s2,.93,2.33,1.92"/><path class="cls-13" d="M107,143.29c.37-2.23,2.7-3.67,4.94-4s4.55,0,6.81-.19a13.31,13.31,0,0,0,9.52-5.53"/><path class="cls-13" d="M109.58,137c4-2.4,9.74.09,13.69-2.46a12.22,12.22,0,0,0,2.88-2.95"/><path class="cls-11" d="M161.25,228.58c-14.5,2.89-19.91,13.57-19.91,13.57l-17.19,27.06"/><path class="cls-11" d="M149,225.66a16.22,16.22,0,0,1,4-2.76"/><path class="cls-11" d="M138.85,246.09s1.83-9.78,7.08-17"/><path class="cls-11" d="M94.12,266.94s-.75-29.94-3.35-34.52"/><path class="cls-11" d="M154.71,208.45s8.37,5,12.09,9.75,12.5,7.85,14.51,14.22c0,0-11.57,36.45-23.69,49.62s-18.79,18.58-18.79,18.58-29.15-5.07-48.06-20.94l6.76-15.54s19.07,2.41,26.6,5.08,14.7,18.9,14.7,18.9"/><path class="cls-11" d="M124.15,269.23s13.35,2.59,17.68,8.67"/><polyline class="cls-11" points="162.55 275.47 153.03 317.35 94.76 317.35 92.77 302.71"/><path class="cls-11" d="M119.85,298.57c-3.21,6.59-7.46,5.14-7.46,5.14-32.84,1.24-44.93-11-44.93-11s-1.68-17.26,4.78-40.54,18.55-43.69,18.55-43.69c5.36-3.56,17.32-6.34,20.7-7.08l.9-.19"/><path class="cls-11" d="M112.41,303.71s-1.74-.29-1.3-11.79"/><path class="cls-11" d="M91.67,280.41s-8.2-2.89-18.36,4.14"/><path class="cls-11" d="M75.15,277.9s10.75-3.2,15.62,1.92"/><path class="cls-14" d="M89.61,279.53l1.4.7L96.32,267s-5.5-.9-14.22,10A12.51,12.51,0,0,1,89.61,279.53Z"/><path class="cls-14" d="M111.09,291.92v5.89s7.52,2.24,13.08-1Z"/><path class="cls-1" d="M151.83,210.42a1.12,1.12,0,0,1,0,.32c-.24.92-6,22.55-24.31,32.18a1.18,1.18,0,0,1-.52.13,1.12,1.12,0,0,1-1.11-1.12,1.14,1.14,0,0,1,.59-1c16.74-8.77,22.64-28.78,23.15-30.62Z"/><path class="cls-1" d="M112.37,204.68a54.94,54.94,0,0,0-4.61,21v2.24l-.49,0a6.21,6.21,0,0,0-1.74.56v-2.4c.24-12.52,4-21,6-24.72l.91-.19a2.9,2.9,0,0,0-.91,1.84A2.18,2.18,0,0,0,112.37,204.68Z"/><path class="cls-15" d="M134.34,237.89c1.3,1.81.23,4.82-2.4,6.72s-5.83,2-7.14.16-.24-4.83,2.4-6.73S133.05,236.07,134.34,237.89Z"/><path class="cls-15" d="M131.09,236.81c.93,1.28.17,3.41-1.67,4.76s-4.13,1.39-5,.11-.17-3.41,1.67-4.76S130.17,235.53,131.09,236.81Z"/><path class="cls-16" d="M116.35,259.46a1.12,1.12,0,0,1-1.55-.32,1.1,1.1,0,0,1,.21-1.47c.1-.08,3.84-3.26,2.2-14-.14-.91-.32-1.88-.56-2.9-.71-3.26-1.8-7.37-4-10.4a5.59,5.59,0,0,0-4.88-2.48l-.5,0a6.15,6.15,0,0,0-1.73.56,7.22,7.22,0,0,0-3.53,4.12l-.2.56a81.23,81.23,0,0,0-3.09,10.48c-.9,4.38-1.2,9,.39,12.18a7,7,0,0,0,4.33,3.67,1.11,1.11,0,0,1-.35,2.17,1.41,1.41,0,0,1-.35-.05,9.2,9.2,0,0,1-5.63-4.8c-1.79-3.61-1.55-8.53-.65-13.17a77.83,77.83,0,0,1,3.25-11.22l.2-.56a9.22,9.22,0,0,1,5.63-5.79,7.34,7.34,0,0,1,1.4-.34c.28,0,.56-.07.85-.09a7.83,7.83,0,0,1,6.66,3.4c2.49,3.35,3.67,7.77,4.42,11.24.27,1.2.47,2.32.62,3.38C121.21,255.72,116.56,259.3,116.35,259.46Z"/><path class="cls-16" d="M102.27,261.5s4,1.67,5.07,0,.2-2.46-1.21-2.6a41.83,41.83,0,0,0-4.19,0Z"/><path class="cls-15" d="M104.13,260.94a1.12,1.12,0,0,1-1.06.77,1,1,0,0,1-.35-.06,9.18,9.18,0,0,1-5.63-4.79c-1.79-3.61-1.56-8.53-.65-13.17h2.23c-.89,4.38-1.19,9,.39,12.18a7,7,0,0,0,4.33,3.66,1.12,1.12,0,0,1,.74,1.4Z"/><path class="cls-16" d="M112.62,258.24a1.89,1.89,0,0,0-.42,1.46,1.71,1.71,0,0,0,1.81,1.22,3.26,3.26,0,0,0,2-1.12c.56-.62,2.49-4.71.7-4C115.44,256.28,113.49,257.11,112.62,258.24Z"/><path class="cls-15" d="M116.35,259.46a1.12,1.12,0,0,1-1.55-.32,1.1,1.1,0,0,1,.21-1.47c.1-.08,3.84-3.26,2.2-14h2.23C121.21,255.72,116.56,259.3,116.35,259.46Z"/><path class="cls-17" d="M126.35,160.84s7-3.65,13.48,0c0,0,.11,5.38-2.33,7.6-.86.79-4.82.92-6.32.79C125.08,168.67,126.35,160.84,126.35,160.84Z"/><path class="cls-17" d="M122,160.84s-7-3.65-13.48,0c0,0-.1,5.38,2.33,7.6.86.79,4.83.92,6.33.79C123.22,168.67,122,160.84,122,160.84Z"/><path class="cls-18" d="M126.35,160.84s7-3.65,13.48,0c0,0,.11,5.38-2.33,7.6-.86.79-4.82.92-6.32.79C125.08,168.67,126.35,160.84,126.35,160.84Z"/><path class="cls-18" d="M122,160.84s-7-3.65-13.48,0c0,0-.1,5.38,2.33,7.6.86.79,4.83.92,6.33.79C123.22,168.67,122,160.84,122,160.84Z"/><path class="cls-18" d="M122,160.84s1.57-1.15,4.4,0"/><line class="cls-18" x1="139.83" y1="160.84" x2="142.77" y2="162.2"/></g><g id="freepik--Table--inject-81"><polyline class="cls-15" points="49.18 332.78 64.34 318.26 184.65 318.26 193.76 332.78 49.18 332.78"/><rect class="cls-19" x="49.18" y="332.78" width="144.58" height="3.91"/></g><g id="freepik--Notebook--inject-81"><polygon class="cls-20" points="60.4 329.14 60.4 326.13 84.5 326.13 84.5 329.14 79.85 329.14 60.4 329.14"/><polygon class="cls-15" points="60.4 326.13 74.64 316.58 93.63 317.03 84.5 326.13 60.4 326.13"/><polygon class="cls-15" points="84.5 329.14 93.63 320 93.63 317.03 84.5 326.13 84.5 329.14"/><path class="cls-12" d="M83.85,325.37s-1.93.38-1.93,2.05a2.36,2.36,0,0,0,1.67,2.16"/><path class="cls-12" d="M81.92,325.37s-1.92.38-1.92,2.05a2.35,2.35,0,0,0,1.66,2.16"/><path class="cls-12" d="M80,325.37s-1.92.38-1.92,2.05a2.35,2.35,0,0,0,1.66,2.16"/><path class="cls-12" d="M78.08,325.37s-1.93.38-1.93,2.05a2.36,2.36,0,0,0,1.67,2.16"/><path class="cls-12" d="M76.15,325.37s-1.92.38-1.92,2.05a2.35,2.35,0,0,0,1.66,2.16"/><path class="cls-12" d="M74.23,325.37s-1.92.38-1.92,2.05A2.35,2.35,0,0,0,74,329.58"/><path class="cls-12" d="M72.31,325.37s-1.93.38-1.93,2.05A2.35,2.35,0,0,0,72,329.58"/><path class="cls-12" d="M70.38,325.37s-1.92.38-1.92,2.05a2.35,2.35,0,0,0,1.66,2.16"/><path class="cls-12" d="M68.22,325.37s-1.92.38-1.92,2.05A2.35,2.35,0,0,0,68,329.58"/><path class="cls-12" d="M66.06,325.37s-1.93.38-1.93,2.05a2.36,2.36,0,0,0,1.67,2.16"/><path class="cls-12" d="M63.65,325.37s-1.92.38-1.92,2.05a2.35,2.35,0,0,0,1.66,2.16"/><path class="cls-21" d="M75.85,318.92a7,7,0,0,0-3,3.26,12.07,12.07,0,0,0,4.46-3l-1.44,3.56a4.25,4.25,0,0,0,3.26-2,.87.87,0,0,0-.46,1.15l0,.09c1.21-.17,2-1.34,2.58-2.39a7.59,7.59,0,0,1,.13,1.78,5.63,5.63,0,0,0,3-.38"/></g><g id="freepik--Box--inject-81"><rect class="cls-15" x="139.75" y="303.66" width="41.88" height="23"/><polygon class="cls-15" points="139.58 326.65 132.85 320.25 132.85 297.25 139.58 303.66 139.58 326.65"/><polygon class="cls-15" points="181.63 303.66 174.9 297.25 133.01 297.25 139.75 303.66 181.63 303.66"/><polygon class="cls-22" points="166.23 312.28 162.53 312.28 162.53 308.41 157.31 308.41 157.31 312.28 153.27 312.28 153.27 317.5 157.31 317.5 157.31 321.37 162.53 321.37 162.53 317.5 166.23 317.5 166.23 312.28"/><line class="cls-11" x1="160.32" y1="303.66" x2="153.59" y2="297.25"/></g><g id="freepik--Medicine--inject-81"><circle class="cls-23" cx="52.33" cy="149.27" r="16.74"/><path class="cls-2" d="M66.25,146.71a5.35,5.35,0,0,1-3.64,5.07l-7.48,2.52L46,157.38a5.35,5.35,0,0,1-3.42-10.14l8.27-2.78,8.3-2.78a5.36,5.36,0,0,1,7.06,5.06Z"/><path class="cls-4" d="M66.25,146.71a5.35,5.35,0,0,1-3.64,5.07l-7.48,2.52a15.5,15.5,0,0,0-4.25-9.84l8.3-2.78a5.36,5.36,0,0,1,7.06,5Z"/><path class="cls-11" d="M66.25,146.71a5.35,5.35,0,0,1-3.64,5.07l-7.48,2.52L46,157.38a5.35,5.35,0,0,1-3.42-10.14l8.27-2.78,8.3-2.78a5.36,5.36,0,0,1,7.06,5.06Z"/><path class="cls-11" d="M55.13,154.3a15.13,15.13,0,0,0-4.25-9.84"/><path class="cls-13" d="M64.46,144.71a3.73,3.73,0,0,1,.51,2"/><path class="cls-13" d="M53,145.27l6.67-2.22a4.26,4.26,0,0,1,3.63.4"/><circle class="cls-24" cx="159.52" cy="111.15" r="16.74" transform="translate(-30.71 70.97) rotate(-22.94)"/><path class="cls-4" d="M165.29,118.16l-14.59-4.89a4.82,4.82,0,0,1-3-6.11h0a4.82,4.82,0,0,1,6.11-3l14.6,4.88a4.84,4.84,0,0,1,3,6.11h0A4.85,4.85,0,0,1,165.29,118.16Z"/><line class="cls-11" x1="154.6" y1="112.89" x2="157.05" y2="107.04"/><line class="cls-11" x1="162.64" y1="115.56" x2="165.08" y2="109.73"/><circle class="cls-1" cx="156.62" cy="112.74" r="0.49"/><path class="cls-1" d="M161.48,114.19a.5.5,0,1,1-1,0,.5.5,0,0,1,1,0Z"/><circle class="cls-1" cx="158.54" cy="108.33" r="0.49"/><path class="cls-1" d="M163.33,109.74a.5.5,0,1,1-.5-.49.5.5,0,0,1,.5.49Z"/><path class="cls-11" d="M165.29,118.16l-14.59-4.89a4.82,4.82,0,0,1-3-6.11h0a4.82,4.82,0,0,1,6.11-3l14.6,4.88a4.84,4.84,0,0,1,3,6.11h0A4.85,4.85,0,0,1,165.29,118.16Z"/><circle class="cls-15" cx="96.34" cy="110.24" r="16.74"/><path class="cls-15" d="M105.93,110.67v6.86c0,1.74-1.11,3.15-2.47,3.15H89.23c-1.37,0-2.48-1.41-2.48-3.15v-6.86c0-1.74,1.11-3.15,2.48-3.15h2.34v-4H101v4h2.42C104.82,107.52,105.93,108.93,105.93,110.67Z"/><rect class="cls-22" x="86.75" y="111.46" width="19.17" height="4.25"/><path class="cls-22" d="M92.87,98.88h7a3,3,0,0,1,3,3h0V105h-13v-3.11a3,3,0,0,1,3-3Z"/><line class="cls-11" x1="92.15" y1="99.07" x2="92.15" y2="104.98"/><line class="cls-11" x1="95.22" y1="98.88" x2="95.22" y2="104.98"/><line class="cls-11" x1="98.3" y1="98.88" x2="98.3" y2="104.98"/><line class="cls-11" x1="101.37" y1="99.23" x2="101.37" y2="104.98"/><circle class="cls-25" cx="36.94" cy="199.03" r="16.74"/><ellipse class="cls-26" cx="36.54" cy="199.14" rx="7.72" ry="9.84" transform="translate(-159.11 147.03) rotate(-64.69)"/><ellipse class="cls-26" cx="37.14" cy="197.83" rx="7.24" ry="9.84" transform="translate(-157.58 146.83) rotate(-64.69)"/><line class="cls-11" x1="39.98" y1="192.88" x2="33.91" y2="201.43"/><path class="cls-13" d="M36.32,191.5a13.08,13.08,0,0,1,2.4.56"/><path class="cls-13" d="M30.93,199.54s-3.1-3.39-.07-6.67a4.57,4.57,0,0,1,2.59-1.33"/><circle class="cls-25" cx="213.24" cy="199.04" r="16.74" transform="translate(-17.68 377.28) rotate(-80.69)"/><path class="cls-22" d="M222.85,200.72l-.39.56c-2.51,3.47-6.37,6.71-9.23,7.35v0c-2.78-.63-6.52-3.71-9-7.08-.14-.18-.27-.37-.4-.56-2.41-3.45-3.43-7.08-.75-8.58,5.46-3.05,10.18,3.48,10.18,3.48s4.72-6.48,10.17-3.44C226,193.87,225.12,197.35,222.85,200.72Z"/><path class="cls-2" d="M222.85,200.72l-.39.56h-1.38l-1.58,2.08-1.07-6.18-1.67,4.2h-3.94l-2,3.37-1.55-6.81-2,3.55h-3c-.14-.18-.27-.37-.4-.56h3.12l2.55-4.52,1.57,6.87,1.48-2.48h3.89l2.22-5.69,1.19,6.87,1-1.28Z"/><circle class="cls-15" cx="197.13" cy="149.46" r="16.74"/><path class="cls-15" d="M195.87,141.72c.16.36-.84,1.16-2.22,1.79s-2.67.85-2.83.48.84-1.16,2.22-1.79S195.71,141.38,195.87,141.72Z"/><polygon class="cls-15" points="203.4 157.25 198.4 159.67 193.9 150.42 190.8 144.03 195.81 141.6 198.84 147.84 203.4 157.25"/><path class="cls-27" d="M191.73,145.94l2.17-1"/><path class="cls-27" d="M192.68,148l2.17-1"/><polygon class="cls-15" points="200.31 158.74 202.9 162.13 201.61 158.12 200.31 158.74"/><path class="cls-22" d="M203.4,157.25h0a8.34,8.34,0,0,1-4.29,2.29l-.71.13-4.5-9.25,4.93-2.58Z"/><line class="cls-11" x1="194.85" y1="152.18" x2="196.89" y2="151.23"/><path class="cls-27" d="M196,154.33l2-.92"/><polygon class="cls-15" points="192.54 143.19 190.95 139.62 192.2 138.92 193.9 142.52 192.54 143.19"/><path class="cls-15" d="M195.26,138.48l-.38-.83-6.67,3,.37.84c.16.35,1.78,0,3.62-.86S195.41,138.83,195.26,138.48Z"/><path class="cls-15" d="M194.88,137.65c-.16-.35-1.78,0-3.62.85s-3.21,1.78-3,2.13,1.78,0,3.62-.86S195,138,194.88,137.65Z"/></g></g></g></svg>