<svg xmlns="http://www.w3.org/2000/svg" version="1.1" xmlns:xlink="http://www.w3.org/1999/xlink" xmlns:svgjs="http://svgjs.com/svgjs" width="512" height="512" x="0" y="0" viewBox="0 0 90 90" style="enable-background:new 0 0 512 512" xml:space="preserve" class=""><g><g><path d="m79.446 40.847 1.905.828c.475.204.871.396 1.058.552.188.152.198.158.198.371v11.896c0 .213-.011.213-.198.369s-.583.349-1.058.552l-1.905.833c.296-1.12.468-2.297.468-3.511v-8.385c0-1.213-.172-2.385-.468-3.505zm-68.882 0c-.295 1.121-.468 2.292-.468 3.506v8.385c0 1.214.173 2.392.468 3.511l-1.905-.833c-.476-.203-.871-.396-1.058-.552-.193-.156-.204-.156-.204-.369v-11.897c0-.213.016-.219.204-.371.187-.156.582-.348 1.058-.552zm55.574-8.198c6.5 0 11.693 5.203 11.693 11.703v8.385c0 6.5-5.193 11.705-11.693 11.705h-11.672c-4.396 0-4.38-7.021-8.667-7.193l-1.599.005c-4.281.016-4.219 7.188-8.662 7.188h-11.671c-6.495 0-11.697-5.205-11.697-11.705v-8.385c0-7.141 6.014-11.703 11.135-11.703zm-40.599-7.084h38.933c5.573 0 10.177 3.828 11.38 9.017-2.489-2.479-5.917-4.011-9.713-4.011h-42.272c-3.792 0-7.219 1.533-9.708 4.011 1.202-5.188 5.807-9.017 11.38-9.017zm0-2.071c-7.615 0-13.781 6.155-13.781 13.77l.074.391c-.084.151-.162.313-.24.468l-3.772 1.647c-.48.208-1.027.437-1.537.853-.51.422-.963 1.147-.963 1.975v11.896c0 .827.454 1.551.963 1.973.51.417 1.057.645 1.537.854l3.771 1.646c2.276 4.479 6.907 7.552 12.276 7.552h11.672c6.281 0 5.615-7.552 9.464-7.552 3.583 0 3.557 7.552 9.463 7.552h11.672c5.375 0 10.01-3.074 12.281-7.558l3.771-1.641c.479-.209 1.021-.437 1.532-.854.509-.422.957-1.146.957-1.973v-11.895c0-.828-.448-1.552-.957-1.975-.511-.416-1.052-.646-1.532-.853l-3.771-1.641c-.079-.151-.151-.308-.229-.454l.052-.411c0-7.615-6.156-13.77-13.771-13.77z" fill="#000000" data-original="#000000" class=""></path><path d="m41.564 35.275c-1.328.118-1.219 2.088.109 2.071h6.663c.598.042 1.104-.437 1.104-1.036 0-.604-.506-1.079-1.104-1.036h-6.663c-.035-.004-.072-.004-.109.001z" fill="#000000" data-original="#000000" class=""></path></g></g></svg>