<svg xmlns="http://www.w3.org/2000/svg" version="1.1" xmlns:xlink="http://www.w3.org/1999/xlink" xmlns:svgjs="http://svgjs.com/svgjs" width="512" height="512" x="0" y="0" viewBox="0 0 512 512" style="enable-background:new 0 0 512 512" xml:space="preserve" class=""><g><g id="_x38_8_Nft_Shop"><g><path d="m219.914 327.68c-2.933 0-5.307 2.374-5.307 5.307v26.727l-19.394-29.635c-2.884-4.396-9.749-2.357-9.749 2.908v44.525c0 2.933 2.374 5.307 5.307 5.307s5.307-2.374 5.307-5.307v-26.727l19.394 29.635c2.877 4.383 9.749 2.379 9.749-2.908v-44.525c0-2.934-2.374-5.307-5.307-5.307z" fill="#000000" data-original="#000000"></path><path d="m321.19 327.68h-31.651c-2.933 0-5.307 2.374-5.307 5.307s2.374 5.307 5.307 5.307h10.516v39.218c0 2.933 2.374 5.307 5.307 5.307s5.307-2.374 5.307-5.307v-39.218h10.521c2.933 0 5.307-2.374 5.307-5.307 0-2.934-2.374-5.307-5.307-5.307z" fill="#000000" data-original="#000000"></path><path d="m268.181 338.294c2.933 0 5.307-2.374 5.307-5.307s-2.374-5.307-5.307-5.307h-22.286c-2.933 0-5.307 2.374-5.307 5.307v44.525c0 2.933 2.374 5.307 5.307 5.307s5.307-2.374 5.307-5.307v-16.958h16.979c2.933 0 5.307-2.374 5.307-5.307s-2.374-5.307-5.307-5.307h-16.979v-11.646z" fill="#000000" data-original="#000000"></path><path d="m510.709 142.747c0-1.646-1.009-3.291-2.07-4.087l-40.971-30.941v-68.514c0-20.911-17.036-37.947-37.945-37.947h-347.457c-20.964 0-37.947 17.036-37.947 37.947v68.514l-40.971 30.941c-1.061.796-2.016 2.441-2.071 4.087-.052 1.274-.052 14.595 0 14.063 0 25.687 18.575 47.022 43.041 51.426v264.56c0 20.91 17.036 37.945 37.947 37.945h347.457c20.91 0 37.945-17.036 37.945-37.945v-264.56c24.466-4.404 43.093-25.739 43.093-51.426 0-.159 0-.212 0-.212.001-.743.001-3.715-.051-13.851zm-455.776-103.542c0-15.073 12.26-27.332 27.332-27.332h347.457c15.071 0 27.331 12.26 27.331 27.332v65.595h-402.12zm258.192 108.955h93.033v3.821c0 25.632-20.857 46.49-46.489 46.49-25.687 0-46.544-20.858-46.544-46.49zm-12.578-10.614h-89.054c.212-.744 6.74-20.858 7.165-22.078h74.723c.266.797 7.166 22.078 7.166 22.078zm-278.146 0 29.294-22.078h68.091c-.53.531-20.272 20.803-21.493 22.078zm176.462 10.614v3.821c0 25.632-20.858 46.49-46.49 46.49-25.687 0-46.543-20.858-46.543-46.49v-3.821zm258.191 324.636c0 15.071-12.26 27.331-27.331 27.331h-347.457c-15.073 0-27.332-12.26-27.332-27.331v-263.763c20.805-.584 38.583-13.268 46.49-31.313 9.447 18.575 28.712 31.366 50.949 31.366 22.926 0 42.721-13.64 51.798-33.223 9.075 19.583 28.87 33.223 51.849 33.223 22.927 0 42.723-13.64 51.799-33.223 9.075 19.583 28.87 33.223 51.851 33.223 22.183 0 41.448-12.791 50.894-31.366 7.908 18.045 25.687 30.728 46.49 31.313zm-43.359-335.25c-.584-.637-20.274-20.805-21.494-22.078h68.091l29.295 22.078z" fill="#000000" data-original="#000000"></path><path d="m344.968 275.85-64.695-37.362c-14.966-8.651-33.593-8.651-48.56 0l-64.747 37.362c-14.966 8.65-24.254 24.731-24.254 42.032v74.725c0 17.3 9.287 33.434 24.254 42.085l64.747 37.361c14.966 8.598 33.593 8.598 48.56 0l64.695-37.361c14.965-8.651 24.306-24.785 24.306-42.085v-74.725c0-17.301-9.341-33.382-24.306-42.032zm13.692 116.756c0 13.532-7.27 26.111-18.999 32.851l-64.695 37.362c-11.729 6.792-26.27 6.792-37.945 0l-64.747-37.362c-11.677-6.74-18.947-19.319-18.947-32.851v-74.725c0-13.533 7.27-26.111 18.947-32.851l64.747-37.362c11.675-6.74 26.217-6.74 37.945 0l64.695 37.362c11.729 6.74 18.999 19.317 18.999 32.851z" fill="#000000" data-original="#000000"></path><path d="m432.27 58.363c0 12.525-10.137 22.661-22.661 22.661-12.578 0-22.768-10.136-22.768-22.661 0-12.524 10.189-22.66 22.768-22.66 12.523 0 22.661 10.136 22.661 22.66z" fill="#000000" data-original="#000000"></path><path d="m377.181 58.363c0 12.525-10.189 22.661-22.715 22.661-12.524 0-22.766-10.136-22.766-22.661 0-12.524 10.242-22.66 22.766-22.66 12.526 0 22.715 10.136 22.715 22.66z" fill="#000000" data-original="#000000"></path><path d="m322.041 58.363c0 12.525-10.191 22.661-22.715 22.661-12.525 0-22.768-10.136-22.768-22.661 0-12.524 10.242-22.66 22.768-22.66 12.524 0 22.715 10.136 22.715 22.66z" fill="#000000" data-original="#000000"></path></g></g></g></svg>