<svg xmlns="http://www.w3.org/2000/svg" version="1.1" xmlns:xlink="http://www.w3.org/1999/xlink" xmlns:svgjs="http://svgjs.com/svgjs" width="512" height="512" x="0" y="0" viewBox="0 0 64 64" style="enable-background:new 0 0 512 512" xml:space="preserve" class=""><g><g><path d="m51.896 19.653c.069-.547.104-1.1.104-1.653 0-7.168-5.832-13-13-13-6.03 0-11.23 4.171-12.625 9.906-1.366-.595-2.855-.906-4.375-.906-6.065 0-11 4.935-11 11 0 .696.063 1.378.188 2.041-4.032.409-7.188 3.822-7.188 7.959 0 4.411 3.589 8 8 8h12c1.324 0 1.323-2 0-2h-12c-3.309 0-6-2.691-6-6s2.691-6 6-6c.348 0 .833.159 1.239-.332.219-.264.288-.623.182-.949-.279-.855-.421-1.77-.421-2.719 0-4.962 4.037-9 9-9 1.634 0 3.223.438 4.593 1.266.622.374 1.415-.015 1.509-.726.711-5.439 5.397-9.54 10.898-9.54 6.065 0 11 4.935 11 11 0 .728-.071 1.457-.212 2.165-.103.52.219 1.03.731 1.163 4.405 1.136 7.481 5.113 7.481 9.672 0 5.514-4.486 10-10 10h-3c-1.324 0-1.323 2 0 2h3c6.617 0 12-5.383 12-12 0-5.163-3.289-9.705-8.104-11.347z" fill="#000000" data-original="#000000" class=""></path><path d="m28 36v-14c0-.552-.447-1-1-1-4.411 0-8 3.589-8 8v7c0 1.323 2 1.324 2 0v-5h5v5c0 1.323 2 1.324 2 0zm-7-7c0-2.968 2.166-5.439 5-5.917v5.917z" fill="#000000" data-original="#000000" class=""></path><path d="m32 36v-5h2c2.757 0 5-2.243 5-5s-2.243-5-5-5h-3c-.553 0-1 .448-1 1v8 6c0 1.323 2 1.324 2 0zm0-13h2c1.654 0 3 1.346 3 3s-1.346 3-3 3h-2z" fill="#000000" data-original="#000000" class=""></path><path d="m41 35c-1.324 0-1.323 2 0 2h4c1.324 0 1.323-2 0-2h-1v-12h1c1.324 0 1.323-2 0-2h-4c-1.324 0-1.323 2 0 2h1v12z" fill="#000000" data-original="#000000" class=""></path><path d="m34.293 47.707c.936.936 2.349-.479 1.414-1.414l-4.999-4.999c-.388-.389-1.027-.39-1.416 0l-4.999 4.999c-.936.936.479 2.349 1.414 1.414l3.293-3.293v13.586c0 1.323 2 1.324 2 0v-13.586z" fill="#000000" data-original="#000000" class=""></path><path d="m44.293 52.293-3.293 3.293v-13.586c0-1.323-2-1.324-2 0v13.586l-3.293-3.293c-.936-.936-2.349.479-1.414 1.414l4.999 4.999c.379.38 1.016.4 1.416 0l4.999-4.999c.936-.936-.479-2.349-1.414-1.414z" fill="#000000" data-original="#000000" class=""></path></g></g></svg>