<svg xmlns="http://www.w3.org/2000/svg" version="1.1" xmlns:xlink="http://www.w3.org/1999/xlink" xmlns:svgjs="http://svgjs.com/svgjs" width="512" height="512" x="0" y="0" viewBox="0 0 24 24" style="enable-background:new 0 0 512 512" xml:space="preserve" class=""><g><path d="m16.1667 6c-.0921 0-.1667.07462-.1667.16667v1.66666c0 .09205.0746.16667.1667.16667h1.6666c.0921 0 .1667-.07462.1667-.16667v-1.66666c0-.09205-.0746-.16667-.1667-.16667zm-.1667 12v-.5c0-.2761.2239-.5.5-.5s.5.2239.5.5v.5h1v-.5c0-.2761.2239-.5.5-.5s.5.2239.5.5v1c0 .2761-.2239.5-.5.5h-4c-.2761 0-.5-.2239-.5-.5v-1c0-.2761.2239-.5.5-.5s.5.2239.5.5v.5zm-3-7h.5c.2761 0 .5.2239.5.5s-.2239.5-.5.5h-2c-.2761 0-.5-.2239-.5-.5s.2239-.5.5-.5h.5v-1h-1.5c-.2761 0-.5-.22386-.5-.5s.2239-.5.5-.5h3c.2761 0 .5.22386.5.5s-.2239.5-.5.5h-.5zm5 1h-.5c-.2761 0-.5-.2239-.5-.5s.2239-.5.5-.5h.5v-.5c0-.2761.2239-.5.5-.5s.5.2239.5.5v2c0 .2761-.2239.5-.5.5s-.5-.2239-.5-.5zm-5 2h-.5c-.2761 0-.5-.2239-.5-.5s.2239-.5.5-.5h1c.2761 0 .5.2239.5.5v2c0 .2761-.2239.5-.5.5h-3c-.2761 0-.5-.2239-.5-.5s.2239-.5.5-.5h2.5zm3.1667-9h1.6666c.6444 0 1.1667.52233 1.1667 1.16667v1.66666c0 .64434-.5223 1.16667-1.1667 1.16667h-1.6666c-.6444 0-1.1667-.52233-1.1667-1.16667v-1.66666c0-.64434.5223-1.16667 1.1667-1.16667zm-10.00003 0h1.66666c.64434 0 1.16667.52233 1.16667 1.16667v1.66666c0 .64434-.52233 1.16667-1.16667 1.16667h-1.66666c-.64434 0-1.16667-.52233-1.16667-1.16667v-1.66666c0-.64434.52233-1.16667 1.16667-1.16667zm0 1c-.09205 0-.16667.07462-.16667.16667v1.66666c0 .09205.07462.16667.16667.16667h1.66666c.09205 0 .16667-.07462.16667-.16667v-1.66666c0-.09205-.07462-.16667-.16667-.16667zm0 9h1.66666c.64434 0 1.16667.5223 1.16667 1.1667v1.6666c0 .6444-.52233 1.1667-1.16667 1.1667h-1.66666c-.64434 0-1.16667-.5223-1.16667-1.1667v-1.6666c0-.6444.52233-1.1667 1.16667-1.1667zm0 1c-.09205 0-.16667.0746-.16667.1667v1.6666c0 .0921.07462.1667.16667.1667h1.66666c.09205 0 .16667-.0746.16667-.1667v-1.6666c0-.0921-.07462-.1667-.16667-.1667zm6.83333-10h-2.5c-.2761 0-.5-.22386-.5-.5s.2239-.5.5-.5h3c.2761 0 .5.22386.5.5v2c0 .27614-.2239.5-.5.5s-.5-.22386-.5-.5zm-2.5 2c-.2761 0-.5-.22386-.5-.5s.2239-.5.5-.5h1c.2761 0 .5.22386.5.5s-.2239.5-.5.5zm-5 6c-.27614 0-.5-.2239-.5-.5s.22386-.5.5-.5h2c.27614 0 .5.2239.5.5s-.22386.5-.5.5zm4 0c-.27614 0-.5-.2239-.5-.5s.22386-.5.5-.5h1c.2761 0 .5.2239.5.5s-.2239.5-.5.5zm1.5 4v.5c0 .2761-.2239.5-.5.5s-.5-.2239-.5-.5v-1c0-.2761.2239-.5.5-.5h2c.2761 0 .5.2239.5.5s-.2239.5-.5.5zm-2-7h.5c.27614 0 .5.2239.5.5s-.22386.5-.5.5h-1c-.27614 0-.5-.2239-.5-.5v-.5h-.5c-.27614 0-.5-.2239-.5-.5s.22386-.5.5-.5h1c.27614 0 .5.2239.5.5zm-4-.5c0-.2761.22386-.5.5-.5s.5.2239.5.5v1c0 .2761-.22386.5-.5.5s-.5-.2239-.5-.5zm10 0c0-.2761.2239-.5.5-.5s.5.2239.5.5v2c0 .2761-.2239.5-.5.5s-.5-.2239-.5-.5zm2 4.5v-.5c0-.2761.2239-.5.5-.5h1c.2761 0 .5.2239.5.5s-.2239.5-.5.5h-.5v.5c0 .2761-.2239.5-.5.5h-2c-.2761 0-.5-.2239-.5-.5v-1c0-.2761.2239-.5.5-.5s.5.2239.5.5v.5zm-14-8.5c0 .27614-.22386.5-.5.5s-.5-.22386-.5-.5v-2c0-1.38071 1.11929-2.5 2.5-2.5h2c.27614 0 .5.22386.5.5s-.22386.5-.5.5h-2c-.82843 0-1.5.67157-1.5 1.5zm14.5-3.5c-.2761 0-.5-.22386-.5-.5s.2239-.5.5-.5h2c1.3807 0 2.5 1.11929 2.5 2.5v2c0 .27614-.2239.5-.5.5s-.5-.22386-.5-.5v-2c0-.82843-.6716-1.5-1.5-1.5zm-11 18c.27614 0 .5.2239.5.5s-.22386.5-.5.5h-2c-1.38071 0-2.5-1.1193-2.5-2.5v-2c0-.2761.22386-.5.5-.5s.5.2239.5.5v2c0 .8284.67157 1.5 1.5 1.5zm14.5-3.5c0-.2761.2239-.5.5-.5s.5.2239.5.5v2c0 1.3807-1.1193 2.5-2.5 2.5h-2c-.2761 0-.5-.2239-.5-.5s.2239-.5.5-.5h2c.8284 0 1.5-.6716 1.5-1.5z" fill="#000000" data-original="#000000"></path></g></svg>