<svg xmlns="http://www.w3.org/2000/svg" version="1.1" xmlns:xlink="http://www.w3.org/1999/xlink" xmlns:svgjs="http://svgjs.com/svgjs" width="512" height="512" x="0" y="0" viewBox="0 0 512 512" style="enable-background:new 0 0 512 512" xml:space="preserve" class=""><g><path d="m475.053 111.416c0-18.802-6.212-36.179-16.69-50.189l8.068-8.068c3.905-3.905 3.905-10.236 0-14.143-3.905-3.902-10.235-3.904-14.143 0l-7.72 7.72c-12.111-10.031-27.08-16.713-43.48-18.669v-8.067h1.928c5.522 0 10-4.478 10-10s-4.478-10-10-10h-23.854c-5.522 0-10 4.478-10 10s4.478 10 10 10h1.927v8.067c-22.014 2.626-41.444 13.781-54.856 30.083h-279.219c-5.522 0-10 4.478-10 10v345.52c0 5.522 4.478 10 10 10 .145 0 .289-.003.438-.009 5.42-.118 9.777-4.549 9.777-9.997 0-.71-.074-1.403-.215-2.071v-333.443h256.949c-4.432 10.243-6.752 21.311-6.826 32.712-.254 32.164 18.651 62.119 47.521 76.183 8.28 4.033 17.291 6.654 26.436 7.743v297.212h-334.08c-5.522 0-10 4.478-10 10s4.478 10 10 10h344.08c5.522 0 10-4.478 10-10v-307.236c41.597-4.965 73.959-40.437 73.959-83.348zm-73.964 63.178v-7.139c0-5.522-4.478-10-10-10s-10 4.478-10 10v7.137c-19.569-3.087-36.205-15.081-45.64-31.681-3.716-6.539-6.322-13.787-7.538-21.495h7.139c5.522 0 10-4.478 10-10s-4.478-10-10-10h-7.139c4.301-27.277 25.901-48.876 53.178-53.178v7.139c0 5.522 4.478 10 10 10s10-4.478 10-10v-7.139c27.277 4.301 48.876 25.901 53.178 53.178h-7.139c-5.522 0-10 4.478-10 10s4.478 10 10 10h7.139c-4.302 27.277-25.901 48.876-53.178 53.178z" fill="#000000" data-original="#000000" class=""></path><path d="m406.02 79.307-23.456 23.455c-3.905 3.905-3.905 10.237 0 14.143 1.953 1.952 4.512 2.929 7.071 2.929s5.118-.977 7.071-2.929l23.456-23.455c3.905-3.905 3.905-10.237 0-14.143-3.904-3.903-10.235-3.905-14.142 0z" fill="#000000" data-original="#000000" class=""></path><path d="m273.71 112.941h-174.64c-5.522 0-10 4.478-10 10v44.514c0 5.522 4.478 10 10 10h174.64c5.522 0 10-4.478 10-10v-44.514c0-5.522-4.478-10-10-10zm-10 44.514h-154.64v-24.514h154.64z" fill="#000000" data-original="#000000" class=""></path><path d="m156.995 241.978c-.935-15.051-12.988-27.104-28.037-28.037-8.373-.516-16.339 2.347-22.433 8.075-6.009 5.646-9.455 13.613-9.455 21.857 0 5.522 4.478 10 10 10s10-4.478 10-10c0-2.787 1.119-5.374 3.151-7.284 2.03-1.907 4.688-2.854 7.497-2.688 4.918.306 9.01 4.397 9.315 9.316.242 3.905-1.725 7.508-5.133 9.401-9.153 5.086-14.839 14.668-14.839 25.007 0 5.522 4.478 10 10 10s10-4.478 10-10c0-3.08 1.745-5.964 4.554-7.524 10.212-5.673 16.105-16.45 15.38-28.123z" fill="#000000" data-original="#000000" class=""></path><path d="m123.234 319.899c5.033 2.065 10.975-.372 13.06-5.409 2.156-5.208-.571-11.328-5.87-13.225-5.132-1.837-10.922.909-12.765 6.037-1.778 4.947.721 10.577 5.575 12.597z" fill="#000000" data-original="#000000" class=""></path><path d="m141.617 407.749c10.21-5.675 16.103-16.451 15.378-28.124-.935-15.05-12.987-27.103-28.038-28.037-8.362-.516-16.338 2.349-22.433 8.076-6.008 5.647-9.454 13.614-9.454 21.857 0 5.522 4.478 10 10 10s10-4.478 10-10c0-2.787 1.119-5.374 3.151-7.284 2.031-1.907 4.703-2.847 7.496-2.688 4.919.306 9.011 4.397 9.316 9.316.242 3.905-1.725 7.509-5.133 9.402-9.153 5.086-14.839 14.668-14.839 25.007 0 5.522 4.478 10 10 10s10-4.478 10-10c.001-3.08 1.746-5.963 4.556-7.525z" fill="#000000" data-original="#000000" class=""></path><path d="m136.294 444.49c-2.089-5.019-8.026-7.499-13.06-5.41-5.037 2.09-7.479 8.028-5.394 13.054 2.016 4.859 7.625 7.355 12.584 5.581 5.287-1.892 8.039-8.022 5.87-13.225z" fill="#000000" data-original="#000000" class=""></path><path d="m327.124 240.753h-121.021c-5.522 0-10 4.478-10 10s4.478 10 10 10h121.021c5.522 0 10-4.478 10-10s-4.478-10-10-10z" fill="#000000" data-original="#000000" class=""></path><path d="m206.103 303.941h88.042c5.522 0 10-4.478 10-10s-4.478-10-10-10h-88.042c-5.522 0-10 4.478-10 10s4.478 10 10 10z" fill="#000000" data-original="#000000" class=""></path><path d="m337.124 381.422c0-5.522-4.478-10-10-10h-121.021c-5.522 0-10 4.478-10 10s4.478 10 10 10h121.021c5.522 0 10-4.478 10-10z" fill="#000000" data-original="#000000" class=""></path><path d="m206.103 414.61c-5.522 0-10 4.478-10 10s4.478 10 10 10h88.042c5.522 0 10-4.478 10-10s-4.478-10-10-10z" fill="#000000" data-original="#000000" class=""></path><path d="m37.784 462.47c2.097 5.03 8.005 7.497 13.05 5.41 5.04-2.085 7.49-8.023 5.41-13.061-4.924-11.922-23.421-4.248-18.46 7.651z" fill="#000000" data-original="#000000" class=""></path></g></svg>