<svg xmlns="http://www.w3.org/2000/svg" version="1.1" xmlns:xlink="http://www.w3.org/1999/xlink" xmlns:svgjs="http://svgjs.com/svgjs" width="512" height="512" x="0" y="0" viewBox="0 0 24 24" style="enable-background:new 0 0 512 512" xml:space="preserve" class=""><g><g><path d="m22.5 6h-6c-.827 0-1.5-.673-1.5-1.5v-3c0-.827.673-1.5 1.5-1.5h6c.827 0 1.5.673 1.5 1.5v3c0 .827-.673 1.5-1.5 1.5zm-6-5c-.275 0-.5.224-.5.5v3c0 .276.225.5.5.5h6c.275 0 .5-.224.5-.5v-3c0-.276-.225-.5-.5-.5z" fill="#000000" data-original="#000000" class=""></path></g><g><path d="m22.5 15h-6c-.827 0-1.5-.673-1.5-1.5v-3c0-.827.673-1.5 1.5-1.5h6c.827 0 1.5.673 1.5 1.5v3c0 .827-.673 1.5-1.5 1.5zm-6-5c-.275 0-.5.224-.5.5v3c0 .276.225.5.5.5h6c.275 0 .5-.224.5-.5v-3c0-.276-.225-.5-.5-.5z" fill="#000000" data-original="#000000" class=""></path></g><g><path d="m22.5 24h-6c-.827 0-1.5-.673-1.5-1.5v-3c0-.827.673-1.5 1.5-1.5h6c.827 0 1.5.673 1.5 1.5v3c0 .827-.673 1.5-1.5 1.5zm-6-5c-.275 0-.5.224-.5.5v3c0 .276.225.5.5.5h6c.275 0 .5-.224.5-.5v-3c0-.276-.225-.5-.5-.5z" fill="#000000" data-original="#000000" class=""></path></g><g><path d="m12.5 2h-12c-.276 0-.5-.224-.5-.5s.224-.5.5-.5h12c.276 0 .5.224.5.5s-.224.5-.5.5z" fill="#000000" data-original="#000000" class=""></path></g><g><path d="m12.5 5h-12c-.276 0-.5-.224-.5-.5s.224-.5.5-.5h12c.276 0 .5.224.5.5s-.224.5-.5.5z" fill="#000000" data-original="#000000" class=""></path></g><g><path d="m12.5 11h-12c-.276 0-.5-.224-.5-.5s.224-.5.5-.5h12c.276 0 .5.224.5.5s-.224.5-.5.5z" fill="#000000" data-original="#000000" class=""></path></g><g><path d="m12.5 14h-12c-.276 0-.5-.224-.5-.5s.224-.5.5-.5h12c.276 0 .5.224.5.5s-.224.5-.5.5z" fill="#000000" data-original="#000000" class=""></path></g><g><path d="m12.5 20h-12c-.276 0-.5-.224-.5-.5s.224-.5.5-.5h12c.276 0 .5.224.5.5s-.224.5-.5.5z" fill="#000000" data-original="#000000" class=""></path></g><g><path d="m12.5 23h-12c-.276 0-.5-.224-.5-.5s.224-.5.5-.5h12c.276 0 .5.224.5.5s-.224.5-.5.5z" fill="#000000" data-original="#000000" class=""></path></g></g></svg>