<svg xmlns="http://www.w3.org/2000/svg" version="1.1" xmlns:xlink="http://www.w3.org/1999/xlink" xmlns:svgjs="http://svgjs.com/svgjs" width="512" height="512" x="0" y="0" viewBox="0 0 64 64" style="enable-background:new 0 0 512 512" xml:space="preserve" class=""><g><path d="m22 33v14c0 2.851 4.3 5 10 5s10-2.149 10-5v-14c0-2.851-4.3-5-10-5s-10 2.149-10 5zm10-3c4.884 0 8 1.777 8 3s-3.116 3-8 3-8-1.777-8-3 3.116-3 8-3zm-8 6.064a14.931 14.931 0 0 0 8 1.936 14.931 14.931 0 0 0 8-1.936v3.936c0 1.223-3.116 3-8 3s-8-1.777-8-3zm0 7a14.931 14.931 0 0 0 8 1.936 14.931 14.931 0 0 0 8-1.936v3.936c0 1.223-3.116 3-8 3s-8-1.777-8-3z" fill="#000000" data-original="#000000"></path><path d="m36 39h2v2h-2z" fill="#000000" data-original="#000000"></path><path d="m36 46h2v2h-2z" fill="#000000" data-original="#000000"></path><path d="m32 63a30.913 30.913 0 0 0 16.534-4.772l-1.068-1.691a29 29 0 0 1 -37.35-43.559l-.345 2.969 1.987.231.7-6.063a1 1 0 0 0 -1.225-1.088l-5.933 1.414.463 1.946 2.794-.666a31 31 0 0 0 23.443 51.279z" fill="#000000" data-original="#000000"></path><path d="m32 1a30.9 30.9 0 0 0 -16.534 4.774l1.068 1.691a29 29 0 0 1 37.35 43.557l.345-2.969-1.987-.231-.7 6.063a1 1 0 0 0 .989 1.115 1.014 1.014 0 0 0 .232-.027l5.937-1.414-.463-1.946-2.794.666a31 31 0 0 0 -23.443-51.279z" fill="#000000" data-original="#000000"></path><path d="m24.056 19.806a1.636 1.636 0 0 0 .182 1.277l1.128 1.868a1.71 1.71 0 0 0 2.3.6l.26-.143a7 7 0 0 0 1.243.693v.223a1.69 1.69 0 0 0 1.703 1.676h2.256a1.69 1.69 0 0 0 1.7-1.672v-.223a6.927 6.927 0 0 0 1.243-.693l.261.144a1.712 1.712 0 0 0 2.3-.606l1.126-1.866a1.635 1.635 0 0 0 .183-1.278 1.689 1.689 0 0 0 -.812-1.033l-.216-.119a6.307 6.307 0 0 0 0-1.308l.216-.119a1.689 1.689 0 0 0 .812-1.033 1.636 1.636 0 0 0 -.182-1.277l-1.128-1.868a1.712 1.712 0 0 0 -2.3-.6l-.26.143a7 7 0 0 0 -1.243-.693v-.223a1.69 1.69 0 0 0 -1.7-1.676h-2.256a1.69 1.69 0 0 0 -1.7 1.672v.228a6.927 6.927 0 0 0 -1.243.693l-.261-.144a1.713 1.713 0 0 0 -2.3.606l-1.126 1.866a1.635 1.635 0 0 0 -.183 1.278 1.689 1.689 0 0 0 .812 1.033l.216.119a6.307 6.307 0 0 0 0 1.308l-.216.119a1.689 1.689 0 0 0 -.815 1.028zm2.994-1.806a4.3 4.3 0 0 1 .045-.626 1.655 1.655 0 0 0 -.853-1.672l-.105-.059.8-1.319.178.1a1.753 1.753 0 0 0 1.876-.134 4.956 4.956 0 0 1 1.1-.609 1.688 1.688 0 0 0 1.086-1.557v-.124h1.662v.123a1.688 1.688 0 0 0 1.086 1.557 4.971 4.971 0 0 1 1.1.611 1.758 1.758 0 0 0 1.873.132l.178-.1.8 1.319-.1.058a1.658 1.658 0 0 0 -.855 1.672 4.188 4.188 0 0 1 .029.628 4.3 4.3 0 0 1 -.045.626 1.655 1.655 0 0 0 .853 1.672l.1.059-.8 1.319-.178-.1a1.758 1.758 0 0 0 -1.876.134 4.956 4.956 0 0 1 -1.1.609 1.688 1.688 0 0 0 -1.086 1.557v.124h-1.649v-.123a1.688 1.688 0 0 0 -1.086-1.557 4.971 4.971 0 0 1 -1.1-.611 1.756 1.756 0 0 0 -1.873-.132l-.178.1-.8-1.319.1-.058a1.658 1.658 0 0 0 .855-1.672 4.188 4.188 0 0 1 -.037-.628z" fill="#000000" data-original="#000000"></path><path d="m32 21.5a3.5 3.5 0 1 0 -3.5-3.5 3.5 3.5 0 0 0 3.5 3.5zm0-5a1.5 1.5 0 1 1 -1.5 1.5 1.5 1.5 0 0 1 1.5-1.5z" fill="#000000" data-original="#000000"></path></g></svg>