<svg xmlns="http://www.w3.org/2000/svg" version="1.1" xmlns:xlink="http://www.w3.org/1999/xlink" xmlns:svgjs="http://svgjs.com/svgjs" width="512" height="512" x="0" y="0" viewBox="0 0 60 60" style="enable-background:new 0 0 512 512" xml:space="preserve" class=""><g><g id="Page-1" fill="none" fill-rule="evenodd"><g id="037---Cloud-Profile" fill="rgb(0,0,0)" fill-rule="nonzero"><path id="Shape" d="m41.59 7.49c-1.8996293-2.21500206-4.6719826-3.48977318-7.59-3.49-.5522847 0-1 .44771525-1 1s.4477153 1 1 1c2.3350005.00276653 4.5522502 1.02555059 6.07 2.8.1900027.22213775.4676882.35001923.76.35.2396226-.00275895.470287-.09147603.65-.25.2015762-.17238328.3264119-.4177863.3470412-.68221664.0206293-.26443035-.0646378-.52622436-.2370412-.72778336z" fill="#000000" data-original="#000000" class=""></path><path id="Shape" d="m48 14c-.0137806-6.75848529-4.8538456-12.54228148-11.5040745-13.74717535s-13.2118426 2.51313692-15.5959255 8.83717535c-3.1853678.34613608-6.0079851 2.2080208-7.58 5-.4379481-.0548953-.8786538-.0849434-1.32-.09-6.627417 0-12 5.372583-12 12s5.372583 12 12 12h3.18c2.2974446 5.7158662 7.6723638 9.6050987 13.82 10v2h-15c-1.6568542 0-3 1.3431458-3 3v4c0 1.6568542 1.3431458 3 3 3h32c1.6568542 0 3-1.3431458 3-3v-4c0-1.6568542-1.3431458-3-3-3h-15v-2c6.1476362-.3949013 11.5225554-4.2841338 13.82-10h3.18c6.627417 0 12-5.372583 12-12s-5.372583-12-12-12zm-1 39v4c0 .5522847-.4477153 1-1 1h-32c-.5522847 0-1-.4477153-1-1v-4c0-.5522847.4477153-1 1-1h32c.5522847 0 1 .4477153 1 1zm-5.15-13.59c-1.9644196-1.981488-4.4683724-3.3412735-7.2-3.91 2.8298811-2.0214057 4.029682-5.6394969 2.9683464-8.951275-1.0613357-3.3117782-4.1406592-5.5585253-7.6183464-5.5585253s-6.5570107 2.2467471-7.6183464 5.5585253c-1.0613356 3.3117781.1384653 6.9298693 2.9683464 8.951275-2.7316276.5687265-5.2355804 1.928512-7.2 3.91-1.4056073-2.2157996-2.1513402-4.7859768-2.15-7.41.0000001-7.7319864 6.2680136-13.9999998 14-13.9999998s13.9999999 6.2680134 14 13.9999998c.0013402 2.6240232-.7443927 5.1942004-2.15 7.41zm-17.85-10.41c0-3.3137085 2.6862915-6 6-6s6 2.6862915 6 6-2.6862915 6-6 6-6-2.6862915-6-6zm6 17c-4.1041125.0013671-8.0002861-1.8058721-10.65-4.94 1.8-2 5-4.06 10.65-4.06s8.85 2.08 10.65 4.06c-2.6497139 3.1341279-6.5458875 4.9413671-10.65 4.94zm18-10h-2.53c.3495281-1.3046786.5276923-2.6493147.53-4 0-8.836556-7.163444-16-16-16s-16 7.163444-16 16c.0023077 1.3506853.1804719 2.6953214.53 4h-2.53c-5.5228475 0-10-4.4771525-10-10s4.4771525-10 10-10c1.9730774-.0063323 3.9027673.5788444 5.54 1.68.3001031.2000687.6841452.2248368 1.0074614.0649742.3233161-.1598625.5367869-.4800687.56-.84.023213-.3599312-.1473583-.7049055-.4474614-.9049742-1.0022971-.6732402-2.1016771-1.1892069-3.26-1.53 1.4344209-2.0914501 3.7755523-3.3788869 6.31-3.47h.22c1.756403-.0251036 3.4707167.5381206 4.87 1.6.4418278.3313708 1.0686291.2418278 1.4-.2.3313708-.4418278.2418278-1.0686291-.2-1.4-1.4368206-1.08209346-3.1410594-1.75272698-4.93-1.94 2.3315558-5.14486251 7.9354541-7.96718928 13.457282-6.77757612s9.466469 6.06906094 9.472718 11.71757612v.17c-1.6662638.2699658-3.2552963.893985-4.66 1.83-.4583963.3092795-.5792795.9316037-.27 1.39s.9316037.5792795 1.39.27c1.6394914-1.0940872 3.5690082-1.6722457 5.54-1.66 5.5228475 0 10 4.4771525 10 10s-4.4771525 10-10 10z" fill="#000000" data-original="#000000" class=""></path><path id="Shape" d="m17 56h1c.5522847 0 1-.4477153 1-1s-.4477153-1-1-1h-1c-.5522847 0-1 .4477153-1 1s.4477153 1 1 1z" fill="#000000" data-original="#000000" class=""></path><path id="Shape" d="m22 56h1c.5522847 0 1-.4477153 1-1s-.4477153-1-1-1h-1c-.5522847 0-1 .4477153-1 1s.4477153 1 1 1z" fill="#000000" data-original="#000000" class=""></path><path id="Shape" d="m27 56h1c.5522847 0 1-.4477153 1-1s-.4477153-1-1-1h-1c-.5522847 0-1 .4477153-1 1s.4477153 1 1 1z" fill="#000000" data-original="#000000" class=""></path><path id="Shape" d="m32 56h1c.5522847 0 1-.4477153 1-1s-.4477153-1-1-1h-1c-.5522847 0-1 .4477153-1 1s.4477153 1 1 1z" fill="#000000" data-original="#000000" class=""></path><path id="Shape" d="m37 56h1c.5522847 0 1-.4477153 1-1s-.4477153-1-1-1h-1c-.5522847 0-1 .4477153-1 1s.4477153 1 1 1z" fill="#000000" data-original="#000000" class=""></path><path id="Shape" d="m42 56h1c.5522847 0 1-.4477153 1-1s-.4477153-1-1-1h-1c-.5522847 0-1 .4477153-1 1s.4477153 1 1 1z" fill="#000000" data-original="#000000" class=""></path></g></g></g></svg>