<svg xmlns="http://www.w3.org/2000/svg" version="1.1" xmlns:xlink="http://www.w3.org/1999/xlink" xmlns:svgjs="http://svgjs.com/svgjs" width="512" height="512" x="0" y="0" viewBox="0 0 512 512" style="enable-background:new 0 0 512 512" xml:space="preserve" class=""><g><g><path d="m374.093 36.427c-34.924-23.831-75.76-36.427-118.093-36.427s-83.169 12.596-118.093 36.427l16.91 24.78c29.919-20.415 64.908-31.207 101.183-31.207s71.264 10.792 101.183 31.207z" fill="#000000" data-original="#000000" class=""></path><path d="m174.203 84.309 16.398 25.121c19.474-12.711 42.088-19.43 65.399-19.43s45.925 6.719 65.398 19.43l16.398-25.121c-24.361-15.903-52.647-24.309-81.796-24.309s-57.435 8.406-81.797 24.309z" fill="#000000" data-original="#000000" class=""></path><path d="m406 301h30v-30h-90v-60c0-49.92-40.429-91-90-91-49.519 0-90 41.033-90 91v60h-90v30h30c0 78.59 60.157 142.739 135 150.25v30.75h-75v30h180v-30h-75v-30.75c74.848-7.511 135-71.665 135-150.25zm-210-90c0-33.636 26.916-61 60-61s60 27.364 60 61v90c0 33.636-26.916 61-60 61s-60-27.364-60-61zm-60 90h30c0 49.92 40.429 91 90 91 49.519 0 90-41.033 90-91.01h30c0 66.73-53.832 121.01-120 121.01s-120-54.28-120-121z" fill="#000000" data-original="#000000" class=""></path><path d="m226 211h60v30h-60z" fill="#000000" data-original="#000000" class=""></path><path d="m226 271h60v30h-60z" fill="#000000" data-original="#000000" class=""></path></g></g></svg>