<svg xmlns="http://www.w3.org/2000/svg" version="1.1" xmlns:xlink="http://www.w3.org/1999/xlink" xmlns:svgjs="http://svgjs.com/svgjs" width="512" height="512" x="0" y="0" viewBox="0 0 64 64" style="enable-background:new 0 0 512 512" xml:space="preserve"><g><g id="news_paper" data-name="news paper"><path d="M53,53H47a1,1,0,0,1-1-1V11a1,1,0,0,1,1-1h9a1,1,0,0,1,0,2,2,2,0,0,0-2,2V52A1,1,0,0,1,53,53Zm-5-2h4V14a4,4,0,0,1,.54-2H48Z" fill="#000000" data-original="#000000"></path><path d="M53,60a7,7,0,0,1-7-7V52a1,1,0,0,1,1-1h5V14a4,4,0,1,1,8,0V53A7,7,0,0,1,53,60Zm-5-7a5,5,0,0,0,10,0V14a2,2,0,0,0-2-2,2,2,0,0,0-2,2V52a1,1,0,0,1-1,1Z" fill="#000000" data-original="#000000"></path><path d="M53,60H11a7,7,0,0,1-7-7V5A1,1,0,0,1,5,4H47a1,1,0,0,1,1,1V53a5,5,0,0,0,5,5,1,1,0,0,1,0,2ZM6,6V53a5,5,0,0,0,5,5H48.11A7,7,0,0,1,46,53V6Z" fill="#000000" data-original="#000000"></path><path d="M41,33H11a1,1,0,0,1-1-1V11a1,1,0,0,1,1-1H41a1,1,0,0,1,1,1V32A1,1,0,0,1,41,33ZM12,31H40V12H12Z" fill="#000000" data-original="#000000"></path><path d="M41,55H28a1,1,0,0,1-1-1V36a1,1,0,0,1,1-1H41a1,1,0,0,1,1,1V54A1,1,0,0,1,41,55ZM29,53H40V37H29Z" fill="#000000" data-original="#000000"></path><path d="M23,39H11a1,1,0,0,1,0-2H23a1,1,0,0,1,0,2Z" fill="#000000" data-original="#000000"></path><path d="M23,44H11a1,1,0,0,1,0-2H23a1,1,0,0,1,0,2Z" fill="#000000" data-original="#000000"></path><path d="M23,49H11a1,1,0,0,1,0-2H23a1,1,0,0,1,0,2Z" fill="#000000" data-original="#000000"></path><path d="M23,54H11a1,1,0,0,1,0-2H23a1,1,0,0,1,0,2Z" fill="#000000" data-original="#000000"></path><path d="M23,25H20a4,4,0,0,1,0-8h3a1,1,0,0,1,1,1v6A1,1,0,0,1,23,25Zm-3-6a2,2,0,0,0,0,4h2V19Z" fill="#000000" data-original="#000000"></path><path d="M29,28a1,1,0,0,1-.45-.11l-6-3A1,1,0,0,1,22,24V18a1,1,0,0,1,.55-.89l6-3A1,1,0,0,1,30,15V27a1,1,0,0,1-.47.85A1,1,0,0,1,29,28Zm-5-4.62,4,2V16.62l-4,2Z" fill="#000000" data-original="#000000"></path><path d="M35,22H33a1,1,0,0,1,0-2h2a1,1,0,0,1,0,2Z" fill="#000000" data-original="#000000"></path><path d="M33,18a1,1,0,0,1-.89-.55,1,1,0,0,1,.44-1.34l2-1a1,1,0,0,1,.9,1.78l-2,1A.93.93,0,0,1,33,18Z" fill="#000000" data-original="#000000"></path><path d="M35,27a.93.93,0,0,1-.45-.11l-2-1a1,1,0,1,1,.9-1.78l2,1a1,1,0,0,1,.44,1.34A1,1,0,0,1,35,27Z" fill="#000000" data-original="#000000"></path><path d="M20,29a1,1,0,0,1-1-1V24a1,1,0,0,1,2,0v4A1,1,0,0,1,20,29Z" fill="#000000" data-original="#000000"></path></g></g></svg>