<svg xmlns="http://www.w3.org/2000/svg" version="1.1" xmlns:xlink="http://www.w3.org/1999/xlink" xmlns:svgjs="http://svgjs.com/svgjs" width="512" height="512" x="0" y="0" viewBox="0 0 55 55" style="enable-background:new 0 0 512 512" xml:space="preserve" class=""><g><g fill="rgb(0,0,0)"><path d="m48.512 40.724-5.956-3.235c-.415-.225-.9-.231-1.324-.064l-1.397-1.397c10.113-13.238.7-32.546-16.09-32.546-.001 0-.003 0-.005 0-11.169.002-20.257 9.036-20.257 20.263 0 11.297 9.15 20.248 20.263 20.248 4.337 0 8.664-1.398 12.278-4.157l1.399 1.399c-.167.424-.162.908.063 1.323l3.236 5.956c1.833 3.375 6.391 4.038 9.11 1.319 2.716-2.716 2.057-7.274-1.32-9.109zm-43.529-16.979c0-10.385 8.403-18.761 18.757-18.764h.005c16.477 0 24.934 19.891 13.507 31.766-11.73 12.225-32.269 3.736-32.269-13.002zm33.901 13.452 1.188 1.188-1.689 1.689-1.187-1.188c.375-.332.825-.713 1.688-1.689zm9.887 11.576c-2.016 2.016-5.381 1.511-6.731-.975l-3.224-6.037 3.024-2.955 5.956 3.236c2.494 1.354 2.983 4.723.975 6.731z" fill="#000000" data-original="#000000" class=""></path><path d="m38.102 23.734c0-7.917-6.441-14.357-14.357-14.357-7.917 0-14.358 6.441-14.358 14.357 0 7.843 6.347 14.372 14.358 14.372 8.036 0 14.357-6.556 14.357-14.372zm-14.358-12.857c7.09 0 12.857 5.768 12.857 12.857 0 2.78-.915 5.483-2.577 7.707-1.832-1.894-4.128-3.228-6.646-3.886.607-.375 1.16-.841 1.632-1.397 1.074-1.258 1.666-2.86 1.666-4.51 0-3.823-3.11-6.934-6.933-6.934s-6.934 3.11-6.934 6.934c0 1.65.592 3.252 1.665 4.509.473.556 1.027 1.023 1.634 1.398-2.518.659-4.814 1.992-6.646 3.887-1.662-2.224-2.577-4.926-2.577-7.707.002-7.091 5.77-12.858 12.859-12.858zm0 16.192c-.057 0-.114.009-.171.009-1.529-.048-2.963-.728-3.956-1.894-.843-.987-1.307-2.243-1.307-3.537 0-2.996 2.438-5.434 5.434-5.434s5.433 2.438 5.433 5.434c0 1.293-.464 2.549-1.308 3.538-.991 1.165-2.426 1.845-3.955 1.893-.056 0-.112-.009-.17-.009zm-9.316 5.506c2.372-2.51 5.661-3.949 9.141-3.996.059.001.117.01.176.01s.117-.008.176-.01c3.479.047 6.768 1.486 9.14 3.996-2.549 2.704-5.917 4.032-9.316 4.032-3.327-.001-6.772-1.334-9.317-4.032z" fill="#000000" data-original="#000000" class=""></path></g></g></svg>