<svg xmlns="http://www.w3.org/2000/svg" version="1.1" xmlns:xlink="http://www.w3.org/1999/xlink" xmlns:svgjs="http://svgjs.com/svgjs" width="512" height="512" x="0" y="0" viewBox="0 0 512 512" style="enable-background:new 0 0 512 512" xml:space="preserve" class=""><g><g><path d="m497 201h-20c-8.284 0-15 6.716-15 15s6.716 15 15 15h20c8.284 0 15-6.716 15-15s-6.716-15-15-15z" fill="#000000" data-original="#000000" class=""></path><path d="m455.578 151.003c2.544 0 5.124-.648 7.486-2.013l17.321-10c7.174-4.142 9.632-13.315 5.49-20.49s-13.315-9.634-20.49-5.49l-17.321 10c-7.174 4.142-9.632 13.315-5.49 20.49 2.778 4.813 7.82 7.503 13.004 7.503z" fill="#000000" data-original="#000000" class=""></path><path d="m389.5 90.426c2.362 1.364 4.941 2.013 7.486 2.013 5.184 0 10.226-2.69 13.004-7.503l10-17.32c4.142-7.174 1.684-16.349-5.49-20.49-7.174-4.145-16.349-1.686-20.49 5.49l-10 17.32c-4.142 7.173-1.684 16.348 5.49 20.49z" fill="#000000" data-original="#000000" class=""></path><path d="m317 71c8.284 0 15-6.716 15-15v-20c0-8.284-6.716-15-15-15s-15 6.716-15 15v20c0 8.284 6.716 15 15 15z" fill="#000000" data-original="#000000" class=""></path><path d="m224.01 84.936c2.778 4.813 7.82 7.503 13.004 7.503 2.544 0 5.124-.648 7.486-2.013 7.174-4.142 9.632-13.316 5.49-20.49l-10-17.32c-4.142-7.174-13.316-9.634-20.49-5.49-7.174 4.142-9.632 13.316-5.49 20.49z" fill="#000000" data-original="#000000" class=""></path><path d="m153.615 138.99 17.321 10c2.362 1.364 4.941 2.013 7.486 2.013 5.184 0 10.227-2.691 13.004-7.503 4.142-7.175 1.684-16.349-5.49-20.49l-17.321-10c-7.175-4.145-16.349-1.684-20.49 5.49-4.142 7.175-1.684 16.349 5.49 20.49z" fill="#000000" data-original="#000000" class=""></path><path d="m480.385 293.01-17.321-10c-7.176-4.144-16.349-1.684-20.49 5.49-4.142 7.175-1.684 16.349 5.49 20.49l17.321 10c2.362 1.364 4.941 2.013 7.486 2.013 5.184 0 10.227-2.691 13.004-7.503 4.142-7.175 1.684-16.349-5.49-20.49z" fill="#000000" data-original="#000000" class=""></path><path d="m408.37 285.839c15.459-20.197 23.63-44.347 23.63-69.839 0-63.411-51.589-115-115-115-28.611 0-56.033 10.575-77.214 29.777-16.293 14.771-27.88 33.7-33.639 54.557-9.927-2.811-20.372-4.334-31.147-4.334-63.411 0-115 51.589-115 115 0 9.454 1.145 18.757 3.416 27.817-14.741 3.843-28.225 11.613-39.139 22.742-15.655 15.965-24.277 37.076-24.277 59.441 0 46.869 38.131 85 85 85h270c41.355 0 75-33.645 75-75 0-36.249-25.848-66.573-60.081-73.51-.36-7.774-1.923-15.235-4.483-22.22 16.753-7.819 31.632-19.665 42.934-34.431zm-8.37 130.161c0 24.813-20.187 45-45 45h-270c-30.327 0-55-24.673-55-55 0-14.463 5.575-28.113 15.697-38.436 10.109-10.309 23.624-16.164 38.054-16.488 5.003-.112 9.621-2.712 12.312-6.932 2.69-4.22 3.099-9.503 1.09-14.087-4.746-10.827-7.153-22.286-7.153-34.057 0-46.869 38.131-85 85-85 44.67 0 81.878 34.944 84.707 79.555.299 4.709 2.796 9.003 6.741 11.592 3.944 2.588 8.876 3.171 13.316 1.57 5-1.803 10.126-2.717 15.236-2.717 24.813 0 45 20.187 45 45 0 2.301-.228 4.77-.697 7.546-.743 4.396.507 8.893 3.412 12.273 2.904 3.382 7.185 5.266 11.618 5.225.332-.005.661-.021 1.013-.043 24.654.187 44.654 20.301 44.654 44.999zm-50.489-121.453c-13.683-14.488-33.057-23.547-54.511-23.547-2.593 0-5.184.138-7.764.413-6.863-31.433-26.587-57.942-53.191-73.973 8.495-38.483 42.584-66.44 82.955-66.44 46.869 0 85 38.131 85 85 0 34.512-21.163 65.547-52.489 78.547z" fill="#000000" data-original="#000000" class=""></path></g></g></svg>