<?xml version="1.0" standalone="no"?>
<!DOCTYPE svg PUBLIC "-//W3C//DTD SVG 20010904//EN"
 "http://www.w3.org/TR/2001/REC-SVG-20010904/DTD/svg10.dtd">
<svg version="1.0" xmlns="http://www.w3.org/2000/svg"
 width="247.000000pt" height="247.000000pt" viewBox="0 0 247.000000 247.000000"
 preserveAspectRatio="xMidYMid meet">
<metadata>
Created by potrace 1.14, written by Peter Selinger 2001-2017
</metadata>
<g transform="translate(0.000000,247.000000) scale(0.100000,-0.100000)"
fill="#000000" stroke="none">
<path d="M946 1815 c93 -49 136 -120 148 -243 4 -46 -20 -181 -35 -196 -6 -6
-9 -6 -10 0 -2 29 -11 89 -22 150 l-12 68 -92 1 -92 0 -44 -105 c-24 -58 -57
-138 -73 -177 -16 -40 -31 -73 -34 -73 -3 0 -36 79 -74 175 -38 96 -72 175
-75 176 -12 1 -137 1 -158 0 -15 -1 -23 -9 -27 -28 -6 -30 -6 -30 -36 -213
-28 -166 -27 -161 -34 -190 -3 -14 -8 -41 -11 -60 -2 -19 -7 -48 -10 -65 -3
-16 -7 -43 -10 -60 -3 -16 -7 -40 -9 -52 -5 -25 -5 -25 79 -25 111 0 101 -7
114 80 7 42 14 88 16 102 3 14 9 59 15 100 6 41 14 78 19 83 4 4 22 -27 39
-70 104 -261 118 -288 145 -291 41 -5 33 -19 -30 -51 -116 -58 -260 -87 -339
-68 -79 19 -155 89 -175 159 -17 59 -14 182 5 259 22 91 116 272 181 349 30
36 64 79 76 95 l22 30 -33 -30 c-190 -172 -318 -383 -355 -586 -27 -153 1
-263 89 -351 54 -53 93 -70 175 -72 106 -4 205 23 326 87 l80 43 11 62 c6 34
9 62 6 62 -2 0 0 6 6 13 9 10 122 264 154 346 10 25 11 25 18 6 4 -11 14 -58
20 -105 7 -47 14 -92 15 -100 8 -46 17 -131 14 -137 -5 -12 47 -18 123 -15
l69 4 -6 36 c-3 21 -8 53 -10 72 -2 19 -12 80 -21 136 -16 99 -16 102 5 142
26 51 52 159 56 231 3 69 -15 147 -48 202 -32 54 -48 69 -114 97 -71 30 -97
28 -37 -3z"/>
<path d="M2193 1302 c-32 -15 -59 -60 -50 -84 4 -9 6 -7 6 4 1 23 48 58 78 58
27 0 83 -50 83 -74 0 -21 -22 -66 -32 -66 -5 0 -4 9 2 19 22 43 4 80 -47 95
-27 8 -73 -32 -72 -61 0 -15 2 -14 9 4 14 34 40 44 72 27 30 -15 36 -41 17
-76 -14 -26 -7 -31 24 -17 29 13 58 65 52 94 -2 11 -4 23 -4 27 -2 12 -51 58
-64 59 -7 0 -19 2 -27 3 -8 2 -29 -4 -47 -12z"/>
<path d="M1203 1209 c-28 -10 -30 -44 -4 -59 34 -18 68 10 55 44 -8 20 -25 25
-51 15z"/>
<path d="M2198 1209 c-24 -13 -23 -46 1 -59 41 -21 81 28 44 55 -22 17 -23 17
-45 4z"/>
<path d="M1373 1109 c-71 -20 -100 -126 -50 -184 24 -29 76 -44 122 -35 24 4
30 11 32 33 2 24 -1 26 -23 21 -39 -10 -71 3 -82 33 -18 54 24 98 79 83 26 -8
28 -6 27 21 -1 16 -6 30 -12 30 -6 1 -22 2 -36 4 -14 1 -39 -2 -57 -6z"/>
<path d="M1611 1097 c-18 -19 -21 -19 -21 -4 0 13 -8 17 -33 17 l-33 0 -1
-110 0 -110 33 0 34 0 1 60 c1 33 2 65 3 71 2 18 39 39 59 33 16 -5 18 -1 15
27 -5 39 -27 45 -57 16z"/>
<path d="M1753 1105 c-80 -34 -91 -153 -18 -201 33 -22 107 -21 141 1 62 40
64 155 5 192 -31 19 -94 23 -128 8z m98 -68 c0 -7 2 -21 4 -32 6 -29 -22 -65
-49 -65 -60 0 -70 98 -13 119 24 10 57 -3 58 -22z"/>
<path d="M2020 1102 c-39 -19 -61 -55 -62 -103 -1 -65 35 -105 104 -112 50 -6
78 8 78 37 0 22 -3 24 -34 19 -52 -8 -76 10 -76 58 0 36 4 41 32 53 21 9 40
11 55 5 20 -7 23 -5 23 16 0 13 -6 27 -12 32 -21 13 -77 10 -108 -5z"/>
<path d="M2351 1110 c-13 -3 -33 -17 -43 -31 -28 -37 -11 -74 47 -99 25 -11
45 -24 45 -29 0 -17 -49 -25 -76 -12 -32 14 -31 15 -29 -16 1 -31 27 -42 85
-36 46 5 76 26 82 57 7 34 -16 64 -63 83 -50 20 -45 39 10 36 37 -2 41 0 41
23 0 13 -3 25 -7 25 -31 5 -72 4 -92 -1z"/>
<path d="M1187 1103 c-2 -5 -3 -53 -3 -108 l1 -100 33 -3 c35 -4 34 -8 34 118
0 101 0 100 -31 100 -17 0 -32 -3 -34 -7z"/>
<path d="M2184 1003 l1 -108 33 -3 32 -3 0 110 0 111 -33 0 -33 0 0 -107z"/>
</g>
</svg>
